<?xml version="1.0" standalone="no"?>
<!DOCTYPE svg PUBLIC "-//W3C//DTD SVG 1.1//EN" "http://www.w3.org/Graphics/SVG/1.1/DTD/svg11.dtd" >
<svg xmlns="http://www.w3.org/2000/svg">
<metadata></metadata>
<defs>
<font id="psl_text_proregular" horiz-adv-x="0" >
<font-face units-per-em="2048" ascent="1638" descent="-410" />
<missing-glyph horiz-adv-x="532" />
<glyph unicode="&#xe37;&#xe48;" d="M-698 948q0 56 20 103t56 81t85 53t107 19q22 0 42.5 -1.5t39.5 -6.5v61h72v-83q17 -10 32 -19.5t29 -21.5v124h102v-356q-54 26 -126 39.5t-150.5 17.5t-158.5 0.5t-150 -10.5zM-592 1026q37 9 88 12t103.5 0.5t101.5 -10.5t84 -22q-10 24 -28.5 45t-45 37.5t-61.5 26 t-78 9.5q-63 0 -106.5 -26.5t-57.5 -71.5zM-285 1319v246h103v-246h-103z" />
<glyph unicode="&#xd;" horiz-adv-x="532" />
<glyph unicode=" "  horiz-adv-x="532" />
<glyph unicode="&#x09;" horiz-adv-x="532" />
<glyph unicode="&#xa0;" horiz-adv-x="532" />
<glyph unicode="!" horiz-adv-x="350" d="M100 0v154h150v-154h-150zM111 688v277h129v-277l-31 -436h-68z" />
<glyph unicode="&#x22;" horiz-adv-x="575" d="M141 608v357h97v-357h-97zM338 608v357h96v-357h-96z" />
<glyph unicode="#" horiz-adv-x="737" d="M41 279v92h145l29 202h-139v93h151l37 276h92l-39 -276h164l39 276h92l-39 -276h123v-93h-135l-26 -202h122v-92h-137l-39 -279h-90l39 279h-166l-37 -279h-92l37 279h-131zM279 371h163l27 202h-164z" />
<glyph unicode="$" horiz-adv-x="737" d="M33 299h114q1 -45 15.5 -82t39 -64t58.5 -44t74 -23v356q-71 18 -122.5 39t-85.5 51t-50.5 71.5t-16.5 101.5q0 61 21.5 111.5t58.5 87.5t87 58.5t108 24.5v111h72v-111q54 -7 99 -29t79 -56.5t55 -81t27 -101.5h-113q-12 66 -49.5 105.5t-97.5 52.5v-334 q40 -9 90.5 -25.5t94 -47t73.5 -79t30 -121.5q0 -65 -21.5 -117t-60 -89.5t-91 -59.5t-115.5 -27v-110h-72v110q-66 6 -120 31t-93 66.5t-61.5 98t-26.5 126.5zM180 717q0 -36 11.5 -61t32 -42.5t48.5 -29t62 -21.5v318q-32 -4 -60 -16t-49 -32.5t-33 -49t-12 -66.5zM406 86 q37 3 68 14t53.5 31.5t35 51.5t12.5 75q0 38 -13 65t-35.5 45.5t-53.5 31.5t-67 24v-338z" />
<glyph unicode="%" horiz-adv-x="1161" d="M41 684q0 54 10 104t35 87.5t66.5 60t103.5 22.5q61 0 101.5 -21.5t65 -58t34.5 -86t10 -104.5q0 -53 -11.5 -102t-37 -87t-65.5 -60.5t-97 -22.5q-61 0 -102 21.5t-66 58t-36 85.5t-11 103zM139 686q0 -29 3.5 -63t15.5 -63t34 -48.5t60 -19.5q37 0 60 19t36 47.5t17 63 t4 66.5q0 30 -4 64.5t-16 64t-34 49t-59 19.5t-60 -19.5t-35.5 -49t-17 -64.5t-4.5 -66zM168 -31l711 1008h112l-710 -1008h-113zM694 252q0 54 10.5 103.5t35.5 87.5t66 60.5t103 22.5q61 0 102 -21.5t65 -58.5t34 -86t10 -104q0 -53 -11.5 -102t-36.5 -87t-65 -60.5 t-98 -22.5q-60 0 -101 21t-66.5 57.5t-36.5 85t-11 104.5zM793 254q0 -29 3.5 -63.5t15 -64t33.5 -49.5t60 -20t61 19.5t35.5 48.5t16.5 64t4 67q0 30 -3.5 64t-15.5 63.5t-34.5 48.5t-59.5 19t-59.5 -19.5t-35 -48.5t-17 -63.5t-4.5 -65.5z" />
<glyph unicode="&#x26;" horiz-adv-x="836" d="M45 248q0 57 17.5 100.5t47.5 78t69.5 61.5t84.5 51q-19 29 -37.5 54t-33.5 51.5t-24 55.5t-9 66q0 40 14.5 76t41.5 63.5t66.5 43.5t90.5 16q45 0 86 -12.5t73 -37t51 -61.5t19 -86q0 -43 -15 -80t-39.5 -68t-56 -56.5t-65.5 -45.5l170 -213q28 72 31 150h108 q-5 -70 -17.5 -127.5t-41.5 -114.5l178 -213h-147l-95 117q-21 -33 -51.5 -58t-66 -41.5t-74.5 -25t-76 -8.5q-64 0 -111 14t-80.5 36.5t-54 51.5t-32.5 58t-16.5 56.5t-4.5 47.5zM162 248q0 -36 15 -66t40 -51t58 -33t69 -12q66 0 116 30.5t85 84.5l-217 266 q-33 -19 -63 -39t-53 -45.5t-36.5 -58t-13.5 -76.5zM272 762q0 -23 8.5 -44.5t22 -42.5t29.5 -41.5t30 -39.5q22 13 44.5 29.5t41 37t30 45.5t11.5 56q0 42 -28 72t-80 30q-19 0 -38.5 -6t-35 -19t-25.5 -32t-10 -45z" />
<glyph unicode="'" horiz-adv-x="375" d="M139 608v357h97v-357h-97z" />
<glyph unicode="(" horiz-adv-x="432" d="M104 410q0 79 14 161t41.5 162.5t68.5 157.5t94 145h84q-98 -152 -139.5 -306.5t-41.5 -319.5q0 -86 10 -165.5t31.5 -156t56 -152t83.5 -153.5h-84q-51 76 -91.5 150.5t-68.5 151t-43 156.5t-15 169z" />
<glyph unicode=")" horiz-adv-x="432" d="M27 -217q48 78 82.5 153.5t56 152t31.5 156t10 165.5q0 166 -41.5 319.5t-138.5 306.5h84q53 -68 93.5 -145t68 -157.5t41.5 -162.5t14 -161q0 -88 -15 -168.5t-42.5 -157t-68 -151t-91.5 -150.5h-84z" />
<glyph unicode="*" horiz-adv-x="518" d="M41 795l31 88l149 -70l-10 164h94l-10 -164l151 70l33 -88l-155 -45l100 -125l-74 -56l-90 148l-84 -148l-82 56l105 125z" />
<glyph unicode="+" horiz-adv-x="737" d="M41 297v90h283v283h90v-283h282v-90h-282v-283h-90v283h-283z" />
<glyph unicode="," horiz-adv-x="307" d="M72 61q0 34 24 58t58 24q37 0 61.5 -26t26.5 -68q1 -32 -6.5 -62.5t-21.5 -57.5t-34.5 -50t-44.5 -39l-49 31q35 26 55.5 54.5t26.5 56.5q-6 -2 -14 -2q-34 0 -58 23.5t-24 57.5z" />
<glyph unicode="-" horiz-adv-x="526" d="M68 338v82h391v-82h-391z" />
<glyph unicode="." horiz-adv-x="307" d="M72 72q0 34 24 58t58 24t58 -24t24 -58t-24 -58t-58 -24t-58 24t-24 58z" />
<glyph unicode="/" horiz-adv-x="471" d="M-14 -23l399 1010h100l-401 -1010h-98z" />
<glyph unicode="0" horiz-adv-x="737" d="M49 475q0 245 80.5 368.5t239.5 123.5t239 -123.5t80 -368.5t-80 -368t-239 -123t-239.5 123t-80.5 368zM162 475q0 -92 10.5 -165.5t34.5 -124.5t63.5 -78t98.5 -27q58 0 97.5 27t63.5 78t34.5 124.5t10.5 165.5t-10.5 165.5t-34.5 124.5t-63.5 78t-97.5 27 q-59 0 -98.5 -27t-63.5 -78t-34.5 -124.5t-10.5 -165.5z" />
<glyph unicode="1" horiz-adv-x="737" d="M115 692v84q49 0 95 12t82.5 35.5t60 59t28.5 82.5h90v-965h-106v692h-250z" />
<glyph unicode="2" horiz-adv-x="737" d="M31 0q1 75 24 132t59.5 101t82.5 78.5t94 65.5t93.5 61.5t81 65.5t57.5 78.5t22 101.5q0 37 -13 71t-37 59.5t-58.5 40.5t-76.5 15q-48 0 -84.5 -20t-62 -53.5t-38.5 -78t-13 -93.5h-105q-6 67 15.5 129t63 108.5t99.5 74.5t125 28q63 0 117.5 -21t94 -58.5t62.5 -89.5 t23 -114t-19 -110t-50 -86t-72 -68.5t-84.5 -58t-87.5 -54t-81 -57.5t-65 -68.5t-40 -85.5h489v-94h-616z" />
<glyph unicode="3" horiz-adv-x="737" d="M37 291h104q1 -46 16.5 -85.5t43 -68t66 -45t85.5 -16.5q43 0 82 14t68 39.5t46 60.5t17 76q0 51 -22 90t-59.5 63.5t-87 33.5t-103.5 0v92q48 -3 90 5t73.5 28t49.5 52.5t18 78.5q0 37 -14 66.5t-37.5 50.5t-55 32.5t-65.5 11.5q-42 0 -76.5 -16.5t-59.5 -45t-38.5 -68 t-13.5 -85.5h-105q0 70 23 127.5t63 98t93.5 62.5t115.5 22q61 0 113.5 -18t90.5 -51t59.5 -78.5t21.5 -100.5q0 -72 -35 -123.5t-98 -85.5q37 -10 68.5 -30t55 -50t37 -70.5t13.5 -91.5q0 -65 -25.5 -117.5t-70 -89t-105 -56t-129.5 -19.5q-68 0 -126 21t-100 61 t-65.5 96.5t-21.5 128.5z" />
<glyph unicode="4" horiz-adv-x="737" d="M35 225v105l426 635h98v-643h127v-97h-127v-225h-104v225h-420zM145 322h310v469z" />
<glyph unicode="5" horiz-adv-x="737" d="M45 252h105q12 -85 67.5 -129.5t142.5 -44.5q49 0 87.5 19t64.5 51.5t39.5 76t13.5 92.5q0 47 -16.5 87.5t-45 70.5t-67.5 47t-84 17q-25 0 -52 -6t-52 -18t-47 -30t-37 -41l-92 19l88 489h465v-96h-385l-54 -287q42 31 86.5 47.5t104.5 16.5q64 0 119 -22.5t96 -63.5 t64.5 -100t23.5 -132t-23 -133.5t-65.5 -104.5t-102.5 -68.5t-135 -24.5q-62 0 -116.5 17.5t-96.5 51.5t-67.5 84t-28.5 115z" />
<glyph unicode="6" horiz-adv-x="737" d="M47 455q0 98 18.5 190.5t59.5 164t106.5 114.5t159.5 43q58 0 106.5 -16t84 -47.5t56.5 -77.5t24 -107h-105q-2 37 -16.5 65.5t-37 48t-51 29.5t-59.5 10q-47 0 -83.5 -18t-63 -48t-44.5 -69.5t-28.5 -82.5t-15 -87t-4.5 -82q13 21 36 44t54.5 41.5t70 31t82.5 12.5 q72 0 127 -24.5t92.5 -67.5t56.5 -100.5t19 -124.5q0 -65 -21.5 -121.5t-61.5 -99.5t-98.5 -67.5t-131.5 -24.5q-174 0 -253 121t-79 350zM180 299q0 -48 14.5 -89t41 -70t63.5 -45.5t82 -16.5t81.5 16.5t62.5 45.5t40.5 70t14.5 89t-14.5 88.5t-40.5 69.5t-62.5 45 t-81.5 16t-82 -16t-63.5 -45t-41 -69.5t-14.5 -88.5z" />
<glyph unicode="7" horiz-adv-x="737" d="M66 850v102h614v-102q-98 -102 -165.5 -217t-111 -228t-65 -218t-27.5 -187h-123q8 95 32 198.5t69 211.5t113 218.5t165 221.5h-501z" />
<glyph unicode="8" horiz-adv-x="737" d="M47 268q0 88 47.5 150.5t128.5 97.5q-69 34 -104 85.5t-35 117.5q0 54 22.5 99.5t61 78.5t90.5 51.5t111 18.5q58 0 110 -18.5t90.5 -51.5t61 -78.5t22.5 -99.5q0 -32 -11 -63t-29.5 -57.5t-44 -48t-54.5 -34.5q86 -29 131 -95.5t45 -152.5q0 -65 -25 -117.5t-68.5 -89.5 t-102 -57t-125.5 -20q-68 0 -126.5 20t-102 57t-68.5 89.5t-25 117.5zM164 268q0 -41 16 -76t44 -60.5t65.5 -39.5t79.5 -14t79 14t65 39.5t44 60.5t16 76q0 42 -16 77t-44 60.5t-65 39.5t-79 14t-79.5 -14t-65.5 -39.5t-44 -60.5t-16 -77zM197 711q0 -36 13.5 -65.5 t37 -50.5t54.5 -32.5t67 -11.5q35 0 66.5 11.5t55 32.5t37 50.5t13.5 65.5t-13.5 65.5t-37 50t-55 32t-66.5 11.5q-36 0 -67 -11.5t-54.5 -32t-37 -50t-13.5 -65.5z" />
<glyph unicode="9" horiz-adv-x="737" d="M41 653q0 64 21.5 121.5t61.5 100t98 67.5t132 25q87 0 149.5 -31.5t103 -91.5t60 -148t19.5 -200q0 -113 -18.5 -207t-59.5 -162t-106.5 -105.5t-159.5 -37.5q-59 0 -108 15.5t-86 46.5t-59 77t-26 108h105q2 -37 17 -65.5t38.5 -48t53.5 -29.5t63 -10q48 0 84.5 16.5 t63 45.5t44 67t28 81t15 88.5t5.5 88.5q-13 -21 -36.5 -43.5t-55 -41.5t-70.5 -31.5t-82 -12.5q-72 0 -127 24.5t-92.5 67t-56.5 100.5t-19 125zM154 651q0 -48 14 -88.5t40 -69.5t62.5 -45t81.5 -16t82 16t63.5 45t41 69.5t14.5 88.5t-14.5 89t-41 70t-63.5 45.5t-82 16.5 t-81.5 -16.5t-62.5 -45.5t-40 -70t-14 -89z" />
<glyph unicode=":" horiz-adv-x="307" d="M72 72q0 34 24 58t58 24t58 -24t24 -58t-24 -58t-58 -24t-58 24t-24 58zM72 627q0 34 24 58t58 24t58 -24t24 -58t-24 -58t-58 -24t-58 24t-24 58z" />
<glyph unicode=";" horiz-adv-x="307" d="M72 61q0 34 24 58t58 24q37 0 61.5 -26t26.5 -68q1 -32 -6.5 -62.5t-21.5 -57.5t-34.5 -50t-44.5 -39l-49 31q35 26 55.5 54.5t26.5 56.5q-6 -2 -14 -2q-34 0 -58 23.5t-24 57.5zM72 627q0 34 24 58t58 24t58 -24t24 -58t-24 -58t-58 -24t-58 24t-24 58z" />
<glyph unicode="&#x3c;" horiz-adv-x="737" d="M55 301v82l627 311v-92l-524 -260l524 -260v-92z" />
<glyph unicode="=" horiz-adv-x="737" d="M41 180v92h664v-92h-664zM41 412v92h664v-92h-664z" />
<glyph unicode="&#x3e;" horiz-adv-x="737" d="M55 -10v92l525 260l-525 260v92l627 -311v-82z" />
<glyph unicode="?" horiz-adv-x="752" d="M74 664q-1 69 19.5 128t60 102.5t96 68t127.5 24.5q62 0 114.5 -18.5t90.5 -53t59 -84.5t21 -114q0 -56 -17.5 -97t-43.5 -73.5t-56 -60.5t-56 -56.5t-43.5 -62.5t-17.5 -78v-53h-115v63q0 54 17 92t42 68.5t55 56.5t55 55.5t42 66t17 87.5q0 37 -12 67t-34 51t-52 32.5 t-66 11.5q-48 0 -84 -17.5t-59 -47.5t-34.5 -71t-11.5 -87h-114zM291 70q0 34 23 57t57 23t57 -23t23 -57t-23 -57t-57 -23t-57 23t-23 57z" />
<glyph unicode="@" horiz-adv-x="1081" d="M59 483q0 105 40 196.5t108.5 160t160 108t195.5 39.5q89 0 172 -29.5t146.5 -84t102 -131.5t38.5 -171q0 -88 -31.5 -160t-78.5 -123.5t-102 -79.5t-103 -28q-36 0 -60.5 21.5t-28.5 66.5h-4q-15 -18 -33.5 -34.5t-40 -29t-45.5 -20.5t-49 -8q-43 0 -78 17t-60.5 46 t-39.5 68t-14 84q0 70 23 138.5t64.5 123t100 88t129.5 33.5q49 0 91.5 -26.5t60.5 -83.5l29 86h88l-115 -385q-6 -20 -10 -40t-3 -36t8 -25.5t23 -9.5q31 0 67 25.5t67 68t52 96.5t21 111q0 73 -28.5 138.5t-79.5 114.5t-122.5 78t-156.5 29q-89 0 -167.5 -34t-137.5 -92.5 t-93 -137.5t-34 -168t34 -167.5t93 -137.5t137.5 -93t167.5 -34q103 0 191.5 44.5t148.5 119.5h88q-33 -54 -78.5 -97t-101 -74t-118.5 -47.5t-130 -16.5q-104 0 -196 39.5t-160.5 107.5t-108 160t-39.5 196zM356 399q0 -28 8.5 -52t23.5 -41.5t36 -27.5t47 -10 q45 0 83.5 29.5t67 73.5t44.5 94t16 92q0 25 -9 47.5t-24.5 39.5t-35.5 27.5t-42 10.5q-48 0 -87.5 -27.5t-68 -69.5t-44 -91.5t-15.5 -94.5z" />
<glyph unicode="A" horiz-adv-x="858" d="M-10 0l370 965h140l368 -965h-137l-104 291h-400l-106 -291h-131zM266 399h320l-156 445h-2z" />
<glyph unicode="B" horiz-adv-x="907" d="M102 0v965h404q82 0 140 -17t94 -48.5t52.5 -76t16.5 -98.5q0 -75 -37.5 -130t-103.5 -83v-2q88 -19 134 -81.5t46 -156.5q0 -53 -19 -102t-56 -87t-92 -60.5t-126 -22.5h-453zM229 109h306q88 0 138 44.5t50 122.5q0 48 -16.5 79.5t-44.5 51t-66 27.5t-80 8h-287v-333z M229 551h263q105 0 147.5 41.5t42.5 124.5q0 45 -17 72.5t-45.5 42.5t-64.5 19.5t-74 4.5h-252v-305z" />
<glyph unicode="C" horiz-adv-x="956" d="M55 483q0 105 30 197t87 160.5t138.5 107.5t185.5 39q77 0 145.5 -20t121.5 -59.5t87 -99t43 -138.5h-125q-9 53 -33 92.5t-59.5 66t-81.5 39.5t-98 13q-81 0 -140.5 -33.5t-98 -89t-57 -127.5t-18.5 -148q0 -85 20.5 -157.5t60.5 -126t97.5 -83.5t131.5 -30q70 0 121 21 t85.5 58.5t53 88.5t24.5 111h127q-9 -91 -40 -163t-83 -122t-124.5 -76.5t-163.5 -26.5q-110 0 -192 39t-136.5 107t-81.5 160.5t-27 199.5z" />
<glyph unicode="D" horiz-adv-x="934" d="M102 0v965h328q230 0 341.5 -118.5t111.5 -365.5q0 -106 -26 -194.5t-81 -152t-141 -99t-205 -35.5h-328zM229 109h201q22 0 54.5 3t68.5 15t72.5 35.5t65.5 65t47 104t18 151.5q0 86 -15.5 155t-53 117.5t-100.5 74.5t-157 26h-201v-747z" />
<glyph unicode="E" horiz-adv-x="805" d="M102 0v965h650v-109h-523v-305h482v-109h-482v-333h527v-109h-654z" />
<glyph unicode="F" horiz-adv-x="756" d="M102 0v965h619v-109h-492v-305h439v-109h-439v-442h-127z" />
<glyph unicode="G" horiz-adv-x="1006" d="M55 475q0 103 29.5 196t87 163t142 111.5t194.5 41.5q76 0 144.5 -18t122.5 -57t90 -99.5t48 -144.5h-125q-8 55 -33 95t-62.5 66.5t-85 39t-99.5 12.5q-84 0 -145.5 -34.5t-101.5 -91t-59.5 -129.5t-19.5 -151q0 -77 21.5 -147.5t62.5 -124t102 -85.5t140 -32 q73 0 130 24.5t96 67t58 99.5q17 49 17 105v17h-305v109h420v-508h-80l-33 121q-27 -39 -62 -66t-75 -44.5t-82.5 -25.5t-83.5 -8q-108 0 -192.5 41.5t-142.5 110.5t-88 159t-30 187z" />
<glyph unicode="H" horiz-adv-x="952" d="M102 0v965h127v-414h494v414h125v-965h-125v442h-494v-442h-127z" />
<glyph unicode="I" horiz-adv-x="348" d="M111 0v965h127v-965h-127z" />
<glyph unicode="J" horiz-adv-x="690" d="M29 254v57h123v-39q0 -41 7 -75.5t25 -59t48 -38t75 -13.5q42 0 71.5 10.5t48 34t26.5 60t8 88.5v686h127v-707q0 -281 -281 -281q-135 0 -206.5 70t-71.5 207z" />
<glyph unicode="K" horiz-adv-x="877" d="M102 0v965h127v-482l467 482h162l-389 -398l412 -567h-152l-346 483l-154 -157v-326h-127z" />
<glyph unicode="L" horiz-adv-x="729" d="M102 0v965h127v-856h494v-109h-621z" />
<glyph unicode="M" horiz-adv-x="1149" d="M106 0v965h173l292 -801h4l295 801h174v-965h-118v795h-4l-295 -795h-107l-291 795h-4v-795h-119z" />
<glyph unicode="N" horiz-adv-x="956" d="M102 0v965h134l499 -781h2v781h117v-965h-135l-494 772h-4v-772h-119z" />
<glyph unicode="O" horiz-adv-x="1004" d="M45 483q0 98 29 189t86 161t142.5 112t199.5 42t199 -42t141.5 -112t85 -161t28.5 -189t-28.5 -189.5t-85 -162t-141.5 -112.5t-199 -42t-199.5 42t-142.5 112.5t-86 162t-29 189.5zM172 483q0 -73 18.5 -144t58.5 -127.5t102.5 -91t150.5 -34.5q87 0 149 34.5t101.5 91 t58 127.5t18.5 144t-18.5 144.5t-58 127.5t-101.5 91t-149 35q-88 0 -150.5 -35t-102.5 -91t-58.5 -127.5t-18.5 -144.5z" />
<glyph unicode="P" horiz-adv-x="856" d="M102 0v965h396q82 0 141 -20t96.5 -57t55.5 -90t18 -120q0 -66 -18 -119t-55.5 -90.5t-96.5 -57.5t-141 -20h-269v-391h-127zM229 500h226q122 0 174.5 43t52.5 135q0 91 -52.5 134.5t-174.5 43.5h-226v-356z" />
<glyph unicode="Q" horiz-adv-x="1004" d="M45 483q0 98 29 189t86 161t142.5 112t199.5 42t199 -42t141.5 -112t85 -161t28.5 -189q0 -112 -35.5 -211t-107.5 -172l117 -96l-64 -82l-137 113q-48 -28 -104.5 -43t-122.5 -15q-114 0 -199.5 42t-142.5 112.5t-86 162t-29 189.5zM172 483q0 -73 18.5 -144 t58.5 -127.5t102.5 -91t150.5 -34.5q38 0 71 7t62 20l-98 80l65 79l121 -98q57 60 82.5 141t25.5 168q0 73 -18.5 144.5t-58.5 127.5t-102.5 91t-149.5 35q-88 0 -150.5 -35t-102.5 -91t-58.5 -127.5t-18.5 -144.5z" />
<glyph unicode="R" horiz-adv-x="903" d="M102 0v965h437q76 0 131 -19.5t91 -54.5t53 -83t17 -106q0 -36 -9 -72.5t-28.5 -68.5t-49.5 -57t-72 -37v-2q40 -9 65.5 -29t40.5 -47.5t21.5 -60t9.5 -66.5q3 -35 5 -71t7 -70.5t14.5 -65t28.5 -55.5h-139q-14 15 -20.5 42.5t-9 60t-3 67t-2.5 63.5q-3 36 -10 68t-24 57 t-48 39.5t-82 14.5h-297v-412h-127zM229 520h252q46 0 87 7t72 26t49 52.5t18 86.5q0 35 -10 65t-31 52t-54.5 34.5t-79.5 12.5h-303v-336z" />
<glyph unicode="S" horiz-adv-x="858" d="M49 317h119q0 -60 23 -103.5t60.5 -72t86.5 -42t100 -13.5q42 0 86 8t79.5 27.5t58 52t22.5 80.5t-22 79.5t-62 53t-96 36t-123 28.5q-57 11 -111.5 27.5t-97 45t-68.5 71.5t-26 107q0 73 28 126.5t76 89t110.5 52.5t131.5 17q71 0 132 -17.5t107 -54t73.5 -94 t31.5 -137.5h-117q-4 52 -23.5 89.5t-50 61.5t-70.5 35t-85 11t-85 -10.5t-69 -31.5t-46 -51t-17 -69q0 -47 25.5 -75t67.5 -46t96.5 -29.5t113.5 -25.5q57 -13 111 -30.5t96 -49.5t68 -82t26 -127q0 -72 -30 -124.5t-81.5 -86.5t-119.5 -50t-144 -16q-78 0 -147.5 20.5 t-122.5 62.5t-84 106t-31 151z" />
<glyph unicode="T" horiz-adv-x="754" d="M2 856v109h750v-109h-312v-856h-127v856h-311z" />
<glyph unicode="U" horiz-adv-x="961" d="M98 360v605h127v-605q0 -141 69 -207.5t193 -66.5q120 0 185 66.5t65 207.5v605h125v-605q0 -103 -27 -175.5t-76 -118.5t-118 -67.5t-154 -21.5q-91 0 -163 21.5t-122.5 67.5t-77 118.5t-26.5 175.5z" />
<glyph unicode="V" horiz-adv-x="809" d="M-4 965h137l273 -826h2l274 826h133l-340 -965h-141z" />
<glyph unicode="W" horiz-adv-x="1223" d="M16 965h129l185 -791h4l211 791h135l211 -791h4l184 791h129l-241 -965h-131l-224 801h-4l-219 -801h-131z" />
<glyph unicode="X" horiz-adv-x="805" d="M-2 0l330 496l-310 469h150l235 -371l236 371h149l-309 -469l330 -496h-143l-263 393l-262 -393h-143z" />
<glyph unicode="Y" horiz-adv-x="858" d="M2 965h150l276 -453h4l277 453h149l-364 -570v-395h-127v395z" />
<glyph unicode="Z" horiz-adv-x="809" d="M31 0v109l596 747h-557v109h702v-109l-594 -747h602v-109h-749z" />
<glyph unicode="[" horiz-adv-x="369" d="M98 -217v1253h250v-90h-143v-1071h143v-92h-250z" />
<glyph unicode="\" horiz-adv-x="451" d="M-25 987h99l401 -1010h-100z" />
<glyph unicode="]" horiz-adv-x="369" d="M20 -125h144v1071h-144v90h250v-1253h-250v92z" />
<glyph unicode="^" horiz-adv-x="737" d="M61 356l269 586h78l268 -586h-88l-217 488h-4l-217 -488h-89z" />
<glyph unicode="_" horiz-adv-x="737" d="M0 -102h737v-91h-737v91z" />
<glyph unicode="`" horiz-adv-x="301" d="M-31 987h148l116 -192h-88z" />
<glyph unicode="a" horiz-adv-x="711" d="M49 180q0 60 20 99t52 62.5t73.5 35.5t84.5 18q46 7 88 12t74 15t50.5 28t18.5 52q0 37 -14.5 59.5t-37.5 34t-51.5 15t-56.5 3.5q-33 0 -61.5 -6.5t-50 -21.5t-35.5 -40.5t-17 -64.5h-112q2 64 26.5 109t63.5 72.5t89 40t103 12.5q56 0 105 -9.5t85 -33t56.5 -64.5 t20.5 -104v-330v-37t2.5 -27.5t9 -17.5t20.5 -6q19 0 28 3l9 3v-90q-12 -8 -36 -13t-50 -5q-42 0 -66 25.5t-24 82.5q-43 -52 -102.5 -80t-134.5 -28q-47 0 -88.5 11.5t-73 35.5t-50 61t-18.5 88zM166 188q0 -49 31.5 -75.5t97.5 -26.5q55 0 95.5 16t66.5 40.5t38.5 53 t12.5 54.5v110q-15 -11 -38.5 -18.5t-51.5 -12.5t-58 -8.5t-57 -7.5q-28 -4 -53 -12t-43.5 -22.5t-29.5 -36.5t-11 -54z" />
<glyph unicode="b" horiz-adv-x="784" d="M88 0v965h113v-353h4q34 54 91.5 78.5t129.5 24.5q77 0 135.5 -29.5t98 -79.5t59.5 -116.5t20 -139.5q0 -74 -19.5 -140.5t-58.5 -116.5t-98 -79.5t-137 -29.5q-27 0 -57.5 5.5t-60 17.5t-56.5 32t-47 49h-4v-88h-113zM197 350q0 -51 12 -99t38 -84.5t67 -58.5t100 -22 q55 0 94 21.5t63.5 58t35.5 84t11 100.5q0 51 -12.5 99t-38 84.5t-64 58.5t-89.5 22q-61 0 -102.5 -23t-67 -60t-36.5 -84.5t-11 -96.5z" />
<glyph unicode="c" horiz-adv-x="711" d="M49 348q0 77 19.5 144t60 116.5t102.5 78t148 28.5q54 0 104 -15t89 -45t64.5 -76t29.5 -108h-115q-12 69 -56 105t-116 36q-58 0 -98.5 -21.5t-66 -58t-37 -84.5t-11.5 -100q0 -48 10.5 -95t34.5 -84t63 -60t95 -23q40 0 73 13t56.5 35.5t38 53.5t18.5 68h115 q-6 -62 -29.5 -112t-62 -85.5t-91.5 -55t-118 -19.5q-76 0 -135.5 25t-100.5 72.5t-62.5 115t-21.5 151.5z" />
<glyph unicode="d" horiz-adv-x="784" d="M49 350q0 73 19 139.5t57.5 116.5t96.5 79.5t136 29.5q70 0 130.5 -25t91.5 -82h4v357h112v-965h-112v90h-4q-16 -32 -42.5 -52.5t-57.5 -32.5t-63 -16.5t-59 -4.5q-76 0 -133.5 29.5t-96.5 79.5t-59 116.5t-20 140.5zM166 350q0 -51 12.5 -99t38 -84.5t64 -58.5 t90.5 -22q60 0 101.5 22t67 58.5t37 84.5t11.5 99q0 49 -11.5 96.5t-37 84.5t-67 60t-101.5 23q-54 0 -93 -22.5t-63.5 -59t-36.5 -84t-12 -98.5z" />
<glyph unicode="e" horiz-adv-x="711" d="M49 350q0 79 23.5 146t66 115.5t101 76t129.5 27.5q91 0 152.5 -36t98 -93.5t50.5 -129.5q11 -56 11 -110q0 -16 -1 -31h-514q0 -46 12.5 -87.5t38.5 -73t66 -50t96 -18.5q72 0 118 34.5t60 100.5h111q-22 -115 -98 -176t-191 -61q-83 0 -145 27t-103 75.5t-61.5 115.5 t-20.5 148zM168 416h393q-2 42 -17 78t-40.5 63t-59.5 42t-73 15q-46 0 -82.5 -16t-62 -43t-40.5 -63t-18 -76z" />
<glyph unicode="f" horiz-adv-x="391" d="M12 598v100h119v95q0 184 186 184q16 0 37.5 -4t38.5 -10v-101q-15 6 -33.5 9t-33.5 3q-42 0 -62 -18.5t-20 -69.5v-88h131v-100h-131v-598h-113v598h-119z" />
<glyph unicode="g" horiz-adv-x="760" d="M49 348q0 61 16 126.5t52.5 118.5t96.5 87.5t148 34.5q63 0 119 -26t86 -83h-2h4v92h107v-645q0 -78 -18.5 -141t-57 -106.5t-97 -67t-138.5 -23.5q-50 0 -101 10t-92 33.5t-68 63.5t-30 100h112q3 -33 19.5 -55t41 -35.5t53.5 -19t58 -5.5q110 0 160.5 66.5t50.5 189.5 v52h-4q-13 -32 -36 -55.5t-51.5 -38.5t-61 -22t-64.5 -7q-76 0 -132.5 28.5t-94.5 77.5t-57 113.5t-19 136.5zM166 360q0 -56 11 -104.5t35 -84.5t62.5 -56.5t94.5 -20.5q51 0 88 23t60.5 60.5t34.5 85t11 97.5q0 48 -10 94t-33 81.5t-60 57t-91 21.5t-92.5 -21t-63 -56 t-36 -81t-11.5 -96z" />
<glyph unicode="h" horiz-adv-x="741" d="M84 0v965h113v-359h4q15 28 39 49t52.5 34t59.5 19.5t60 6.5q71 0 118 -19t74.5 -53.5t39 -84t11.5 -109.5v-449h-110v463q0 75 -40.5 113t-109.5 38q-51 0 -88 -17t-61.5 -47.5t-36.5 -72.5t-12 -92v-385h-113z" />
<glyph unicode="i" horiz-adv-x="299" d="M94 0v698h113v-698h-113zM94 829v136h113v-136h-113z" />
<glyph unicode="j" horiz-adv-x="299" d="M-20 -158q21 -8 53 -8q35 0 48 25t13 82v757h113v-778q0 -97 -40 -142.5t-118 -45.5q-23 0 -40.5 2.5t-28.5 5.5v102zM94 829v136h113v-136h-113z" />
<glyph unicode="k" horiz-adv-x="684" d="M92 0v965h113v-572l301 307h151l-266 -260l293 -440h-139l-240 367l-100 -107v-260h-113z" />
<glyph unicode="l" horiz-adv-x="299" d="M94 0v965h113v-965h-113z" />
<glyph unicode="m" horiz-adv-x="1126" d="M84 0v698h106v-100h3q78 117 223 117q63 0 111 -26t71 -91h2q17 30 42.5 52t54.5 36.5t59.5 21.5t56.5 7q50 0 92 -11t72.5 -35.5t47.5 -65.5t17 -101v-502h-112v449q0 36 -5.5 66.5t-20.5 52t-41 34t-66 12.5q-82 0 -129 -48.5t-47 -139.5v-426h-115v449q0 38 -5.5 68.5 t-20 52t-39 33t-62.5 11.5q-49 0 -83.5 -20.5t-56.5 -50t-32 -61.5t-10 -56v-426h-113z" />
<glyph unicode="n" horiz-adv-x="741" d="M84 0v698h106v-108h3q37 63 95.5 94t133.5 31q123 0 178 -64t55 -184v-467h-110v463q0 32 -7 59.5t-23 48t-42 32t-63 11.5q-60 0 -101 -18t-65.5 -49.5t-35.5 -73t-11 -88.5v-385h-113z" />
<glyph unicode="o" horiz-adv-x="758" d="M43 348q0 78 21.5 145t63.5 116.5t104.5 77.5t144.5 28q83 0 146 -28t106 -77.5t64.5 -116.5t21.5 -145q0 -76 -21.5 -142.5t-64.5 -115.5t-106 -77.5t-146 -28.5q-82 0 -144.5 28.5t-104.5 77.5t-63.5 115.5t-21.5 142.5zM164 348q0 -63 16.5 -112t45.5 -82t67.5 -50.5 t83.5 -17.5t84.5 17.5t68.5 50.5t45.5 82t16.5 112q0 64 -16.5 113.5t-45.5 83.5t-68.5 51.5t-84.5 17.5t-83.5 -17.5t-67.5 -51.5t-45.5 -83.5t-16.5 -113.5z" />
<glyph unicode="p" horiz-adv-x="784" d="M88 -268v966h113v-90h4q32 54 90.5 80.5t130.5 26.5q78 0 137 -29.5t98 -80t58.5 -117t19.5 -140.5t-19.5 -140.5t-58.5 -116t-98 -78.5t-137 -29q-27 0 -58 4.5t-61 16.5t-57 32.5t-45 52.5h-4v-358h-113zM199 350q0 -51 12 -99t38 -84.5t67 -58.5t100 -22q57 0 96.5 23 t63.5 60.5t34.5 85t10.5 95.5q0 51 -13 99t-39 84.5t-65.5 58.5t-93.5 22q-58 0 -98 -23t-65 -60t-36.5 -84.5t-11.5 -96.5z" />
<glyph unicode="q" horiz-adv-x="784" d="M45 348q0 74 19.5 140.5t59 117t98 80t136.5 29.5q72 0 131 -26.5t91 -80.5h4v90h112v-966h-112v358h-4q-19 -32 -46 -52.5t-57 -32.5t-61 -16.5t-58 -4.5q-78 0 -136.5 29t-98 78.5t-59 116t-19.5 140.5zM164 350q0 -48 10.5 -95.5t34.5 -85t63 -60.5t97 -23t99 22 t67.5 58.5t38.5 84.5t12 99q0 49 -11.5 96.5t-36.5 84.5t-65.5 60t-97.5 23q-54 0 -93.5 -22t-66 -58.5t-39 -84.5t-12.5 -99z" />
<glyph unicode="r" horiz-adv-x="442" d="M80 0v698h113v-139h2q33 85 93 122q56 34 140 34h14v-121q-69 0 -116.5 -22t-77 -61t-42.5 -92.5t-13 -117.5v-301h-113z" />
<glyph unicode="s" horiz-adv-x="662" d="M41 221h117q1 -38 16 -64t39 -42t55.5 -22.5t65.5 -6.5q25 0 55 3.5t55.5 14.5t42.5 32t17 57q0 31 -19.5 51t-51 33.5t-72 22.5t-82.5 19q-42 9 -82 22t-71.5 35.5t-51 57t-19.5 86.5t24 89t61.5 60.5t84 34.5t90.5 11q56 0 104.5 -10.5t85.5 -36t59.5 -67.5t27.5 -105 h-113q-3 34 -17.5 56.5t-36.5 36t-49 19.5t-54 6q-29 0 -56 -5t-47.5 -16t-32.5 -29t-12 -44q0 -29 20 -47.5t52.5 -31t72.5 -21t80 -17.5q42 -10 82.5 -23t72 -35.5t50.5 -57t19 -86.5q0 -61 -26 -102.5t-68 -67t-94 -36.5t-103 -11q-58 0 -110.5 13t-92 41t-63.5 73 t-25 110z" />
<glyph unicode="t" horiz-adv-x="418" d="M12 598v100h117v211h113v-211h135v-100h-135v-414q0 -29 4 -47t15 -27t31.5 -11.5t53.5 -0.5l31 2v-100l-66 -2h-18q-43 0 -73 8q-36 10 -55.5 31.5t-27.5 55.5t-8 81v424h-117z" />
<glyph unicode="u" horiz-adv-x="737" d="M84 246v452h113v-467q0 -32 8 -58.5t25.5 -45.5t45.5 -30t68 -11q49 0 86 16.5t61.5 46.5t37 71t12.5 89v389h110v-698h-104v102h-2q-38 -63 -96.5 -90.5t-133.5 -27.5q-65 0 -109.5 19.5t-71.5 54t-38.5 82.5t-11.5 106z" />
<glyph unicode="v" horiz-adv-x="662" d="M16 698h127l187 -571h2l186 571h127l-254 -698h-121z" />
<glyph unicode="w" horiz-adv-x="1004" d="M23 698h124l154 -561h4l137 561h123l144 -561h2l153 561h117l-217 -698h-119l-141 545h-2l-140 -545h-118z" />
<glyph unicode="x" horiz-adv-x="680" d="M12 0l254 369l-235 329h143l166 -237l166 237h143l-235 -329l254 -369h-138l-190 283l-190 -283h-138z" />
<glyph unicode="y" horiz-adv-x="662" d="M10 698h127l201 -561h4l182 561h127l-291 -788q-21 -56 -40.5 -92.5t-42.5 -58.5t-51.5 -31t-67.5 -9q-19 0 -40.5 4.5t-41.5 10.5v106q6 -5 28 -11.5t43 -6.5q35 0 55 16t36 53l45 113z" />
<glyph unicode="z" horiz-adv-x="637" d="M31 0v100l426 498h-400v100h537v-100l-426 -498h438v-100h-575z" />
<glyph unicode="{" horiz-adv-x="438" d="M66 362v93q21 0 40.5 11.5t35 32.5t25 50.5t9.5 64.5v244q0 64 15 100t38 53.5t51 21t54 3.5h84v-82h-56q-43 0 -60 -24t-17 -86v-252q0 -48 -14 -81t-33 -54t-38.5 -31.5t-31.5 -13.5v-4q12 -2 31.5 -11t38.5 -30t33 -55.5t14 -86.5v-250q0 -61 16.5 -85.5t60.5 -24.5 h56v-82h-84q-26 0 -54 3.5t-51 21t-38 53t-15 100.5v244q0 37 -9.5 66t-25 49t-35 31t-40.5 11z" />
<glyph unicode="|" horiz-adv-x="297" d="M102 -23v1010h93v-1010h-93z" />
<glyph unicode="}" horiz-adv-x="438" d="M20 -135h56q45 0 61.5 24.5t16.5 85.5v250q0 52 14 86.5t33 55.5t38.5 30t30.5 11v4q-11 3 -30.5 13.5t-38.5 31.5t-33 54t-14 81v252q0 62 -17.5 86t-60.5 24h-56v82h84q26 0 54 -3.5t51 -21t38 -53.5t15 -100v-244q0 -35 9.5 -64.5t25 -50.5t35.5 -32.5t41 -11.5v-93 q-21 0 -41 -11t-35.5 -31t-25 -49t-9.5 -66v-244q0 -65 -15 -100.5t-38 -53t-51 -21t-54 -3.5h-84v82z" />
<glyph unicode="~" horiz-adv-x="774" d="M74 309q10 22 25 43t35.5 37.5t47 26.5t60.5 10q46 0 85 -15.5t73.5 -33.5t66 -33.5t63.5 -15.5q20 0 37.5 10t32 25t27 33.5t22.5 35.5l47 -67q-11 -20 -27 -40.5t-37 -37.5t-47 -28t-57 -11q-46 0 -81 15t-68 33t-66.5 33t-76.5 15q-23 0 -40.5 -10t-31.5 -25.5 t-24.5 -33.5t-18.5 -33z" />
<glyph unicode="&#xa4;" horiz-adv-x="840" d="M8 164l148 145q-62 83 -62 193q0 114 62 188l-148 150l76 71l145 -145q80 59 193 59q55 0 105.5 -16t82.5 -43l150 145l71 -71l-145 -150q59 -80 59 -188q0 -113 -59 -193l145 -145l-71 -76l-150 148q-15 -13 -36 -23.5t-47 -20.5q-53 -18 -105 -18q-110 0 -193 62 l-145 -148zM197 502q0 -94 63 -164q65 -68 162 -68q92 0 158 68q63 63 63 164q0 46 -16.5 87t-45.5 72t-70 49.5t-89 18.5q-96 0 -160 -67q-65 -74 -65 -160z" />
<glyph unicode="&#xa9;" horiz-adv-x="1081" d="M37 481q0 208 147 357q151 149 359 149q210 0 356 -149q150 -149 150 -357t-150 -358q-148 -148 -356 -148q-106 0 -194.5 36.5t-164.5 111.5q-147 150 -147 358zM111 481q0 -178 127 -305t305 -127t305 127t127 305t-127 305t-305 127t-305 -127t-127 -305zM279 485 q0 137 65 217q35 45 87 67t118 22q95 0 160 -50q74 -54 77 -149h-86q-21 119 -151 119q-180 0 -180 -226q0 -229 172 -229q146 0 161 143h89q-11 -101 -72 -159q-67 -64 -178 -64q-62 0 -111 21.5t-82.5 61.5t-51 97.5t-17.5 128.5z" />
<glyph unicode="&#xab;" horiz-adv-x="627" d="M68 315v121l204 162v-117l-135 -106l135 -105v-116zM332 315v121l207 162v-117l-136 -106l136 -105v-116z" />
<glyph unicode="&#xac;" horiz-adv-x="737" d="M35 297v90h666v-268h-82v178h-584z" />
<glyph unicode="&#xad;" horiz-adv-x="737" d="M41 297v90h655v-90h-655z" />
<glyph unicode="&#xae;" horiz-adv-x="1081" d="M37 481q0 208 147 357q151 149 359 149q210 0 356 -149q150 -149 150 -357t-150 -358q-148 -148 -356 -148q-106 0 -194.5 36.5t-164.5 111.5q-147 150 -147 358zM111 481q0 -178 127 -305t305 -127t305 127t127 305t-127 305t-305 127t-305 -127t-127 -305zM344 188v590 h229q207 0 207 -168q0 -143 -155 -161l168 -261h-103l-155 254h-103v-254h-88zM432 516h105q38 0 65.5 3t42.5 11q23 11 35 31.5t12 52.5q0 91 -129 91h-131v-189z" />
<glyph unicode="&#xb0;" horiz-adv-x="541" d="M66 713q0 40 15.5 77t42.5 64.5t63.5 44t78.5 16.5q43 0 80.5 -16t65 -43t43.5 -64t16 -79t-16 -79t-43.5 -64.5t-65 -43.5t-80.5 -16q-41 0 -77 15.5t-63.5 43t-43.5 64.5t-16 80zM121 713q0 -30 11.5 -57t31 -47t46 -32t56.5 -12q62 0 105 43q45 46 45 105 q0 30 -12 56.5t-32.5 46t-47.5 31t-58 11.5t-57.5 -11t-46 -30.5t-30.5 -46t-11 -57.5z" />
<glyph unicode="&#xb6;" horiz-adv-x="727" d="M0 858q0 153 94 229q90 66 248 66h389v-41h-102v-1356h-62v1356h-145v-1356h-55v805q-168 0 -263 62q-104 74 -104 235z" />
<glyph unicode="&#xb7;" horiz-adv-x="338" d="M96 449q0 30 20.5 50.5t53.5 20.5q31 0 51.5 -21.5t20.5 -49.5q0 -31 -21.5 -52.5t-50.5 -21.5q-33 0 -53.5 20.5t-20.5 53.5z" />
<glyph unicode="&#xbb;" horiz-adv-x="627" d="M88 154v116l135 105l-135 106v117l205 -162v-121zM352 154v116l135 105l-135 106v117l207 -162v-121z" />
<glyph unicode="&#xd7;" horiz-adv-x="737" d="M61 98l244 244l-244 244l64 63l244 -243l243 243l64 -63l-244 -244l244 -244l-64 -63l-243 244l-244 -244z" />
<glyph unicode="&#xf7;" horiz-adv-x="737" d="M41 297v90h655v-90h-655zM291 92q0 31 23.5 53.5t54.5 22.5q15 0 29 -6.5t24.5 -17t17 -24t6.5 -28.5t-6 -29t-16.5 -25t-24 -17.5t-28.5 -6.5q-16 0 -30.5 6.5t-25.5 17t-17.5 25t-6.5 29.5zM291 592q0 33 23.5 55.5t54.5 22.5t54 -23.5t23 -54.5q0 -15 -6 -28.5 t-16.5 -24t-24 -17t-28.5 -6.5q-16 0 -30.5 6t-25.5 16.5t-17.5 24.5t-6.5 29z" />
<glyph unicode="&#xe00;" horiz-adv-x="205" />
<glyph unicode="&#xe01;" horiz-adv-x="788" d="M59 657q57 85 139 132t191 47q58 0 110 -16t91.5 -47.5t62.5 -78.5t23 -110v-584h-103v586q0 42 -17 74t-44 53t-60.5 32t-66.5 11q-120 0 -195 -82q13 -6 30.5 -15t35.5 -20.5t35.5 -25t30.5 -27.5q-107 -38 -107 -144v-442h-102v444q0 54 26 92.5t60 49.5 q-15 11 -35 22t-40 20.5t-37.5 17t-27.5 11.5z" />
<glyph unicode="&#xe02;" horiz-adv-x="784" d="M0 618q0 33 16 70.5t49.5 68.5t85.5 51.5t123 20.5q48 0 88.5 -17.5t70 -45t45.5 -62.5t16 -69q0 -32 -17 -55t-37.5 -45t-37.5 -46t-17 -57v-350h37q45 0 73.5 5t45 19t22.5 39.5t6 67.5v606h103v-626q0 -49 -9 -85t-31 -60t-59.5 -36t-93.5 -12h-319v78q45 0 69.5 3 t36.5 12.5t14.5 28t2.5 50.5v283q0 29 17.5 51.5t38.5 43t38.5 41t17.5 46.5q0 19 -9.5 39.5t-27.5 38t-44 28.5t-58 11q-37 0 -59.5 -11t-28.5 -16q28 -2 49.5 -14t36 -30t22 -40t7.5 -43q0 -29 -11 -53.5t-29.5 -43.5t-44 -29.5t-53.5 -10.5q-27 0 -53.5 9.5t-46.5 29 t-32.5 48.5t-12.5 68zM82 598q0 -26 18.5 -44.5t44.5 -18.5t45 18.5t19 44.5t-19 45t-45 19t-44.5 -19t-18.5 -45z" />
<glyph unicode="&#xe03;" horiz-adv-x="791" d="M0 606q0 33 14.5 67t42.5 64.5t69 54.5t95 37q6 0 18 -7.5t25.5 -17t25.5 -19t17 -13.5q6 4 18 13.5t25 19t25 17t18 7.5q11 0 32 -14.5t41.5 -38t36 -53t15.5 -59.5q0 -37 -21.5 -65t-47 -53t-47 -49.5t-21.5 -54.5v-360h43q49 0 79 5t46 19t21 39.5t5 67.5v606h103 v-626q0 -47 -8.5 -83t-30.5 -60.5t-58.5 -37t-91.5 -12.5h-333v78q44 0 69 3t37 12.5t14.5 28t2.5 50.5v287q0 31 22 55t48.5 46.5t48.5 45.5t22 53q0 13 -6 25.5t-14 22.5t-15.5 16t-11.5 6q-3 0 -12 -7.5t-19 -16t-19 -16t-12 -7.5q-7 6 -22 17.5t-30 23.5q-9 7 -18.5 14 t-19.5 15l-18 -10q-8 -5 -15.5 -10t-13.5 -11q51 -11 79 -46.5t28 -80.5q0 -29 -11 -53.5t-29.5 -43.5t-44 -29.5t-53.5 -10.5q-62 0 -102.5 40t-40.5 109zM80 594q0 -26 18.5 -45t44.5 -19t45 19t19 45t-19 44.5t-45 18.5t-44.5 -18.5t-18.5 -44.5z" />
<glyph unicode="&#xe04;" horiz-adv-x="848" d="M72 547q0 57 21 109t63 92t106.5 64t151.5 24q81 0 141 -22.5t100 -61t60 -89.5t20 -108v-555h-102v535q0 41 -11.5 81t-38 71t-69 50t-104.5 19q-57 0 -100.5 -17.5t-73 -46.5t-45.5 -67t-17 -78q-2 -58 11.5 -121t23.5 -127q2 -8 1 -27.5t-2 -40.5l-3 -53h4 q2 23 5 55.5t9 67.5q6 34 14 67t17 63t18 55t17 42q21 48 52.5 71.5t82.5 23.5q28 0 53 -11t44 -29.5t29.5 -44t10.5 -53.5t-10.5 -53t-29.5 -43.5t-44 -29.5t-53 -11q-26 0 -49.5 9.5t-40.5 23.5q-12 -35 -26 -86t-27 -105t-24.5 -105t-18.5 -85h-109v129q0 64 -9 115.5 t-19.5 99.5t-19.5 96.5t-9 106.5zM360 485q0 -26 19 -44.5t45 -18.5t44.5 18.5t18.5 44.5t-18.5 45t-44.5 19t-45 -19t-19 -45z" />
<glyph unicode="&#xe05;" horiz-adv-x="842" d="M72 567q0 55 18 102.5t49.5 82.5t73 57t88.5 27l113 -82l114 82q27 -6 62 -19.5t65.5 -39t52 -65.5t21.5 -98v-614h-102v598q0 34 -9 59t-22.5 42t-30 27.5t-30.5 16.5l-121 -94l-131 94q-51 -15 -79 -62.5t-30 -107.5q-2 -66 9.5 -137t19.5 -137q1 -7 0.5 -26.5 t-1.5 -40.5l-3 -54h4q2 23 5 55.5t9 67.5q6 34 14 67t17 63t18 55t17 42q21 48 52.5 71.5t82.5 23.5q28 0 53 -11t44 -29.5t29.5 -44t10.5 -53.5t-10.5 -53t-29.5 -43.5t-44 -29.5t-53 -11q-26 0 -49.5 9.5t-40.5 23.5q-12 -35 -26 -86t-27.5 -105t-25 -105t-18.5 -85h-108 v129q0 64 -8 119t-17.5 106.5t-17.5 103.5t-8 109zM354 485q0 -26 19 -44.5t45 -18.5t44.5 18.5t18.5 44.5t-18.5 45t-44.5 19t-45 -19t-19 -45z" />
<glyph unicode="&#xe06;" horiz-adv-x="864" d="M0 606q0 38 15.5 73t43.5 64.5t68 51.5t88 34q5 0 18 -7.5t27 -17t27 -19t18 -13.5q6 4 18 13.5t25 19t25 17t18 7.5q11 0 32 -14.5t41.5 -38t36 -53t15.5 -59.5q0 -37 -21.5 -65t-47 -53t-47 -49.5t-21.5 -54.5v-139q33 -4 69.5 -16.5t71.5 -32.5t68.5 -49t60.5 -66v680 h103v-733q0 -51 -22.5 -68.5t-65.5 -17.5h-41q-12 33 -35.5 68t-55.5 65.5t-71 53.5t-82 32v-94q0 -57 -35 -94t-98 -37q-31 0 -59 10.5t-49.5 31t-34.5 49.5t-13 65q0 35 16 64.5t42 50.5t59.5 32t68.5 10v152q0 31 22 55t49 46.5t49 45.5t22 53q0 13 -6 25.5t-14 22.5 t-15.5 16t-11.5 6t-13.5 -7.5t-20.5 -15.5l-28 -22l-94 68l-20 -10q-8 -5 -16.5 -10.5t-14.5 -12.5q30 -6 51 -19.5t34.5 -30.5t20 -36.5t6.5 -38.5q0 -29 -10.5 -53.5t-29.5 -42.5t-44 -28.5t-53 -10.5q-25 0 -50 9.5t-44.5 28t-32 46t-12.5 63.5zM76 594q0 -26 18.5 -45 t44.5 -19t45 19t19 45t-19 44.5t-45 18.5t-44.5 -18.5t-18.5 -44.5zM176 141q0 -28 16 -48.5t44 -20.5q21 0 30.5 15t9.5 40v98q-43 4 -71.5 -19.5t-28.5 -64.5z" />
<glyph unicode="&#xe07;" horiz-adv-x="686" d="M0 545l92 47q48 -57 89.5 -121t76.5 -129t63.5 -127.5t51.5 -116.5h22q46 0 61 22t15 73v368q-9 -5 -23.5 -6.5t-25.5 -1.5q-29 0 -53.5 10.5t-42.5 29t-28.5 43t-10.5 52.5t10.5 54t29.5 45t44.5 30.5t54.5 11.5q69 0 108 -41.5t39 -107.5v-504q0 -45 -8 -78.5 t-26.5 -55t-50 -32t-78.5 -10.5h-105q-22 58 -54.5 129.5t-72 145t-85 144t-93.5 126.5zM358 688q0 -26 19 -44.5t45 -18.5t44.5 18.5t18.5 44.5t-18.5 45t-44.5 19t-45 -19t-19 -45z" />
<glyph unicode="&#xe08;" horiz-adv-x="709" d="M0 616q12 46 40.5 86.5t72 70t101 46.5t126.5 17q72 0 128 -20.5t94.5 -53.5t57.5 -75.5t17 -86.5q-3 -68 -17 -136.5t-31.5 -141.5t-35.5 -152.5t-29 -169.5h-127l-73 348q-35 -24 -78 -24q-29 0 -53.5 10.5t-43.5 29.5t-29.5 43.5t-10.5 53.5q0 28 10.5 53t29.5 44 t43.5 29.5t53.5 10.5q63 0 101.5 -36.5t49.5 -96.5l45 -229q3 -17 5.5 -40t4.5 -46l3 -54h4v25.5v36t1.5 40.5t4.5 40q8 48 19.5 95t22 92t18 89t7.5 86q0 28 -13.5 55.5t-39 50t-62.5 36.5t-83 14q-39 0 -75.5 -8t-67.5 -25.5t-54 -44t-35 -62.5h-102zM182 461 q0 -26 19 -45t45 -19t44.5 19t18.5 45t-18.5 44.5t-44.5 18.5t-45 -18.5t-19 -44.5z" />
<glyph unicode="&#xe09;" horiz-adv-x="807" d="M0 391q0 28 10.5 54t29.5 45t44.5 30.5t54.5 11.5q34 0 61 -11t46.5 -30.5t30 -47t10.5 -60.5v-287q20 27 51.5 56.5t70.5 56t83.5 46t89.5 26.5v299q0 40 -15.5 73t-42.5 55.5t-64.5 35t-82.5 12.5q-38 0 -75.5 -9.5t-69 -29t-54 -49.5t-31.5 -72h-102q10 54 39 98 t72.5 75.5t99.5 49t121 17.5q69 0 125.5 -17.5t97 -49.5t62.5 -78.5t22 -104.5v-324q34 -18 56 -51.5t22 -75.5q0 -29 -11 -55t-30.5 -45t-45 -30t-54.5 -11t-57 12.5t-48.5 34.5t-30.5 52.5t-4 66.5q-16 -9 -38 -27t-45 -40t-44 -46.5t-35 -46.5h-135v264q-9 -5 -23.5 -6.5 t-25.5 -1.5q-29 0 -53.5 10.5t-42.5 29t-28.5 43t-10.5 52.5zM72 391q0 -26 18.5 -44.5t44.5 -18.5t45 18.5t19 44.5t-19 45t-45 19t-44.5 -19t-18.5 -45zM557 139q0 -26 19 -44.5t45 -18.5t44.5 18.5t18.5 44.5t-18.5 45t-44.5 19t-45 -19t-19 -45z" />
<glyph unicode="&#xe0a;" horiz-adv-x="825" d="M0 618q0 33 16 70.5t49.5 68.5t85.5 51.5t123 20.5q48 0 88.5 -17.5t70 -45t45.5 -62.5t16 -69q0 -32 -17 -55t-37.5 -45t-37.5 -46t-17 -57v-350h78q45 0 73.5 5t45 19t22.5 39.5t6 67.5v264q0 40 -26.5 65t-75.5 25v70q63 22 102 73.5t39 129.5h105q0 -76 -28 -131 t-97 -97q35 -9 59.5 -38.5t24.5 -69.5v-311q0 -49 -9 -85t-31 -60t-59.5 -36t-93.5 -12h-360v78q45 0 69.5 3t36.5 12.5t14.5 28t2.5 50.5v283q0 29 17.5 51.5t38.5 43t38.5 41t17.5 46.5q0 19 -9.5 39.5t-27.5 38t-44 28.5t-58 11q-37 0 -59.5 -11t-28.5 -16 q28 -2 49.5 -14t36 -30t22 -40t7.5 -43q0 -29 -11 -53.5t-29.5 -43.5t-44 -29.5t-53.5 -10.5q-27 0 -53.5 9.5t-46.5 29t-32.5 48.5t-12.5 68zM82 598q0 -26 18.5 -44.5t44.5 -18.5t45 18.5t19 44.5t-19 45t-45 19t-44.5 -19t-18.5 -45z" />
<glyph unicode="&#xe0b;" horiz-adv-x="831" d="M0 606q0 33 14.5 67t42.5 64.5t69 54.5t95 37q6 0 18 -7.5t25.5 -17t25.5 -19t17 -13.5q6 4 18 13.5t25 19t25 17t18 7.5q11 0 32 -14.5t41.5 -38t36 -53t15.5 -59.5q0 -37 -21.5 -65t-47 -53t-47 -49.5t-21.5 -54.5v-360h84q49 0 79 5t46 19t21 39.5t5 67.5v264 q0 40 -25.5 65t-76.5 25v70q63 22 102 73.5t39 129.5h105q0 -76 -28 -131t-97 -97q35 -9 59.5 -38.5t24.5 -69.5v-311q0 -47 -8.5 -83t-30.5 -60.5t-58.5 -37t-91.5 -12.5h-374v78q42 0 66.5 3t37 12.5t16 28t3.5 50.5v287q0 31 22 55t48.5 46.5t48.5 45.5t22 53 q0 13 -6 25.5t-14 22.5t-15.5 16t-11.5 6q-3 0 -12 -7.5t-19 -16t-19 -16t-12 -7.5q-7 6 -22 17.5t-30 23.5q-9 7 -18.5 14t-19.5 15l-18 -10q-8 -5 -15.5 -10t-13.5 -11q51 -11 79 -46.5t28 -80.5q0 -29 -11 -53.5t-29.5 -43.5t-44 -29.5t-53.5 -10.5q-62 0 -102.5 40 t-40.5 109zM80 594q0 -26 18.5 -45t44.5 -19t45 19t19 45t-19 44.5t-45 18.5t-44.5 -18.5t-18.5 -44.5z" />
<glyph unicode="&#xe0c;" horiz-adv-x="1165" d="M59 657q57 85 139 132t191 47q58 0 110 -16t91.5 -47.5t62.5 -78.5t23 -110v-322q38 -9 78 -27.5t76.5 -40.5t68 -46t51.5 -44v715h103v-733q0 -51 -22.5 -68.5t-65.5 -17.5h-41q-12 18 -33 38t-45.5 39.5t-49.5 36t-46 27.5v-12q0 -29 -11 -54t-30.5 -44t-45 -30 t-53.5 -11q-29 0 -54 11t-44 30t-30 44t-11 54q0 24 8 46t21.5 39.5t32.5 30.5t40 19v322q0 42 -17 74t-44 53t-60.5 32t-66.5 11q-120 0 -195 -82q13 -6 30.5 -15t35.5 -20.5t35.5 -25t30.5 -27.5q-107 -38 -107 -144v-184q9 5 23.5 6.5t25.5 1.5q28 0 53 -10.5t43 -29 t28.5 -43t10.5 -52.5q0 -29 -11 -54.5t-29.5 -44.5t-44 -30.5t-54.5 -11.5q-69 0 -108 41.5t-39 107.5v305q0 54 26 92.5t60 49.5q-15 11 -35 22t-40 20.5t-37.5 17t-27.5 11.5zM201 131q0 -26 18.5 -44.5t44.5 -18.5t45 18.5t19 44.5t-19 45t-45 19t-44.5 -19t-18.5 -45z M547 129q0 -26 18.5 -44.5t44.5 -18.5t45 18.5t19 44.5t-19 45t-45 19t-44.5 -19t-18.5 -45z" />
<glyph unicode="&#xe0d;" horiz-adv-x="1137" d="M59 657q57 85 139 132t191 47q58 0 110 -16t91.5 -47.5t62.5 -78.5t23 -110v-502h98q45 0 73.5 5t45 19t23 39.5t6.5 67.5v606h102v-626q0 -49 -9 -85t-31 -60t-59.5 -36t-93.5 -12h-360v78q35 0 55.5 2.5t31 12t13 28.5t2.5 51v414q0 42 -17 74t-44 53t-60.5 32 t-66.5 11q-120 0 -195 -82q13 -6 30.5 -15t35.5 -20.5t35.5 -25t30.5 -27.5q-107 -38 -107 -144v-184q9 5 23.5 6.5t25.5 1.5q28 0 53 -10.5t43 -29t28.5 -43t10.5 -52.5q0 -29 -11 -54.5t-29.5 -44.5t-44 -30.5t-54.5 -11.5q-69 0 -108 41.5t-39 107.5v305q0 54 26 92.5 t60 49.5q-15 11 -35 22t-40 20.5t-37.5 17t-27.5 11.5zM201 131q0 -26 18.5 -44.5t44.5 -18.5t45 18.5t19 44.5t-19 45t-45 19t-44.5 -19t-18.5 -45zM549 -176q0 26 9.5 49t26.5 40t40 26.5t49 9.5q25 0 48 -9.5t40 -26.5t27 -40t10 -49q0 -23 -6 -41q23 4 49 16t50 28.5 t44.5 36.5t32.5 40l55 -62q-64 -70 -140 -111.5t-177 -39.5q-70 2 -114 37.5t-44 95.5zM618 -176q0 -22 17 -38.5t39 -16.5q21 0 38 16.5t17 38.5t-17 38.5t-38 16.5q-22 0 -39 -16.5t-17 -38.5z" />
<glyph unicode="&#xe0e;" horiz-adv-x="840" d="M10 129q0 28 11 53.5t30.5 44.5t44.5 30t54 11h14v176q0 54 26 92.5t60 49.5q-15 11 -35 22t-39.5 20.5t-37 17t-27.5 11.5q55 85 137.5 132t191.5 47q58 0 110 -16t91.5 -47.5t62.5 -78.5t23 -110v-834q0 -84 -34 -122t-103 -38h-41q-8 14 -20 33t-26 38.5t-29 37 t-30 29.5q-14 -29 -36 -53t-49 -41t-58.5 -26t-64.5 -9q-34 0 -65 8.5t-54 25.5t-37 42.5t-14 60.5q0 31 14.5 58t40 47t60.5 32t77 12q74 0 127 -24q2 11 1.5 22t-0.5 21q-1 5 -1 11v11h102q2 -21 0 -41q-1 -17 -2.5 -36.5t-5.5 -34.5q18 -13 34 -29.5t30 -33.5t25.5 -34 t19.5 -30q25 0 31 16.5t6 58.5v824q0 42 -17 74t-44.5 53t-61 32t-66.5 11q-60 0 -108.5 -20t-85.5 -62q13 -6 30 -15t35 -20.5t35.5 -25t30.5 -27.5q-107 -38 -107 -144v-235q13 -17 18 -36.5t5 -41.5q0 -29 -11 -54t-30 -44t-44.5 -30t-53.5 -11q-29 0 -54 11t-44.5 30 t-30.5 44t-11 54zM86 129q0 -26 19 -44.5t45 -18.5t44.5 18.5t18.5 44.5t-18.5 45t-44.5 19t-45 -19t-19 -45zM156 -268q0 -26 22.5 -40t54.5 -14q27 0 49.5 9.5t40 23.5t29 31.5t15.5 32.5q-14 12 -42.5 21t-60.5 9q-46 0 -77 -21t-31 -52z" />
<glyph unicode="&#xe0f;" horiz-adv-x="840" d="M-8 -276q0 29 12 53.5t32.5 42t49 27.5t61.5 10q38 0 66.5 -11t46.5 -26q2 11 2.5 24t-0.5 25l-2 29h102q1 -14 0.5 -27.5t-1.5 -27.5q-2 -23 -6.5 -50t-14.5 -47l37 -43l36 46q16 19 33.5 39t32.5 34q35 -34 63.5 -69.5t45.5 -61.5q25 0 31 15t6 58v822q0 42 -17 74 t-44.5 53t-61 32t-66.5 11q-60 0 -108.5 -20t-85.5 -62q13 -6 30 -15t35 -20.5t35.5 -25t30.5 -27.5q-107 -38 -107 -144v-235q13 -17 18 -36.5t5 -41.5q0 -29 -11 -54t-30 -44t-44.5 -30t-53.5 -11q-29 0 -54 11t-44.5 30t-30.5 44t-11 54q0 28 11 53.5t30.5 44.5t44.5 30 t54 11h14v176q0 54 26 92.5t60 49.5q-15 11 -35 22t-39.5 20.5t-37 17t-27.5 11.5q55 85 137.5 132t191.5 47q58 0 110 -16t91.5 -47.5t62.5 -78.5t23 -110v-832q0 -48 -11 -79t-30 -49.5t-43.5 -26t-52.5 -7.5h-41q-16 28 -34 57t-38 54l-74 -102h-63l-14 21 q-7 10 -14.5 20.5t-16.5 21.5q-25 -29 -62 -50.5t-94 -21.5q-25 0 -51 8t-47.5 24.5t-35 41.5t-13.5 60zM78 -279q0 -24 20.5 -37.5t44.5 -13.5q34 0 58 19t30 41q-11 18 -34.5 31.5t-51.5 13.5q-11 0 -22.5 -3.5t-21.5 -10.5t-16.5 -17t-6.5 -23zM86 129q0 -26 19 -44.5 t45 -18.5t44.5 18.5t18.5 44.5t-18.5 45t-44.5 19t-45 -19t-19 -45z" />
<glyph unicode="&#xe10;" horiz-adv-x="709" d="M-14 -295q0 30 10.5 55t29 42.5t44.5 27.5t57 10q29 0 56 -10t44 -27q2 11 2.5 24.5t-0.5 25.5l-2 28h92l-3 -57q-2 -24 -5.5 -50t-11.5 -44l47 -60l74 58l72 -60q24 0 38.5 9.5t14.5 27.5v21q-6 -2 -11.5 -2h-11.5q-26 0 -48.5 8.5t-39.5 23.5t-27 35.5t-10 44.5 q0 23 10 43.5t27 36t39.5 24.5t48.5 9t49 -9t40 -24.5t26.5 -36t9.5 -43.5v-96q0 -81 -30 -118.5t-93 -37.5h-37l-69 58l-62 -50h-57l-41 52q-26 -31 -57.5 -47.5t-81.5 -16.5q-24 0 -48 8.5t-42.5 24.5t-30.5 39.5t-12 52.5zM0 610q28 107 99 166.5t196 59.5q31 0 60.5 -8 t56.5 -17l51 -17t43 -8q22 0 37 12t32 27l78 -57q-28 -32 -56.5 -53t-70.5 -21q-32 0 -62 8.5t-59 19t-58.5 20t-59.5 10.5q-35 1 -60.5 -5t-44 -16.5t-30 -23.5t-17.5 -25q54 -2 118 -6.5t130 -13.5q46 -7 88.5 -18.5t74.5 -30.5t51 -46.5t19 -66.5q0 -53 -11 -108.5 t-26 -116.5t-30.5 -129t-24.5 -146h-127l-86 287q-31 -25 -78 -25q-28 0 -53 11t-43.5 29.5t-29.5 43.5t-11 53t11 53.5t29.5 44t43.5 29.5t53 11q62 0 99.5 -38.5t52.5 -95.5l49 -178q4 -14 7 -31.5t5 -32.5q2 -9 3 -18l2 -18h4q0 16 1 44t5 52q6 34 14 69t15.5 68.5 t12.5 65t5 59.5q0 32 -21 52t-54.5 32.5t-75 19t-81.5 11.5q-35 4 -72.5 6t-73.5 3t-69.5 1.5t-60.5 1.5zM68 -293q0 -23 17.5 -35t37.5 -12q26 0 47.5 15.5t28.5 39.5q-11 20 -29 31.5t-43 11.5q-22 0 -40.5 -14t-18.5 -37zM170 399q0 -26 18.5 -44.5t44.5 -18.5t45 18.5 t19 44.5t-19 45t-45 19t-44.5 -19t-18.5 -45zM465 -164q0 -22 17 -35.5t40 -13.5t40.5 13.5t17.5 35.5q0 20 -17.5 34.5t-40.5 14.5t-40 -14.5t-17 -34.5z" />
<glyph unicode="&#xe11;" horiz-adv-x="969" d="M0 606q0 27 13 58.5t41 62.5t71.5 58t103.5 44l33 -23q13 -9 25.5 -18t17.5 -14q6 4 17.5 13.5t23.5 18.5t22 16t15 7q13 0 31 -13.5t34 -34.5t27.5 -46.5t11.5 -50.5q0 -32 -15.5 -56.5t-33.5 -46.5t-33.5 -45t-15.5 -53v-139q0 -17 -2.5 -46t-5.5 -57l-8 -69h2l11 60 q5 24 10.5 49t11.5 41l147 417q15 42 45 66t84 24q37 0 68.5 -10t54.5 -32.5t36 -57.5t13 -86v-643h-102v623q0 55 -19 86.5t-57 31.5q-16 0 -24 -14.5t-13 -28.5l-242 -698h-112v494q0 30 17 52.5t37 42.5t37 39.5t17 45.5q0 24 -11 42.5t-19 18.5q-3 0 -11.5 -7.5t-18 -16 t-18 -16t-10.5 -7.5q-6 5 -19 15.5t-26 21.5q-17 12 -33 27l-36 -23q19 -7 34 -20.5t25.5 -30t16 -35.5t5.5 -37q0 -29 -10.5 -53.5t-29.5 -43.5t-44 -29.5t-53 -10.5q-29 0 -53.5 10t-43.5 28.5t-29.5 43.5t-10.5 55zM74 606q0 -26 18.5 -44.5t44.5 -18.5t45 18.5t19 44.5 t-19 45t-45 19t-44.5 -19t-18.5 -45z" />
<glyph unicode="&#xe12;" horiz-adv-x="1219" d="M72 567q0 55 18 102.5t49.5 82.5t73 57t88.5 27l113 -82l114 82q27 -6 62 -19.5t65.5 -39t52 -65.5t21.5 -98v-352q37 -9 77.5 -27t77.5 -40.5t68.5 -46.5t51.5 -44v715h102v-733q0 -50 -21 -68t-67 -18h-33q-13 18 -35 39.5t-47.5 41.5t-52 37t-49.5 27q0 -5 1 -7 q0 -3 0.5 -5t0.5 -4q0 -29 -11 -54t-30 -44t-44.5 -30t-53.5 -11q-29 0 -54 11t-44.5 30t-30.5 44t-11 54q0 24 8 46t22 39.5t32.5 30.5t40.5 19v334q0 34 -9 59t-22.5 42t-30 27.5t-30.5 16.5l-121 -94l-131 94q-51 -26 -79 -75.5t-28 -106.5q0 -40 7 -91t15.5 -105 t15.5 -108t7 -99q19 29 38 56t44 58q22 28 38 46.5t30 33.5q-45 12 -75 48.5t-30 84.5q0 28 11 53.5t29.5 44t43.5 29.5t53 11t53.5 -11t44 -29.5t29.5 -44t11 -53.5q0 -43 -18 -72.5t-38 -54.5q-15 -19 -28.5 -35.5t-27.5 -34t-29 -36.5t-33 -43q-23 -30 -43.5 -60 t-37.5 -57.5t-30.5 -51t-22.5 -40.5h-110v129q0 65 -8 120t-17.5 106.5t-17.5 103t-8 108.5zM340 485q0 -26 18.5 -44.5t44.5 -18.5t45 18.5t19 44.5t-19 45t-45 19t-44.5 -19t-18.5 -45zM600 129q0 -26 19 -44.5t45 -18.5t44.5 18.5t18.5 44.5t-18.5 45t-44.5 19t-45 -19 t-19 -45z" />
<glyph unicode="&#xe13;" horiz-adv-x="1176" d="M59 657q57 85 139 132t191 47q58 0 110 -16t91.5 -47.5t62.5 -78.5t23 -110v-486q22 22 55 49.5t70.5 53.5t76.5 47.5t72 30.5v540h103v-557q34 -18 55.5 -51.5t21.5 -75.5q0 -29 -11 -55t-30 -45t-45 -30t-55 -11t-55 11t-45 30t-30 45t-11 55q-15 -11 -33 -25 t-37.5 -31t-39 -37t-36.5 -42h-129v586q0 42 -17 74t-44 53t-60.5 32t-66.5 11q-120 0 -195 -82q13 -6 30.5 -15t35.5 -20.5t35.5 -25t30.5 -27.5q-107 -38 -107 -144v-184q9 5 23.5 6.5t25.5 1.5q28 0 53 -10.5t43 -29t28.5 -43t10.5 -52.5q0 -29 -11 -54.5t-29.5 -44.5 t-44 -30.5t-54.5 -11.5q-69 0 -108 41.5t-39 107.5v305q0 54 26 92.5t60 49.5q-15 11 -35 22t-40 20.5t-37.5 17t-27.5 11.5zM201 131q0 -26 18.5 -44.5t44.5 -18.5t45 18.5t19 44.5t-19 45t-45 19t-44.5 -19t-18.5 -45zM926 139q0 -26 18.5 -44.5t44.5 -18.5t45 18.5 t19 44.5t-19 45t-45 19t-44.5 -19t-18.5 -45z" />
<glyph unicode="&#xe14;" horiz-adv-x="842" d="M66 547q0 57 22 109.5t64.5 92.5t105.5 63.5t145 23.5q81 0 142 -22.5t102 -61t61.5 -89.5t20.5 -108v-555h-102v535q0 43 -13 82.5t-41 70.5t-71 49.5t-103 18.5q-50 0 -92 -16.5t-73 -45t-48.5 -67.5t-17.5 -84q0 -48 8.5 -98.5t19 -100.5t18.5 -98t7 -90q13 23 36 55 t46 61q22 26 38 45.5t30 34.5q-45 12 -75 48.5t-30 84.5q0 28 11 53.5t29.5 44t43.5 29.5t53 11t53.5 -11t44 -29.5t29.5 -44t11 -53.5q0 -43 -18 -72.5t-38 -54.5q-15 -19 -28.5 -35.5t-27.5 -34t-29 -36.5t-33 -43q-23 -30 -43.5 -60t-37.5 -57.5t-30.5 -51t-22.5 -40.5 h-110v119q0 57 -9 109t-19.5 103.5t-19.5 104t-9 111.5zM340 485q0 -26 18.5 -44.5t44.5 -18.5t45 18.5t19 44.5t-19 45t-45 19t-44.5 -19t-18.5 -45z" />
<glyph unicode="&#xe15;" horiz-adv-x="842" d="M72 567q0 55 18 102.5t49.5 82.5t73 57t88.5 27l113 -82l114 82q27 -6 62 -19.5t65.5 -39t52 -65.5t21.5 -98v-614h-102v598q0 34 -9 59t-22.5 42t-30 27.5t-30.5 16.5l-121 -94l-131 94q-51 -26 -79 -75.5t-28 -106.5q0 -40 7 -91t15.5 -105t15.5 -108t7 -99 q19 29 38 56t44 58q22 28 38 46.5t30 33.5q-45 12 -75 48.5t-30 84.5q0 28 11 53.5t29.5 44t43.5 29.5t53 11t53.5 -11t44 -29.5t29.5 -44t11 -53.5q0 -43 -18 -72.5t-38 -54.5q-15 -19 -28.5 -35.5t-27.5 -34t-29 -36.5t-33 -43q-23 -30 -43.5 -60t-37.5 -57.5t-30.5 -51 t-22.5 -40.5h-110v129q0 65 -8 120t-17.5 106.5t-17.5 103t-8 108.5zM340 485q0 -26 18.5 -44.5t44.5 -18.5t45 18.5t19 44.5t-19 45t-45 19t-44.5 -19t-18.5 -45z" />
<glyph unicode="&#xe16;" horiz-adv-x="788" d="M59 657q57 85 139 132t191 47q58 0 110 -16t91.5 -47.5t62.5 -78.5t23 -110v-584h-103v586q0 42 -17 74t-44 53t-60.5 32t-66.5 11q-120 0 -195 -82q13 -6 30.5 -15t35.5 -20.5t35.5 -25t30.5 -27.5q-107 -38 -107 -144v-184q9 5 23.5 6.5t25.5 1.5q28 0 53 -10.5t43 -29 t28.5 -43t10.5 -52.5q0 -29 -11 -54.5t-29.5 -44.5t-44 -30.5t-54.5 -11.5q-69 0 -108 41.5t-39 107.5v305q0 54 26 92.5t60 49.5q-15 11 -35 22t-40 20.5t-37.5 17t-27.5 11.5zM201 131q0 -26 18.5 -44.5t44.5 -18.5t45 18.5t19 44.5t-19 45t-45 19t-44.5 -19t-18.5 -45z " />
<glyph unicode="&#xe17;" horiz-adv-x="846" d="M0 688q0 28 10.5 54t29.5 45t44.5 30.5t54.5 11.5q34 0 61 -11t46.5 -30.5t30 -47t10.5 -60.5v-281q0 -23 -3.5 -61t-7.5 -75l-10 -91h4l15 68q6 28 13.5 57t12.5 47l121 393q14 45 45.5 68.5t83.5 23.5q37 0 68.5 -10.5t54.5 -33t36 -58t13 -86.5v-641h-102v621 q0 55 -19 86.5t-57 31.5q-15 0 -23.5 -13t-13.5 -30l-221 -696h-113v561q-9 -5 -23.5 -6.5t-25.5 -1.5q-29 0 -53.5 10.5t-42.5 29t-28.5 43t-10.5 52.5zM72 688q0 -26 18.5 -44.5t44.5 -18.5t45 18.5t19 44.5t-19 45t-45 19t-44.5 -19t-18.5 -45z" />
<glyph unicode="&#xe18;" horiz-adv-x="727" d="M31 594q13 51 37.5 95.5t61 77t85.5 51t111 18.5q27 0 53.5 -8t49 -17t40 -17t27.5 -8q21 0 36.5 12t32.5 27l78 -57q-28 -32 -56.5 -53t-70.5 -21q-29 0 -52 8.5t-46 19t-47 20t-54 10.5q-32 1 -57 -6t-44 -19t-31 -27t-19 -28q27 0 61 -1t70 -4t71.5 -8t65.5 -12 q88 -20 134 -62.5t46 -117.5v-274q0 -49 -9 -85t-31 -60t-59 -36t-93 -12h-381v78q34 0 54 2t30.5 11t14 28t3.5 53v219q0 51 14 77.5t40 43.5h114q-23 -14 -44 -43.5t-21 -77.5v-309h119q44 0 72.5 5t45 19t23 39.5t6.5 67.5v262q0 27 -17.5 46t-45 31.5t-62 20t-68.5 11.5 q-36 4 -74.5 6t-76 3t-72.5 1h-65z" />
<glyph unicode="&#xe19;" horiz-adv-x="848" d="M0 688q0 28 10.5 54t29.5 45t44.5 30.5t54.5 11.5q34 0 61 -11t46.5 -30.5t30 -47t10.5 -60.5v-574q61 75 148 122t188 53v538h102v-557q34 -18 56 -51.5t22 -75.5q0 -29 -11 -55t-30.5 -45t-45 -30t-54.5 -11t-55 11t-45.5 30t-30.5 45t-11 55q0 14 3.5 27.5t6.5 21.5 q-24 -5 -54.5 -22.5t-61.5 -43t-58 -56.5t-43 -62h-129v561q-9 -5 -23.5 -6.5t-25.5 -1.5q-29 0 -53.5 10.5t-42.5 29t-28.5 43t-10.5 52.5zM72 688q0 -26 18.5 -44.5t44.5 -18.5t45 18.5t19 44.5t-19 45t-45 19t-44.5 -19t-18.5 -45zM598 139q0 -26 19 -44.5t45 -18.5 t44.5 18.5t18.5 44.5t-18.5 45t-44.5 19t-45 -19t-19 -45z" />
<glyph unicode="&#xe1a;" horiz-adv-x="850" d="M0 688q0 28 10.5 54t29.5 45t44.5 30.5t54.5 11.5q34 0 61 -11t46.5 -30.5t30 -47t10.5 -60.5v-598h200q45 0 73.5 5t45 19t23 39.5t6.5 67.5v606h102v-626q0 -49 -9 -85t-31 -60t-59 -36t-93 -12h-463v78q34 0 54 2t30.5 11t14 28t3.5 53v389q-9 -5 -23.5 -6.5 t-25.5 -1.5q-29 0 -53.5 10.5t-42.5 29t-28.5 43t-10.5 52.5zM72 688q0 -26 18.5 -44.5t44.5 -18.5t45 18.5t19 44.5t-19 45t-45 19t-44.5 -19t-18.5 -45z" />
<glyph unicode="&#xe1b;" horiz-adv-x="850" d="M0 688q0 28 10.5 54t29.5 45t44.5 30.5t54.5 11.5q34 0 61 -11t46.5 -30.5t30 -47t10.5 -60.5v-598h200q45 0 73.5 5t45 19t23 39.5t6.5 67.5v913h102v-933q0 -49 -9 -85t-31 -60t-59 -36t-93 -12h-463v78q34 0 54 2t30.5 11t14 28t3.5 53v389q-9 -5 -23.5 -6.5 t-25.5 -1.5q-29 0 -53.5 10.5t-42.5 29t-28.5 43t-10.5 52.5zM72 688q0 -26 18.5 -44.5t44.5 -18.5t45 18.5t19 44.5t-19 45t-45 19t-44.5 -19t-18.5 -45z" />
<glyph unicode="&#xe1c;" horiz-adv-x="848" d="M113 86v594q0 66 39 107.5t108 41.5q29 0 54.5 -11.5t44 -30.5t29.5 -45t11 -54t-10.5 -52.5t-28.5 -43t-43 -29t-53 -10.5q-11 0 -25.5 1.5t-23.5 6.5v-414l172 365h74l172 -365v672h102v-733q0 -51 -21.5 -68.5t-66.5 -17.5h-47l-176 381l-176 -381h-47 q-45 0 -66.5 17.5t-21.5 68.5zM201 688q0 -26 18.5 -44.5t44.5 -18.5t45 18.5t19 44.5t-19 45t-45 19t-44.5 -19t-18.5 -45z" />
<glyph unicode="&#xe1d;" horiz-adv-x="848" d="M113 86v594q0 66 39 107.5t108 41.5q29 0 54.5 -11.5t44 -30.5t29.5 -45t11 -54t-10.5 -52.5t-28.5 -43t-43 -29t-53 -10.5q-11 0 -25.5 1.5t-23.5 6.5v-414l172 365h74l172 -365v979h102v-1040q0 -51 -21.5 -68.5t-66.5 -17.5h-47l-176 381l-176 -381h-47 q-45 0 -66.5 17.5t-21.5 68.5zM201 688q0 -26 18.5 -44.5t44.5 -18.5t45 18.5t19 44.5t-19 45t-45 19t-44.5 -19t-18.5 -45z" />
<glyph unicode="&#xe1e;" horiz-adv-x="946" d="M0 688q0 28 10.5 54t29.5 45t44.5 30.5t54.5 11.5q34 0 61 -11t46.5 -30.5t30 -47t10.5 -60.5v-295q0 -21 -2.5 -59.5t-4.5 -76.5l-6 -95h5l12 54q5 23 11 46t11 39l150 526h86l158 -528q5 -17 10.5 -40t10.5 -45q2 -13 5 -26l6 -26h4l-6 94q-2 38 -4 76.5t-2 60.5v434 h103v-729q0 -31 -7 -49t-19.5 -27t-31.5 -11.5t-43 -2.5h-35l-182 627q-5 20 -7 35q-1 4 -1 7.5v6.5h-4v-6.5t-1 -7.5q-2 -15 -7 -35l-179 -627h-32q-24 0 -43 2.5t-31.5 11.5t-19.5 27t-7 49v471q-9 -5 -23.5 -6.5t-25.5 -1.5q-29 0 -53.5 10.5t-42.5 29t-28.5 43 t-10.5 52.5zM72 688q0 -26 18.5 -44.5t44.5 -18.5t45 18.5t19 44.5t-19 45t-45 19t-44.5 -19t-18.5 -45z" />
<glyph unicode="&#xe1f;" horiz-adv-x="946" d="M0 688q0 28 10.5 54t29.5 45t44.5 30.5t54.5 11.5q34 0 61 -11t46.5 -30.5t30 -47t10.5 -60.5v-295q0 -21 -2.5 -59.5t-4.5 -76.5l-6 -95h5l12 54q5 23 11 46t11 39l150 526h86l158 -528q5 -17 10.5 -40t10.5 -45q2 -13 5 -26l6 -26h4l-6 94q-2 38 -4 76.5t-2 60.5v741 h103v-1036q0 -31 -7 -49t-19.5 -27t-31.5 -11.5t-43 -2.5h-35l-182 627q-5 20 -7 35q-1 4 -1 7.5v6.5h-4v-6.5t-1 -7.5q-2 -15 -7 -35l-179 -627h-32q-24 0 -43 2.5t-31.5 11.5t-19.5 27t-7 49v471q-9 -5 -23.5 -6.5t-25.5 -1.5q-29 0 -53.5 10.5t-42.5 29t-28.5 43 t-10.5 52.5zM72 688q0 -26 18.5 -44.5t44.5 -18.5t45 18.5t19 44.5t-19 45t-45 19t-44.5 -19t-18.5 -45z" />
<glyph unicode="&#xe20;" horiz-adv-x="840" d="M10 129q0 28 11 53.5t30.5 44.5t44.5 30t54 11h14v176q0 54 26 92.5t60 49.5q-15 11 -35 22t-39.5 20.5t-37 17t-27.5 11.5q55 85 137.5 132t191.5 47q58 0 110 -16t91.5 -47.5t62.5 -78.5t23 -110v-584h-102v586q0 42 -17 74t-44.5 53t-61 32t-66.5 11q-60 0 -108.5 -20 t-85.5 -62q13 -6 30 -15t35 -20.5t35.5 -25t30.5 -27.5q-107 -38 -107 -144v-235q13 -17 18 -36.5t5 -41.5q0 -29 -11 -54t-30 -44t-44.5 -30t-53.5 -11q-29 0 -54 11t-44.5 30t-30.5 44t-11 54zM86 129q0 -26 19 -44.5t45 -18.5t44.5 18.5t18.5 44.5t-18.5 45t-44.5 19 t-45 -19t-19 -45z" />
<glyph unicode="&#xe21;" horiz-adv-x="834" d="M39 162q0 37 15.5 69.5t41.5 56.5t59.5 38t69.5 14v221q-9 -5 -23.5 -6.5t-25.5 -1.5q-29 0 -53.5 10.5t-42.5 29t-28.5 43t-10.5 52.5t10.5 54t29.5 45t44.5 30.5t54.5 11.5q34 0 61 -11t46.5 -30.5t30 -47t10.5 -60.5v-346q33 -4 73 -21t80 -43t76 -60t61 -71v680h103 v-725q0 -54 -22.5 -74t-71.5 -20h-35q-12 33 -38.5 72t-62 75t-78 64t-85.5 39v-125q0 -28 -9.5 -52t-26.5 -41.5t-42 -27.5t-55 -10q-31 0 -59 11.5t-49.5 33t-34.5 53t-13 70.5zM113 688q0 -26 18.5 -44.5t44.5 -18.5t45 18.5t19 44.5t-19 45t-45 19t-44.5 -19t-18.5 -45z M127 156q0 -34 18 -54t41 -20q22 0 31.5 15t9.5 38v123q-21 1 -39.5 -7t-32 -22.5t-21 -33t-7.5 -39.5z" />
<glyph unicode="&#xe22;" horiz-adv-x="809" d="M92 551v129q0 33 10.5 60.5t30 47t47 30.5t60.5 11q66 0 104.5 -39t38.5 -102q0 -29 -11 -53.5t-30 -42.5t-44.5 -28.5t-53.5 -10.5q-11 0 -26 1.5t-23 6.5q0 -15 8 -31t24.5 -29t42 -21.5t60.5 -8.5h82v-82h-84q-60 0 -86.5 -28.5t-26.5 -77.5v-201h231q45 0 73.5 5 t45 19t23 39.5t6.5 67.5v606h102v-626q0 -49 -9 -85t-31 -60t-59 -36t-93 -12h-391v289q0 36 8.5 60t20.5 39.5t26 25t25 16.5q-20 5 -38 14.5t-32 24.5t-22.5 35.5t-8.5 46.5zM180 688q0 -26 19 -44.5t45 -18.5t44.5 18.5t18.5 44.5t-18.5 45t-44.5 19t-45 -19t-19 -45z " />
<glyph unicode="&#xe23;" horiz-adv-x="655" d="M0 590q14 53 38.5 98t60.5 78t85 51.5t111 18.5q28 0 54 -8t48.5 -17t40 -17t27.5 -8q22 0 37.5 12t32.5 27l77 -57q-28 -32 -56.5 -53t-70.5 -21q-28 0 -51.5 8.5t-46 19t-46.5 20t-54 10.5q-35 1 -60.5 -8.5t-44 -23.5t-30 -30t-17.5 -28q23 0 52.5 -0.5t62.5 -3 t68 -7.5t69 -14q79 -22 117.5 -67.5t38.5 -123.5v-307q0 -33 -10.5 -60.5t-30 -47t-46.5 -30.5t-61 -11q-29 0 -54.5 11.5t-44.5 30.5t-29.5 44.5t-10.5 54.5q0 28 10.5 52.5t28.5 43t42.5 29t53.5 10.5q11 0 25.5 -1.5t23.5 -6.5v197q0 28 -14.5 50t-38.5 37.5t-55.5 25.5 t-65.5 14q-71 8 -143 8h-123zM328 131q0 -26 18.5 -44.5t44.5 -18.5t45 18.5t19 44.5t-19 45t-45 19t-44.5 -19t-18.5 -45z" />
<glyph unicode="&#xe24;" horiz-adv-x="788" d="M59 657q57 85 139 132t191 47q58 0 110 -16t91.5 -47.5t62.5 -78.5t23 -110v-891h-103v893q0 42 -17 74t-44 53t-60.5 32t-66.5 11q-120 0 -195 -82q13 -6 30.5 -15t35.5 -20.5t35.5 -25t30.5 -27.5q-107 -38 -107 -144v-184q9 5 23.5 6.5t25.5 1.5q28 0 53 -10.5t43 -29 t28.5 -43t10.5 -52.5q0 -29 -11 -54.5t-29.5 -44.5t-44 -30.5t-54.5 -11.5q-69 0 -108 41.5t-39 107.5v305q0 54 26 92.5t60 49.5q-15 11 -35 22t-40 20.5t-37.5 17t-27.5 11.5zM201 131q0 -26 18.5 -44.5t44.5 -18.5t45 18.5t19 44.5t-19 45t-45 19t-44.5 -19t-18.5 -45z " />
<glyph unicode="&#xe25;" horiz-adv-x="807" d="M63 614q15 57 47 99t76 69t98.5 40.5t114.5 13.5q61 0 114.5 -16t93.5 -46t63.5 -73t23.5 -97v-514q0 -31 -7 -49t-19.5 -27t-31 -11.5t-42.5 -2.5h-35l-170 449q-9 24 -36 42.5t-64 12.5q-35 -6 -54.5 -30.5t-19.5 -61.5v-154q9 5 23.5 6.5t25.5 1.5q28 0 53 -10.5 t43 -29t28.5 -43t10.5 -52.5q0 -29 -11 -54.5t-29.5 -44.5t-44 -30.5t-54.5 -11.5q-69 0 -108 41.5t-39 107.5v283q0 34 12 61.5t31 47t43.5 32.5t50.5 19q37 7 72 6t64.5 -11.5t52 -30.5t34.5 -50l92 -248q5 -16 11.5 -37t11.5 -41l12 -47h4l-6 57q-2 24 -4 49.5t-2 44.5 v312q0 37 -15.5 68t-42.5 53.5t-63 35.5t-78 13q-40 0 -76.5 -9t-66 -27t-50.5 -44.5t-30 -61.5h-107zM201 131q0 -26 18.5 -44.5t44.5 -18.5t45 18.5t19 44.5t-19 45t-45 19t-44.5 -19t-18.5 -45z" />
<glyph unicode="&#xe26;" horiz-adv-x="840" d="M10 129q0 28 11 53.5t30.5 44.5t44.5 30t54 11h14v176q0 54 26 92.5t60 49.5q-15 11 -35 22t-39.5 20.5t-37 17t-27.5 11.5q55 85 137.5 132t191.5 47q58 0 110 -16t91.5 -47.5t62.5 -78.5t23 -110v-891h-102v893q0 42 -17 74t-44.5 53t-61 32t-66.5 11q-60 0 -108.5 -20 t-85.5 -62q13 -6 30 -15t35 -20.5t35.5 -25t30.5 -27.5q-107 -38 -107 -144v-235q13 -17 18 -36.5t5 -41.5q0 -29 -11 -54t-30 -44t-44.5 -30t-53.5 -11q-29 0 -54 11t-44.5 30t-30.5 44t-11 54zM86 129q0 -26 19 -44.5t45 -18.5t44.5 18.5t18.5 44.5t-18.5 45t-44.5 19 t-45 -19t-19 -45z" />
<glyph unicode="&#xe27;" horiz-adv-x="702" d="M-20 594q11 59 42 104.5t75 76t97.5 46t110.5 15.5q58 0 110 -16t91 -46t61.5 -73t22.5 -97v-465q0 -33 -10.5 -60.5t-30 -47t-46.5 -30.5t-61 -11q-29 0 -54.5 11.5t-44 30.5t-29.5 44.5t-11 54.5q0 28 10.5 52.5t28.5 43t42.5 29t53.5 10.5q11 0 25.5 -1.5t23.5 -6.5 v328q0 37 -14.5 68t-39.5 53.5t-59.5 35.5t-74.5 13q-38 0 -73 -10.5t-63 -31.5t-48 -51t-29 -69h-106zM375 131q0 -26 18.5 -44.5t44.5 -18.5t45 18.5t19 44.5t-19 45t-45 19t-44.5 -19t-18.5 -45z" />
<glyph unicode="&#xe28;" horiz-adv-x="856" d="M72 547q0 57 21 109t63 92t106.5 64t151.5 24q35 0 59 -4t41.5 -8.5t31 -8.5t27.5 -4q45 0 81.5 27.5t56.5 72.5l98 -61q-26 -38 -69.5 -62t-88.5 -32q42 -38 63 -89.5t21 -111.5v-555h-102v535q0 41 -11.5 81t-38 71t-69 50t-104.5 19q-57 0 -100.5 -17.5t-73 -46.5 t-45.5 -67t-17 -78q-2 -58 11.5 -121t23.5 -127q2 -8 1 -27.5t-2 -40.5l-3 -53h4q2 23 5 55.5t9 67.5q6 34 14 67t17 63t18 55t17 42q21 48 52.5 71.5t82.5 23.5q28 0 53 -11t44 -29.5t29.5 -44t10.5 -53.5t-10.5 -53t-29.5 -43.5t-44 -29.5t-53 -11q-26 0 -49.5 9.5 t-40.5 23.5q-12 -35 -26 -86t-27 -105t-24.5 -105t-18.5 -85h-109v129q0 64 -9 115.5t-19.5 99.5t-19.5 96.5t-9 106.5zM360 485q0 -26 19 -44.5t45 -18.5t44.5 18.5t18.5 44.5t-18.5 45t-44.5 19t-45 -19t-19 -45z" />
<glyph unicode="&#xe29;" horiz-adv-x="870" d="M0 688q0 28 10.5 54t29.5 45t44.5 30.5t54.5 11.5q34 0 61 -11t46.5 -30.5t30 -47t10.5 -60.5v-598h200q45 0 73.5 5t45 19t23 39.5t6.5 67.5v119q-13 -6 -30.5 -12.5t-37.5 -11.5t-41.5 -7.5t-42.5 -1.5q-30 1 -57 10.5t-47.5 26.5t-32.5 41t-12 55q0 26 9.5 49t26.5 40 t40 26.5t49 9.5q25 0 48 -9.5t40 -26.5t27 -40t10 -49q0 -23 -6 -41q12 3 29 11t28 16v401h102v-342q16 13 30.5 26.5t27.5 28.5l55 -61q-25 -25 -53.5 -47t-59.5 -39v-192q0 -49 -9 -85t-31 -60t-59 -36t-93 -12h-463v78q33 0 53 1.5t31 10.5t14.5 28t3.5 54v389 q-9 -5 -23.5 -6.5t-25.5 -1.5q-29 0 -53.5 10.5t-42.5 29t-28.5 43t-10.5 52.5zM72 688q0 -26 18.5 -44.5t44.5 -18.5t45 18.5t19 44.5t-19 45t-45 19t-44.5 -19t-18.5 -45zM401 432q0 -25 16.5 -41t41.5 -16t41 16t16 41t-16 41t-41 16t-41.5 -16t-16.5 -41z" />
<glyph unicode="&#xe2a;" horiz-adv-x="817" d="M63 614q15 57 47 99t76 69t98.5 40.5t114.5 13.5q30 0 53.5 -4t42 -9.5t33 -9.5t25.5 -4q46 0 81.5 28.5t55.5 73.5l98 -61q-26 -38 -69 -64t-88 -32q29 -29 46 -65.5t17 -84.5v-514q0 -31 -7 -49t-19.5 -27t-31 -11.5t-42.5 -2.5h-35l-170 449q-9 24 -36 42.5t-64 12.5 q-35 -6 -54.5 -30.5t-19.5 -61.5v-154q9 5 23.5 6.5t25.5 1.5q28 0 53 -10.5t43 -29t28.5 -43t10.5 -52.5q0 -29 -11 -54.5t-29.5 -44.5t-44 -30.5t-54.5 -11.5q-69 0 -108 41.5t-39 107.5v283q0 34 12 61.5t31 47t43.5 32.5t50.5 19q37 7 72 6t64.5 -11.5t52 -30.5 t34.5 -50l92 -248q5 -16 11.5 -37t11.5 -41l12 -47h4l-6 57q-2 24 -4 49.5t-2 44.5v312q0 37 -15.5 68t-42.5 53.5t-63 35.5t-78 13q-40 0 -76.5 -9t-66 -27t-50.5 -44.5t-30 -61.5h-107zM201 131q0 -26 18.5 -44.5t44.5 -18.5t45 18.5t19 44.5t-19 45t-45 19t-44.5 -19 t-18.5 -45z" />
<glyph unicode="&#xe2b;" horiz-adv-x="856" d="M0 688q0 28 10.5 54t29.5 45t44.5 30.5t54.5 11.5q34 0 61 -11t46.5 -30.5t30 -47t10.5 -60.5v-395q0 -13 -1 -26.5t-3 -24.5l-4 -27h2q4 11 7 21.5t7 20.5q6 17 12.5 34.5t11.5 27.5q17 32 40 69.5t51.5 74t63 70t73.5 57.5q-26 15 -44 45.5t-18 68.5q0 29 11 54.5 t30 44.5t44.5 30t54.5 11q31 0 57.5 -11t45.5 -30t29.5 -44.5t10.5 -54.5q0 -40 -19.5 -70t-50.5 -48q17 -16 31 -42.5t14 -76.5v-459h-102v459q0 23 -5 41.5t-22 27.5q-54 -35 -107 -98.5t-97 -137.5t-75.5 -151.5t-43.5 -140.5h-107v561q-9 -5 -23.5 -6.5t-25.5 -1.5 q-29 0 -53.5 10.5t-42.5 29t-28.5 43t-10.5 52.5zM72 688q0 -26 18.5 -44.5t44.5 -18.5t45 18.5t19 44.5t-19 45t-45 19t-44.5 -19t-18.5 -45zM563 694q0 -26 19 -44.5t45 -18.5t44.5 18.5t18.5 44.5t-18.5 45t-44.5 19t-45 -19t-19 -45z" />
<glyph unicode="&#xe2c;" horiz-adv-x="946" d="M0 688q0 28 10.5 54t29.5 45t44.5 30.5t54.5 11.5q34 0 61 -11t46.5 -30.5t30 -47t10.5 -60.5v-516l176 461h86l182 -461v504q0 15 -1.5 31.5t-4.5 31.5q-38 -22 -78.5 -32.5t-77.5 -12.5q-41 -2 -77 7t-63.5 27t-43.5 43.5t-16 55.5q0 28 14.5 53t40 44t61.5 29.5 t80 10.5q72 0 124 -22.5t83 -56.5q24 30 41 67l80 -43q-28 -55 -76 -100q17 -48 17 -99v-612q0 -31 -7 -49t-19.5 -27t-31.5 -11.5t-43 -2.5h-35l-182 465q-2 5 -3.5 12t-2.5 13l-2 14h-4l-2 -14q-1 -6 -2.5 -13t-3.5 -12l-179 -465h-32q-24 0 -43 2.5t-31.5 11.5t-19.5 27 t-7 49v471q-9 -5 -23.5 -6.5t-25.5 -1.5q-29 0 -53.5 10.5t-42.5 29t-28.5 43t-10.5 52.5zM72 688q0 -26 18.5 -44.5t44.5 -18.5t45 18.5t19 44.5t-19 45t-45 19t-44.5 -19t-18.5 -45zM459 821q-1 -15 8.5 -25t24.5 -17t33 -10t34 -3q43 0 75.5 11t61.5 30q-18 31 -51 51.5 t-90 20.5q-43 0 -68.5 -17.5t-27.5 -40.5z" />
<glyph unicode="&#xe2d;" horiz-adv-x="795" d="M51 614q34 105 121 163.5t215 58.5q59 0 112.5 -16t94 -46t64.5 -73t24 -97v-411q0 -49 -9 -85t-31 -60t-59.5 -36t-93.5 -12h-376v434q0 33 10.5 60.5t29.5 47.5t46 31t61 11q29 0 54.5 -11.5t44 -31t29.5 -45.5t11 -54q0 -27 -10.5 -51.5t-28.5 -43t-43 -29.5t-53 -11 q-11 0 -25.5 1.5t-23.5 6.5v-233h217q45 0 73.5 5t45 19t23 39.5t6.5 67.5v373q0 37 -16 68t-43 53.5t-63.5 35.5t-76.5 13q-81 0 -140 -36.5t-83 -105.5h-107zM201 442q0 -26 18.5 -44.5t44.5 -18.5t45 18.5t19 44.5t-19 45t-45 19t-44.5 -19t-18.5 -45z" />
<glyph unicode="&#xe2e;" horiz-adv-x="791" d="M90 674q0 36 20.5 66t56 51t84 33t105.5 12q78 0 141 -20.5t105 -55.5q17 20 31.5 42.5t23.5 47.5l80 -64q-17 -29 -35 -52t-43 -48q19 -34 19 -82v-411q0 -49 -9 -85t-31 -60t-59.5 -36t-93.5 -12h-376v373q0 66 39 107.5t108 41.5q29 0 54.5 -11.5t44 -30.5t29.5 -45 t11 -54t-10.5 -52.5t-28.5 -43t-43 -29t-53 -10.5q-11 0 -25.5 1.5t-23.5 6.5v-172h217q45 0 73.5 5t45 19t22.5 39.5t6 67.5v373q0 26 -4 35q-48 -28 -99.5 -44t-106.5 -22q-44 -5 -92.5 -0.5t-89 18.5t-67 39t-26.5 62zM193 680q0 -14 10 -23t27 -15t39 -8.5t46 -2.5 q66 0 122 18t93 47q-13 13 -33 24t-44 19t-51.5 12.5t-55.5 4.5q-29 0 -56.5 -6t-49 -16t-34.5 -24t-13 -30zM197 381q0 -26 18.5 -45t44.5 -19t45 19t19 45t-19 44.5t-45 18.5t-44.5 -18.5t-18.5 -44.5z" />
<glyph unicode="&#xe2f;" horiz-adv-x="688" d="M0 692q0 28 10.5 53t29.5 44t43.5 29.5t53.5 10.5q28 0 53 -10.5t44 -29.5t29.5 -44t10.5 -53q0 -23 -7 -45.5t-21 -38.5q28 0 64.5 15t70.5 42.5t59 66.5t31 87h45q32 0 45.5 -14.5t13.5 -42.5v-762h-102v637q-23 -29 -54.5 -51t-66.5 -36.5t-70.5 -22t-66.5 -7.5 q-43 0 -82 12.5t-68.5 35t-47 54.5t-17.5 70zM76 692q0 -26 18.5 -44.5t44.5 -18.5t45 18.5t19 44.5t-19 45t-45 19t-44.5 -19t-18.5 -45z" />
<glyph unicode="&#xe30;" horiz-adv-x="696" d="M61 174q0 28 10 52t27.5 41.5t40.5 27.5t49 10q25 0 47.5 -9.5t39.5 -26.5t26.5 -39.5t9.5 -47.5q0 -28 -11.5 -51.5t-31.5 -40.5q19 -6 56 -6q43 0 80.5 14.5t66 42t45 67.5t16.5 91h103q1 -72 -25 -128t-69 -94t-98 -57.5t-113 -19.5q-63 0 -113 13t-84.5 36t-53 55 t-18.5 70zM61 688q0 28 10 52t27.5 41.5t40.5 27.5t49 10q25 0 47.5 -9.5t39.5 -26.5t26.5 -39.5t9.5 -47.5q0 -28 -11.5 -51.5t-31.5 -40.5q19 -6 56 -6q43 0 80.5 14.5t66 42t45 67.5t16.5 91h103q1 -72 -25 -127.5t-69 -94t-98 -58t-113 -19.5q-63 0 -113 13t-84.5 36 t-53 55t-18.5 70zM135 182q0 -23 15 -38t38 -15t38.5 15t15.5 38t-15.5 38.5t-38.5 15.5t-38 -15.5t-15 -38.5zM135 696q0 -23 15 -38t38 -15t38.5 15t15.5 38t-15.5 38.5t-38.5 15.5t-38 -15.5t-15 -38.5z" />
<glyph unicode="&#xe31;" d="M-475 1096q-1 27 9 51t27.5 42t41 28t49.5 10q25 0 47.5 -10t39 -26.5t26.5 -39t10 -47.5q0 -28 -13.5 -53.5t-33.5 -40.5q42 -10 90.5 -4.5t91.5 27.5t74.5 61.5t38.5 97.5h100q-9 -62 -40 -112t-77.5 -85t-105.5 -54t-123 -19q-52 0 -97.5 13t-79.5 36t-54 55t-21 70z M-401 1104q0 -23 15 -38t38 -15t38 15t15 38t-15 38t-38 15t-38 -15t-15 -38z" />
<glyph unicode="&#xe32;" horiz-adv-x="641" d="M-20 614q6 48 30 89t61.5 70.5t86 46t104.5 16.5q58 0 107 -16.5t84.5 -46.5t55 -73t19.5 -96v-604h-102v586q0 75 -43.5 122.5t-122.5 47.5q-33 0 -63.5 -9.5t-54.5 -27.5t-40 -44.5t-20 -60.5h-102z" />
<glyph unicode="&#xe33;" horiz-adv-x="641" d="M-319 1098q0 32 12 60.5t33 49.5t49.5 33t60.5 12t60.5 -12t49.5 -33t33.5 -49.5t12.5 -60.5t-12.5 -60.5t-33.5 -49.5t-49.5 -33.5t-60.5 -12.5t-60.5 12.5t-49.5 33.5t-33 49.5t-12 60.5zM-240 1098q0 -31 22.5 -53.5t53.5 -22.5t53.5 22.5t22.5 53.5q0 32 -22 55 t-54 23t-54 -23t-22 -55zM-20 614q6 48 30 89t61.5 70.5t86 46t104.5 16.5q58 0 107 -16.5t84.5 -46.5t55 -73t19.5 -96v-604h-102v586q0 75 -43.5 122.5t-122.5 47.5q-33 0 -63.5 -9.5t-54.5 -27.5t-40 -44.5t-20 -60.5h-102z" />
<glyph unicode="&#xe34;" d="M-698 948q0 56 20 103t56 81t85 53t107 19q79 0 137.5 -24t97.5 -65.5t59 -96.5t23 -117q-54 26 -126 39.5t-150.5 17.5t-158.5 0.5t-150 -10.5zM-592 1026q37 9 88 12t103.5 0.5t101.5 -10.5t84 -22q-10 24 -28.5 45t-45 37.5t-61.5 26t-78 9.5q-63 0 -106.5 -26.5 t-57.5 -71.5z" />
<glyph unicode="&#xe35;" d="M-698 948q0 56 20 103t56 81t85 53t107 19q69 0 123 -20.5t92 -55.5v129h102v-356q-54 26 -126 39.5t-150.5 17.5t-158.5 0.5t-150 -10.5zM-592 1026q37 9 88 12t103.5 0.5t101.5 -10.5t84 -22q-10 24 -28.5 45t-45 37.5t-61.5 26t-78 9.5q-63 0 -106.5 -26.5 t-57.5 -71.5z" />
<glyph unicode="&#xe36;" d="M-698 948q0 56 20 103t56 81t85 53t107 19q91 0 151 -30q7 42 41 67t76 25q25 0 47.5 -10t39.5 -26.5t26.5 -39t9.5 -47.5q0 -22 -8 -42.5t-21.5 -36.5t-31.5 -27t-37 -15q21 -56 24 -121q-54 26 -126 39t-150.5 16.5t-158.5 0.5t-150 -9zM-592 1026q37 9 88 12 t103.5 0.5t101.5 -10.5t84 -22q-10 24 -28.5 45t-45 37.5t-61.5 26t-78 9.5q-63 0 -106.5 -26.5t-57.5 -71.5zM-215 1143q0 -23 15 -38t38 -15t38 15t15 38t-15 38t-38 15t-38 -15t-15 -38z" />
<glyph unicode="&#xe37;" d="M-698 948q0 56 20 103t56 81t85 53t107 19q22 0 42.5 -1.5t39.5 -6.5v61h72v-83q17 -10 32 -19.5t29 -21.5v124h102v-356q-54 26 -126 39.5t-150.5 17.5t-158.5 0.5t-150 -10.5zM-592 1026q37 9 88 12t103.5 0.5t101.5 -10.5t84 -22q-10 24 -28.5 45t-45 37.5t-61.5 26 t-78 9.5q-63 0 -106.5 -26.5t-57.5 -71.5z" />
<glyph unicode="&#xe38;" d="M-385 -211q0 27 10 50.5t27.5 41t41 27.5t50.5 10q31 0 57 -10.5t45 -29t30 -43.5t11 -54v-273h-102v158q-18 -6 -41 -6q-27 0 -50.5 10t-41 27.5t-27.5 41t-10 50.5zM-315 -211q0 -25 17 -42t42 -17t42 17t17 42t-17 42t-42 17t-42 -17t-17 -42z" />
<glyph unicode="&#xe39;" d="M-610 -211q0 27 10 50.5t27.5 41t41 27.5t50.5 10q31 0 57 -10.5t45 -29t30 -43.5t11 -54v-176h49q22 0 36 1.5t22.5 7t12 17t3.5 31.5v250h102v-262q0 -36 -9 -59.5t-27.5 -37t-46 -19t-64.5 -5.5h-180v137q-20 -6 -41 -6q-27 0 -50.5 10t-41 27.5t-27.5 41t-10 50.5z M-541 -211q0 -25 17.5 -42t42.5 -17q24 0 41.5 17t17.5 42t-17.5 42t-41.5 17q-25 0 -42.5 -17t-17.5 -42z" />
<glyph unicode="&#xe3a;" d="M-246 -164q0 34 24 58t58 24t58 -24t24 -58t-24 -58t-58 -24t-58 24t-24 58z" />
<glyph unicode="&#xe3f;" horiz-adv-x="907" d="M102 0v965h312v133h71v-133q28 0 58 -1.5t57.5 -5.5t52.5 -11t43 -17q48 -28 80.5 -78.5t32.5 -122.5q0 -78 -37.5 -133.5t-103.5 -83.5v-2q88 -19 134 -81t46 -153q0 -53 -18.5 -102.5t-54.5 -88t-90 -62t-126 -23.5h-74v-133h-71v133h-312zM229 109h185v333h-185v-333z M229 551h185v305h-185v-305zM485 109h60q40 0 72.5 12t56 34.5t36.5 54.5t13 71q0 48 -17.5 79t-46 49t-66 25.5t-77.5 7.5h-31v-333zM485 551q107 0 152 38t45 116q0 49 -15.5 79t-42.5 46t-63 21t-76 5v-305z" />
<glyph unicode="&#xe40;" horiz-adv-x="481" d="M154 139v680h102v-561q9 5 23.5 6.5t25.5 1.5q28 0 53 -10.5t43 -29t28.5 -43t10.5 -52.5q0 -29 -11 -54.5t-29.5 -44.5t-44 -30.5t-54.5 -11.5q-69 0 -108 41.5t-39 107.5zM242 131q0 -26 18.5 -44.5t44.5 -18.5t45 18.5t19 44.5t-19 45t-45 19t-44.5 -19t-18.5 -45z " />
<glyph unicode="&#xe41;" horiz-adv-x="870" d="M154 139v680h102v-561q9 5 23.5 6.5t25.5 1.5q28 0 53 -10.5t43 -29t28.5 -43t10.5 -52.5q0 -29 -11 -54.5t-29.5 -44.5t-44 -30.5t-54.5 -11.5q-69 0 -108 41.5t-39 107.5zM242 131q0 -26 18.5 -44.5t44.5 -18.5t45 18.5t19 44.5t-19 45t-45 19t-44.5 -19t-18.5 -45z M543 139v680h102v-561q9 5 23.5 6.5t25.5 1.5q28 0 53 -10.5t43 -29t28.5 -43t10.5 -52.5q0 -29 -11 -54.5t-29.5 -44.5t-44 -30.5t-54.5 -11.5q-69 0 -108 41.5t-39 107.5zM631 131q0 -26 18.5 -44.5t44.5 -18.5t45 18.5t19 44.5t-19 45t-45 19t-44.5 -19t-18.5 -45z" />
<glyph unicode="&#xe42;" horiz-adv-x="522" d="M-57 1217q9 42 31.5 82t56 70t77.5 48t95 17q31 -1 57 -8.5t49 -16.5t44.5 -16t45.5 -7q25 0 44 12.5t34 26.5l74 -61q-22 -25 -55.5 -45.5t-81.5 -20.5q-29 0 -54.5 8.5t-51.5 18.5t-53 18.5t-58 8.5q-21 0 -39.5 -6t-34 -15t-26.5 -20.5t-17 -22.5q54 -5 95 -16.5 t68 -34t40.5 -57.5t13.5 -86v-836q9 5 23.5 6.5t25.5 1.5q28 0 53 -10.5t43 -29t28.5 -43t10.5 -52.5q0 -29 -11 -54.5t-29.5 -44.5t-44 -30.5t-54.5 -11.5q-69 0 -108 41.5t-39 107.5v948q0 48 -21.5 73.5t-57 38t-80.5 15t-93 3.5zM283 131q0 -26 18.5 -44.5t44.5 -18.5 t45 18.5t19 44.5t-19 45t-45 19t-44.5 -19t-18.5 -45z" />
<glyph unicode="&#xe43;" horiz-adv-x="522" d="M-88 1217q0 43 19 82.5t51.5 69.5t74.5 47.5t88 17.5q47 0 90.5 -13.5t76.5 -39t53 -63.5t20 -87q0 -51 -14 -87t-30.5 -67t-30 -63.5t-13.5 -77.5v-678q9 5 23.5 6.5t25.5 1.5q28 0 53 -10.5t43 -29t28.5 -43t10.5 -52.5q0 -29 -11 -54.5t-29.5 -44.5t-44 -30.5 t-54.5 -11.5q-69 0 -108 41.5t-39 107.5v819q0 43 14.5 74.5t31.5 60.5t31.5 60.5t14.5 73.5q0 27 -10 50t-28 40t-44.5 27t-59.5 10q-18 0 -34 -4.5t-29.5 -11.5t-23 -16t-13.5 -17q25 1 48.5 -6.5t42 -23t29.5 -38t11 -51.5q0 -26 -10 -48t-27 -38t-40 -25.5t-48 -9.5 t-50 10.5t-44.5 30.5t-32 48t-12.5 63zM-2 1186q0 -22 16 -37.5t37 -15.5q22 0 37.5 15.5t15.5 37.5q0 21 -15.5 37t-37.5 16q-21 0 -37 -16t-16 -37zM283 131q0 -26 18.5 -44.5t44.5 -18.5t45 18.5t19 44.5t-19 45t-45 19t-44.5 -19t-18.5 -45z" />
<glyph unicode="&#xe44;" horiz-adv-x="522" d="M-115 1356l80 61q24 -7 47 -19t42 -27t33 -31.5t22 -32.5q26 34 66.5 54.5t86.5 20.5q33 0 61 -9.5t48 -26t31.5 -38.5t11.5 -46q-26 -10 -47 -27.5t-37 -39.5t-24.5 -46.5t-8.5 -48.5v-842q9 5 23.5 6.5t25.5 1.5q28 0 53 -10.5t43 -29t28.5 -43t10.5 -52.5 q0 -29 -11 -54.5t-29.5 -44.5t-44 -30.5t-54.5 -11.5q-69 0 -108 41.5t-39 107.5v971q0 51 30.5 93t81.5 65q-5 14 -21 23t-44 9q-21 0 -41.5 -8.5t-38.5 -22t-33.5 -30.5t-26.5 -33q-15 22 -38 44.5t-52 42.5t-61.5 36.5t-65.5 26.5zM283 131q0 -26 18.5 -44.5t44.5 -18.5 t45 18.5t19 44.5t-19 45t-45 19t-44.5 -19t-18.5 -45z" />
<glyph unicode="&#xe45;" horiz-adv-x="662" d="M0 614q6 48 30 89t62 70.5t86.5 46t104.5 16.5q58 0 107 -16.5t84 -46.5t55 -73t20 -96v-911h-103v893q0 75 -43.5 122.5t-121.5 47.5q-35 0 -65 -9.5t-54 -27.5t-39.5 -44.5t-20.5 -60.5h-102z" />
<glyph unicode="&#xe46;" horiz-adv-x="694" d="M-4 565q0 42 18 81t46.5 73.5t64 64t70.5 52.5q5 0 28 -14t49.5 -31.5t48.5 -31.5t25 -14q4 0 26.5 14t49 31.5t49.5 31.5t29 14q10 0 33.5 -23t48 -54.5t43 -63.5t18.5 -50q0 -32 -16.5 -56.5t-36 -46.5t-35.5 -44t-16 -49v-756h-103v774q0 31 16.5 56t37 45.5t37 38.5 t16.5 36q0 4 -9 18t-20 29.5t-21 28t-12 12.5t-22.5 -12.5t-45 -27.5t-45 -27.5t-22.5 -12.5q-3 0 -25 13t-48 30q-30 17 -68 43l-19 -16q-8 -8 -18 -17t-18 -20q24 -1 46.5 -12t40 -29t28.5 -42.5t11 -53.5t-10.5 -53.5t-29.5 -43.5t-44 -29.5t-53 -10.5q-27 0 -53 11 t-46 31t-32 49t-12 64zM78 547q0 -26 18.5 -45t44.5 -19t45 19t19 45t-19 44.5t-45 18.5t-44.5 -18.5t-18.5 -44.5z" />
<glyph unicode="&#xe47;" d="M-639 1083q0 34 13.5 64.5t38 54t59 39t75.5 19.5q31 3 65.5 0.5t63.5 -0.5q23 1 44.5 6.5t37.5 17t25.5 30t9.5 46.5h105q0 -39 -19.5 -70.5t-50.5 -54t-70.5 -34t-79.5 -9.5q-32 2 -63.5 1.5t-54.5 -3.5q-20 -2 -38.5 -10t-32.5 -21t-23 -31.5t-9 -40.5t8 -37.5 t18.5 -25t21 -14t16.5 -4.5l73 104q9 -12 20 -23q9 -10 19 -21t21 -19q6 40 37 69t76 29q23 0 43.5 -9t35.5 -24t24 -35.5t9 -42.5q0 -23 -9 -43.5t-25.5 -35.5t-39 -24t-49.5 -9q-49 0 -90 24.5t-67 54.5l-45 -69h-58q-24 0 -48.5 10t-43.5 29t-31 47t-12 65zM-281 1034 q0 -21 13 -34t35 -13q21 0 34 13t13 34q0 22 -13 34.5t-34 12.5q-22 0 -35 -12.5t-13 -34.5z" />
<glyph unicode="&#xe48;" d="M-215 1319v246h102v-246h-102z" />
<glyph unicode="&#xe49;" d="M-391 1528q0 22 8.5 41.5t23.5 33.5t34.5 22.5t41.5 8.5q27 0 48 -9t35.5 -25t22.5 -36.5t9 -43.5q1 -18 -2 -38t-8.5 -38.5t-13.5 -34.5t-17 -25q40 9 74.5 31t59.5 51.5t40.5 63t18.5 65.5h92q-12 -68 -46 -121.5t-84 -91t-114 -59t-137 -25.5l-41 29q28 20 50.5 45 t33.5 51q-6 -2 -11 -2h-10q-22 0 -41.5 8.5t-34.5 22.5t-23.5 33.5t-8.5 42.5zM-330 1528q0 -20 13.5 -33.5t33.5 -13.5q19 0 32 13.5t13 33.5q0 18 -13 31.5t-32 13.5q-20 0 -33.5 -13.5t-13.5 -31.5z" />
<glyph unicode="&#xe4a;" d="M-430 1430q0 38 14 69t35.5 54t48.5 38t53 21l82 -58l76 56q51 -13 84 -50t33 -94q0 -24 -2.5 -45t-7.5 -37q14 12 25 35t17 52.5t5.5 62t-10.5 63.5h90q13 -73 -1.5 -127t-43 -90.5t-64 -56.5t-63.5 -25l-52 35q13 14 23 40.5t10 60.5q0 38 -16.5 63.5t-30.5 34.5 l-72 -51l-90 57q-14 -5 -26 -17.5t-15 -21.5q4 0 6 1q2 0 4.5 0.5t4.5 0.5q22 0 41.5 -8t33.5 -22t22.5 -32.5t8.5 -39.5t-8.5 -39.5t-22.5 -32t-33.5 -21.5t-41.5 -8q-24 0 -45.5 9t-37 26t-25 41.5t-9.5 55.5zM-356 1399q0 -17 12 -29t31 -12q18 0 30.5 12t12.5 29 q0 18 -12.5 30.5t-30.5 12.5q-19 0 -31 -12.5t-12 -30.5z" />
<glyph unicode="&#xe4b;" d="M-330 1430v73h121v111h90v-111h121v-73h-121v-111h-90v111h-121z" />
<glyph unicode="&#xe4c;" d="M-385 1376q0 30 12 54t33.5 41.5t51.5 28.5t65 16q52 8 83 33t36 67l84 -33q-5 -35 -24 -59.5t-45 -40t-55.5 -23t-54.5 -8.5q24 -6 41 -32t17 -56q0 -24 -9 -44.5t-25 -35t-38 -23t-47 -8.5q-21 0 -43 8t-40 24t-30 39t-12 52zM-309 1364q0 -20 14.5 -33.5t34.5 -13.5 q18 0 32.5 13.5t14.5 33.5t-14.5 33.5t-32.5 13.5q-20 0 -34.5 -13.5t-14.5 -33.5z" />
<glyph unicode="&#xe4d;" d="M-319 1098q0 32 12 60.5t33 49.5t49.5 33t60.5 12t60.5 -12t49.5 -33t33.5 -49.5t12.5 -60.5t-12.5 -60.5t-33.5 -49.5t-49.5 -33.5t-60.5 -12.5t-60.5 12.5t-49.5 33.5t-33 49.5t-12 60.5zM-240 1098q0 -31 22.5 -53.5t53.5 -22.5t53.5 22.5t22.5 53.5q0 32 -22 55 t-54 23t-54 -23t-22 -55z" />
<glyph unicode="&#xe4e;" d="M-492 1020q0 28 14 52t38 43.5t56.5 33t68.5 19.5q-48 25 -48 82q0 71 93 116q45 23 101 33t122 10h30.5t30.5 -2v-63q-20 2 -38.5 3t-37.5 1q-96 0 -155 -25q-68 -29 -68 -75q0 -61 121 -58v-63q-93 3 -166 -23q-86 -27 -86 -80q0 -39 62 -39q57 0 116 31l31 -53 q-73 -37 -147 -37q-138 0 -138 94z" />
<glyph unicode="&#xe4f;" horiz-adv-x="1024" d="M92 410q0 87 33 163t90 133t133.5 90t163.5 33t163.5 -33t133.5 -90t90 -133t33 -163t-33 -163.5t-90 -133.5t-133.5 -90t-163.5 -33t-163.5 33t-133.5 90t-90 133.5t-33 163.5zM154 410q0 -74 28 -139.5t77 -114t114 -77t139 -28.5t139 28.5t114 77t77 114t28 139.5 q0 73 -28 138.5t-77 114t-114 77t-139 28.5t-139 -28.5t-114 -77t-77 -114t-28 -138.5zM256 410q0 53 20 99.5t55 81.5t81.5 55t99.5 20t99.5 -20t81.5 -55t55 -81.5t20 -99.5t-20 -100t-55 -81.5t-81.5 -54.5t-99.5 -20t-99.5 20t-81.5 54.5t-55 81.5t-20 100zM317 410 q0 -40 15.5 -75.5t42 -62t62 -42t75.5 -15.5t75.5 15.5t62 42t42 62t15.5 75.5t-15.5 75t-42 61.5t-62 42t-75.5 15.5t-75.5 -15.5t-62 -42t-42 -61.5t-15.5 -75z" />
<glyph unicode="&#xe50;" horiz-adv-x="803" d="M72 307q0 66 25.5 124t70 101t104.5 68t129 25t129 -25t104.5 -68t70.5 -101t26 -124t-26 -124t-70.5 -100.5t-104.5 -67.5t-129 -25t-129 25t-104.5 67.5t-70 100.5t-25.5 124zM174 307q0 -52 18.5 -94.5t50 -73t72.5 -47t86 -16.5t86 16.5t72.5 47t50.5 73t19 94.5 t-19 95t-50.5 73.5t-72.5 47t-86 16.5t-86 -16.5t-72.5 -47t-50 -73.5t-18.5 -95z" />
<glyph unicode="&#xe51;" horiz-adv-x="823" d="M72 305q0 67 28.5 125.5t75 102t107 68t125.5 24.5q76 0 139 -24.5t108.5 -68t71 -104t25.5 -133.5q0 -57 -17.5 -110t-47.5 -100t-70 -87.5t-85 -71.5l-57 58q32 21 63.5 53t56 72t39.5 86t15 94q0 55 -18.5 100t-51 76.5t-75.5 49t-92 17.5q-48 0 -91 -17.5 t-75.5 -47.5t-52 -71t-19.5 -89q0 -57 18 -100.5t45 -72.5t59 -42.5t60 -9.5q-32 14 -56 44t-24 75q0 27 10.5 49.5t27.5 39.5t40 26.5t47 9.5q28 0 52.5 -10.5t43 -29t29.5 -44t11 -54.5q0 -40 -17 -75t-45.5 -61.5t-66.5 -42t-80 -15.5q-47 0 -93 21t-82 61t-58.5 97.5 t-22.5 131.5zM346 195q0 -23 17 -40.5t40 -17.5t39.5 17.5t16.5 40.5t-16.5 40t-39.5 17t-40 -17t-17 -40z" />
<glyph unicode="&#xe52;" horiz-adv-x="997" d="M18 772l95 57q43 -15 62.5 -54t19.5 -87v-487q0 -57 23 -86t89 -29h496v369q0 40 -20.5 63t-57.5 23q-15 0 -29 -5t-25.5 -14.5t-18.5 -24t-7 -32.5v-68h-96v60q0 32 -23 57t-61 25q-42 0 -63 -24t-21 -56v-64q11 5 21.5 6.5t21.5 1.5q27 0 51 -10.5t42.5 -29t29 -42.5 t10.5 -51t-10.5 -51t-29 -42t-42.5 -29t-51 -11q-32 0 -58.5 10.5t-45.5 29.5t-30 44t-11 55v199q0 37 15.5 65t41 47t57.5 28.5t66 9.5q45 0 80 -16t55 -48q23 34 61.5 49t81.5 15q36 0 67 -11.5t53.5 -31t35 -45.5t12.5 -54v-483h-641q-44 0 -76.5 13.5t-53.5 36.5 t-31.5 54.5t-10.5 67.5v494q0 38 -16 65t-58 41zM365 270q0 -24 17 -41.5t42 -17.5t42 17.5t17 41.5q0 25 -17 42.5t-42 17.5t-42 -17.5t-17 -42.5z" />
<glyph unicode="&#xe53;" horiz-adv-x="913" d="M92 129v305q0 45 18 80.5t47 60.5t67 38.5t79 13.5q39 0 68.5 -9t50 -23.5t32.5 -32.5t17 -36q17 39 58.5 69t107.5 30q42 0 76 -13t58 -36.5t37 -55.5t13 -69v-451h-102v432q0 51 -27.5 79t-70.5 28q-48 0 -74.5 -29t-26.5 -68v-442h-96v424q0 18 -6.5 38t-20 37 t-35 28.5t-51.5 11.5q-52 0 -84 -31t-32 -82v-178q21 8 43 8q27 0 51 -10.5t42 -29t29 -42.5t11 -51t-11 -51t-29 -42.5t-42 -29t-51 -10.5q-32 0 -58.5 10.5t-46 29t-30.5 44t-11 55.5zM178 123q0 -25 17.5 -42.5t42.5 -17.5q24 0 41.5 17.5t17.5 42.5t-17.5 42t-41.5 17 q-25 0 -42.5 -17t-17.5 -42z" />
<glyph unicode="&#xe54;" horiz-adv-x="860" d="M72 293q0 73 28 133.5t77.5 103t118.5 65t150 19.5q54 -2 109 6.5t97 31.5t64.5 63.5t10.5 103.5h107q10 -75 -14 -131.5t-74.5 -93.5t-123.5 -54.5t-161 -15.5q-63 1 -115 -15.5t-88.5 -48t-57 -76t-20.5 -99.5q0 -65 25.5 -111.5t66 -71t91.5 -25.5t102 25 q-25 25 -45.5 63t-20.5 95q0 32 12 58.5t32.5 45t47.5 29t56 10.5q28 0 52 -10.5t42 -28.5t28.5 -42t10.5 -52q0 -27 -10.5 -51.5t-28.5 -42.5t-42 -28.5t-52 -10.5q22 -29 53.5 -45t63 -20t60 3t44.5 23l43 -71q-29 -20 -66.5 -28.5t-72.5 -8.5q-42 0 -79 12.5t-65 40.5 q-32 -26 -77.5 -39.5t-108.5 -13.5q-58 0 -107.5 21.5t-85.5 61.5t-56.5 96t-20.5 124zM487 270q0 -24 17.5 -41.5t42.5 -17.5t42 17.5t17 41.5q0 25 -17 42.5t-42 17.5t-42.5 -17.5t-17.5 -42.5z" />
<glyph unicode="&#xe55;" horiz-adv-x="860" d="M72 293q0 55 16 103.5t46 87.5t72 67.5t93 44.5q-15 19 -25 41.5t-10 48.5q0 29 12 54.5t33 44t49.5 29.5t61.5 11t61.5 -11t49 -29.5t32.5 -44t12 -54.5q0 -17 -5.5 -34t-14.5 -31q40 7 75 21t59.5 38t35.5 58t2 81h107q10 -75 -14 -131.5t-74.5 -93.5t-123.5 -54.5 t-161 -15.5q-63 1 -115 -15.5t-88.5 -48t-57 -76t-20.5 -99.5q0 -65 25.5 -111.5t66 -71t91.5 -25.5t102 25q-25 25 -45.5 63t-20.5 95q0 32 12 58.5t32.5 45t47.5 29t56 10.5q28 0 52 -10.5t42 -28.5t28.5 -42t10.5 -52q0 -27 -10.5 -51.5t-28.5 -42.5t-42 -28.5t-52 -10.5 q22 -29 53.5 -45t63 -20t60 3t44.5 23l43 -71q-29 -20 -66.5 -28.5t-72.5 -8.5q-42 0 -79 12.5t-65 40.5q-32 -26 -77.5 -39.5t-108.5 -13.5q-58 0 -107.5 21.5t-85.5 61.5t-56.5 96t-20.5 124zM356 676q0 -28 18.5 -46t47.5 -18t47 18t18 46t-18 45.5t-47 17.5t-47.5 -17.5 t-18.5 -45.5zM487 270q0 -24 17.5 -41.5t42.5 -17.5t42 17.5t17 41.5q0 25 -17 42.5t-42 17.5t-42.5 -17.5t-17.5 -42.5z" />
<glyph unicode="&#xe56;" horiz-adv-x="774" d="M-45 772l90 59q45 -38 73 -86t44 -91q19 -51 26 -101q36 29 89 51.5t129 22.5q72 0 127 -26t92.5 -69.5t57 -100.5t19.5 -118q0 -66 -22 -124.5t-63.5 -103t-101.5 -70t-136 -25.5q-66 0 -119 16t-90.5 43.5t-57.5 64.5t-20 79q0 27 10.5 51.5t28.5 42.5t42.5 28.5 t51.5 10.5q28 0 52 -10.5t42 -28.5t28.5 -42.5t10.5 -51.5q0 -32 -13 -59t-36 -46q14 -5 28 -6.5t28 -1.5q46 0 87.5 17t73 47.5t50 73t18.5 93.5q0 42 -13 83t-39 73.5t-65.5 52t-91.5 19.5q-33 0 -62.5 -9t-54 -24t-43 -33.5t-28.5 -36.5l-93 19q-7 61 -26 122 q-8 25 -19 52t-26 52.5t-34.5 49t-43.5 41.5zM170 193q0 -25 17.5 -42.5t41.5 -17.5q25 0 42.5 17.5t17.5 42.5q0 24 -17.5 41.5t-42.5 17.5q-24 0 -41.5 -17.5t-17.5 -41.5z" />
<glyph unicode="&#xe57;" horiz-adv-x="1102" d="M92 129v305q0 45 18 80.5t47 60.5t67 38.5t79 13.5q39 0 68.5 -9t50 -23.5t32.5 -32.5t17 -36q17 39 58.5 69t107.5 30q42 0 76 -13t58 -36.5t37 -55.5t13 -69v-256q0 -29 -7.5 -50t-15.5 -35q-5 -8 -10.5 -15.5t-11.5 -12.5q48 19 78.5 58.5t46.5 90.5t20 109t-1 115 q-6 54 -11 107.5t-3 102t14 91t41 75.5l102 -43q-30 -25 -41 -68t-12 -95.5t3.5 -110.5t6.5 -113q2 -80 -14.5 -151t-52.5 -125.5t-93 -90.5t-137 -46l-76 59q19 9 36 26q14 14 25 36.5t11 56.5v266q0 51 -27.5 79t-70.5 28q-48 0 -74.5 -29t-26.5 -68v-442h-96v424 q0 18 -6.5 38t-20 37t-35 28.5t-51.5 11.5q-52 0 -84 -31t-32 -82v-178q21 8 43 8q27 0 51 -10.5t42 -29t29 -42.5t11 -51t-11 -51t-29 -42.5t-42 -29t-51 -10.5q-32 0 -58.5 10.5t-46 29t-30.5 44t-11 55.5zM178 123q0 -25 17.5 -42.5t42.5 -17.5q24 0 41.5 17.5t17.5 42.5 t-17.5 42t-41.5 17q-25 0 -42.5 -17t-17.5 -42z" />
<glyph unicode="&#xe58;" horiz-adv-x="850" d="M72 293q0 81 26 142.5t74.5 102t117 60t152.5 16.5q76 -2 124 12.5t74.5 42t34 66t3.5 84.5h106q6 -68 -9.5 -123t-54.5 -94t-103.5 -59t-157.5 -17q-139 5 -210 -52.5t-71 -186.5q0 -51 8.5 -89.5t22.5 -63.5t32 -37.5t38 -12.5q21 0 36 14t24.5 35.5t14 46.5t4.5 47h86 q0 -28 10 -55t28 -48.5t44 -34.5t58 -13q15 0 31 5.5t29.5 15t22.5 23t11 30.5q-28 -7 -56.5 -2t-52 20.5t-38.5 41.5t-15 62q0 25 9.5 48t26.5 40t40 27t49 10q30 0 56 -10t45.5 -31t30.5 -52.5t11 -74.5q0 -56 -14.5 -100.5t-40.5 -75t-63.5 -47t-83.5 -16.5 q-57 0 -103 27t-69 73q-14 -45 -48.5 -72.5t-85.5 -27.5q-50 0 -88 21.5t-64 61t-39 95.5t-13 125zM586 272q0 -24 16 -39.5t39 -15.5t39 15.5t16 39.5q0 23 -16 39.5t-39 16.5t-39 -16.5t-16 -39.5z" />
<glyph unicode="&#xe59;" horiz-adv-x="991" d="M72 315q0 67 18.5 124.5t53.5 99t85.5 65t114.5 23.5q66 0 119.5 -27.5t79.5 -81.5q4 21 15.5 41t29 35.5t41.5 25.5t53 11q43 2 75 -15.5t48 -42.5q-6 40 -1 78.5t19 72.5t37 61t53 44l80 -61q-33 -21 -54 -54t-31.5 -72.5t-12 -82.5t3.5 -84l-100 -31q-3 15 -11 31 t-21 29.5t-31.5 21.5t-41.5 6q-22 -2 -43 -19t-34 -49.5t-14.5 -80.5t15.5 -111q9 -32 24.5 -66t34.5 -65.5t40.5 -56.5t42.5 -39l-101 -55q-38 37 -67 84t-49.5 98.5t-34 104.5t-21.5 102q-5 28 -16 56t-29 50t-43.5 36t-60.5 14q-33 0 -62.5 -15t-51.5 -43.5t-35 -69 t-13 -92.5q0 -48 10.5 -84.5t16.5 -46.5q14 28 42.5 48t71.5 20q27 0 50.5 -10t41 -27.5t27.5 -41.5t10 -52q0 -29 -11 -53t-30 -41t-45 -27t-55 -10q-39 0 -80.5 18.5t-75 58t-55.5 101t-22 147.5zM262 123q0 -23 17 -40t40 -17t39.5 17t16.5 40t-16.5 40t-39.5 17t-40 -17 t-17 -40z" />
<glyph unicode="&#xe5a;" horiz-adv-x="952" d="M80 692q0 28 10.5 53t29.5 44t43.5 29.5t53.5 10.5q49 0 96 -41q41 -39 41 -96q0 -49 -28 -84q79 0 147 68q66 66 78 143h24q80 0 80 -117l50 31q47 41 59 86h16q38 0 59 -33t21 -84v-702h-102v690l-49 -41l-54 -28v-621h-102v637q-92 -117 -258 -117q-46 0 -85.5 12 t-68 34.5t-45 54.5t-16.5 71zM160 692q0 -20 16 -43q15 -9 43 -16q25 0 41 16q19 23 19 43q0 10 -5 20.5t-13.5 19.5t-19 14.5t-22.5 5.5q-53 0 -59 -60z" />
<glyph unicode="&#xe5b;" horiz-adv-x="1442" d="M82 414q0 141 68 242q69 100 174 100q86 0 145 -71t59 -175q0 -41 -9 -75t-25.5 -59t-40 -38.5t-52.5 -13.5q-47 0 -80 36q-32 38 -32 91q0 51 32 89q33 38 78 38q24 0 39 -7q-29 111 -112 111q-67 0 -117 -77q-49 -76 -49 -199q0 -118 56 -189q55 -70 142 -70 q99 0 174 100q77 101 99 271q11 74 45 74q55 0 102 -197l21 123q10 55 32 55q49 0 99 -161q12 123 41 123q43 0 98 -136q29 107 53 107q26 0 66 -82q14 50 47 45l111 -14q43 -6 43 -21q0 -20 -46 -24l-110 -11q-26 -59 -43 -59q-15 0 -31 30l-33 62q-29 -117 -57 -117 q-13 0 -39 47l-41 84q-25 -151 -59 -151q-18 0 -41 59q-20 51 -30.5 77t-12.5 30q-4 -35 -12 -66.5t-19 -60.5q-24 -66 -49 -66t-35 45q-9 43 -19.5 80.5t-21.5 69.5q-31 -177 -119 -275q-100 -112 -225 -112q-118 0 -191 94t-73 244zM350 451q0 -25 15.5 -44.5t33.5 -19.5 q50 0 50 64q0 65 -50 65q-49 0 -49 -65z" />
<glyph unicode="&#x2000;" horiz-adv-x="817" />
<glyph unicode="&#x2001;" horiz-adv-x="1634" />
<glyph unicode="&#x2002;" horiz-adv-x="817" />
<glyph unicode="&#x2003;" horiz-adv-x="1634" />
<glyph unicode="&#x2004;" horiz-adv-x="544" />
<glyph unicode="&#x2005;" horiz-adv-x="408" />
<glyph unicode="&#x2006;" horiz-adv-x="272" />
<glyph unicode="&#x2007;" horiz-adv-x="272" />
<glyph unicode="&#x2008;" horiz-adv-x="204" />
<glyph unicode="&#x2009;" horiz-adv-x="326" />
<glyph unicode="&#x200a;" horiz-adv-x="90" />
<glyph unicode="&#x200c;" />
<glyph unicode="&#x200d;" />
<glyph unicode="&#x2010;" horiz-adv-x="526" d="M68 338v82h391v-82h-391z" />
<glyph unicode="&#x2011;" horiz-adv-x="526" d="M68 338v82h391v-82h-391z" />
<glyph unicode="&#x2012;" horiz-adv-x="526" d="M68 338v82h391v-82h-391z" />
<glyph unicode="&#x2013;" horiz-adv-x="737" d="M41 297v90h655v-90h-655z" />
<glyph unicode="&#x2014;" horiz-adv-x="1475" d="M41 297v90h1393v-90h-1393z" />
<glyph unicode="&#x2018;" horiz-adv-x="352" d="M82 780q0 34 10 64.5t26.5 57.5t38 49.5t44.5 39.5l57 -33q-42 -29 -63 -60t-29 -62q6 2 18 2q18 0 33.5 -7t27 -19t18.5 -28t7 -34q0 -39 -25.5 -65t-60.5 -26q-19 0 -37.5 7.5t-32.5 22.5t-23 37.5t-9 53.5z" />
<glyph unicode="&#x2019;" horiz-adv-x="352" d="M82 901q0 19 7 35.5t19 28.5t28 19t34 7q19 0 37.5 -7.5t32.5 -22.5t23 -37.5t9 -53.5q0 -33 -10 -64t-26.5 -58t-37.5 -49.5t-44 -39.5l-58 33q42 29 63 60.5t29 62.5q-6 -2 -18 -2q-37 0 -62.5 25.5t-25.5 62.5z" />
<glyph unicode="&#x201c;" horiz-adv-x="614" d="M82 780q0 34 10 64.5t26.5 57.5t38 49.5t44.5 39.5l57 -33q-42 -29 -63 -60t-29 -62q6 2 18 2q18 0 33.5 -7t27 -19t18.5 -28t7 -34q0 -39 -25.5 -65t-60.5 -26q-19 0 -37.5 7.5t-32.5 22.5t-23 37.5t-9 53.5zM342 780q0 34 10 64.5t26.5 57.5t38 49.5t44.5 39.5l57 -33 q-42 -29 -63 -60t-29 -62q6 2 18 2q38 0 63 -25.5t25 -62.5q0 -39 -25 -65t-63 -26q-19 0 -37.5 7.5t-32.5 22.5t-23 37.5t-9 53.5z" />
<glyph unicode="&#x201d;" horiz-adv-x="614" d="M82 901q0 19 7 35.5t19 28.5t28 19t34 7q19 0 37.5 -7.5t32.5 -22.5t23 -37.5t9 -53.5q0 -33 -10 -64t-26.5 -58t-37.5 -49.5t-44 -39.5l-58 33q42 29 63 60.5t29 62.5q-6 -2 -18 -2q-37 0 -62.5 25.5t-25.5 62.5zM344 901q0 38 25.5 64t60.5 26q19 0 37.5 -7.5 t32.5 -22.5t23 -37.5t9 -53.5q0 -33 -10 -64t-26.5 -58t-37.5 -49.5t-44 -39.5l-58 33q42 29 63.5 60.5t29.5 62.5q-6 -2 -19 -2q-18 0 -33.5 7t-27 19t-18.5 28t-7 34z" />
<glyph unicode="&#x2022;" horiz-adv-x="799" d="M92 410q0 64 24 120t65.5 97.5t97.5 65.5t120 24t120 -24t98 -65.5t66 -97.5t24 -120t-24 -120t-66 -98t-98 -66t-120 -24t-120 24t-97.5 66t-65.5 98t-24 120z" />
<glyph unicode="&#x2026;" horiz-adv-x="922" d="M72 72q0 34 24 58t58 24t58 -24t24 -58t-24 -58t-58 -24t-58 24t-24 58zM379 72q0 34 24 58t58 24t58 -24t24 -58t-24 -58t-58 -24t-58 24t-24 58zM686 72q0 34 24 58t58 24t58 -24t24 -58t-24 -58t-58 -24t-58 24t-24 58z" />
<glyph unicode="&#x202f;" horiz-adv-x="326" />
<glyph unicode="&#x205f;" horiz-adv-x="408" />
<glyph unicode="&#x25fc;" horiz-adv-x="700" d="M0 0v700h700v-700h-700z" />
<glyph unicode="&#xf700;" horiz-adv-x="709" d="M0 610q28 107 99 166.5t196 59.5q31 0 60.5 -8t56.5 -17l51 -17t43 -8q22 0 37 12t32 27l78 -57q-28 -32 -56.5 -53t-70.5 -21q-32 0 -62 8.5t-59 19t-58.5 20t-59.5 10.5q-35 1 -60.5 -5t-44 -16.5t-30 -23.5t-17.5 -25q54 -2 118 -6.5t130 -13.5q46 -7 88.5 -18.5 t74.5 -30.5t51 -46.5t19 -66.5q0 -53 -11 -108.5t-26 -116.5t-30.5 -129t-24.5 -146h-127l-86 287q-31 -25 -78 -25q-28 0 -53 11t-43.5 29.5t-29.5 43.5t-11 53t11 53.5t29.5 44t43.5 29.5t53 11q62 0 99.5 -38.5t52.5 -95.5l49 -178q4 -14 7 -31.5t5 -32.5q2 -9 3 -18 l2 -18h4q0 16 1 44t5 52q6 34 14 69t15.5 68.5t12.5 65t5 59.5q0 32 -21 52t-54.5 32.5t-75 19t-81.5 11.5q-35 4 -72.5 6t-73.5 3t-69.5 1.5t-60.5 1.5zM170 399q0 -26 18.5 -44.5t44.5 -18.5t45 18.5t19 44.5t-19 45t-45 19t-44.5 -19t-18.5 -45z" />
<glyph unicode="&#xf701;" d="M-924 948q0 56 20.5 103t56.5 81t85 53t107 19q79 0 137.5 -24t97.5 -65.5t59 -96.5t23 -117q-54 26 -126 39.5t-150.5 17.5t-158.5 0.5t-151 -10.5zM-817 1026q37 9 88 12t103.5 0.5t101.5 -10.5t84 -22q-10 24 -28.5 45t-45.5 37.5t-62 26t-77 9.5q-63 0 -106.5 -26.5 t-57.5 -71.5z" />
<glyph unicode="&#xf702;" d="M-924 948q0 56 20.5 103t56.5 81t85 53t107 19q69 0 122.5 -20.5t92.5 -55.5v129h102v-356q-54 26 -126 39.5t-150.5 17.5t-158.5 0.5t-151 -10.5zM-817 1026q37 9 88 12t103.5 0.5t101.5 -10.5t84 -22q-10 24 -28.5 45t-45.5 37.5t-62 26t-77 9.5q-63 0 -106.5 -26.5 t-57.5 -71.5z" />
<glyph unicode="&#xf703;" d="M-924 948q0 56 20.5 103t56.5 81t85 53t107 19q89 0 151 -30q3 21 14 38t27 29t35.5 18.5t40.5 6.5q25 0 47.5 -10t39.5 -26.5t26.5 -39t9.5 -47.5q0 -22 -8 -42.5t-21.5 -36.5t-31.5 -27t-37 -15q21 -56 24 -121q-54 26 -126 39t-150.5 16.5t-158.5 0.5t-151 -9z M-817 1026q37 9 88 12t103.5 0.5t101.5 -10.5t84 -22q-10 24 -28.5 45t-45.5 37.5t-62 26t-77 9.5q-63 0 -106.5 -26.5t-57.5 -71.5zM-440 1143q0 -23 15 -38t38 -15t38 15t15 38t-15 38t-38 15t-38 -15t-15 -38z" />
<glyph unicode="&#xf704;" d="M-924 948q0 56 20.5 103t56.5 81t85 53t107 19q21 0 42 -1.5t40 -6.5v61h71v-83q17 -10 32.5 -19.5t29.5 -21.5v124h102v-356q-54 26 -126 39.5t-150.5 17.5t-158.5 0.5t-151 -10.5zM-817 1026q37 9 88 12t103.5 0.5t101.5 -10.5t84 -22q-10 24 -28.5 45t-45.5 37.5 t-62 26t-77 9.5q-63 0 -106.5 -26.5t-57.5 -71.5z" />
<glyph unicode="&#xf705;" d="M-430 942v287h102v-287h-102z" />
<glyph unicode="&#xf706;" d="M-686 1176q0 24 9.5 45.5t25.5 37.5t37.5 25.5t46.5 9.5q30 0 53.5 -10.5t40 -27.5t25.5 -40.5t10 -48.5q1 -20 -2.5 -42t-10 -43t-15 -38.5t-17.5 -27.5q44 10 81.5 35t65 57.5t45 70t21.5 72.5h102q-14 -76 -51.5 -135.5t-93 -101t-127 -65t-152.5 -27.5l-45 30 q31 23 56 51t36 56q-6 -2 -11 -2h-11q-25 0 -46.5 9.5t-37.5 25.5t-25.5 37.5t-9.5 46.5zM-618 1176q0 -22 14.5 -37t36.5 -15q21 0 36 15t15 37q0 21 -15 36t-36 15q-22 0 -36.5 -15t-14.5 -36z" />
<glyph unicode="&#xf707;" d="M-819 1065q0 42 15.5 76.5t39.5 61t54 43t59 22.5l90 -64l86 62q27 -7 50.5 -21.5t41 -35t27.5 -46.5t10 -57q0 -26 -3 -49.5t-9 -40.5q16 12 29 38t20 58.5t6 68.5t-12 70h98q15 -80 -1 -140t-47.5 -101t-71 -63t-71.5 -27l-57 38q14 16 25.5 45t11.5 66q0 43 -18 71.5 t-33 39.5l-80 -58l-100 64q-16 -5 -29.5 -18.5t-18.5 -24.5q4 0 7 1q3 0 5.5 0.5t4.5 0.5q24 0 46 -9t38 -24.5t25.5 -36t9.5 -43.5t-9.5 -43.5t-25.5 -35.5t-38 -24t-46 -9q-26 0 -49.5 10t-41 28.5t-28 45.5t-10.5 61zM-737 1032q0 -20 13.5 -33.5t33.5 -13.5t33.5 13.5 t13.5 33.5t-13.5 33.5t-33.5 13.5t-33.5 -13.5t-13.5 -33.5z" />
<glyph unicode="&#xf708;" d="M-645 1044v82h133v123h102v-123h134v-82h-134v-122h-102v122h-133z" />
<glyph unicode="&#xf709;" d="M-602 1059q0 65 50 104t130 49q57 8 91.5 37.5t39.5 75.5l94 -37q-5 -39 -26 -66t-49.5 -44t-61.5 -25.5t-61 -9.5q13 -4 24.5 -14t20 -23.5t13.5 -29.5t5 -32q0 -26 -10 -48t-28 -38.5t-42.5 -26t-52.5 -9.5q-23 0 -47 9t-44 26.5t-33 43t-13 58.5zM-518 1044 q0 -21 15.5 -37t37.5 -16t37.5 16t15.5 37q0 22 -15.5 38t-37.5 16t-37.5 -16t-15.5 -38z" />
<glyph unicode="&#xf70a;" d="M-215 942v287h102v-287h-102z" />
<glyph unicode="&#xf70b;" d="M-485 1176q0 24 9.5 45.5t25.5 37.5t37.5 25.5t45.5 9.5q30 0 53.5 -10.5t40 -27.5t25.5 -40.5t10 -48.5q1 -20 -2.5 -42t-10 -43t-15 -38.5t-17.5 -27.5q45 10 82.5 35t65 57.5t44.5 70t21 72.5h103q-14 -76 -51.5 -135.5t-93 -101t-127 -65t-152.5 -27.5l-45 30 q31 23 56 51t36 56q-6 -2 -11 -2h-12q-24 0 -45.5 9.5t-37.5 25.5t-25.5 37.5t-9.5 46.5zM-418 1176q0 -22 15 -37t36 -15q22 0 37 15t15 37q0 21 -15 36t-37 15q-21 0 -36 -15t-15 -36z" />
<glyph unicode="&#xf70c;" d="M-641 1065q0 42 15.5 76.5t39.5 61t54 43t59 22.5l90 -64l86 62q27 -7 50.5 -21.5t41 -35t27.5 -46.5t10 -57q0 -26 -3 -49.5t-9 -40.5q16 12 29 37.5t20 58.5t6.5 69.5t-12.5 69.5h98q15 -80 -0.5 -140t-47 -101t-71 -63t-71.5 -27l-58 38q14 16 25.5 45t11.5 66 q0 43 -18 71.5t-33 39.5l-80 -58l-100 64q-16 -5 -29 -18.5t-18 -24.5q3 0 6 1q2 0 5 0.5t5 0.5q25 0 46.5 -9t37.5 -24.5t25.5 -36t9.5 -43.5t-9.5 -43.5t-25.5 -35.5t-37.5 -24t-46.5 -9q-26 0 -49.5 10t-41 28.5t-28 45.5t-10.5 61zM-559 1032q0 -20 13.5 -33.5 t33.5 -13.5t33.5 13.5t13.5 33.5t-13.5 33.5t-33.5 13.5t-33.5 -13.5t-13.5 -33.5z" />
<glyph unicode="&#xf70d;" d="M-348 1044v82h133v123h102v-123h133v-82h-133v-122h-102v122h-133z" />
<glyph unicode="&#xf70e;" d="M-430 1059q0 65 50 104t130 49q57 8 91.5 37.5t39.5 75.5l94 -37q-5 -39 -26 -66t-49.5 -44t-61.5 -25.5t-61 -9.5q13 -4 24.5 -14t20 -23.5t13.5 -29.5t5 -32q0 -26 -10 -48t-28 -38.5t-42.5 -26t-52.5 -9.5q-23 0 -47 9t-44 26.5t-33 43t-13 58.5zM-346 1044 q0 -21 15.5 -37t37.5 -16t37.5 16t15.5 37q0 22 -15.5 38t-37.5 16t-37.5 -16t-15.5 -38z" />
<glyph unicode="&#xf70f;" horiz-adv-x="1137" d="M59 657q57 85 139 132t191 47q58 0 110 -16t91.5 -47.5t62.5 -78.5t23 -110v-502h98q45 0 73.5 5t45 19t23 39.5t6.5 67.5v606h102v-626q0 -49 -9 -85t-31 -60t-59.5 -36t-93.5 -12h-360v78q35 0 55.5 2.5t31 12t13 28.5t2.5 51v414q0 42 -17 74t-44 53t-60.5 32 t-66.5 11q-120 0 -195 -82q13 -6 30.5 -15t35.5 -20.5t35.5 -25t30.5 -27.5q-107 -38 -107 -144v-184q9 5 23.5 6.5t25.5 1.5q28 0 53 -10.5t43 -29t28.5 -43t10.5 -52.5q0 -29 -11 -54.5t-29.5 -44.5t-44 -30.5t-54.5 -11.5q-69 0 -108 41.5t-39 107.5v305q0 54 26 92.5 t60 49.5q-15 11 -35 22t-40 20.5t-37.5 17t-27.5 11.5zM201 131q0 -26 18.5 -44.5t44.5 -18.5t45 18.5t19 44.5t-19 45t-45 19t-44.5 -19t-18.5 -45z" />
<glyph unicode="&#xf710;" d="M-698 1096q-1 27 9 51t27.5 42t41 28t49.5 10q25 0 47.5 -10t39 -26.5t26 -39t9.5 -47.5q0 -28 -13.5 -53.5t-33.5 -40.5q42 -10 91 -4.5t92 27.5t74 61.5t38 97.5h101q-9 -62 -40 -112t-77.5 -85t-105.5 -54t-123 -19q-53 0 -98.5 13t-79.5 36t-53.5 55t-20.5 70z M-625 1104q0 -23 15.5 -38t38.5 -15t38 15t15 38t-15 38t-38 15t-38.5 -15t-15.5 -38z" />
<glyph unicode="&#xf711;" d="M-528 1096q0 29 10.5 54.5t29.5 44t44.5 29.5t54.5 11t54.5 -11t44 -29.5t29.5 -44t11 -54.5t-11 -54.5t-29.5 -44.5t-44 -30t-54.5 -11t-54.5 11t-44.5 30t-29.5 44.5t-10.5 54.5zM-455 1096q0 -26 20 -46t46 -20t45.5 20t19.5 46q0 28 -18.5 47.5t-46.5 19.5t-47 -19.5 t-19 -47.5z" />
<glyph unicode="&#xf712;" d="M-795 1083q0 34 13.5 64.5t38.5 54t59 39t76 19.5q31 3 65.5 0.5t63.5 -0.5q23 1 44 6.5t37.5 17t26 30t9.5 46.5h104q0 -39 -19.5 -70.5t-50.5 -54t-70 -34t-79 -9.5q-32 2 -64 1.5t-55 -3.5q-19 -2 -37.5 -10t-32.5 -21t-23 -31.5t-9 -40.5t8 -37.5t18.5 -25t21 -14 t15.5 -4.5l74 104q9 -12 20 -23q8 -10 18.5 -21t20.5 -19q3 19 13 37t25 31.5t34.5 21.5t40.5 8q23 0 43.5 -9t36 -24t24.5 -35.5t9 -42.5q0 -23 -9 -43.5t-25.5 -35.5t-39 -24t-49.5 -9q-51 0 -91.5 24.5t-66.5 54.5l-45 -69h-57q-25 0 -49 10t-43.5 29t-31.5 47t-12 65z M-436 1034q0 -21 12.5 -34t34.5 -13t34.5 13t12.5 34q0 22 -12.5 34.5t-34.5 12.5t-34.5 -12.5t-12.5 -34.5z" />
<glyph unicode="&#xf713;" d="M-440 1319v246h102v-246h-102z" />
<glyph unicode="&#xf714;" d="M-627 1528q0 22 8.5 41.5t23.5 33.5t34.5 22.5t42.5 8.5q27 0 48 -9t35.5 -25t22.5 -36.5t9 -43.5q1 -18 -2 -38t-9 -38.5t-14 -34.5t-16 -25q40 9 74 31t59 51.5t40.5 63t18.5 65.5h92q-12 -68 -46 -121.5t-84 -91t-114 -59t-137 -25.5l-41 29q28 20 50.5 45t33.5 51 q-6 -2 -10.5 -2h-9.5q-23 0 -42.5 8.5t-34.5 22.5t-23.5 33.5t-8.5 42.5zM-565 1528q0 -20 13.5 -33.5t33.5 -13.5q18 0 31.5 13.5t13.5 33.5q0 18 -13.5 31.5t-31.5 13.5q-20 0 -33.5 -13.5t-13.5 -31.5z" />
<glyph unicode="&#xf715;" d="M-664 1430q0 38 14 69t36 54t49 38t53 21l82 -58l76 56q49 -13 82.5 -50t33.5 -94q0 -24 -2.5 -45t-7.5 -37q13 12 25 35t18.5 52.5t5.5 62.5t-12 63h90q13 -73 -1 -127t-42.5 -90.5t-64 -56.5t-64.5 -25l-51 35q12 14 22.5 40.5t10.5 60.5q0 19 -5 35t-12 28.5t-15 21 t-15 13.5l-72 -51l-90 57q-14 -5 -26 -17.5t-15 -21.5q3 0 5 1q2 0 4.5 0.5t4.5 0.5q22 0 42 -8t34 -22t22.5 -32.5t8.5 -39.5t-8.5 -39.5t-22.5 -32t-34 -21.5t-42 -8q-24 0 -45 9t-37 26t-25.5 41.5t-9.5 55.5zM-590 1399q0 -17 12.5 -29t30.5 -12q19 0 31 12t12 29 q0 18 -12 30.5t-31 12.5q-18 0 -30.5 -12.5t-12.5 -30.5z" />
<glyph unicode="&#xf716;" d="M-555 1430v73h121v111h90v-111h121v-73h-121v-111h-90v111h-121z" />
<glyph unicode="&#xf717;" d="M-590 1376q0 30 12 54t33.5 41.5t51.5 28.5t65 16q109 17 119 100l84 -33q-5 -35 -24 -59.5t-45 -40t-55 -23t-54 -8.5q23 -6 40 -32t17 -56q0 -24 -9 -44.5t-25 -35t-38 -23t-47 -8.5q-21 0 -43 8t-40 24t-30 39t-12 52zM-514 1364q0 -20 14.5 -33.5t34.5 -13.5 q19 0 33 13.5t14 33.5t-14 33.5t-33 13.5q-20 0 -34.5 -13.5t-14.5 -33.5z" />
<glyph unicode="&#xf718;" d="M-385 -590q0 27 10 50.5t27.5 41t41 27.5t50.5 10q31 0 57 -10.5t45 -29t30 -43.5t11 -54v-293h-102v178q-18 -6 -41 -6q-27 0 -50.5 10t-41 27.5t-27.5 41t-10 50.5zM-315 -590q0 -25 17 -42t42 -17t42 17t17 42t-17 42.5t-42 17.5t-42 -17.5t-17 -42.5z" />
<glyph unicode="&#xf719;" d="M-610 -590q0 27 10 50.5t27.5 41t41 27.5t50.5 10q31 0 57 -10.5t45 -29t30 -43.5t11 -54v-176h49q22 0 36 1.5t22.5 7t12 17t3.5 31.5v250h102v-262q0 -36 -9 -59.5t-27.5 -37t-46 -19t-64.5 -5.5h-180v137q-20 -6 -41 -6q-27 0 -50.5 10t-41 27.5t-27.5 41t-10 50.5z M-541 -590q0 -25 17.5 -42t42.5 -17q24 0 41.5 17t17.5 42t-17.5 42.5t-41.5 17.5q-25 0 -42.5 -17.5t-17.5 -42.5z" />
<glyph unicode="&#xf71a;" d="M-276 -543q0 34 23.5 58t57.5 24t58 -24t24 -58t-24 -58t-58 -24t-57.5 24t-23.5 58z" />
<glyph unicode="&#xf71d;" />
<glyph unicode="&#xf880;" />
<glyph horiz-adv-x="641" d="M-528 1096q0 29 10.5 54.5t29.5 44t44.5 29.5t54.5 11t54.5 -11t44 -29.5t29.5 -44t11 -54.5t-11 -54.5t-29.5 -44.5t-44 -30t-54.5 -11t-54.5 11t-44.5 30t-29.5 44.5t-10.5 54.5zM-455 1096q0 -26 20 -46t46 -20t45.5 20t19.5 46q0 28 -18.5 47.5t-46.5 19.5t-47 -19.5 t-19 -47.5zM-20 614q6 48 30 89t61.5 70.5t86 46t104.5 16.5q58 0 107 -16.5t84.5 -46.5t55 -73t19.5 -96v-604h-102v586q0 75 -43.5 122.5t-122.5 47.5q-33 0 -63.5 -9.5t-54.5 -27.5t-40 -44.5t-20 -60.5h-102z" />
<glyph d="M-621 1020q0 28 14 52t38 43.5t56.5 33t68.5 19.5q-48 25 -48 82q0 71 93 116q89 47 223 47h30.5t30.5 -2v-67q-20 2 -38.5 3t-37.5 1q-96 0 -155 -25q-68 -29 -68 -75q0 -61 121 -58v-63q-93 3 -166 -23q-86 -27 -86 -80q0 -39 62 -39q57 0 116 31l31 -53 q-73 -37 -147 -37q-138 0 -138 94z" />
<glyph />
<glyph />
<glyph d="M-924 948q0 56 20.5 103t56.5 81t85 53t107 19q21 0 42 -1.5t40 -6.5v61h71v-83q17 -10 32.5 -19.5t29.5 -21.5v124h102v-356q-54 26 -126 39.5t-150.5 17.5t-158.5 0.5t-151 -10.5zM-817 1026q37 9 88 12t103.5 0.5t101.5 -10.5t84 -22q-10 24 -28.5 45t-45.5 37.5 t-62 26t-77 9.5q-63 0 -106.5 -26.5t-57.5 -71.5zM-510 1319v246h102v-246h-102z" />
<glyph d="M-690 1061q0 55 20 102t55.5 81.5t84.5 53.5t108 19q149 0 236 -90q38 -40 58 -93.5t24 -119.5q-63 29 -152.5 44.5t-210.5 15.5q-54 0 -108.5 -3.5t-114.5 -9.5zM-584 1139q29 8 65 11t81 3q147 0 231 -34q-49 118 -213 118q-132 0 -164 -98z" />
<glyph d="M-693 1063q0 55 20 102t55.5 81.5t84.5 53.5t108 19q66 0 119 -18.5t96 -57.5v129h103v-356q-63 29 -152.5 44.5t-210.5 15.5q-54 0 -108.5 -3.5t-114.5 -9.5zM-587 1141q29 8 65 11t81 3q147 0 231 -34q-49 118 -213 118q-132 0 -164 -98z" />
<glyph d="M-225 942v287h102v-287h-102z" />
</font>
</defs>
</svg>
