<?xml version="1.0" standalone="no"?>
<!DOCTYPE svg PUBLIC "-//W3C//DTD SVG 1.1//EN" "http://www.w3.org/Graphics/SVG/1.1/DTD/svg11.dtd" >
<svg xmlns="http://www.w3.org/2000/svg">
<metadata></metadata>
<defs>
<font id="psl_text_proitalic" horiz-adv-x="0" >
<font-face units-per-em="2048" ascent="1638" descent="-410" />
<missing-glyph horiz-adv-x="532" />
<glyph unicode="&#xe37;&#xe48;" d="M-606 948q10 56 39.5 103t72 81t95.5 53t110 19q22 0 43 -1.5t39 -6.5l10 61h72l-16 -83q15 -10 28.5 -19.5t24.5 -21.5l25 124h102l-68 -356q-50 26 -119.5 39.5t-147 17.5t-158 0.5t-152.5 -10.5zM-485 1026q39 9 90.5 12t103 0.5t99 -10.5t79.5 -22q-5 24 -19 45 t-37 37.5t-56 26t-76 9.5q-63 0 -112 -26.5t-72 -71.5zM-121 1319l47 246h103l-47 -246h-103z" />
<glyph unicode="&#xd;" horiz-adv-x="532" />
<glyph unicode=" "  horiz-adv-x="532" />
<glyph unicode="&#x09;" horiz-adv-x="532" />
<glyph unicode="&#xa0;" horiz-adv-x="532" />
<glyph unicode="!" horiz-adv-x="350" d="M8 0l31 154h149l-30 -154h-150zM98 252l54 436l55 277h129l-55 -277l-115 -436h-68z" />
<glyph unicode="&#x22;" horiz-adv-x="575" d="M168 608l70 357h96l-70 -357h-96zM365 608l69 357h96l-69 -357h-96z" />
<glyph unicode="#" horiz-adv-x="737" d="M2 279l18 92h146l67 202h-139l19 93h151l90 276h92l-92 -276h164l92 276h92l-92 -276h123l-18 -93h-135l-66 -202h123l-19 -92h-137l-92 -279h-90l92 279h-166l-90 -279h-92l90 279h-131zM258 371h164l65 202h-163z" />
<glyph unicode="$" horiz-adv-x="737" d="M-2 299h115q-8 -45 -0.5 -82t27 -64t50 -44t68.5 -23l70 356q-67 18 -114.5 39t-75.5 51t-36.5 72t2.5 101q12 61 43 111.5t75.5 87.5t98.5 58.5t113 24.5l21 111h71l-20 -111q52 -7 93 -29t68 -56.5t39 -81t7 -101.5h-113q4 132 -117 158l-63 -334q26 -6 56 -15 t59 -23.5t54.5 -34.5t43 -48t24.5 -65.5t-2 -86.5q-13 -65 -45 -117t-77.5 -89.5t-102.5 -59.5t-121 -27l-22 -110h-72l23 110q-133 12 -195.5 97t-44.5 225zM226.5 656q6.5 -25 23.5 -42.5t42.5 -29t57.5 -21.5l64 318q-33 -4 -63.5 -16t-55 -32t-42.5 -49t-26 -67 q-7 -36 -0.5 -61zM330 86q37 3 70.5 14t60 31.5t45 51.5t26.5 75q8 39 0.5 65.5t-26.5 45t-48 31.5t-63 24z" />
<glyph unicode="%" horiz-adv-x="1161" d="M70 -31l907 1008h113l-908 -1008h-112zM72 581q-1 49 10 103t31 104t52 87.5t77.5 60t107.5 22.5q60 0 96.5 -21.5t54 -58t18 -86t-10.5 -104.5q-10 -53 -31.5 -102t-54 -87t-77 -60.5t-101.5 -22.5q-61 0 -98 21.5t-55 58t-19 85.5zM172 623q-3 -34 3 -63t24.5 -48.5 t56.5 -19.5q37 0 63.5 19t44.5 47.5t29 63t17 66.5q6 30 9 64.5t-3 64t-24.5 49t-55.5 19.5t-63.5 -19.5t-45 -49t-30 -64.5t-17.5 -66q-5 -29 -8 -63zM641.5 147.5q-1.5 48.5 9.5 104.5q11 54 31.5 103.5t52.5 87.5t77.5 60.5t107.5 22.5q61 0 97.5 -21.5t53 -58.5t17 -86 t-10.5 -104q-10 -53 -31 -102t-53.5 -87t-77 -60.5t-102.5 -22.5q-60 0 -97 21t-55 57.5t-19.5 85zM740.5 190.5q-3.5 -34.5 2.5 -64t24.5 -49.5t55.5 -20q38 0 65 19t45 48.5t29 64.5t17 67q6 30 9 64t-3 63.5t-24.5 48.5t-55.5 19t-63.5 -19.5t-45 -48.5t-29.5 -63.5 t-17 -65.5q-6 -29 -9.5 -63.5z" />
<glyph unicode="&#x26;" horiz-adv-x="836" d="M-3 200.5q1 27.5 5 47.5q11 57 36.5 100.5t62 78t81.5 61.5t94 51q-13 28 -26.5 53.5t-23.5 51.5t-13.5 55.5t4.5 66.5q8 40 29.5 76t54 63.5t75 43.5t93.5 16q45 0 83.5 -12.5t65.5 -37t38.5 -61.5t2.5 -86q-8 -43 -30 -80t-53 -68t-68 -56.5t-74 -45.5l129 -213 q20 35 35 73t25 77h108q-18 -70 -42 -127.5t-64 -114.5l137 -213h-148l-71 117q-28 -33 -63.5 -58t-74.5 -41.5t-79.5 -25t-77.5 -8.5q-64 0 -108 14t-73 36.5t-44 51.5t-21 58t-5 56.5zM119 248q-8 -36 1 -66t30 -51t51.5 -33t66.5 -12q66 0 121 30.5t103 84.5l-166 266 q-37 -19 -71 -39t-61.5 -45.5t-47 -58t-27.5 -76.5zM327.5 718q4.5 -22 13.5 -43t21 -41.5t23 -39.5q25 13 50.5 29.5t48 37t39 46t22.5 55.5q8 42 -14 72t-74 30q-19 0 -40 -6t-39.5 -19t-32 -32t-17.5 -45q-5 -22 -0.5 -44z" />
<glyph unicode="'" horiz-adv-x="375" d="M166 608l70 357h96l-70 -357h-96z" />
<glyph unicode="(" horiz-adv-x="432" d="M74.5 241q0.5 80 17.5 169q15 79 45 161t73 162.5t98.5 157.5t121.5 145h84q-126 -152 -197.5 -307t-103.5 -319q-17 -86 -22.5 -165.5t1 -156t26 -152t52.5 -153.5h-84q-35 76 -60.5 150.5t-38.5 151t-12.5 156.5z" />
<glyph unicode=")" horiz-adv-x="432" d="M-109 -217q64 78 113 153.5t86 152t62.5 156t42.5 165.5q32 165 20 319.5t-80 306.5h84q40 -69 65.5 -145.5t37.5 -157t10 -162.5t-17 -161q-17 -89 -47.5 -169t-73 -156.5t-98 -151t-121.5 -150.5h-84z" />
<glyph unicode="*" horiz-adv-x="518" d="M102 795l50 88l135 -70l22 164h94l-43 -164l166 70l15 -88l-164 -45l76 -125l-84 -56l-62 148l-112 -148l-72 56l129 125z" />
<glyph unicode="+" horiz-adv-x="737" d="M6 297l19 90h282l55 283h91l-56 -283h283l-18 -90h-283l-55 -283h-91l56 283h-283z" />
<glyph unicode="," horiz-adv-x="307" d="M-31 -129q42 26 67 54.5t36 56.5q-6 -2 -15 -2q-34 0 -52.5 23.5t-12.5 57.5q3 17 12.5 32t23 26t29.5 17.5t33 6.5q37 0 56.5 -26t13.5 -68q-5 -32 -18.5 -62.5t-33.5 -57.5t-44.5 -50t-51.5 -39z" />
<glyph unicode="-" horiz-adv-x="526" d="M41 338l16 82h392l-17 -82h-391z" />
<glyph unicode="." horiz-adv-x="307" d="M-6 72q3 17 12.5 32t23 26t29.5 17.5t33 6.5q34 0 53 -24t13 -58q-3 -17 -12.5 -32t-23 -26t-30 -17.5t-33.5 -6.5q-34 0 -52.5 24t-12.5 58z" />
<glyph unicode="/" horiz-adv-x="471" d="M-111 -23l596 1010h101l-598 -1010h-99z" />
<glyph unicode="0" horiz-adv-x="737" d="M49 475q48 245 152.5 368.5t263.5 123.5t215 -123.5t8 -368.5t-152.5 -368t-263.5 -123q-157 0 -213.5 124.5t-9.5 366.5zM140.5 309.5q-3.5 -73.5 11 -124.5t49 -78t92.5 -27q59 0 103.5 27t78.5 78t58 124.5t42 165.5t22 165.5t-10 124.5t-48.5 78t-92.5 27 q-59 0 -103.5 -27t-79 -78t-59 -124.5t-42.5 -165.5t-21.5 -165.5z" />
<glyph unicode="1" horiz-adv-x="737" d="M158 692l16 84q49 0 97 12t89 35.5t71.5 59t45.5 82.5h90l-188 -965h-107l136 692h-250z" />
<glyph unicode="2" horiz-adv-x="737" d="M-61 0q16 75 50 132t79 101t98 78.5t107 65.5t105.5 61t94 65.5t72.5 79t41 101.5q7 37 0.5 71t-25.5 59.5t-50 40.5t-73 15q-48 0 -88.5 -20t-73 -53.5t-54.5 -78t-32 -93.5h-104q7 67 40.5 129t84.5 108.5t115 74.5t131 28q63 0 113 -21t82.5 -58.5t45 -89.5t0.5 -114 q-16 -83 -59.5 -141t-102 -102t-126 -79.5t-130 -73t-115 -83t-81.5 -109.5h489l-18 -94h-616z" />
<glyph unicode="3" horiz-adv-x="737" d="M-2 162.5q-12 56.5 4 128.5h104q-8 -46 -0.5 -85.5t29.5 -68t57 -45t82 -16.5q44 0 85.5 14t75 39.5t57.5 60.5t32 76q10 51 -4.5 90t-47 63.5t-80 33.5t-103.5 0l18 92q47 -3 90.5 5t78.5 28t59.5 52.5t33.5 78.5q7 37 -1 66.5t-27 50.5t-48 32.5t-63 11.5 q-42 0 -80 -16.5t-68.5 -45t-52 -68t-30.5 -85.5h-105q14 70 48.5 127.5t82.5 98t106 62.5t120 22q61 0 109.5 -18t80 -51t44 -78.5t1.5 -100.5q-14 -72 -59.5 -123.5t-114.5 -85.5q35 -10 63 -30t45.5 -50.5t23 -70.5t-4.5 -91q-12 -65 -48 -117.5t-88 -89t-116 -56 t-133 -19.5q-68 0 -121.5 21t-88 61t-46.5 96.5z" />
<glyph unicode="4" horiz-adv-x="737" d="M-14 225l20 105l551 635h98l-125 -643h127l-20 -97h-127l-43 -225h-105l44 225h-420zM117 322h309l90 469z" />
<glyph unicode="5" horiz-adv-x="737" d="M2 252h104q-5 -85 42 -129.5t135 -44.5q49 0 91 19t75 51.5t55 76t31 92.5q9 47 0.5 87.5t-31.5 70.5t-58.5 47t-80.5 17q-53 0 -109.5 -24t-97.5 -71l-88 19l182 489h465l-19 -96h-385l-108 -287q46 31 94.5 47.5t108.5 16.5q64 0 114.5 -22.5t83.5 -63.5t45 -100 t-2 -132q-15 -73 -50 -133.5t-86 -104.5t-115.5 -68.5t-139.5 -24.5q-62 0 -113 17.5t-86.5 51.5t-51 84t-5.5 115z" />
<glyph unicode="6" horiz-adv-x="737" d="M23 253q-2 88 20 202q19 98 56 190.5t92 164t129 114.5t167 43q58 0 103.5 -16t75 -47.5t41 -77.5t2.5 -107h-105q5 37 -3.5 65.5t-27 48t-45 29.5t-57.5 10q-48 0 -88 -18t-72.5 -48t-57.5 -69.5t-44 -82.5t-32 -87t-21 -82q17 21 44.5 44t62.5 41.5t76 31t85 12.5 q72 0 122 -24.5t79 -67.5t37 -100.5t-5 -124.5q-12 -65 -44.5 -121.5t-81 -99.5t-112 -67.5t-136.5 -24.5q-87 0 -143.5 30.5t-85.5 90.5t-31 148zM143 210q7 -41 27.5 -70t54 -45.5t78.5 -16.5q44 0 84 16.5t72 45.5t54.5 70t31.5 89q10 48 3.5 88.5t-27 69.5t-54 45 t-78.5 16t-84.5 -16t-72 -45t-55 -69.5t-32.5 -88.5q-9 -48 -2 -89z" />
<glyph unicode="7" horiz-adv-x="737" d="M96 0q26 96 70.5 199t110.5 211t156 218.5t208 221.5h-502l19 102h614l-18 -102q-117 -102 -207.5 -216.5t-156.5 -228t-108 -218.5t-63 -187h-123z" />
<glyph unicode="8" horiz-adv-x="737" d="M6 268q17 86 77.5 149.5t147.5 98.5q-63 34 -87.5 85.5t-12.5 117.5q11 54 42.5 99.5t76.5 78.5t100.5 51.5t114.5 18.5t107.5 -18.5t80.5 -51.5t45 -78.5t2 -99.5q-6 -32 -23 -63t-41 -57.5t-53.5 -48t-60.5 -34.5q80 -29 112 -95.5t15 -152.5q-12 -65 -47.5 -117.5 t-86.5 -89.5t-113.5 -57t-129.5 -20t-121.5 20t-90.5 57t-51 89.5t-3 117.5zM123 268q-8 -41 1.5 -76t32.5 -60.5t57.5 -39.5t76.5 -14t82 14t73 39.5t55.5 60.5t30.5 76q9 42 0 77t-31.5 60.5t-57 39.5t-76.5 14t-82.5 -14t-73.5 -39.5t-56.5 -60.5t-31.5 -77zM242 711 q-7 -36 1 -65.5t27.5 -50.5t48.5 -32.5t64 -11.5t68.5 11.5t61 32.5t47 50.5t26.5 65.5t-0.5 65.5t-26.5 50t-48 32t-65 11.5q-35 0 -68.5 -11.5t-61 -32t-47.5 -50t-27 -65.5z" />
<glyph unicode="9" horiz-adv-x="737" d="M16 231h105q-5 -37 4 -65.5t28.5 -48t47.5 -29.5t61 -10q48 0 88 16.5t72 45.5t57 67t44 81t32.5 88.5t22.5 88.5q-17 -21 -45 -43.5t-63 -41.5t-76.5 -31.5t-84.5 -12.5q-71 0 -121.5 24.5t-79.5 67t-37 100.5t5 125q12 64 44.5 121.5t81.5 100t112 67.5t137 25 q87 0 143.5 -31.5t85 -91.5t30.5 -148t-20 -200q-22 -113 -59 -207t-91.5 -162t-127 -105.5t-166.5 -37.5q-59 0 -105 15.5t-76.5 46.5t-43.5 77t-5 108zM185.5 562.5q6.5 -40.5 27 -69.5t53.5 -45t78 -16q44 0 84.5 16t73 45t55 69.5t31.5 88.5t2 89t-27.5 70t-54 45.5 t-78.5 16.5q-44 0 -84 -16.5t-72 -45.5t-54.5 -70t-31.5 -89t-2.5 -88.5z" />
<glyph unicode=":" horiz-adv-x="307" d="M-6 72q3 17 12.5 32t23 26t29.5 17.5t33 6.5q34 0 53 -24t13 -58q-3 -17 -12.5 -32t-23 -26t-30 -17.5t-33.5 -6.5q-34 0 -52.5 24t-12.5 58zM100 627q8 34 36.5 58t62.5 24t53 -24t12 -58q-6 -34 -34 -58t-62 -24t-54 24t-14 58z" />
<glyph unicode=";" horiz-adv-x="307" d="M-31 -129q42 26 67 54.5t36 56.5q-6 -2 -15 -2q-34 0 -52.5 23.5t-12.5 57.5q3 17 12.5 32t23 26t29.5 17.5t33 6.5q37 0 56.5 -26t13.5 -68q-5 -32 -18.5 -62.5t-33.5 -57.5t-44.5 -50t-51.5 -39zM100 627q8 34 36.5 58t62.5 24t53 -24t12 -58q-6 -34 -34 -58t-62 -24 t-54 24t-14 58z" />
<glyph unicode="&#x3c;" horiz-adv-x="737" d="M23 301l14 82l688 311l-18 -92l-576 -260l475 -260l-18 -92z" />
<glyph unicode="=" horiz-adv-x="737" d="M-16 180l18 92h664l-19 -92h-663zM29 412l18 92h664l-19 -92h-663z" />
<glyph unicode="&#x3e;" horiz-adv-x="737" d="M-39 -10l19 92l573 260l-473 260l18 92l566 -311l-15 -82z" />
<glyph unicode="?" horiz-adv-x="752" d="M111 664q12 69 44 128t80 102.5t109.5 68t132.5 24.5q62 0 110.5 -18.5t79.5 -53t42.5 -84.5t-0.5 -114q-11 -56 -36.5 -97t-57.5 -73.5t-68 -60.5t-67.5 -56.5t-55.5 -62.5t-33 -78l-10 -53h-115l13 63q10 54 34 92t55.5 68.5t66 56.5t66 55.5t55.5 66t34 87.5 q14 74 -23.5 118t-109.5 44q-48 0 -87 -17.5t-68 -47.5t-48.5 -71t-28.5 -87h-114zM213 70q6 34 33 57t61 23t53 -23t13 -57q-8 -34 -35 -57t-62 -23q-34 0 -52.5 23t-10.5 57z" />
<glyph unicode="@" horiz-adv-x="1081" d="M61 483q20 105 78 196.5t140 160t181.5 108t203.5 39.5q89 0 166 -29.5t130 -84t76 -131.5t4 -171q-17 -88 -62.5 -160t-102.5 -123.5t-117.5 -79.5t-108.5 -28q-35 0 -55.5 21.5t-15.5 66.5h-5q-18 -18 -39 -34.5t-45 -29t-49.5 -20.5t-50.5 -8q-43 0 -75.5 17t-52 46 t-26 68t2.5 84q13 70 49 138.5t88 123t117 88t137 33.5q24 0 46 -6.5t40 -20t30 -34.5t15 -49l45 86h88l-188 -385q-10 -20 -18 -40t-10.5 -36t2.5 -25.5t21 -9.5q31 0 72.5 25.5t81 68t71 96.5t42.5 111q15 73 -1 138.5t-58 114.5t-108 78t-151 29q-89 0 -174.5 -34 t-155.5 -92.5t-119.5 -137.5t-66.5 -168q-18 -89 1 -167.5t66.5 -137.5t119.5 -93t161 -34q103 0 199.5 44.5t171.5 119.5h88q-43 -54 -97 -97t-115 -74t-127.5 -47.5t-133.5 -16.5q-104 0 -188.5 39.5t-140 107.5t-77 160t-0.5 196zM342 399q-11 -57 13 -94t75 -37 q44 0 88.5 29.5t82 73.5t63.5 94t34 92q5 25 0.5 47.5t-16.5 39.5t-30 27.5t-40 10.5q-48 0 -93 -27.5t-81 -69.5t-61.5 -91.5t-34.5 -94.5z" />
<glyph unicode="A" horiz-adv-x="858" d="M-102 0l559 965h139l180 -965h-137l-47 291h-399l-164 -291h-131zM252 399h319l-69 445h-2z" />
<glyph unicode="B" horiz-adv-x="907" d="M10 0l189 965h403q83 0 137.5 -17t84.5 -48.5t38 -75.5q3 -18 3 -38q0 -29 -7 -61q-15 -75 -64 -130t-118 -83l-2 -2q86 -20 120 -82q22 -40 21 -93q0 -29 -6 -63q-11 -53 -39.5 -102t-73 -87t-103.5 -60.5t-130 -22.5h-453zM158 109h305q88 0 147 44.5t74 122.5 q4 23 4 42q0 22 -5 38q-10 32 -34.5 51t-60.5 27t-78 8h-287zM244 551h262q106 0 157 40.5t66 125.5q4 19 4 35q0 22 -7 38q-12 28 -37.5 42.5t-61 19t-72.5 4.5h-252z" />
<glyph unicode="C" horiz-adv-x="956" d="M45 284q-3 28 -3 56q0 68 15 143q20 105 68.5 197t118.5 160.5t159.5 107.5t192.5 39q78 0 142.5 -20t109.5 -59q46 -40 68 -100q18 -47 17 -106q0 -16 -1 -32h-125v6q0 48 -15 86q-16 40 -47 66.5t-74 39.5t-96 13q-82 0 -147.5 -33.5t-114.5 -89t-81.5 -127.5 t-47.5 -148q-12 -61 -13 -116q1 -21 3 -41q6 -72 35 -126t81 -84t126 -30q70 0 125.5 21t97 58.5t70.5 88.5t47 111h127q-27 -91 -72.5 -163t-107 -122t-139.5 -76.5t-169 -26.5q-110 0 -184 39t-115.5 107.5t-50.5 160.5z" />
<glyph unicode="D" horiz-adv-x="934" d="M10 0l189 965h327q230 -1 318 -119q57 -77 57 -208q0 -71 -16 -157q-21 -106 -64.5 -194.5t-111 -152t-160 -99t-211.5 -35.5h-328zM158 109h200q22 0 55 3t71.5 15t79.5 35.5t78 65t67.5 104t48.5 151.5q15 77 15 140v15q-2 69 -30.5 117.5t-86.5 74.5t-152 26h-201z " />
<glyph unicode="E" horiz-adv-x="805" d="M10 0l189 965h649l-23 -109h-522l-59 -305h481l-20 -109h-482l-65 -333h526l-20 -109h-654z" />
<glyph unicode="F" horiz-adv-x="756" d="M10 0l189 965h618l-22 -109h-492l-59 -305h438l-20 -109h-439l-86 -442h-127z" />
<glyph unicode="G" horiz-adv-x="1006" d="M50 288q-6 37 -6 75q0 55 11 112q20 103 68 196t119 163t163.5 111.5t202.5 41.5q76 0 141 -18t111 -57t70 -100q21 -50 21 -116q0 -14 -1 -28h-125v16q0 45 -14 79q-17 40 -49 66.5t-77 39t-97 12.5q-84 0 -152.5 -34.5t-120 -91t-85 -129.5t-48.5 -151 q-10 -51 -10 -100q0 -24 2 -47q8 -71 39 -124.5t85.5 -85.5t133.5 -32q73 0 135 24.5t109.5 67t78 99.5t40.5 122h-306l21 109h420l-99 -508h-79l-11 121q-34 -39 -74 -66t-83 -44.5t-87 -25.5t-85 -8q-109 0 -185 41.5t-120.5 110.5t-56.5 159z" />
<glyph unicode="H" horiz-adv-x="952" d="M10 0l189 965h127l-82 -414h493l82 414h125l-188 -965h-125l86 442h-494l-86 -442h-127z" />
<glyph unicode="I" horiz-adv-x="348" d="M18 0l189 965h127l-189 -965h-127z" />
<glyph unicode="J" horiz-adv-x="690" d="M-14 254l12 57h123l-8 -39q-9 -39 -9 -72q0 -37 14 -62q13 -25 40.5 -38.5t72.5 -13.5q42 0 73.5 10.5t54 34t38 60t25.5 88.5l135 686h127l-139 -707q-56 -281 -334 -281q-135 0 -195 70q-40 47 -40 124q0 38 10 83z" />
<glyph unicode="K" horiz-adv-x="877" d="M10 0l189 965h127l-95 -482l562 482h161l-467 -398l301 -567h-151l-252 483l-184 -157l-64 -326h-127z" />
<glyph unicode="L" horiz-adv-x="729" d="M10 0l189 965h127l-168 -856h493l-20 -109h-621z" />
<glyph unicode="M" horiz-adv-x="1149" d="M14 0l189 965h172l137 -801h4l451 801h174l-189 -965h-118l153 795h-4l-448 -795h-107l-137 795h-4l-154 -795h-119z" />
<glyph unicode="N" horiz-adv-x="956" d="M10 0l189 965h133l346 -781h2l154 781h116l-188 -965h-135l-344 772h-4l-150 -772h-119z" />
<glyph unicode="O" horiz-adv-x="1004" d="M39 294q-4 34 -4 67q0 59 12 122q19 98 65.5 189t117.5 161t164.5 112t207.5 42t191 -42t120 -112t53 -161q4 -32 5 -66q0 -60 -13 -123q-19 -98 -65 -189.5t-116.5 -162t-163.5 -112.5t-207 -42t-191.5 42t-121 112.5t-54.5 162.5zM164 339q5 -71 34 -127.5t85 -91 t143 -34.5t156 34.5t119.5 91t83 127.5t46.5 144q11 55 11 110q0 17 -2 35q-4 72 -32.5 127.5t-83.5 90.5t-142 35q-88 0 -157.5 -35t-120.5 -91t-83.5 -127.5t-46.5 -144.5q-11 -55 -11 -108q0 -18 1 -36z" />
<glyph unicode="P" horiz-adv-x="856" d="M10 0l189 965h395q82 0 137 -20t85 -57t38 -90q3 -19 2 -41q0 -37 -8 -79q-12 -66 -40 -119t-73.5 -90.5t-108.5 -57.5t-145 -20h-268l-76 -391h-127zM233 500h226q123 0 183.5 43t78.5 135q4 24 4 45q0 57 -31 89q-43 44 -166 44h-225z" />
<glyph unicode="Q" horiz-adv-x="1004" d="M39 294q-4 33 -4 67q0 60 12 122q19 98 65.5 189t117.5 161t164.5 112t207.5 42t191 -42t120 -112t53 -161q4 -32 4 -66q0 -60 -12 -123q-21 -112 -75 -211t-142 -172l97 -96l-78 -82l-117 113q-54 -28 -112.5 -43t-124.5 -15q-114 0 -191.5 42t-121 112.5t-54.5 162.5z M164 339q5 -71 34 -127.5t85 -91t143 -34.5q38 0 72.5 7t66.5 20l-84 80l82 79l103 -98q69 60 110 141t58 168q9 53 9 105q0 20 -1 40q-5 71 -33.5 127t-83.5 91t-143 35t-157.5 -35t-120.5 -91t-83.5 -127.5t-46.5 -144.5q-11 -55 -11 -108q0 -18 1 -36z" />
<glyph unicode="R" horiz-adv-x="903" d="M10 0l189 965h436q77 0 128 -19.5t80 -54.5t37 -83q3 -21 2 -43q0 -30 -5 -63q-7 -36 -23.5 -72.5t-42.5 -68.5t-61.5 -57t-79.5 -37v-2q39 -9 60.5 -29t30.5 -48t9 -60q0 -5 1 -9q0 -28 -3 -57q-4 -35 -10 -71q-5 -37 -7 -71q-1 -12 -1 -22q0 -22 3 -43q4 -31 19 -55 h-139q-11 15 -12 42.5t3 60t10 67t9 63.5q4 32 4 61q-1 4 -1 7q0 32 -13 57t-41 39.5t-78 14.5h-297l-80 -412h-127zM238 520h251q46 0 88.5 7t77 26t59.5 52.5t36 86.5q4 22 4 43q0 12 -1 22q-4 30 -21 52t-48 34.5t-78 12.5h-303z" />
<glyph unicode="S" horiz-adv-x="858" d="M18 317h119q-5 -27 -5 -51q0 -28 8 -52q14 -44 46.5 -72.5t78.5 -42t97 -13.5q42 0 87.5 8t85 27.5t68.5 52t38 80.5q3 18 3 33q0 27 -10 47q-16 32 -51.5 53t-88.5 35.5t-117 28.5q-55 11 -106 27.5t-88 45t-55 71.5q-10 26 -10 58q0 23 5 49q14 73 52.5 126.5t93 89 t120.5 52.5t135 17q71 0 129 -17.5t97 -53.5q38 -36 54 -94q10 -33 10 -75q0 -30 -5 -63h-117q2 17 2 33q0 31 -8 57q-12 38 -37.5 61.5t-63 34.5t-83.5 11q-45 0 -87 -10.5t-76 -31.5t-57 -51t-30 -69q-3 -15 -3 -27q0 -28 14 -48q20 -28 59 -46t91.5 -29.5t108.5 -25.5 q36 -9 71 -19.5t65.5 -25t55 -35.5t39.5 -50t19 -68q1 -11 1 -23q0 -31 -7 -68q-14 -72 -54 -124.5t-98 -86.5t-129 -50t-147 -16q-78 0 -144 20.5t-110.5 62.5t-63.5 106q-10 34 -10 74q0 36 8 77z" />
<glyph unicode="T" horiz-adv-x="754" d="M76 856l22 109h750l-23 -109h-311l-166 -856h-127l166 856h-311z" />
<glyph unicode="U" horiz-adv-x="961" d="M68 184q-5 28 -4 61q0 52 12 115l119 605h127l-119 -605q-9 -47 -9 -86q0 -78 37 -122q56 -66 181 -66q120 0 197.5 66t105.5 208l119 605h124l-118 -605q-20 -103 -61 -175.5t-99 -118.5t-131.5 -67.5t-157.5 -21.5q-92 0 -160 21.5t-109.5 67.5t-53.5 118z" />
<glyph unicode="V" horiz-adv-x="809" d="M92 965h137l111 -826h2l436 826h133l-528 -965h-141z" />
<glyph unicode="W" horiz-adv-x="1223" d="M113 965h129l30 -791h4l365 791h135l58 -791h4l338 791h129l-431 -965h-131l-67 801h-4l-375 -801h-131z" />
<glyph unicode="X" horiz-adv-x="805" d="M-94 0l426 496l-217 469h149l162 -371l309 371h150l-402 -469l234 -496h-144l-186 393l-338 -393h-143z" />
<glyph unicode="Y" horiz-adv-x="858" d="M98 965h150l188 -453h4l365 453h149l-475 -570l-78 -395h-127l78 395z" />
<glyph unicode="Z" horiz-adv-x="809" d="M-61 0l20 109l741 747h-557l23 109h702l-22 -109l-740 -747h603l-21 -109h-749z" />
<glyph unicode="[" horiz-adv-x="369" d="M-37 -217l244 1253h250l-17 -90h-143l-209 -1071h143l-18 -92h-250z" />
<glyph unicode="\" horiz-adv-x="451" d="M76 987h98l205 -1010h-100z" />
<glyph unicode="]" horiz-adv-x="369" d="M-115 -217l19 92h143l209 1071h-143l16 90h250l-244 -1253h-250z" />
<glyph unicode="^" horiz-adv-x="737" d="M39 356l381 586h78l155 -586h-88l-123 488h-4l-311 -488h-88z" />
<glyph unicode="_" horiz-adv-x="737" d="M-129 -193l16 91h738l-17 -91h-737z" />
<glyph unicode="`" horiz-adv-x="301" d="M70 987h147l78 -192h-88z" />
<glyph unicode="a" horiz-adv-x="760" d="M17 212q-2 19 -2 39q0 47 10 97q12 61 40.5 126.5t75.5 118.5t113.5 87.5t155.5 34.5q31 0 60 -6.5t53.5 -19.5t43 -34t27.5 -49h-2h4l16 92h107l-137 -698h-107l25 115h-4q-20 -32 -47.5 -55.5t-59 -38.5t-65 -22t-66.5 -7q-76 0 -127 28.5t-79.5 78t-34.5 113.5z M134 256q2 -48 19 -84.5t51.5 -57t90.5 -20.5q51 0 92.5 23t72.5 60.5t51.5 85t29.5 97.5q8 41 8 81q-1 7 -1 13q-2 46 -17.5 81.5t-48.5 57t-87 21.5t-96 -21t-73.5 -56t-52 -81t-30.5 -96q-10 -49 -10 -93q1 -5 1 -11z" />
<glyph unicode="b" horiz-adv-x="784" d="M-4 0l188 965h113l-70 -353h4q45 54 107.5 78.5t134.5 24.5q77 0 130 -29.5t83 -79.5t37 -116q2 -21 2 -43q0 -47 -10 -97q-15 -74 -47.5 -140.5t-81.5 -116.5t-113.5 -79.5t-142.5 -29.5q-27 0 -56.5 5.5t-56.5 17.5t-50 32t-38 49h-4l-16 -88h-113zM164 251 q2 -48 21.5 -84.5t56.5 -58.5t96 -22q55 0 98 21.5t75 58t52.5 84t30.5 100.5q7 38 7 74q-1 13 -1 25q-4 48 -22 84.5t-52.5 58.5t-85.5 22q-60 0 -106 -23t-78.5 -60t-53 -84.5t-30.5 -96.5q-8 -41 -8 -80v-19z" />
<glyph unicode="c" horiz-adv-x="711" d="M17 196q-3 22 -3 47q0 49 11 105q14 77 46.5 144t82.5 116.5t118 78t154 28.5q54 0 101 -15t80.5 -45t49.5 -76q11 -32 11 -72q0 -17 -2 -36h-115q0 69 -36.5 105t-108.5 36q-58 0 -102.5 -21.5t-77.5 -58t-54 -84.5t-31 -100q-8 -41 -8 -82q1 -7 1 -13q2 -47 18 -84 t50.5 -60t90.5 -23q40 0 75.5 13t63.5 35.5t48.5 53.5t31.5 68h115q-17 -62 -50 -112t-79 -85.5t-103.5 -55t-122.5 -19.5q-76 0 -130 25t-85.5 72t-39.5 115z" />
<glyph unicode="d" horiz-adv-x="784" d="M16 210q-2 20 -1 40q0 48 10 100q14 73 46 139.5t80.5 116.5t112.5 79.5t142 29.5q34 0 66 -6t58.5 -19t46 -33.5t29.5 -48.5h4l70 357h113l-189 -965h-112l18 90h-4q-23 -32 -53.5 -52.5t-64 -32.5t-66.5 -16.5t-60 -4.5q-76 0 -128 29.5t-82 80t-36 116.5zM134 251 q4 -48 22.5 -84.5t53 -58.5t85.5 -22q61 0 107 22t78 58.5t52.5 84.5t30.5 99q8 41 8 81v15q-2 48 -20.5 85t-55.5 60t-98 23q-54 0 -97 -22.5t-75 -59t-53 -84t-31 -98.5q-7 -38 -7 -74q-1 -13 0 -25z" />
<glyph unicode="e" horiz-adv-x="711" d="M17 202q-2 21 -2 44q0 49 10 104q15 79 52 146t89 115.5t116 76t134 27.5q91 0 145.5 -36t80 -93.5t25.5 -129t-18 -141.5h-514q-6 -31 -6 -59q-1 -14 1 -28q4 -42 24.5 -73.5t57 -50t91.5 -18.5q72 0 125.5 34.5t79.5 100.5h110q-45 -115 -132.5 -176t-202.5 -61 q-83 0 -139.5 27t-88 75.5t-38.5 115.5zM156 416h393q3 20 3 38q0 21 -4 40q-8 36 -28.5 63t-52 42t-70.5 15q-46 0 -85.5 -16t-70.5 -43t-52.5 -63t-32.5 -76z" />
<glyph unicode="f" horiz-adv-x="391" d="M37 598l18 100h119l19 95q36 184 223 184q15 0 35.5 -4t35.5 -10l-18 -101q-14 6 -32 9t-34 3q-42 0 -64.5 -18.5t-33.5 -69.5l-18 -88h131l-19 -100h-131l-116 -598h-113l117 598h-119z" />
<glyph unicode="g" horiz-adv-x="760" d="M-33 -78h113q-4 -33 8 -55t34 -35.5t50 -19t57 -5.5q111 0 173.5 66t86.5 190l11 52h-4q-20 -32 -47.5 -55.5t-59 -38.5t-65 -22t-66.5 -7q-76 0 -127 28.5t-79.5 77.5t-34.5 114q-2 19 -2 39q0 47 10 97q12 61 40.5 126.5t75.5 118.5t113.5 87.5t155.5 34.5 q31 0 60 -6.5t53.5 -19.5t43 -34t27.5 -49h-2h4l16 92h107l-125 -645q-15 -78 -46 -141t-78 -106.5t-110 -67t-143 -23.5q-50 0 -98.5 10t-85.5 33.5t-56 63.5q-13 27 -13 63q0 18 3 37zM134 256q1 -49 18.5 -85t52 -56.5t90.5 -20.5q51 0 92.5 23t72.5 60.5t51.5 85 t29.5 97.5q8 41 8 81q0 6 -1 13q-1 46 -17 81.5t-49 57t-87 21.5t-96 -21t-73.5 -56t-52 -81t-30.5 -96q-10 -49 -10 -93q0 -6 1 -11z" />
<glyph unicode="h" horiz-adv-x="741" d="M-8 0l188 965h113l-70 -359h4q21 28 49 49t59 34t63 19.5t61 6.5q71 0 114.5 -19t64.5 -53.5t23 -84.5q0 -7 1 -14q0 -44 -11 -95l-88 -449h-110l90 463q5 23 5 43q0 44 -24 70q-34 38 -102 38q-51 0 -91 -17t-70.5 -47.5t-50.5 -72.5t-30 -92l-76 -385h-112z" />
<glyph unicode="i" horiz-adv-x="299" d="M2 0l135 698h113l-135 -698h-113zM164 829l26 136h113l-27 -136h-112z" />
<glyph unicode="j" horiz-adv-x="299" d="M-164 -260l21 102q18 -8 51 -8q35 0 53 25t29 82l147 757h113l-152 -778q-18 -97 -66 -142.5t-126 -45.5q-23 0 -41 2.5t-29 5.5zM164 829l26 136h113l-27 -136h-112z" />
<glyph unicode="k" horiz-adv-x="684" d="M0 0l188 965h113l-113 -572l361 307h151l-315 -260l207 -440h-139l-168 367l-121 -107l-51 -260h-113z" />
<glyph unicode="l" horiz-adv-x="299" d="M2 0l188 965h113l-188 -965h-113z" />
<glyph unicode="m" horiz-adv-x="1126" d="M-8 0l135 698h106l-18 -100h2q101 117 246 117q31 0 58 -6t48 -20t35 -36.5t19 -54.5h2q22 30 52 52t62 36.5t63.5 21.5t57.5 7q50 0 90 -11t66 -36q24 -24 34 -65q4 -19 5 -42q0 -27 -6 -59l-99 -502h-112l88 449q7 36 7 66.5t-11 52t-35 34t-64 12.5 q-81 0 -138.5 -48.5t-74.5 -139.5l-82 -426h-114l88 449q7 38 7.5 68.5t-10 52t-33 33t-60.5 11.5q-50 0 -88.5 -20.5t-66 -50t-44 -61.5t-21.5 -56l-82 -426h-112z" />
<glyph unicode="n" horiz-adv-x="741" d="M-8 0l135 698h106l-20 -108h2q51 63 115 94t139 31q123 0 165 -64q27 -41 27 -106q0 -35 -8 -78l-90 -467h-110l90 463q6 32 4 59.5t-14 48t-36 32t-61 11.5q-60 0 -104 -18t-74.5 -49.5t-49.5 -73t-28 -88.5l-76 -385h-112z" />
<glyph unicode="o" horiz-adv-x="758" d="M12 206q-3 25 -3 51q0 44 9 91q15 78 49.5 145t86.5 116.5t120 77.5t150 28q83 0 140.5 -28t90.5 -77.5t41 -116.5q3 -24 4 -50q0 -45 -10 -95q-15 -76 -49.5 -142.5t-87 -115.5t-121 -77.5t-151.5 -28.5t-139.5 28.5t-89 78t-40.5 115.5zM134 236q7 -49 29 -82 t57.5 -50.5t80.5 -17.5t88 17.5t78.5 50.5t61.5 82t38 112q8 40 8 75q0 21 -3 39q-7 50 -29.5 83.5t-58.5 51t-81 17.5q-44 0 -86.5 -17.5t-78 -51.5t-61.5 -83.5t-38 -113.5q-8 -40 -8 -74q0 -20 3 -38z" />
<glyph unicode="p" horiz-adv-x="784" d="M-55 -268l186 966h113l-17 -90h4q45 54 107.5 80.5t134.5 26.5q78 0 131 -29.5t83 -80t37 -117.5q1 -20 1 -40q0 -48 -10 -100q-15 -74 -47.5 -140.5t-81.5 -116t-113.5 -78.5t-142.5 -29q-27 0 -57 4.5t-57.5 16.5t-50 32.5t-34.5 52.5h-4l-70 -358h-112zM166 251 q3 -48 22 -84.5t56 -58.5t96 -22q58 0 101.5 23t75 60.5t51 85t28.5 95.5q7 38 7 74q0 13 -1 25q-3 48 -22 84.5t-54.5 58.5t-89.5 22q-57 0 -101.5 -23t-77 -60t-53 -84.5t-30.5 -96.5q-8 -41 -8 -80v-19z" />
<glyph unicode="q" horiz-adv-x="784" d="M12 208q-2 21 -2 42q0 47 10 98q15 74 47.5 140.5t81.5 117t113.5 80t143.5 29.5q72 0 125.5 -26.5t74.5 -80.5h4l17 90h112l-186 -966h-113l70 358h-4q-25 -32 -56 -52.5t-64 -32.5t-65 -16.5t-59 -4.5q-78 0 -131 29t-82.5 78.5t-36.5 116.5zM132 254q1 -47 17.5 -84.5 t51 -60.5t92.5 -23q59 0 104.5 22t78.5 58.5t54 84.5t31 99q8 41 8 81v15q-2 48 -20 85t-54 60t-94 23q-54 0 -97.5 -22t-77 -58.5t-55.5 -84.5t-32 -99q-8 -41 -8 -82q0 -7 1 -14z" />
<glyph unicode="r" horiz-adv-x="442" d="M-12 0l135 698h113l-27 -139h2q49 85 117 122q63 34 147 34h14l-24 -121q-69 0 -120.5 -22t-88.5 -61t-60.5 -92.5t-35.5 -117.5l-60 -301h-112z" />
<glyph unicode="s" horiz-adv-x="662" d="M-8 221h117q-3 -16 -3 -30q0 -19 6 -34q10 -26 31 -42t51 -22.5t64 -6.5q26 0 56.5 3.5t58 14.5t48.5 32t28 57q6 31 -9.5 51t-45 33.5t-68 22.5t-78.5 19q-39 9 -76.5 22t-65.5 35q-27 24 -40 58q-7 20 -7 44q0 19 4 42q11 52 42.5 89t73.5 60.5t90.5 34.5t92.5 11 q56 0 102.5 -10.5t78 -36t45.5 -67.5q10 -28 10 -66q0 -18 -2 -39h-113q4 34 -6 56.5t-29.5 36t-45.5 19.5t-54 6q-29 0 -56.5 -5t-50 -16t-38 -29t-21.5 -44q-5 -29 12 -47.5t47 -31t68 -21t76 -17.5q41 -10 78.5 -23t64.5 -35.5t39 -56.5q7 -19 7 -43q0 -20 -5 -44 q-11 -61 -45 -102.5t-81 -67t-101.5 -36.5t-105.5 -11q-59 0 -108.5 13t-83.5 41t-48 73q-8 26 -9 58q0 24 5 52z" />
<glyph unicode="t" horiz-adv-x="418" d="M37 598l18 100h117l41 211h113l-41 -211h135l-19 -100h-135l-82 -414q-6 -29 -6 -47t10.5 -27t30.5 -11.5t53 -0.5l33 2l-20 -100l-66 -2h-19q-42 0 -70 8q-34 10 -50 31q-17 23 -17 60q0 33 9 77l82 424h-117z" />
<glyph unicode="u" horiz-adv-x="737" d="M29 140v14q0 42 10 92l88 452h113l-90 -467q-6 -32 -3 -58.5t16 -46t39 -30t66 -10.5q49 0 89 16.5t70.5 46.5t51 71t29.5 89l76 389h110l-135 -698h-104l20 102h-2q-51 -63 -115 -90.5t-139 -27.5q-65 0 -106 19.5t-61.5 54t-22.5 82.5z" />
<glyph unicode="v" horiz-adv-x="662" d="M59 698h127l76 -571h2l297 571h127l-389 -698h-121z" />
<glyph unicode="w" horiz-adv-x="1004" d="M66 698h124l46 -561h4l245 561h123l35 -561h2l262 561h117l-352 -698h-119l-35 545h-2l-246 -545h-118z" />
<glyph unicode="x" horiz-adv-x="680" d="M-80 0l326 369l-172 329h143l121 -237l211 237h143l-299 -329l182 -369h-137l-135 283l-246 -283h-137z" />
<glyph unicode="y" horiz-adv-x="662" d="M-68 -266l21 106q5 -5 25.5 -11.5t41.5 -6.5q35 0 59 16t46 53l65 113l-137 694h127l92 -561h4l291 561h127l-444 -788q-32 -56 -58.5 -92.5t-53.5 -58.5t-57.5 -31t-70.5 -9q-18 0 -38.5 4.5t-39.5 10.5z" />
<glyph unicode="z" horiz-adv-x="637" d="M-61 0l20 100l522 498h-399l18 100h537l-19 -100l-522 -498h439l-21 -100h-575z" />
<glyph unicode="{" horiz-adv-x="438" d="M43 362l18 93q21 0 43 11.5t41.5 32.5t35 50.5t22.5 64.5l47 244q12 64 34 100t48.5 53.5t55 21t54.5 3.5h84l-14 -82h-55q-44 0 -66 -24.5t-35 -85.5l-49 -252q-9 -48 -29 -81t-43.5 -54t-45 -31.5t-33.5 -13.5v-4q10 -2 27.5 -11t32.5 -30t22.5 -55.5t-2.5 -86.5 l-48 -250q-12 -61 -0.5 -85.5t56.5 -24.5h55l-16 -82h-84q-27 0 -54 3.5t-46.5 21t-27 53t4.5 100.5l47 244q7 37 3 66t-15.5 49t-29 31t-38.5 11z" />
<glyph unicode="|" horiz-adv-x="297" d="M102 -23v1010h93v-1010h-93z" />
<glyph unicode="}" horiz-adv-x="438" d="M-115 -217l17 82h55q44 0 66 24.5t34 85.5l47 250q10 52 30.5 86.5t44 55.5t45.5 30t34 11v4q-11 3 -28.5 13.5t-32.5 31.5t-22.5 54t1.5 81l49 252q13 62 0.5 86t-55.5 24h-55l14 82h84q27 0 54 -3.5t46.5 -21t27 -53.5t-4.5 -100l-47 -244q-7 -35 -3.5 -64.5t15 -50.5 t29.5 -32.5t39 -11.5l-19 -93q-21 0 -43 -11t-41.5 -31t-34.5 -49t-22 -66l-47 -244q-12 -65 -34 -100.5t-48.5 -53t-55.5 -21t-55 -3.5h-84z" />
<glyph unicode="~" horiz-adv-x="774" d="M41 309q15 22 34 43t42.5 37.5t51.5 26.5t62 10q46 0 82.5 -15.5t68 -33.5t60 -33.5t60.5 -15.5q19 0 38.5 10t37.5 25t34 33.5t29 35.5l35 -67q-15 -20 -35 -40.5t-44 -37.5t-52.5 -28t-59.5 -11q-46 0 -78.5 15t-61.5 33t-60 33t-74 15q-22 0 -41.5 -10t-36.5 -25.5 t-31.5 -33.5t-25.5 -33z" />
<glyph unicode="&#xa4;" horiz-adv-x="840" d="M8 164l148 145q-62 83 -62 193q0 114 62 188l-148 150l76 71l145 -145q80 59 193 59q55 0 105.5 -16t82.5 -43l150 145l71 -71l-145 -150q59 -80 59 -188q0 -113 -59 -193l145 -145l-71 -76l-150 148q-15 -13 -36 -23.5t-47 -20.5q-53 -18 -105 -18q-110 0 -193 62 l-145 -148zM197 502q0 -94 63 -164q65 -68 162 -68q92 0 158 68q63 63 63 164q0 46 -16.5 87t-45.5 72t-70 49.5t-89 18.5q-96 0 -160 -67q-65 -74 -65 -160z" />
<glyph unicode="&#xa9;" horiz-adv-x="1081" d="M29 385q0 23 2.5 47.5t7.5 48.5q20 106 74.5 194t142.5 163q178 149 387 149q182 0 299 -117q119 -115 119 -292q0 -23 -2.5 -47.5t-7.5 -49.5q-40 -207 -220 -358q-175 -148 -385 -148q-181 0 -301 117q-116 119 -116 293zM104 399q0 -148 101 -249t256 -101 q178 0 330 127q152 128 186 305q5 20 6.5 41t1.5 41q0 150 -100 250t-256 100q-179 0 -330 -127q-75 -63 -122 -138.5t-64 -166.5q-5 -20 -7 -41t-2 -41zM270 395q0 41 11 90q27 138 106 217q89 89 223 89q43 0 80 -11t64 -32t42 -52t15 -71v-16.5t-2 -16.5h-86 q3 119 -129 119q-112 0 -176 -99q-56 -86 -56 -202q0 -154 136 -154q143 0 190 143h88q-27 -99 -102 -159q-79 -64 -191 -64q-213 0 -213 219z" />
<glyph unicode="&#xab;" horiz-adv-x="627" d="M37 315l22 121l238 162l-23 -117l-155 -106l114 -105l-22 -116zM301 315l23 121l239 162l-22 -117l-156 -106l115 -105l-23 -116z" />
<glyph unicode="&#xac;" horiz-adv-x="737" d="M35 297v90h666v-268h-82v178h-584z" />
<glyph unicode="&#xad;" horiz-adv-x="737" d="M41 297v90h655v-90h-655z" />
<glyph unicode="&#xae;" horiz-adv-x="1081" d="M29 385q0 23 2.5 47.5t7.5 48.5q20 106 74.5 194t142.5 163q178 149 387 149q182 0 299 -117q119 -115 119 -292q0 -23 -2.5 -47.5t-7.5 -49.5q-40 -207 -220 -358q-175 -148 -385 -148q-181 0 -301 117q-116 119 -116 293zM104 399q0 -148 101 -249t256 -101 q178 0 330 127q152 128 186 305q5 20 6.5 41t1.5 41q0 150 -100 250t-256 100q-179 0 -330 -127q-75 -63 -122 -138.5t-64 -166.5q-5 -20 -7 -41t-2 -41zM289 188l114 590h230q178 0 178 -125q0 -20 -4 -43q-29 -143 -186 -161l116 -261h-102l-107 254h-102l-49 -254h-88z M440 516h105q77 0 110 14q26 11 42 31.5t22 52.5q2 7 2 12.5v10.5q0 68 -113 68h-131z" />
<glyph unicode="&#xb0;" horiz-adv-x="541" d="M66 713q0 40 15.5 77t42.5 64.5t63.5 44t78.5 16.5q43 0 80.5 -16t65 -43t43.5 -64t16 -79t-16 -79t-43.5 -64.5t-65 -43.5t-80.5 -16q-41 0 -77 15.5t-63.5 43t-43.5 64.5t-16 80zM121 713q0 -30 11.5 -57t31 -47t46 -32t56.5 -12q62 0 105 43q45 46 45 105 q0 30 -12 56.5t-32.5 46t-47.5 31t-58 11.5t-57.5 -11t-46 -30.5t-30.5 -46t-11 -57.5z" />
<glyph unicode="&#xb6;" horiz-adv-x="727" d="M0 858q0 153 94 229q90 66 248 66h389v-41h-102v-1356h-62v1356h-145v-1356h-55v805q-168 0 -263 62q-104 74 -104 235z" />
<glyph unicode="&#xb7;" horiz-adv-x="338" d="M96 449q0 30 20.5 50.5t53.5 20.5q31 0 51.5 -21.5t20.5 -49.5q0 -31 -21.5 -52.5t-50.5 -21.5q-33 0 -53.5 20.5t-20.5 53.5z" />
<glyph unicode="&#xbb;" horiz-adv-x="627" d="M27 154l22 116l156 105l-115 106l23 117l172 -162l-23 -121zM291 154l22 116l156 105l-115 106l23 117l174 -162l-23 -121z" />
<glyph unicode="&#xd7;" horiz-adv-x="737" d="M-12 98l291 244l-195 244l76 63l194 -243l293 243l51 -63l-292 -244l196 -244l-76 -63l-196 244l-291 -244z" />
<glyph unicode="&#xf7;" horiz-adv-x="737" d="M6 297l19 90h655l-18 -90h-656zM217 92q3 15 12 29t21.5 24.5t28 16.5t30.5 6t28 -6.5t22 -17t13 -24t1 -28.5t-12.5 -29t-22.5 -25t-28 -17.5t-29 -6.5q-32 0 -51 23.5t-13 54.5zM313 592q3 16 12.5 30.5t23 25t29 16.5t30.5 6q31 0 49 -23.5t12 -54.5q-3 -15 -12 -28.5 t-21.5 -24t-27 -17t-29.5 -6.5q-16 0 -29.5 6t-22.5 16.5t-13 24.5t-1 29z" />
<glyph unicode="&#xe00;" horiz-adv-x="205" />
<glyph unicode="&#xe01;" horiz-adv-x="788" d="M20 0l86 444q12 55 44.5 92t70.5 50q-12 11 -30 22t-36.5 20.5t-35 17t-25.5 11.5q72 85 163 132t202 47q57 0 106 -16t82 -47.5t47 -78.5t2 -110l-112 -584h-103l115 586q8 42 -3 74t-34 53t-54.5 32t-64.5 11q-60 0 -113 -20t-98 -62q25 -12 58.5 -35.5t56.5 -52.5 q-114 -38 -135 -144l-86 -442h-103z" />
<glyph unicode="&#xe02;" horiz-adv-x="784" d="M27.5 550q-6.5 29 1.5 68q6 33 29 70.5t63 68.5t96 51.5t127 20.5q48 0 85 -17.5t60.5 -45t32.5 -62.5t2 -69q-6 -32 -27.5 -55.5t-46 -45t-46 -45.5t-27.5 -57l-68 -350h37q44 0 73.5 5t49 19t30.5 39.5t19 67.5l119 606h102l-123 -626q-9 -49 -25 -85t-42.5 -60 t-66 -36t-95.5 -12h-319l14 78q45 0 70 3t39 12.5t20 28t12 50.5l56 283q5 29 26.5 51.5t47 43t47 41t26.5 46.5q4 19 -1.5 39.5t-20 38t-38 28.5t-55.5 11q-37 0 -61.5 -11t-32.5 -16q27 -2 46 -14t30 -30t14.5 -40t-0.5 -43q-5 -29 -20.5 -53.5t-38 -43.5t-50 -29.5 t-55.5 -10.5q-27 0 -51.5 9.5t-41 29t-23 48.5zM106 598q-6 -26 10 -44.5t42 -18.5t47.5 18.5t27.5 44.5q5 26 -10 45t-41 19t-48.5 -19t-27.5 -45z" />
<glyph unicode="&#xe03;" horiz-adv-x="791" d="M27 606q6 33 26.5 67t54.5 64.5t80 54.5t103 37q6 0 16 -7.5t21.5 -17t21.5 -19t15 -13.5q7 4 20.5 13.5t28.5 19t28.5 17t20.5 7.5q11 0 29 -14.5t34 -38t25.5 -53t3.5 -59.5q-7 -37 -34 -65t-57.5 -53t-56.5 -49.5t-32 -54.5l-70 -360h43q49 0 79.5 5t49.5 19t29 39.5 t18 67.5l119 606h102l-122 -626q-9 -47 -25 -83t-42 -60.5t-65 -37t-94 -12.5h-334l15 78q45 0 70 3t39 12.5t20 28t12 50.5l57 287q4 21 18 38t32.5 32.5t40 30.5t40 30.5t32.5 32t18 36.5q2 13 -2 25.5t-10 22.5t-12.5 16t-10.5 6q-3 0 -13 -7.5t-22 -16t-22 -16t-13 -7.5 q-6 6 -19 17.5t-26 23.5q-8 7 -16.5 14t-16.5 15q-5 -2 -9.5 -5t-9.5 -5q-8 -5 -17 -10t-17 -11q51 -10 70.5 -46t11.5 -81q-5 -29 -20.5 -53.5t-38 -43.5t-50 -29.5t-55.5 -10.5q-63 0 -94.5 40t-17.5 109zM102 594q-5 -26 10.5 -45t41.5 -19t48 19t27 45q7 26 -9 44.5 t-42 18.5t-47.5 -18.5t-28.5 -44.5z" />
<glyph unicode="&#xe04;" horiz-adv-x="848" d="M37 0l24 129q12 64 13 115.5t-0.5 99.5t-0.5 96.5t13 106.5q11 57 42 109t81 92t118.5 64t155.5 24q81 0 137 -22.5t89 -61t43 -89.5t0 -108l-109 -555h-102l104 535q9 41 5 81t-24.5 71t-59.5 50t-101 19q-57 0 -104 -17.5t-82.5 -46.5t-58.5 -67t-32 -78 q-12 -60 -11.5 -121t-2.5 -127q-1 -8 -5 -27.5t-9 -40.5l-13 -53h5q6 23 15 55.5t23 67.5q12 33 26.5 66.5t29 63.5t28.5 55t25 42q31 48 67 71.5t87 23.5q28 0 51 -11t38 -29.5t21 -44t0 -53.5q-5 -28 -20.5 -53t-38 -43.5t-50 -29.5t-55.5 -11q-26 0 -48 9.5t-36 23.5 q-19 -35 -42.5 -86t-47 -105t-45 -105t-35.5 -85h-108zM362 485q-5 -26 10.5 -44.5t41.5 -18.5t48.5 18.5t26.5 44.5q5 26 -10 45t-41 19t-48.5 -19t-27.5 -45z" />
<glyph unicode="&#xe05;" horiz-adv-x="842" d="M31 0l24 129q12 64 14.5 119t3 106.5t3 103.5t14.5 109q11 55 38.5 102.5t65.5 82.5t83.5 57t93.5 27l98 -82l129 82q26 -6 58.5 -19.5t58 -39t39 -65.5t2.5 -98l-119 -614h-102l116 598q7 34 3 59t-14.5 42t-24.5 27.5t-27 16.5l-139 -94l-113 94q-53 -15 -91 -62.5 t-52 -107.5q-14 -66 -16.5 -137t-8.5 -137q0 -7 -4.5 -26.5t-9.5 -40.5l-13 -54h4q7 23 16 55.5t23 67.5q12 33 26.5 66.5t29 63.5t28.5 55t25 42q31 48 67.5 71.5t85.5 23.5q28 0 51 -11t38 -29.5t21 -44t1 -53.5t-20.5 -53t-38 -43.5t-50 -29.5t-55.5 -11q-26 0 -48 9.5 t-36 23.5q-19 -35 -42.5 -86t-47 -105t-45 -105t-35.5 -85h-108zM356 485q-5 -26 10.5 -44.5t41.5 -18.5t48 18.5t27 44.5t-10 45t-41 19t-48.5 -19t-27.5 -45z" />
<glyph unicode="&#xe06;" horiz-adv-x="864" d="M27 85q-7 29 0 65q7 35 28.5 64t51.5 50t66 32.5t71 10.5l30 152q4 21 18 38t32.5 32.5t40 30.5t40 30.5t32.5 32t18 36.5q2 13 -2 25.5t-10 22.5t-12.5 16t-10.5 6q-3 0 -14.5 -7.5t-23.5 -15.5l-32 -22l-82 68l-21 -10q-9 -5 -18.5 -10.5t-17.5 -12.5q29 -6 48 -19.5 t29 -30.5t12.5 -36.5t-1.5 -38.5q-5 -29 -20.5 -53.5t-37.5 -42.5t-49 -28.5t-55 -10.5q-25 0 -48 9.5t-39 28t-23 46t0 63.5q7 38 29.5 73t56.5 64.5t78 51.5t94 34q6 0 16.5 -7.5t22.5 -17t22.5 -19t15.5 -13.5q7 4 21 13.5t29 19t28.5 17t20.5 7.5q10 0 28 -14.5 t34.5 -38t26 -53t3.5 -59.5q-7 -38 -34 -65.5t-58 -52.5t-57 -49.5t-31 -54.5l-27 -139q33 -4 66.5 -16t65 -32.5t59 -49.5t47.5 -66l133 680h102l-143 -733q-9 -51 -34.5 -68.5t-70.5 -17.5h-41q-5 33 -22 68t-43 65.5t-60.5 53.5t-74.5 32l-19 -94q-5 -28 -19 -52 t-35 -41.5t-48 -27.5t-57 -10q-31 0 -57 10.5t-43.5 31t-24.5 49.5zM98 594q-5 -26 10.5 -45t41.5 -19t48 19t27 45q6 26 -9.5 44.5t-41.5 18.5t-48 -18.5t-28 -44.5zM111 141q-5 -28 7 -48.5t40 -20.5q21 0 33.5 15t17.5 40l18 98q-42 4 -75 -19.5t-41 -64.5z" />
<glyph unicode="&#xe07;" horiz-adv-x="686" d="M14 545l101 47q37 -57 66 -121t51 -129t38.5 -127.5t28.5 -116.5h23q46 0 65 22.5t29 72.5l71 368q-9 -5 -24.5 -6.5t-26.5 -1.5q-29 0 -51.5 10.5t-37 29t-20 43t0.5 52.5q5 28 21 54t39 45t51 30.5t57 11.5q69 0 100 -41.5t18 -107.5l-98 -504q-9 -45 -23.5 -78.5 t-38 -55t-57 -32t-80.5 -10.5h-104q-11 58 -29 129.5t-43.5 145t-57 144t-69.5 126.5zM399 688q-5 -26 10.5 -44.5t41.5 -18.5t48 18.5t27 44.5q7 26 -9 45t-42 19t-47.5 -19t-28.5 -45z" />
<glyph unicode="&#xe08;" horiz-adv-x="709" d="M29 616q21 46 57 86.5t84.5 70t109 46.5t130.5 17q72 0 124.5 -20.5t84 -53.5t42.5 -75.5t1 -86.5q-17 -68 -44.5 -136.5t-59.5 -141.5t-65 -152.5t-61 -169.5h-127l-6 348q-41 -24 -82 -24q-29 0 -51.5 10.5t-37.5 29.5t-21 43.5t-1 53.5q6 28 21.5 53t38 43.5t49 29.5 t55.5 11q63 0 94 -36.5t31 -96.5v-229q0 -17 -2.5 -40t-4.5 -46q-2 -13 -3.5 -26.5t-3.5 -27.5h4q1 9 4 25.5t7.5 36t10.5 40.5t13 40q18 48 38.5 94.5t40 92t35 89.5t23.5 86q5 28 -3 55.5t-29 50t-55 36.5t-81 14q-38 0 -76.5 -8t-73 -25.5t-62.5 -44t-46 -62.5h-102z M180 461q-6 -26 9.5 -45t41.5 -19t48 19t28 45q5 26 -10 44.5t-41 18.5t-48.5 -18.5t-27.5 -44.5z" />
<glyph unicode="&#xe09;" horiz-adv-x="807" d="M-16.5 338.5q-5.5 24.5 0.5 52.5q5 28 21 54t39 45t51 30.5t57 11.5q69 0 99 -41.5t17 -107.5l-55 -287q25 27 62.5 56.5t82 56t92.5 46t95 26.5l57 299q8 40 -0.5 73t-31.5 55.5t-58 35t-80 12.5q-38 0 -77 -9.5t-74 -29t-63.5 -49.5t-45.5 -72h-102q20 54 57 98 t86.5 75.5t108.5 49t124 17.5q70 0 123.5 -17.5t87.5 -49.5t47.5 -78.5t2.5 -104.5l-64 -324q31 -18 46 -51.5t7 -75.5q-6 -29 -22.5 -55t-39.5 -45t-51 -30t-57 -11t-54 12.5t-41 34.5t-20 52.5t9 66.5q-18 -9 -43.5 -27t-53 -40t-53 -46.5t-43.5 -46.5h-135l51 264 q-11 -5 -25.5 -6.5t-25.5 -1.5q-29 0 -51.5 10.5t-37 29t-20 43zM55 391q-5 -26 10 -44.5t41 -18.5t48.5 18.5t27.5 44.5t-10 45t-41 19t-48.5 -19t-27.5 -45zM492 139q-5 -26 10 -44.5t41 -18.5t48 18.5t27 44.5q7 26 -9 45t-42 19t-47.5 -19t-27.5 -45z" />
<glyph unicode="&#xe0a;" horiz-adv-x="825" d="M27.5 550q-6.5 29 1.5 68q6 33 29 70.5t63 68.5t96 51.5t127 20.5q48 0 85 -17.5t60.5 -45t32.5 -62.5t2 -69q-6 -32 -27.5 -55.5t-46 -45t-46 -45.5t-27.5 -57l-68 -350h78q45 0 74.5 5t48.5 19t30 39.5t19 67.5l51 264q8 40 -12.5 65t-71.5 25l13 70q66 22 116 73.5 t66 129.5h104q-15 -76 -54.5 -131t-115.5 -97q34 -9 53 -38.5t11 -69.5l-62 -311q-9 -49 -25 -85t-42.5 -60t-66 -36t-95.5 -12h-360l14 78q45 0 70 3t39 12.5t20 28t12 50.5l56 283q5 29 26.5 51.5t47 43t47 41t26.5 46.5q4 19 -1.5 39.5t-20 38t-38 28.5t-55.5 11 q-37 0 -61.5 -11t-32.5 -16q27 -2 46 -14t30 -30t14.5 -40t-0.5 -43q-5 -29 -20.5 -53.5t-38 -43.5t-50 -29.5t-55.5 -10.5q-27 0 -51.5 9.5t-41 29t-23 48.5zM106 598q-6 -26 10 -44.5t42 -18.5t47.5 18.5t27.5 44.5q5 26 -10 45t-41 19t-48.5 -19t-27.5 -45z" />
<glyph unicode="&#xe0b;" horiz-adv-x="831" d="M27 606q6 33 26.5 67t54.5 64.5t80 54.5t103 37q6 0 16 -7.5t21.5 -17t21.5 -19t15 -13.5q7 4 20.5 13.5t28.5 19t28.5 17t20.5 7.5q11 0 29 -14.5t34 -38t25.5 -53t3.5 -59.5q-7 -37 -34 -65t-57.5 -53t-56.5 -49.5t-32 -54.5l-70 -360h84q49 0 80 5t49.5 19t28.5 39.5 t18 67.5l51 264q8 40 -12.5 65t-71.5 25l13 70q66 22 116.5 73.5t65.5 129.5h104q-15 -76 -54.5 -131t-114.5 -97q34 -9 52.5 -38.5t10.5 -69.5l-61 -311q-9 -47 -25 -83t-42 -60.5t-65 -37t-94 -12.5h-375l15 78q42 0 67 3t39.5 12.5t21.5 28t13 50.5l57 287q4 21 18 38 t32.5 32.5t40 30.5t40 30.5t32.5 32t18 36.5q2 13 -2 25.5t-10 22.5t-12.5 16t-10.5 6q-3 0 -13 -7.5t-22 -16t-22 -16t-13 -7.5q-6 6 -19 17.5t-26 23.5q-8 7 -16.5 14t-16.5 15q-5 -2 -9.5 -5t-9.5 -5q-8 -5 -17 -10t-17 -11q51 -10 70.5 -46t11.5 -81q-5 -29 -20.5 -53.5 t-38 -43.5t-50 -29.5t-55.5 -10.5q-63 0 -94.5 40t-17.5 109zM102 594q-5 -26 10.5 -45t41.5 -19t48 19t27 45q7 26 -9 44.5t-42 18.5t-47.5 -18.5t-28.5 -44.5z" />
<glyph unicode="&#xe0c;" horiz-adv-x="1165" d="M47 139l59 305q12 55 44.5 92t70.5 50q-12 11 -30 22t-36.5 20.5t-35 17t-25.5 11.5q72 85 163 132t202 47q57 0 106 -16t82 -47.5t47 -78.5t2 -110l-61 -322q36 -9 72.5 -27t69.5 -40.5t59.5 -46.5t42.5 -44l139 715h102l-143 -733q-9 -51 -34.5 -68.5t-70.5 -17.5h-41 q-9 18 -26 38t-37.5 39.5t-42.5 36t-41 27.5q0 -6 -2 -12q-5 -29 -21 -54t-38.5 -44t-50.5 -30t-56 -11q-29 0 -52 11t-38 30t-21.5 44t-1.5 54q5 24 17.5 46t30 39.5t38.5 30.5t43 19l64 322q8 42 -3 74t-34 53t-54.5 32t-64.5 11q-60 0 -113 -20t-98 -62 q25 -12 58.5 -35.5t56.5 -52.5q-114 -38 -135 -144l-37 -184q11 5 25.5 6.5t25.5 1.5q29 0 51.5 -10.5t37 -29t20 -43t0.5 -52.5q-6 -29 -21.5 -54.5t-38 -44.5t-50 -30.5t-56.5 -11.5q-69 0 -100 41.5t-19 107.5zM133 131q-5 -26 10 -44.5t41 -18.5t48.5 18.5t27.5 44.5 q6 26 -9.5 45t-41.5 19t-48 -19t-28 -45zM479 129q-5 -26 10 -44.5t41 -18.5t48.5 18.5t27.5 44.5q6 26 -9.5 45t-41.5 19t-48 -19t-28 -45z" />
<glyph unicode="&#xe0d;" horiz-adv-x="1137" d="M47 139l59 305q12 55 44.5 92t70.5 50q-12 11 -30 22t-36.5 20.5t-35 17t-25.5 11.5q72 85 163 132t202 47q57 0 106 -16t82 -47.5t47 -78.5t2 -110l-96 -502h98q44 0 73.5 5t49 19t30.5 39.5t19 67.5l119 606h103l-123 -626q-9 -49 -25 -85t-43 -60t-66.5 -36t-95.5 -12 h-360l14 78q35 0 56 2.5t33.5 12t19 28.5t12.5 51l82 414q8 42 -3 74t-34 53t-54.5 32t-64.5 11q-60 0 -113 -20t-98 -62q25 -12 58.5 -35.5t56.5 -52.5q-114 -38 -135 -144l-37 -184q11 5 25.5 6.5t25.5 1.5q29 0 51.5 -10.5t37 -29t20 -43t0.5 -52.5q-6 -29 -21.5 -54.5 t-38 -44.5t-50 -30.5t-56.5 -11.5q-69 0 -100 41.5t-19 107.5zM133 131q-5 -26 10 -44.5t41 -18.5t48.5 18.5t27.5 44.5q6 26 -9.5 45t-41.5 19t-48 -19t-28 -45zM422 -176q5 26 19.5 49t34.5 40t44.5 26.5t50.5 9.5t47 -9.5t35 -26.5t19 -40t0 -49q-2 -11 -5 -21.5 t-10 -19.5q24 4 52.5 16t56.5 28.5t52.5 36.5t39.5 40l43 -62q-78 -70 -162 -111.5t-184 -39.5q-70 2 -107 38t-26 95zM492 -176q-4 -22 9.5 -38.5t35.5 -16.5q21 0 41.5 16.5t23.5 38.5q5 22 -8 38.5t-35 16.5t-42 -16.5t-25 -38.5z" />
<glyph unicode="&#xe0e;" horiz-adv-x="840" d="M-78 -264q6 31 26 58t49.5 47t67 32t78.5 12q39 0 68.5 -6t54.5 -18q4 11 6 22t4 21l3 22h102l-8 -41q-4 -17 -10 -36.5t-13 -34.5q31 -27 52.5 -63t31.5 -64q25 0 34 16.5t17 58.5l162 824q9 42 -2 74t-34 53t-54.5 32t-64.5 11q-60 0 -113 -20t-98 -62q25 -13 58 -36 t56 -52q-114 -38 -135 -144l-45 -235q15 -35 6 -78q-5 -29 -21 -54t-38.5 -44t-50.5 -30t-56 -11t-51 11t-38.5 30t-22 44t-0.5 54q5 28 21 53.5t38.5 44.5t50 30t56.5 11h14l35 176q11 55 44 92.5t70 49.5q-12 11 -30 22t-36.5 20.5t-35 17t-25.5 11.5q73 85 164.5 132 t200.5 47q58 0 107 -16t82 -47.5t47 -78.5t2 -110l-162 -834q-16 -84 -57.5 -122t-110.5 -38h-41q-5 15 -13 33.5t-18.5 37.5t-22.5 37t-24 30q-20 -29 -46.5 -53t-57 -41t-63.5 -26t-66 -9q-34 0 -63.5 8.5t-49.5 25.5t-29 42.5t-2 60.5zM12 -268q-5 -26 14.5 -40t51.5 -14 q26 0 50.5 9.5t45 23.5t35.5 31.5t22 32.5q-12 12 -38 21t-58 9q-46 0 -81.5 -21t-41.5 -52zM18 129q-5 -26 10.5 -44.5t41.5 -18.5t48 18.5t27 44.5q7 26 -9 45t-42 19t-47.5 -19t-28.5 -45z" />
<glyph unicode="&#xe0f;" horiz-adv-x="840" d="M-154 -276q6 29 22.5 53.5t40.5 42t54.5 27.5t63.5 10q37 0 64 -11t42 -26q5 11 7 24t4 25l3 29h103q-4 -27 -12 -55q-6 -23 -15.5 -50t-23.5 -47l28 -43q11 12 23 23.5t23 22.5q20 19 41 39t38 34q29 -34 50.5 -69.5t33.5 -61.5q25 0 34 15t17 58l160 822q9 42 -2 74 t-34 53t-54.5 32t-64.5 11q-60 0 -113 -20t-98 -62q25 -13 58 -36t56 -52q-114 -38 -135 -144l-45 -235q15 -35 6 -78q-5 -29 -21 -54t-38.5 -44t-50.5 -30t-56 -11t-51 11t-38.5 30t-22 44t-0.5 54q5 28 21 53.5t38.5 44.5t50 30t56.5 11h14l35 176q11 55 44 92.5t70 49.5 q-12 11 -30 22t-36.5 20.5t-35 17t-25.5 11.5q73 85 164.5 132t200.5 47q58 0 107 -16t82 -47.5t47 -78.5t2 -110l-162 -832q-9 -48 -26 -79t-39.5 -49.5t-49 -26t-53.5 -7.5h-41q-9 28 -21.5 57t-27.5 54q-12 -12 -25.5 -26t-26 -28t-24 -26.5t-19.5 -21.5h-63l-9 21 l-24 42q-31 -29 -72 -50.5t-98 -21.5q-25 0 -49.5 8t-43 24.5t-27 41.5t-1.5 60zM-68 -279q-4 -24 13 -37.5t43 -13.5q34 0 61.5 19t36.5 41q-6 18 -27 31.5t-49 13.5q-10 0 -22.5 -3.5t-23.5 -10.5t-20 -17t-12 -23zM18 129q-5 -26 10.5 -44.5t41.5 -18.5t48 18.5t27 44.5 q7 26 -9 45t-42 19t-47.5 -19t-28.5 -45z" />
<glyph unicode="&#xe10;" horiz-adv-x="709" d="M-164 -295q6 30 21.5 55t38 42.5t50 27.5t58.5 10q29 0 53.5 -10t38.5 -27q5 11 8 24.5t5 25.5q2 7 2.5 14t1.5 14h92q-3 -14 -6.5 -28.5t-7.5 -28.5q-7 -24 -16.5 -50t-20.5 -44l36 -60l84 58l62 -60q25 0 40.5 9.5t18.5 27.5q0 5 1 8l3 13q-6 -2 -11 -2h-11 q-26 0 -47.5 8.5t-36 23.5t-20.5 35.5t-1 44.5q5 23 19 43.5t34 36t44.5 24.5t50.5 9t47 -9t35 -24.5t19.5 -36t0.5 -43.5l-18 -96q-16 -81 -52.5 -118.5t-99.5 -37.5h-37l-59 58l-72 -50h-57l-31 52q-32 -31 -66.5 -47.5t-84.5 -16.5q-24 0 -46 8.5t-38 24.5t-23 39.5 t-2 52.5zM-82 -293q-4 -23 11.5 -35t35.5 -12q26 0 50.5 15.5t35.5 39.5q-13 43 -63 43q-22 0 -43.5 -14t-26.5 -37zM27 610q48 107 130.5 166.5t207.5 59.5q30 0 58.5 -8t54 -17t48 -17t41.5 -8q22 0 39 12t37 27l68 -57q-34 -32 -67 -53t-75 -21q-32 0 -60.5 8.5t-56 19 t-55 20t-57.5 10.5q-34 0 -60.5 -6t-47 -16t-34 -23t-22.5 -25q54 -2 116 -6.5t128 -13.5q46 -7 85.5 -18.5t67.5 -30.5t41.5 -46.5t6.5 -66.5q-10 -53 -31.5 -108.5t-48 -116.5t-55.5 -129t-54 -146h-127l-31 287q-18 -13 -39 -19t-42 -6q-29 0 -51.5 11t-37.5 29.5 t-21 43.5t-1 53t20.5 53.5t38 44t49.5 29.5t56 11q31 0 53.5 -10.5t38 -28.5t23.5 -42.5t10 -52.5l14 -178q1 -14 1 -31.5t-1 -32.5l-2 -36h4q1 7 3.5 19t5.5 25t7 26.5t9 25.5q13 34 28 69t29 68.5t25 65t16 59.5q6 32 -11 52t-48 32.5t-71 19t-79 11.5q-35 4 -72 6t-73 3 t-69 1.5t-60 1.5zM156 399q-5 -26 10 -44.5t41 -18.5t48.5 18.5t27.5 44.5t-10.5 45t-41.5 19t-48 -19t-27 -45zM340 -164q-5 -22 10.5 -35.5t38.5 -13.5t42 13.5t24 35.5q3 20 -10.5 34.5t-36.5 14.5t-44 -14.5t-24 -34.5z" />
<glyph unicode="&#xe11;" horiz-adv-x="969" d="M27 551q-6 25 0 55q5 26 24 58t52.5 63t82 58t113.5 44l28 -23q11 -9 21 -18t14 -14q9 4 22 13t26.5 18.5t25.5 16.5t17 7q13 0 28 -13.5t27 -34.5t18.5 -46.5t1.5 -50.5q-6 -32 -26 -56.5t-42.5 -46.5t-42.5 -45t-26 -53l-26 -139q-4 -17 -12 -46t-17 -57l-23 -69h2 l23 60q10 24 21 49t20 41l227 417q23 42 58.5 66t89.5 24q37 0 66 -10t48 -32.5t25 -57.5t-4 -86l-125 -643h-102l120 623q11 55 -2 86.5t-51 31.5q-15 0 -26 -14.5t-19 -28.5l-377 -698h-112l96 494q6 30 27.5 52.5t45.5 42.5t44.5 39.5t25.5 45.5q4 24 -3 42.5t-15 18.5 q-2 0 -12 -7.5t-22 -16t-22 -16t-12 -7.5l-37 37l-28 27l-41 -23q18 -7 30.5 -20.5t20 -30t9.5 -35.5t-1 -37q-5 -29 -20.5 -53.5t-38 -43.5t-50 -29.5t-55.5 -10.5t-51 10t-38 28.5t-21 43.5zM100 606q-6 -26 10 -44.5t42 -18.5t47.5 18.5t27.5 44.5q5 26 -10 45t-41 19 t-48.5 -19t-27.5 -45z" />
<glyph unicode="&#xe12;" horiz-adv-x="1219" d="M31 0l24 129q12 65 14.5 120t3 107t3 103t14.5 108q11 55 38.5 102.5t65.5 82.5t83.5 57t93.5 27l98 -82l129 82q26 -6 58.5 -19.5t58 -39t39 -65.5t2.5 -98l-68 -352q36 -9 72.5 -27t69.5 -40.5t59.5 -46.5t42.5 -44l139 715h103l-144 -733q-9 -50 -33.5 -68t-70.5 -18 h-33q-9 18 -27 39.5t-39.5 41.5t-45 37t-44.5 27v-7q0 -3 -2 -9q-5 -29 -21 -54t-38.5 -44t-50.5 -30t-56 -11t-51 11t-38.5 30t-22 44t-0.5 54q4 24 16.5 46t30 39.5t39 30.5t43.5 19l65 334q7 34 3 59t-14.5 42t-24.5 27.5t-27 16.5l-139 -94l-113 94q-57 -26 -94.5 -75.5 t-48.5 -106.5q-8 -40 -11 -91t-5 -105t-5.5 -108t-11.5 -99q25 29 49 56t55 58q26 28 45.5 46.5t36.5 33.5q-42 11 -64.5 48t-13.5 85q6 28 21.5 53.5t37.5 44t49 29.5t56 11q28 0 51 -11t38 -29.5t21 -44t1 -53.5q-8 -43 -31.5 -72.5t-48.5 -54.5q-19 -19 -36 -35.5 t-34 -33.5t-36 -36.5t-42 -43.5q-28 -30 -54.5 -60t-49 -57.5t-40.5 -51t-30 -40.5h-110zM342 485q-5 -26 10 -44.5t41 -18.5t49 18.5t27 44.5q5 26 -10 45t-41 19t-48.5 -19t-27.5 -45zM532 129q-5 -26 10.5 -44.5t41.5 -18.5t48 18.5t27 44.5q7 26 -9 45t-42 19t-47.5 -19 t-28.5 -45z" />
<glyph unicode="&#xe13;" horiz-adv-x="1176" d="M47 139l59 305q12 55 44.5 92t70.5 50q-12 11 -30 22t-36.5 20.5t-35 17t-25.5 11.5q72 85 163 132t202 47q57 0 106 -16t82 -47.5t47 -78.5t2 -110l-94 -486q27 22 65.5 49.5t81 53.5t85 47.5t77.5 30.5l107 540h102l-108 -557q31 -18 46 -51.5t7 -75.5 q-6 -29 -22.5 -55t-39.5 -45t-51 -30t-57 -11t-52.5 11t-39 30t-21.5 45t0 55q-34 -22 -80.5 -56t-91.5 -79h-129l115 586q8 42 -3 74t-34 53t-54.5 32t-64.5 11q-60 0 -113 -20t-98 -62q25 -12 58.5 -35.5t56.5 -52.5q-114 -38 -135 -144l-37 -184q11 5 25.5 6.5t25.5 1.5 q29 0 51.5 -10.5t37 -29t20 -43t0.5 -52.5q-6 -29 -21.5 -54.5t-38 -44.5t-50 -30.5t-56.5 -11.5q-69 0 -100 41.5t-19 107.5zM133 131q-5 -26 10 -44.5t41 -18.5t48.5 18.5t27.5 44.5q6 26 -9.5 45t-41.5 19t-48 -19t-28 -45zM860 139q-5 -26 10 -44.5t41 -18.5t48.5 18.5 t27.5 44.5q6 26 -9.5 45t-41.5 19t-48 -19t-28 -45z" />
<glyph unicode="&#xe14;" horiz-adv-x="842" d="M31 0l22 119q11 57 12 109t0.5 103.5t1 104t13.5 111.5q11 57 43 109.5t82.5 92.5t118 63.5t149.5 23.5q81 0 137.5 -22.5t90 -61t44.5 -89.5t0 -108l-108 -555h-102l104 535q9 43 3.5 82.5t-27.5 70.5t-61.5 49.5t-98.5 18.5q-49 0 -94.5 -16.5t-82 -45t-62 -67.5 t-34.5 -84q-9 -48 -10.5 -98.5t-1.5 -100.5t-1 -98t-9 -90q8 11 20 25t25.5 29.5t28.5 31t30 30.5l45.5 45.5t36.5 34.5q-42 11 -64.5 48t-13.5 85q6 28 21.5 53.5t37.5 44t49 29.5t56 11q28 0 51 -11t38 -29.5t21 -44t1 -53.5q-8 -43 -31.5 -72.5t-48.5 -54.5 q-19 -19 -36 -35.5t-34 -33.5t-36 -36.5t-42 -43.5q-28 -30 -54.5 -60t-49 -57.5t-40.5 -51t-30 -40.5h-110zM342 485q-5 -26 10 -44.5t41 -18.5t49 18.5t27 44.5q5 26 -10 45t-41 19t-48.5 -19t-27.5 -45z" />
<glyph unicode="&#xe15;" horiz-adv-x="842" d="M31 0l24 129q12 65 14.5 120t3 107t3 103t14.5 108q11 55 38.5 102.5t65.5 82.5t83.5 57t93.5 27l98 -82l129 82q26 -6 58.5 -19.5t58 -39t39 -65.5t2.5 -98l-119 -614h-102l116 598q7 34 3 59t-14.5 42t-24.5 27.5t-27 16.5l-139 -94l-113 94q-57 -26 -94.5 -75.5 t-48.5 -106.5q-8 -40 -11 -91t-5 -105t-5.5 -108t-11.5 -99q25 29 49 56t55 58q26 28 45.5 46.5t36.5 33.5q-42 11 -64.5 48t-13.5 85q6 28 21.5 53.5t37.5 44t49 29.5t56 11q28 0 51 -11t38 -29.5t21 -44t1 -53.5q-8 -43 -31.5 -72.5t-48.5 -54.5q-19 -19 -36 -35.5 t-34 -33.5t-36 -36.5t-42 -43.5q-28 -30 -54.5 -60t-49 -57.5t-40.5 -51t-30 -40.5h-110zM342 485q-5 -26 10 -44.5t41 -18.5t49 18.5t27 44.5q5 26 -10 45t-41 19t-48.5 -19t-27.5 -45z" />
<glyph unicode="&#xe16;" horiz-adv-x="788" d="M47 139l59 305q12 55 44.5 92t70.5 50q-12 11 -30 22t-36.5 20.5t-35 17t-25.5 11.5q72 85 163 132t202 47q57 0 106 -16t82 -47.5t47 -78.5t2 -110l-112 -584h-103l115 586q8 42 -3 74t-34 53t-54.5 32t-64.5 11q-60 0 -113 -20t-98 -62q25 -12 58.5 -35.5t56.5 -52.5 q-114 -38 -135 -144l-37 -184q11 5 25.5 6.5t25.5 1.5q29 0 51.5 -10.5t37 -29t20 -43t0.5 -52.5q-6 -29 -21.5 -54.5t-38 -44.5t-50 -30.5t-56.5 -11.5q-69 0 -100 41.5t-19 107.5zM133 131q-5 -26 10 -44.5t41 -18.5t48.5 18.5t27.5 44.5q6 26 -9.5 45t-41.5 19t-48 -19 t-28 -45z" />
<glyph unicode="&#xe17;" horiz-adv-x="846" d="M41 688q5 28 21 54t39 45t51 30.5t57 11.5q69 0 100 -41.5t19 -107.5l-56 -281q-5 -23 -15.5 -61t-21.5 -75l-28 -91h4l29 68q12 28 24.5 57t22.5 47l196 393q23 45 58.5 68.5t89.5 23.5q37 0 66.5 -10.5t48 -33t24.5 -58t-4 -86.5l-125 -641h-102l120 621q11 55 -2 86.5 t-51 31.5q-15 0 -25.5 -13t-19.5 -30l-356 -696h-113l109 561q-10 -5 -25 -6.5t-26 -1.5q-29 0 -51.5 10.5t-37 29t-20 43t-0.5 52.5zM113 688q-5 -26 10 -44.5t41 -18.5t48.5 18.5t27.5 44.5q6 26 -10 45t-42 19t-47.5 -19t-27.5 -45z" />
<glyph unicode="&#xe18;" horiz-adv-x="727" d="M-51 0l14 78q34 0 54.5 2t33 11t19.5 28t14 53l43 219q9 51 28 77.5t50 43.5h114q-26 -14 -53 -43.5t-37 -77.5l-59 -309h119q45 0 74 5t48 19t30 39.5t20 67.5l51 262q5 27 -9 46t-39 31.5t-58 20t-66 11.5q-35 4 -73 6t-75.5 3t-73 1h-65.5q23 51 56 95.5t76 77 t95.5 51t114.5 18.5q28 0 53 -8t46 -17t37 -17t26 -8q22 0 39 12t37 27l67 -57q-34 -32 -66.5 -53t-74.5 -21q-29 0 -50.5 8.5t-42 19t-43 20t-52.5 10.5q-32 1 -58.5 -6t-47.5 -19t-36 -26.5t-24 -28.5q27 0 60.5 -1t68.5 -4t69.5 -8t63.5 -12q85 -20 122 -62.5t23 -117.5 l-53 -274q-9 -49 -25 -85t-42.5 -60t-66 -36t-95.5 -12h-381z" />
<glyph unicode="&#xe19;" horiz-adv-x="868" d="M41 688q5 28 21 54t39 45t51 30.5t57 11.5q69 0 100 -41.5t19 -107.5l-113 -574q75 75 171.5 122t199.5 53l104 538h103l-109 -557q31 -18 46 -51.5t7 -75.5q-6 -29 -22.5 -55t-39.5 -45t-51 -30t-57 -11t-52.5 11t-38.5 30t-21 45t0 55q3 14 9 27.5t9 21.5 q-24 -5 -58 -22.5t-70 -43t-69 -56.5t-55 -62h-129l109 561q-10 -5 -25 -6.5t-26 -1.5q-29 0 -51.5 10.5t-37 29t-20 43t-0.5 52.5zM113 688q-5 -26 10 -44.5t41 -18.5t48.5 18.5t27.5 44.5q6 26 -10 45t-42 19t-47.5 -19t-27.5 -45zM532 139q-5 -26 10.5 -44.5t41.5 -18.5 t48 18.5t27 44.5q7 26 -9 45t-42 19t-47.5 -19t-28.5 -45z" />
<glyph unicode="&#xe1a;" horiz-adv-x="850" d="M-10 0l14 78q34 0 54.5 2t33 11t19.5 28t14 53l76 389q-10 -5 -25 -6.5t-26 -1.5q-29 0 -51.5 10.5t-37 29t-20 43t-0.5 52.5t21 54t39 45t51 30.5t57 11.5q69 0 100 -41.5t19 -107.5l-117 -598h201q45 0 74 5t47.5 19t30 39.5t20.5 67.5l118 606h103l-123 -626 q-9 -49 -25 -85t-43 -60t-66.5 -36t-94.5 -12h-463zM113 688q-5 -26 10 -44.5t41 -18.5t48.5 18.5t27.5 44.5q6 26 -10 45t-42 19t-47.5 -19t-27.5 -45z" />
<glyph unicode="&#xe1b;" horiz-adv-x="850" d="M-10 0l14 78q34 0 54.5 2t33 11t19.5 28t14 53l76 389q-10 -5 -25 -6.5t-26 -1.5q-29 0 -51.5 10.5t-37 29t-20 43t-0.5 52.5t21 54t39 45t51 30.5t57 11.5q69 0 100 -41.5t19 -107.5l-117 -598h201q45 0 74 5t47.5 19t30 39.5t20.5 67.5l178 913h102l-182 -933 q-9 -49 -25 -85t-43 -60t-66.5 -36t-94.5 -12h-463zM113 688q-5 -26 10 -44.5t41 -18.5t48.5 18.5t27.5 44.5q6 26 -10 45t-42 19t-47.5 -19t-27.5 -45z" />
<glyph unicode="&#xe1c;" horiz-adv-x="848" d="M37 86l117 594q6 33 21.5 60.5t38.5 47t52.5 30.5t63.5 11q29 0 52 -11.5t38 -30.5t20.5 -45t-0.5 -54q-5 -28 -20 -52.5t-37 -43t-49 -29t-55 -10.5q-11 0 -24.5 1.5t-23.5 6.5l-79 -414l243 365h74l100 -365l131 672h103l-144 -733q-9 -51 -35 -68.5t-69 -17.5h-47 l-102 381l-250 -381h-47q-45 0 -63 17.5t-9 68.5zM242 688q-5 -26 10 -44.5t41 -18.5t48.5 18.5t27.5 44.5q6 26 -10 45t-42 19t-47.5 -19t-27.5 -45z" />
<glyph unicode="&#xe1d;" horiz-adv-x="848" d="M37 86l117 594q6 33 21.5 60.5t38.5 47t52.5 30.5t63.5 11q29 0 52 -11.5t38 -30.5t20.5 -45t-0.5 -54q-5 -28 -20 -52.5t-37 -43t-49 -29t-55 -10.5q-11 0 -24.5 1.5t-23.5 6.5l-79 -414l243 365h74l100 -365l191 979h102l-203 -1040q-9 -51 -35 -68.5t-69 -17.5h-47 l-102 381l-250 -381h-47q-45 0 -63 17.5t-9 68.5zM242 688q-5 -26 10 -44.5t41 -18.5t48.5 18.5t27.5 44.5q6 26 -10 45t-42 19t-47.5 -19t-27.5 -45z" />
<glyph unicode="&#xe1e;" horiz-adv-x="946" d="M41 688q5 28 21 54t39 45t51 30.5t57 11.5q69 0 100 -41.5t19 -107.5l-58 -295q-4 -21 -13 -59.5t-19 -76.5q-5 -23 -11.5 -46.5t-13.5 -48.5h4l23 54q10 23 20.5 46t18.5 39l251 526h86l56 -528q2 -17 2.5 -40t1.5 -45l2 -52h4l13 94q5 38 10.5 76.5t9.5 60.5l84 434 h102l-141 -729q-6 -31 -16.5 -49t-25.5 -27t-34 -11.5t-43 -2.5h-35l-61 627q-2 21 0 35l2 14h-4q-1 -3 -1.5 -6.5t-2.5 -7.5q-5 -16 -15 -35l-299 -627h-32q-24 0 -42 2.5t-29 11.5t-14 27t3 49l90 471q-10 -5 -25 -6.5t-26 -1.5q-29 0 -51.5 10.5t-37 29t-20 43t-0.5 52.5 zM113 688q-5 -26 10 -44.5t41 -18.5t48.5 18.5t27.5 44.5q6 26 -10 45t-42 19t-47.5 -19t-27.5 -45z" />
<glyph unicode="&#xe1f;" horiz-adv-x="946" d="M41 688q5 28 21 54t39 45t51 30.5t57 11.5q69 0 100 -41.5t19 -107.5l-58 -295q-4 -21 -13 -59.5t-19 -76.5q-5 -23 -11.5 -46.5t-13.5 -48.5h4l23 54q10 23 20.5 46t18.5 39l251 526h86l56 -528q2 -17 2.5 -40t1.5 -45l2 -52h4l13 94q5 38 10.5 76.5t9.5 60.5l143 741 h103l-201 -1036q-6 -31 -16.5 -49t-25.5 -27t-34 -11.5t-43 -2.5h-35l-61 627q-2 21 0 35l2 14h-4q-1 -3 -1.5 -6.5t-2.5 -7.5q-5 -16 -15 -35l-299 -627h-32q-24 0 -42 2.5t-29 11.5t-14 27t3 49l90 471q-10 -5 -25 -6.5t-26 -1.5q-29 0 -51.5 10.5t-37 29t-20 43 t-0.5 52.5zM113 688q-5 -26 10 -44.5t41 -18.5t48.5 18.5t27.5 44.5q6 26 -10 45t-42 19t-47.5 -19t-27.5 -45z" />
<glyph unicode="&#xe20;" horiz-adv-x="840" d="M-57 129q5 28 21 53.5t38.5 44.5t50 30t56.5 11h14l35 176q11 55 44 92.5t70 49.5q-12 11 -30 22t-36.5 20.5t-35 17t-25.5 11.5q73 85 164.5 132t200.5 47q58 0 107 -16t82 -47.5t47 -78.5t2 -110l-113 -584h-103l115 586q9 42 -2 74t-34 53t-54.5 32t-64.5 11 q-60 0 -113 -20t-98 -62q25 -13 58 -36t56 -52q-114 -38 -135 -144l-45 -235q15 -35 6 -78q-5 -29 -21 -54t-38.5 -44t-50.5 -30t-56 -11t-51 11t-38.5 30t-22 44t-0.5 54zM18 129q-5 -26 10.5 -44.5t41.5 -18.5t48 18.5t27 44.5q7 26 -9 45t-42 19t-47.5 -19t-28.5 -45z " />
<glyph unicode="&#xe21;" horiz-adv-x="834" d="M-24.5 91.5q-6.5 31.5 1.5 70.5q8 37 30 69.5t52.5 56.5t67 38t72.5 14l43 221q-10 -5 -25.5 -6.5t-26.5 -1.5q-29 0 -51 10.5t-36.5 29t-20 43t-0.5 52.5t21 54t39 45t51 30.5t57 11.5q69 0 100 -41.5t19 -107.5l-68 -346q33 -4 69.5 -21t71 -43t64 -60t47.5 -71 l133 680h102l-141 -725q-11 -54 -37 -74t-75 -20h-35q-6 33 -24.5 72t-47 75t-65 64t-78.5 39l-25 -125q-5 -28 -19 -52t-35.5 -41.5t-48.5 -27.5t-57 -10q-31 0 -57 11.5t-43.5 33t-24 53zM66 156q-8 -34 7 -54t38 -20q21 0 33.5 15t17.5 38l22 123q-21 1 -40.5 -7 t-35.5 -22.5t-27 -33t-15 -39.5zM154 688q-5 -26 10 -44.5t41 -18.5t48.5 18.5t27.5 44.5q6 26 -10 45t-42 19t-47.5 -19t-27.5 -45z" />
<glyph unicode="&#xe22;" horiz-adv-x="809" d="M20 0l56 289q7 36 20 60t28.5 39.5t31.5 25t28 16.5q-18 5 -34.5 15t-28 24.5t-16 35t0.5 46.5l27 129q7 33 23 60.5t39 47t52 30.5t62 11q66 0 96.5 -39t18.5 -102q-5 -29 -21 -53.5t-38.5 -42.5t-50.5 -28.5t-56 -10.5q-11 0 -25 1.5t-22 6.5q-3 -15 2 -31t19 -29 t38.5 -21.5t59.5 -8.5h82l-17 -82h-84q-60 0 -92 -28.5t-41 -77.5l-39 -201h232q45 0 74 5t47.5 19t30 39.5t20.5 67.5l119 606h102l-123 -626q-9 -49 -25 -85t-43 -60t-66.5 -36t-94.5 -12h-392zM221 688q-5 -26 10 -44.5t41 -18.5t48.5 18.5t27.5 44.5q6 26 -9.5 45 t-41.5 19t-48 -19t-28 -45z" />
<glyph unicode="&#xe23;" horiz-adv-x="655" d="M23 590q24 53 57 98t75.5 78t95 51.5t114.5 18.5q27 0 52 -8t46 -17t37 -17t26 -8q22 0 39 12t37 27l68 -57q-34 -32 -67 -53t-75 -21q-28 0 -49.5 8.5t-42.5 19t-43.5 20t-52.5 10.5q-34 1 -61.5 -8.5t-48.5 -23.5t-35.5 -30t-22.5 -28q22 0 51.5 -0.5t62 -3t66.5 -7.5 t66 -14q75 -22 104.5 -67.5t14.5 -123.5l-60 -307q-6 -33 -21.5 -60.5t-38.5 -47t-52.5 -30.5t-63.5 -11q-29 0 -52.5 11.5t-38.5 30.5t-21 44.5t-1 54.5q6 28 21 52.5t37 43t48.5 29t55.5 10.5q11 0 25 -1.5t22 -6.5l39 197q6 28 -4.5 50t-31.5 37.5t-50.5 25.5t-62.5 14 q-35 4 -71.5 5.5t-71 2t-66 0.5h-55.5zM260 131q-5 -26 10 -44.5t41 -18.5t48.5 18.5t27.5 44.5q6 26 -9.5 45t-41.5 19t-48 -19t-28 -45z" />
<glyph unicode="&#xe24;" horiz-adv-x="788" d="M47 139l59 305q12 55 44.5 92t70.5 50q-12 11 -30 22t-36.5 20.5t-35 17t-25.5 11.5q72 85 163 132t202 47q57 0 106 -16t82 -47.5t47 -78.5t2 -110l-172 -891h-102l174 893q8 42 -3 74t-34 53t-54.5 32t-64.5 11q-60 0 -113 -20t-98 -62q25 -12 58.5 -35.5t56.5 -52.5 q-114 -38 -135 -144l-37 -184q11 5 25.5 6.5t25.5 1.5q29 0 51.5 -10.5t37 -29t20 -43t0.5 -52.5q-6 -29 -21.5 -54.5t-38 -44.5t-50 -30.5t-56.5 -11.5q-69 0 -100 41.5t-19 107.5zM133 131q-5 -26 10 -44.5t41 -18.5t48.5 18.5t27.5 44.5q6 26 -9.5 45t-41.5 19t-48 -19 t-28 -45z" />
<glyph unicode="&#xe25;" horiz-adv-x="807" d="M47 139l55 283q7 35 24.5 62t40.5 47t50 32.5t53 18.5q39 7 74 6t63 -11.5t46.5 -30.5t23.5 -50l45 -248q3 -16 4.5 -37t3.5 -41l2 -47h5q1 14 1.5 28.5t2.5 28.5q2 24 5 49.5t7 44.5l61 312q7 37 -2.5 68t-32 53.5t-56 35.5t-74.5 13t-79.5 -9t-71.5 -27t-59 -44.5 t-42 -61.5h-107q26 57 66 99t89.5 69t106.5 40.5t117 13.5q61 0 111.5 -16t84.5 -46t49 -73t5 -97l-98 -514q-6 -31 -16.5 -49t-25.5 -27t-34 -11.5t-43 -2.5h-35l-82 449q-5 24 -28.5 42.5t-61.5 12.5q-37 -6 -60.5 -30.5t-31.5 -61.5l-31 -154q11 5 25.5 6.5t25.5 1.5 q29 0 51.5 -10.5t37 -29t20 -43t0.5 -52.5q-6 -29 -21.5 -54.5t-38 -44.5t-50 -30.5t-56.5 -11.5q-69 0 -100 41.5t-19 107.5zM133 131q-5 -26 10 -44.5t41 -18.5t48.5 18.5t27.5 44.5q6 26 -9.5 45t-41.5 19t-48 -19t-28 -45z" />
<glyph unicode="&#xe26;" horiz-adv-x="840" d="M-57 129q5 28 21 53.5t38.5 44.5t50 30t56.5 11h14l35 176q11 55 44 92.5t70 49.5q-12 11 -30 22t-36.5 20.5t-35 17t-25.5 11.5q73 85 164.5 132t200.5 47q58 0 107 -16t82 -47.5t47 -78.5t2 -110l-173 -891h-102l174 893q9 42 -2 74t-34 53t-54.5 32t-64.5 11 q-60 0 -113 -20t-98 -62q25 -13 58 -36t56 -52q-114 -38 -135 -144l-45 -235q15 -35 6 -78q-5 -29 -21 -54t-38.5 -44t-50.5 -30t-56 -11t-51 11t-38.5 30t-22 44t-0.5 54zM18 129q-5 -26 10.5 -44.5t41.5 -18.5t48 18.5t27 44.5q7 26 -9 45t-42 19t-47.5 -19t-28.5 -45z " />
<glyph unicode="&#xe27;" horiz-adv-x="702" d="M2 594q23 59 62.5 104.5t89 76t106.5 46t115 15.5t106.5 -16t81.5 -46t47.5 -73t3.5 -97l-90 -465q-6 -33 -21.5 -60.5t-38.5 -47t-52.5 -30.5t-63.5 -11q-29 0 -52.5 11.5t-38.5 30.5t-21 44.5t0 54.5q5 28 20 52.5t37 43t49 29t55 10.5q11 0 25 -1.5t22 -6.5l66 328 q7 37 -1 68t-29 53.5t-53 35.5t-73 13q-38 0 -75 -10.5t-69.5 -31.5t-58.5 -51t-42 -69h-107zM307 131q-5 -26 10 -44.5t41 -18.5t48.5 18.5t27.5 44.5q6 26 -9.5 45t-41.5 19t-48 -19t-28 -45z" />
<glyph unicode="&#xe28;" horiz-adv-x="856" d="M37 0l24 129q12 64 13 115.5t-0.5 99.5t-0.5 96.5t13 106.5q11 57 42 109t81 92t118.5 64t155.5 24q36 0 59 -4t40 -8.5t29.5 -8.5t27.5 -4q45 0 86.5 27.5t69.5 72.5l88 -61q-34 -38 -82 -62t-94 -32q34 -38 45 -89.5t0 -111.5l-109 -555h-102l104 535q9 41 5 81 t-24.5 71t-59.5 50t-101 19q-57 0 -104 -17.5t-82.5 -46.5t-58.5 -67t-32 -78q-12 -60 -11.5 -121t-2.5 -127q-1 -8 -5 -27.5t-9 -40.5l-13 -53h5q6 23 15 55.5t23 67.5q12 33 26.5 66.5t29 63.5t28.5 55t25 42q31 48 67 71.5t87 23.5q28 0 51 -11t38 -29.5t21 -44t0 -53.5 q-5 -28 -20.5 -53t-38 -43.5t-50 -29.5t-55.5 -11q-26 0 -48 9.5t-36 23.5q-19 -35 -42.5 -86t-47 -105t-45 -105t-35.5 -85h-108zM362 485q-5 -26 10.5 -44.5t41.5 -18.5t48.5 18.5t26.5 44.5q5 26 -10 45t-41 19t-48.5 -19t-27.5 -45z" />
<glyph unicode="&#xe29;" horiz-adv-x="870" d="M-10 0l14 78q33 0 53.5 1.5t33 10.5t20 28t14.5 54l76 389q-10 -5 -25 -6.5t-26 -1.5q-29 0 -51.5 10.5t-37 29t-20 43t-0.5 52.5t21 54t39 45t51 30.5t57 11.5q69 0 100 -41.5t19 -107.5l-117 -598h201q44 0 73.5 5t49 19t30.5 39.5t19 67.5l22 119q-28 -13 -71.5 -24 t-85.5 -9q-29 1 -54.5 10.5t-42.5 26.5t-24.5 41t-1.5 55q5 26 19.5 49t34.5 40t44.5 26.5t50.5 9.5q25 0 46.5 -9.5t35 -26.5t19 -40t-0.5 -49q-2 -11 -5.5 -21.5t-8.5 -19.5q14 3 32.5 11t31.5 16l77 401h103l-34 -170q-7 -32 -12.5 -63t-10.5 -55q-5 -29 -11 -54 q19 13 36.5 26.5t33.5 28.5l43 -61q-61 -52 -129 -86l-39 -192q-10 -49 -26 -85t-42.5 -60t-65.5 -36t-95 -12h-463zM113 688q-5 -26 10 -44.5t41 -18.5t48.5 18.5t27.5 44.5q6 26 -10 45t-42 19t-47.5 -19t-27.5 -45zM393 432q-5 -25 9 -41t38 -16q25 0 44 16t24 41 t-8.5 41t-38.5 16t-44 -16t-24 -41z" />
<glyph unicode="&#xe2a;" horiz-adv-x="817" d="M47 139l55 283q7 35 24.5 62t40.5 47t50 32.5t53 18.5q39 7 74 6t63 -11.5t46.5 -30.5t23.5 -50l45 -248q3 -16 4.5 -37t3.5 -41l2 -47h5q1 14 1.5 28.5t2.5 28.5q2 24 5 49.5t7 44.5l61 312q7 37 -2.5 68t-32 53.5t-56 35.5t-74.5 13t-79.5 -9t-71.5 -27t-59 -44.5 t-42 -61.5h-107q26 57 66 99t89.5 69t106.5 40.5t117 13.5q29 0 52 -4t41 -9.5t31.5 -9.5t24.5 -4q48 0 88 28.5t68 73.5l88 -61q-34 -38 -82.5 -64t-93.5 -32q23 -29 32.5 -65.5t0.5 -84.5l-98 -514q-6 -31 -16.5 -49t-25.5 -27t-34 -11.5t-43 -2.5h-35l-82 449 q-5 24 -28.5 42.5t-61.5 12.5q-37 -6 -60.5 -30.5t-31.5 -61.5l-31 -154q11 5 25.5 6.5t25.5 1.5q29 0 51.5 -10.5t37 -29t20 -43t0.5 -52.5q-6 -29 -21.5 -54.5t-38 -44.5t-50 -30.5t-56.5 -11.5q-69 0 -100 41.5t-19 107.5zM133 131q-5 -26 10 -44.5t41 -18.5t48.5 18.5 t27.5 44.5q6 26 -9.5 45t-41.5 19t-48 -19t-28 -45z" />
<glyph unicode="&#xe2b;" horiz-adv-x="856" d="M41 688q5 28 21 54t39 45t51 30.5t57 11.5q69 0 100 -41.5t19 -107.5l-78 -395q-2 -13 -6 -26.5t-8 -24.5l-9 -27h2q5 11 11 21.5t11 20.5q9 17 19.5 34.5t18.5 27.5q23 32 53 69.5t65 74t75.5 70t84.5 57.5q-23 15 -35 45.5t-4 68.5q6 29 21.5 54.5t38 44.5t50 30 t56.5 11q32 0 56 -11t39 -30t21 -44.5t1 -54.5q-8 -40 -33 -70t-59 -48q7 -8 13 -18t9.5 -24t4 -33t-4.5 -44l-90 -459h-102l90 459q5 23 3 41.5t-17 27.5q-41 -23 -84 -59.5t-85 -81t-81.5 -95t-73 -101.5t-60 -100t-42.5 -91h-107l109 561q-10 -5 -25 -6.5t-26 -1.5 q-29 0 -51.5 10.5t-37 29t-20 43t-0.5 52.5zM113 688q-5 -26 10 -44.5t41 -18.5t48.5 18.5t27.5 44.5q6 26 -10 45t-42 19t-47.5 -19t-27.5 -45zM606 694q-5 -26 10 -44.5t41 -18.5t48.5 18.5t27.5 44.5t-10 45t-41 19t-48.5 -19t-27.5 -45z" />
<glyph unicode="&#xe2c;" horiz-adv-x="946" d="M41 688q5 28 21 54t39 45t51 30.5t57 11.5q69 0 100 -41.5t19 -107.5l-101 -516l265 461h86l94 -461l96 504q3 15 4.5 31.5t1.5 31.5q-42 -22 -84.5 -32.5t-79.5 -12.5q-41 -2 -75.5 7t-58.5 27t-35 43.5t-5 55.5q6 28 25 53t48.5 43.5t67.5 29.5t82 11q72 0 119 -22.5 t72 -56.5q31 31 55 67l72 -43q-20 -28 -43.5 -52.5t-52.5 -47.5q3 -23 3 -48t-5 -51l-119 -612q-6 -31 -16.5 -49t-25.5 -27t-34 -11.5t-43 -2.5h-35l-92 465q-1 5 -1 12v13q0 9 1 14h-4q-1 -4 -2 -7t-3 -7q-2 -6 -5 -13t-6 -12l-269 -465h-32q-24 0 -42 2.5t-29 11.5 t-14 27t3 49l90 471q-10 -5 -25 -6.5t-26 -1.5q-29 0 -51.5 10.5t-37 29t-20 43t-0.5 52.5zM113 688q-5 -26 10 -44.5t41 -18.5t48.5 18.5t27.5 44.5q6 26 -10 45t-42 19t-47.5 -19t-27.5 -45zM526 821q-4 -15 3.5 -25t21.5 -17t31.5 -10t33.5 -3q45 0 78.5 11t67.5 30 q-14 31 -43.5 51.5t-85.5 20.5q-45 0 -72.5 -17.5t-34.5 -40.5z" />
<glyph unicode="&#xe2d;" horiz-adv-x="795" d="M20 0l84 434q6 33 21.5 60.5t39 47.5t53 31t63.5 11q28 0 51.5 -11.5t39 -31t21.5 -45.5t0 -54q-5 -27 -20.5 -51.5t-37.5 -43t-49 -29.5t-55 -11q-11 0 -25 1.5t-22 6.5l-45 -233h217q44 0 73.5 5t49 19t30.5 39.5t19 67.5l74 373q7 37 -2.5 68t-32.5 53.5t-56.5 35.5 t-74.5 13q-81 0 -147 -36.5t-105 -105.5h-106q27 52 66 93t87.5 69.5t105.5 44t120 15.5q59 0 109.5 -16t85 -46t50 -73t5.5 -97l-80 -411q-9 -49 -25 -85t-43 -60t-66.5 -36t-95.5 -12h-377zM195 442q-5 -26 10 -44.5t41 -18.5t48.5 18.5t27.5 44.5t-10.5 45t-41.5 19 t-48 -19t-27 -45z" />
<glyph unicode="&#xe2e;" horiz-adv-x="791" d="M16 0l72 373q6 33 22 60.5t39.5 47t53 30.5t63.5 11q29 0 52 -11.5t38 -30.5t20.5 -45t0.5 -54q-6 -28 -21 -52.5t-37 -43t-48.5 -29t-55.5 -10.5q-11 0 -24.5 1.5t-22.5 6.5l-33 -172h217q44 0 73.5 5t49 19t30.5 39.5t19 67.5l74 373q3 12 2.5 21t-0.5 14 q-54 -28 -108 -44t-111 -22q-45 -5 -92.5 -0.5t-85.5 18.5t-59.5 39t-14.5 62q7 36 33 66t65.5 51t90.5 33t108 12q78 0 137.5 -20.5t93.5 -55.5q22 20 41 42.5t33 47.5l68 -64q-23 -29 -46.5 -52t-52.5 -48q13 -33 2 -82l-79 -411q-9 -49 -25 -85t-43 -60t-66.5 -36 t-95.5 -12h-377zM178 381q-5 -26 10 -45t41 -19t48.5 19t27.5 45t-10 44.5t-41 18.5t-48.5 -18.5t-27.5 -44.5zM233 680q-3 -14 5.5 -23t24.5 -15t37.5 -8.5t45.5 -2.5q66 0 125 18t102 47q-21 26 -68 43t-104 17q-29 0 -57.5 -6t-52 -16t-39.5 -24t-19 -30z" />
<glyph unicode="&#xe2f;" horiz-adv-x="688" d="M43 692q5 28 20.5 53t38 44t49.5 29.5t56 10.5q28 0 51 -11t38 -29.5t21 -43.5t0 -53q-5 -23 -16.5 -45.5t-28.5 -38.5q28 0 68 15t79 42.5t72 66.5t48 87h45q32 0 42.5 -14.5t4.5 -42.5l-148 -762h-102l123 637q-29 -29 -65 -51t-73.5 -36.5t-74.5 -22t-68 -7.5 q-42 0 -78.5 12.5t-62 35t-36.5 54.5t-3 70zM119 692q-6 -26 9.5 -44.5t41.5 -18.5t48 18.5t28 44.5q5 26 -10 45t-41 19t-48.5 -19t-27.5 -45z" />
<glyph unicode="&#xe30;" horiz-adv-x="696" d="M4 174q5 28 19.5 52t35.5 41.5t46 27.5t51 10q25 0 45 -9.5t33 -26.5t18.5 -39.5t1.5 -47.5q-12 -56 -59 -92q16 -6 53 -6q43 0 83.5 14.5t74 42t58 67.5t34.5 91h102q-12 -72 -48.5 -128t-87.5 -94t-110 -57.5t-116 -19.5q-63 0 -110.5 13t-77.5 36t-42 55t-4 70z M78 182q-5 -23 7.5 -38t35.5 -15t40.5 15t22.5 38t-7.5 38.5t-35.5 15.5t-40.5 -15.5t-22.5 -38.5zM102 688q6 28 21 52t35.5 41.5t45.5 27.5t52 10q25 0 45.5 -9.5t34 -26.5t18.5 -39.5t0 -47.5q-5 -28 -21.5 -51.5t-39.5 -40.5q18 -6 55 -6q43 0 83.5 14.5t74.5 42 t58 67.5t34 91h102q-12 -72 -48.5 -127.5t-87 -94t-109.5 -58t-117 -19.5q-63 0 -110.5 13t-77.5 36t-42.5 55t-5.5 70zM178 696q-5 -23 7.5 -38t35.5 -15t41 15t23 38t-7.5 38.5t-35.5 15.5t-41 -15.5t-23 -38.5z" />
<glyph unicode="&#xe31;" d="M-354 1096q4 27 18.5 51t35.5 42t46 28t51 10t46.5 -10t34 -26.5t19 -39t1.5 -47.5q-7 -28 -25 -53.5t-41 -40.5q40 -10 90 -4.5t97.5 27.5t86 61.5t56.5 97.5h100q-21 -62 -62 -112t-94.5 -85t-116 -54t-126.5 -19q-52 0 -95 13t-72.5 36t-43 55t-6.5 70zM-279 1104 q-5 -23 7.5 -38t35.5 -15t41 15t23 38t-7.5 38t-35.5 15t-41 -15t-23 -38z" />
<glyph unicode="&#xe32;" horiz-adv-x="641" d="M6 614q16 48 48 89t75.5 70.5t95 46t107.5 16.5q58 0 103.5 -16.5t75 -46.5t41 -73t1.5 -96l-117 -604h-102l115 586q15 75 -20 122.5t-114 47.5q-34 0 -66 -9.5t-59.5 -27.5t-48.5 -44.5t-32 -60.5h-103z" />
<glyph unicode="&#xe33;" horiz-adv-x="641" d="M-199 1098q6 32 24 60.5t43.5 49.5t56.5 33t63 12t58 -12t43 -33t23.5 -49.5t0.5 -60.5t-24 -60.5t-43.5 -49.5t-56.5 -33.5t-63 -12.5t-58 12.5t-43 33.5t-23.5 49.5t-0.5 60.5zM-119 1098q-6 -31 12.5 -53.5t49.5 -22.5t57.5 22.5t32.5 53.5q6 32 -11 55t-49 23 t-59 -23t-33 -55zM6 614q16 48 48 89t75.5 70.5t95 46t107.5 16.5q58 0 103.5 -16.5t75 -46.5t41 -73t1.5 -96l-117 -604h-102l115 586q15 75 -20 122.5t-114 47.5q-34 0 -66 -9.5t-59.5 -27.5t-48.5 -44.5t-32 -60.5h-103z" />
<glyph unicode="&#xe34;" d="M-606 948q10 56 39.5 103t72 81t95.5 53t110 19q79 0 133 -24t85 -65.5t41 -96.5t1 -117q-50 26 -119.5 39.5t-147 17.5t-158 0.5t-152.5 -10.5zM-485 1026q39 9 90.5 12t103 0.5t99 -10.5t79.5 -22q-5 24 -19 45t-37 37.5t-56 26t-76 9.5q-63 0 -112 -26.5t-72 -71.5z " />
<glyph unicode="&#xe35;" d="M-606 948q10 56 39.5 103t72 81t95.5 53t110 19q69 0 119 -20.5t82 -55.5l25 129h102l-68 -356q-50 26 -119.5 39.5t-147 17.5t-158 0.5t-152.5 -10.5zM-485 1026q39 9 90.5 12t103 0.5t99 -10.5t79.5 -22q-5 24 -19 45t-37 37.5t-56 26t-76 9.5q-63 0 -112 -26.5 t-72 -71.5z" />
<glyph unicode="&#xe36;" d="M-606 948q10 56 39.5 103t72 81t95.5 53t110 19q90 0 146 -30q7 21 21.5 38t33 29t39.5 18.5t41 6.5q25 0 45 -10t33 -26.5t18.5 -39t1.5 -47.5q-10 -45 -44 -79t-77 -42q5 -28 6 -58.5t-4 -62.5q-50 26 -119.5 39t-147 16.5t-158 0.5t-152.5 -9zM-485 1026q39 9 90.5 12 t103 0.5t99 -10.5t79.5 -22q-5 24 -19 45t-37 37.5t-56 26t-76 9.5q-63 0 -112 -26.5t-72 -71.5zM-86 1143q-3 -23 8.5 -38t34.5 -15t41.5 15t21.5 38q5 23 -6 38t-34 15t-42 -15t-24 -38z" />
<glyph unicode="&#xe37;" d="M-606 948q10 56 39.5 103t72 81t95.5 53t110 19q22 0 43 -1.5t39 -6.5l10 61h72l-16 -83q15 -10 28.5 -19.5t24.5 -21.5l25 124h102l-68 -356q-50 26 -119.5 39.5t-147 17.5t-158 0.5t-152.5 -10.5zM-485 1026q39 9 90.5 12t103 0.5t99 -10.5t79.5 -22q-5 24 -19 45 t-37 37.5t-56 26t-76 9.5q-63 0 -112 -26.5t-72 -71.5z" />
<glyph unicode="&#xe38;" d="M-518 -211q5 27 19.5 50.5t35.5 41t46 27.5t52 10q31 0 55 -10.5t40 -29t22 -43.5t0 -54l-53 -273h-102l30 158q-18 -6 -41 -6q-27 0 -48.5 10t-35.5 27.5t-19.5 41t-0.5 50.5zM-449 -211q-5 -25 9 -42t39 -17q24 0 45 17t26 42t-8.5 42t-38.5 17t-46 -17t-26 -42z" />
<glyph unicode="&#xe39;" d="M-743.5 -261.5q-5.5 23.5 0.5 50.5q5 27 19.5 50.5t35 41t46 27.5t52.5 10q31 0 55 -10.5t40 -29t22 -43.5t0 -54l-35 -176h49q22 0 36.5 1.5t24.5 7t15.5 17t9.5 31.5l49 250h103l-51 -262q-7 -36 -21 -59.5t-35.5 -37t-50 -19t-65.5 -5.5h-181l27 137q-18 -6 -41 -6 q-27 0 -48.5 10t-36 27.5t-20 41zM-674 -211q-5 -25 9 -42t38 -17q25 0 46 17t26 42t-8.5 42t-38.5 17t-46 -17t-26 -42z" />
<glyph unicode="&#xe3a;" d="M-371 -164q8 34 36.5 58t62.5 24t53 -24t12 -58q-6 -34 -34 -58t-62 -24t-54 24t-14 58z" />
<glyph unicode="&#xe3f;" horiz-adv-x="907" d="M10 0l189 965h311l25 133h71l-24 -133q28 0 57.5 -1.5t56.5 -5.5t50 -11t38 -17q42 -28 65 -78.5t9 -122.5q-15 -78 -64 -133.5t-118 -83.5l-2 -2q85 -18 118 -81.5t17 -152.5q-11 -53 -39 -102.5t-71.5 -88t-102 -62t-129.5 -23.5h-74l-26 -133h-72l27 133h-312z M158 109h184l66 333h-185zM244 551h184l59 305h-184zM414 109h59q40 0 75.5 12t63 34.5t47 54.5t27.5 71q9 48 -2 79t-36.5 49t-61.5 25.5t-76 7.5h-31zM500 551q106 0 159 38t68 116q9 49 -1 79t-33.5 46t-58.5 21t-75 5z" />
<glyph unicode="&#xe40;" horiz-adv-x="481" d="M88 139l133 680h103l-111 -561q11 5 25.5 6.5t25.5 1.5q29 0 51.5 -10.5t37 -29t20 -43t0.5 -52.5q-6 -29 -21.5 -54.5t-38 -44.5t-50 -30.5t-56.5 -11.5q-69 0 -100 41.5t-19 107.5zM174 131q-5 -26 10 -44.5t41 -18.5t48.5 18.5t27.5 44.5q6 26 -9.5 45t-41.5 19 t-48 -19t-28 -45z" />
<glyph unicode="&#xe41;" horiz-adv-x="870" d="M88 139l133 680h103l-111 -561q11 5 25.5 6.5t25.5 1.5q29 0 51.5 -10.5t37 -29t20 -43t0.5 -52.5q-6 -29 -21.5 -54.5t-38 -44.5t-50 -30.5t-56.5 -11.5q-69 0 -100 41.5t-19 107.5zM174 131q-5 -26 10 -44.5t41 -18.5t48.5 18.5t27.5 44.5q6 26 -9.5 45t-41.5 19 t-48 -19t-28 -45zM477 139l133 680h103l-111 -561q11 5 25.5 6.5t25.5 1.5q29 0 51.5 -10.5t37 -29t20 -43t0.5 -52.5q-5 -29 -21 -54.5t-38.5 -45t-50.5 -30.5t-56 -11q-69 0 -100 41.5t-19 107.5zM563 131q-5 -26 10 -44.5t41 -18.5t48.5 18.5t27.5 44.5q6 26 -9.5 45 t-41.5 19t-48 -19t-28 -45z" />
<glyph unicode="&#xe42;" horiz-adv-x="522" d="M86 1217q18 42 48 81.5t69.5 70t86.5 48.5t99 17q31 -1 55.5 -8.5t46.5 -16.5t42.5 -16t44.5 -7t45.5 12.5t38.5 26.5l61 -61q-26 -25 -64 -45.5t-86 -20.5q-28 0 -52 8.5t-48 18.5t-49.5 18.5t-56.5 8.5q-42 0 -77.5 -20.5t-51.5 -43.5q54 -5 92.5 -16.5t61.5 -34 t29.5 -57.5t-3.5 -86l-164 -836q11 5 25.5 6.5t25.5 1.5q29 0 51.5 -10.5t37 -29t20 -43t0.5 -52.5q-6 -29 -21.5 -54.5t-38 -44.5t-50 -30.5t-56.5 -11.5q-69 0 -100 41.5t-19 107.5l184 948q9 48 -7.5 73.5t-49.5 38t-77.5 15t-92.5 3.5zM215 131q-5 -26 10 -44.5 t41 -18.5t48.5 18.5t27.5 44.5q6 26 -9.5 45t-41.5 19t-48 -19t-28 -45z" />
<glyph unicode="&#xe43;" horiz-adv-x="522" d="M55 1154q-7 28 0 63q9 43 36 82.5t65 69.5t83.5 47.5t92.5 17.5t87.5 -13.5t68.5 -39t40.5 -63.5t3.5 -87q-10 -51 -30.5 -86.5t-43 -67t-42.5 -64t-29 -77.5l-133 -678q11 5 25.5 6.5t25.5 1.5q29 0 51.5 -10.5t37 -29t20 -43t0.5 -52.5q-6 -29 -21.5 -54.5t-38 -44.5 t-50 -30.5t-56.5 -11.5q-69 0 -100 41.5t-19 107.5l160 819q8 43 28.5 74.5t43 60.5t43 60.5t28.5 73.5q5 27 0 50t-20 40t-39.5 27t-57.5 10q-17 0 -34 -4.5t-31.5 -11.5t-26 -16t-16.5 -17q24 1 46 -6.5t38 -23t23 -38t1 -51.5q-5 -26 -19.5 -48t-35 -38t-45 -25.5 t-49.5 -9.5q-26 0 -49 10.5t-39 30.5t-23 48zM137 1186q-5 -22 7.5 -37.5t33.5 -15.5q22 0 41.5 15.5t24.5 37.5q3 21 -9.5 37t-33.5 16q-22 0 -41.5 -16t-22.5 -37zM215 131q-5 -26 10 -44.5t41 -18.5t48.5 18.5t27.5 44.5q6 26 -9.5 45t-41.5 19t-48 -19t-28 -45z" />
<glyph unicode="&#xe44;" horiz-adv-x="522" d="M57 1356l93 61q22 -7 42 -19t36 -27t27 -31.5t15 -32.5q32 34 77 54.5t91 20.5q33 0 59 -9.5t43.5 -26t24.5 -38.5t2 -46q-27 -10 -52 -27.5t-45 -39.5t-34 -46.5t-18 -48.5l-164 -842q11 5 25.5 6.5t25.5 1.5q29 0 51.5 -10.5t37 -29t20 -43t0.5 -52.5 q-6 -29 -21.5 -54.5t-38 -44.5t-50 -30.5t-56.5 -11.5q-69 0 -100 41.5t-19 107.5l188 971q10 51 48.5 93t95.5 65q-2 14 -17 23t-43 9q-21 0 -42.5 -8.5t-41.5 -22t-39 -30.5t-34 -33q-11 22 -29.5 44t-43 42.5t-54 37t-60.5 26.5zM215 131q-5 -26 10 -44.5t41 -18.5 t48.5 18.5t27.5 44.5q6 26 -9.5 45t-41.5 19t-48 -19t-28 -45z" />
<glyph unicode="&#xe45;" horiz-adv-x="662" d="M27 614q16 48 48 89t75.5 70.5t95 46t106.5 16.5q58 0 104 -16.5t75 -46.5t40.5 -73t1.5 -96l-176 -911h-102l174 893q15 75 -20 122.5t-113 47.5q-34 0 -66 -9.5t-59.5 -27.5t-48.5 -44.5t-33 -60.5h-102z" />
<glyph unicode="&#xe46;" horiz-adv-x="694" d="M13.5 501q-6.5 29 0.5 64q8 42 33.5 81t60.5 73.5t76 64t80 52.5q6 0 26.5 -14t43.5 -31.5t42.5 -31.5t22.5 -14t15.5 6.5t30.5 17t38 22t38 22t31 17t17 6.5q10 0 29.5 -23t38 -54.5t31 -63.5t8.5 -50q-6 -32 -27 -56.5t-44.5 -46.5t-44 -44t-25.5 -49l-148 -756h-102 l149 774q6 31 27 56t45 45.5t44.5 38.5t24.5 36q1 4 -5 18t-14 29.5t-15.5 28t-10.5 12.5q-2 0 -25 -12.5t-49.5 -27.5t-49.5 -27.5t-25 -12.5t-22.5 13t-42.5 30q-14 9 -28.5 19.5t-31.5 23.5q-5 -4 -11 -7.5t-11 -8.5q-10 -8 -21.5 -17t-22.5 -20q24 -1 44.5 -12t35 -29 t20.5 -42.5t1 -53.5q-6 -29 -21.5 -53.5t-37.5 -43.5t-49 -29.5t-56 -10.5q-28 0 -51.5 11t-39.5 31t-22.5 49zM92 547q-5 -26 10 -45t41 -19t48.5 19t27.5 45t-10 44.5t-41 18.5t-48.5 -18.5t-27.5 -44.5z" />
<glyph unicode="&#xe47;" d="M-521 1018q-6 28 1 65q7 34 26.5 64.5t48.5 54t66.5 39t79.5 19.5q31 3 64.5 0.5t64.5 -0.5q22 1 44.5 6.5t41 16.5t31.5 30t18 47h105q-8 -39 -33.5 -70.5t-60.5 -54t-76.5 -34t-81.5 -9.5q-32 2 -64 1.5t-55 -3.5q-20 -2 -40 -10t-37 -21t-29.5 -31.5t-16.5 -40.5 t1 -37.5t13.5 -25t18 -14t14.5 -4.5l94 104l15 -23q7 -10 15.5 -21t16.5 -19q7 19 20.5 37t31.5 31.5t39 21.5t43 8q23 0 41.5 -9t30.5 -24t17 -35.5t1 -42.5q-5 -23 -18 -43.5t-32.5 -35.5t-44 -24t-51.5 -9q-49 0 -85 24.5t-56 54.5l-59 -69h-58q-24 0 -46 10t-37.5 29 t-21.5 47zM-172 1034q-5 -21 6 -34t33 -13t36 13t19 34q5 22 -5 34.5t-32 12.5q-21 0 -36.5 -12.5t-20.5 -34.5z" />
<glyph unicode="&#xe48;" d="M-51 1319l47 246h102l-47 -246h-102z" />
<glyph unicode="&#xe49;" d="M-186 1485.5q-5 19.5 0 42.5q4 22 16.5 41.5t30 33.5t39 22.5t43.5 8.5q27 0 46 -9t30.5 -25t15.5 -36.5t0 -43.5q-2 -18 -8.5 -38t-16.5 -38.5t-21 -34.5t-22 -25q43 9 81.5 31t69.5 51.5t52.5 63t30.5 65.5h92q-26 -68 -70 -121.5t-101 -91t-125 -59t-142 -25.5l-35 29 q31 20 59 45t43 51q-6 -2 -10.5 -2h-9.5q-23 0 -41 8.5t-30 22.5t-17 33.5zM-125 1528q-5 -20 7 -33.5t32 -13.5q19 0 33.5 13.5t19.5 33.5q3 18 -7.5 31.5t-29.5 13.5q-20 0 -36 -13.5t-19 -31.5z" />
<glyph unicode="&#xe4a;" d="M-244 1430q7 38 27 69t46.5 54t56.5 38t57 21l71 -58l86 56q48 -13 73.5 -50t14.5 -94q-5 -24 -11.5 -45t-14.5 -37q16 12 32.5 35.5t28.5 52.5t17.5 61.5t1.5 63.5h90q-2 -73 -27 -127t-60.5 -90.5t-75 -56.5t-69.5 -25l-43 35q14 14 29.5 40.5t22.5 60.5q7 38 -5 63.5 t-24 34.5l-80 -51l-80 57q-15 -5 -29.5 -17.5t-19.5 -21.5q3 0 5 1q2 0 4.5 0.5t4.5 0.5q46 0 71 -30t17 -72q-4 -21 -16 -39.5t-29 -32t-38.5 -21.5t-43.5 -8q-48 0 -75 34.5t-15 97.5zM-176 1399q-3 -17 6.5 -29t28.5 -12q18 0 33 12t18 29q3 18 -6.5 30.5t-28.5 12.5 t-33.5 -12.5t-17.5 -30.5z" />
<glyph unicode="&#xe4b;" d="M-143 1430l14 73h121l20 111h90l-20 -111h121l-15 -73h-120l-23 -111h-90l22 111h-120z" />
<glyph unicode="&#xe4c;" d="M-209 1376q12 60 63 95t126 45q54 8 89 33t48 67l78 -33q-12 -35 -35.5 -59.5t-52.5 -40t-59.5 -23t-55.5 -8.5q21 -6 33 -32.5t6 -55.5q-5 -24 -18 -44.5t-31.5 -35t-42 -23t-48.5 -8.5q-21 0 -41 8t-35 24t-22 39t-2 52zM-137 1364q-3 -20 9 -33.5t32 -13.5 q18 0 35 13.5t20 33.5q5 20 -6.5 33.5t-30.5 13.5q-20 0 -37 -13.5t-22 -33.5z" />
<glyph unicode="&#xe4d;" d="M-199 1098q6 32 24 60.5t43.5 49.5t56.5 33t63 12t58 -12t43 -33t23.5 -49.5t0.5 -60.5t-24 -60.5t-43.5 -49.5t-56.5 -33.5t-63 -12.5t-58 12.5t-43 33.5t-23.5 49.5t-0.5 60.5zM-119 1098q-6 -31 12.5 -53.5t49.5 -22.5t57.5 22.5t32.5 53.5q6 32 -11 55t-49 23 t-59 -23t-33 -55z" />
<glyph unicode="&#xe4e;" d="M-391 1020q5 28 23.5 52t46.5 43.5t63 33t73 19.5q-43 25 -33 82q15 72 116 116q48 23 106 33t124 10h30.5t30.5 -2l-12 -63q-20 2 -38 3t-37 1q-97 0 -160 -25q-71 -28 -82 -75q-12 -61 109 -58l-12 -63q-92 3 -170 -23q-92 -29 -101 -80q-9 -39 54 -39q29 0 59.5 8 t62.5 23l21 -53q-78 -37 -155 -37q-137 0 -119 94z" />
<glyph unicode="&#xe4f;" horiz-adv-x="1024" d="M80 410q17 87 65 163t116 133t151 90t170 33t157 -33t115.5 -90t64 -133t1.5 -163t-65 -163.5t-116.5 -133.5t-151 -90t-169.5 -33t-157 33t-116 90t-64 133.5t-1 163.5zM141 410q-15 -74 0.5 -139.5t55 -114t99.5 -77t134 -28.5t144.5 28.5t128.5 77t99 114t56 139.5 q15 73 -0.5 138.5t-55.5 114t-100 77t-133 28.5q-74 0 -144.5 -28.5t-128.5 -77t-99 -114t-56 -138.5zM244 310q-11 47 0 100q10 53 39 99.5t70.5 81.5t92 55t103.5 20q52 0 95 -20t71 -55t39.5 -81.5t1.5 -99.5q-11 -53 -40.5 -100t-70.5 -81.5t-91 -54.5t-103 -20t-96 20 t-71.5 54.5t-39.5 81.5zM305 410q-8 -40 0.5 -75.5t29.5 -62t53.5 -42t72.5 -15.5t78.5 15.5t70 42t54 62t30.5 75.5t-0.5 75t-30 61.5t-54 42t-72.5 15.5t-78.5 -15.5t-70 -42t-53.5 -61.5t-30 -75z" />
<glyph unicode="&#xe50;" horiz-adv-x="803" d="M39 307q13 66 50 124t89.5 101t117.5 68t134 25q68 0 123.5 -25t92 -68t51 -101t1.5 -124t-50 -124t-90 -100.5t-118 -67.5t-133 -25q-69 0 -124.5 25t-91.5 67.5t-50.5 100.5t-1.5 124zM141 307q-10 -52 0.5 -94.5t36 -73t63.5 -47t83 -16.5q44 0 88.5 16.5t82 47 t64.5 73t37 94.5t-0.5 95t-36 73.5t-63.5 47t-82 16.5q-45 0 -89.5 -16.5t-82 -47t-64.5 -73.5t-37 -95z" />
<glyph unicode="&#xe51;" horiz-adv-x="823" d="M35 173.5q-11 57.5 4 131.5q13 67 52.5 125.5t94.5 102t120 68t130 24.5q76 0 134.5 -24.5t96 -68t51 -104t-0.5 -133.5q-11 -56 -39 -109.5t-67 -100.5t-86.5 -87.5t-98.5 -71.5l-47 58q37 21 74.5 53t69.5 72t56 86t33 94q11 55 1.5 100t-35.5 76.5t-65.5 49 t-88.5 17.5q-48 0 -94.5 -17.5t-85.5 -47.5t-66.5 -71t-36.5 -89q-11 -57 -1.5 -100.5t31.5 -72.5t51.5 -42.5t58.5 -9.5q-29 14 -48 44t-10 75q6 27 21 49.5t35 39.5t44.5 26.5t49.5 9.5q27 0 49.5 -10.5t37.5 -29t21 -44t0 -54.5q-8 -40 -31.5 -75t-57.5 -61.5t-75 -42 t-84 -15.5q-47 0 -88.5 21t-70 61t-39.5 97.5zM291 195q-3 -23 10.5 -40.5t36.5 -17.5t42.5 17.5t22.5 40.5q5 23 -7.5 40t-35.5 17t-43.5 -17t-25.5 -40z" />
<glyph unicode="&#xe52;" horiz-adv-x="997" d="M30.5 104.5q-4.5 31.5 2.5 67.5l96 494q8 38 -2.5 65t-50.5 41l106 57q41 -15 52 -54t2 -87l-95 -487q-5 -29 -4 -50.5t11 -36t30 -21.5t53 -7h496l72 369q8 40 -8.5 63t-53.5 23q-15 0 -30 -5t-28.5 -14.5t-23 -24t-12.5 -32.5l-12 -68h-96l10 60q6 32 -12 57t-56 25 q-42 0 -67 -24t-31 -56l-12 -64q21 8 43 8q27 0 49 -10.5t36.5 -29t20.5 -42.5t2 -51q-5 -27 -20.5 -51t-37.5 -42t-48.5 -29t-53.5 -11q-32 0 -56.5 10.5t-40.5 29.5t-21.5 44t0.5 55l39 199q7 37 27.5 65t49.5 47t63 28.5t68 9.5q45 0 77 -16t46 -48q31 34 72 49t84 15 q36 0 64.5 -11.5t47.5 -31t27 -45.5t2 -54l-94 -483h-641q-44 0 -74 13.5t-46.5 36.5t-21 54.5zM326 270q-5 -24 8.5 -41.5t38.5 -17.5t45.5 17.5t25.5 41.5q5 25 -9.5 42.5t-39.5 17.5t-44.5 -17.5t-24.5 -42.5z" />
<glyph unicode="&#xe53;" horiz-adv-x="913" d="M24.5 73.5q-5.5 25.5 0.5 55.5l59 305q8 45 32.5 80.5t59 60.5t75 38.5t81.5 13.5q38 0 65.5 -9t45.5 -23.5t27 -32.5t11 -36q25 39 72 69t113 30q41 0 73 -13t52 -36.5t27 -55.5t-1 -69l-88 -451h-102l84 432q9 51 -13 79t-65 28q-48 0 -79.5 -29t-39.5 -68l-86 -442 h-96l82 424q3 18 0.5 38t-13 37t-29 28.5t-48.5 11.5q-54 0 -92 -31t-48 -82l-32 -178q21 8 43 8q27 0 49 -10.5t36.5 -29t20.5 -42.5t2 -51q-5 -27 -20.5 -51t-37.5 -42.5t-48.5 -29t-53.5 -10.5q-32 0 -56.5 10.5t-40.5 29t-21.5 44zM111 123q-5 -25 8.5 -42.5t38.5 -17.5 q24 0 45 17.5t26 42.5t-9.5 42t-39.5 17t-44.5 -17t-24.5 -42z" />
<glyph unicode="&#xe54;" horiz-adv-x="860" d="M33.5 169q-9.5 56 3.5 124q15 73 54.5 133.5t97.5 103t130.5 65t153.5 19.5q54 -2 110.5 6.5t103 31.5t77 63.5t31.5 103.5h106q-4 -75 -39 -131.5t-93 -93.5t-134.5 -54.5t-163.5 -15.5q-63 1 -118 -15.5t-98 -48t-72 -76t-40 -99.5q-13 -65 3.5 -111.5t52.5 -71 t87 -25.5t107 25q-20 24 -32.5 63t-2.5 95q6 32 23 58.5t41 45t52.5 29t57.5 10.5q28 0 50.5 -10.5t37 -28.5t20.5 -42t1 -52q-5 -27 -20.5 -51.5t-37 -42.5t-48 -28.5t-54.5 -10.5q17 -29 45 -45t59 -20t60 2.5t49 23.5l31 -71q-34 -20 -73 -28.5t-74 -8.5 q-42 0 -76.5 12.5t-57.5 40.5q-37 -26 -85 -39.5t-111 -13.5q-58 0 -103 21.5t-73.5 61.5t-38 96zM449 270q-5 -24 8.5 -41.5t38.5 -17.5q24 0 45 17.5t26 41.5q5 25 -9.5 42.5t-39.5 17.5t-44.5 -17.5t-24.5 -42.5z" />
<glyph unicode="&#xe55;" horiz-adv-x="860" d="M32.5 169q-9.5 56 4.5 124q11 55 36.5 103.5t62.5 87.5t84.5 67.5t103.5 44.5q-13 19 -18.5 41.5t-0.5 48.5q5 29 21.5 54.5t41.5 44t55.5 29.5t63.5 11t59.5 -11t44 -29.5t24.5 -44t1 -54.5q-3 -17 -11.5 -34t-20.5 -31q41 7 79 21.5t67 38t46.5 57.5t18.5 81h106 q-4 -75 -39 -131.5t-93 -93.5t-134.5 -54.5t-163.5 -15.5q-63 1 -118 -15.5t-98 -48t-72 -76t-40 -99.5q-13 -65 3.5 -111.5t52.5 -71t87 -25.5t107 25q-20 24 -32.5 63t-2.5 95q6 32 23 58.5t41 45t52.5 29t57.5 10.5q28 0 50.5 -10.5t37 -28.5t20.5 -42t1 -52 q-5 -27 -20.5 -51.5t-37 -42.5t-48 -28.5t-54.5 -10.5q17 -29 45 -45t59 -20t60 2.5t49 23.5l31 -71q-34 -20 -73 -28.5t-74 -8.5q-42 0 -76.5 12.5t-57.5 40.5q-37 -26 -85 -39.5t-111 -13.5q-58 0 -103.5 21.5t-74 61.5t-38 96zM395 676q-5 -28 10 -46t44 -18t50.5 18 t26.5 46q7 28 -8.5 45.5t-44.5 17.5t-50.5 -17.5t-27.5 -45.5zM449 270q-5 -24 8.5 -41.5t38.5 -17.5q24 0 45 17.5t26 41.5q5 25 -9.5 42.5t-39.5 17.5t-44.5 -17.5t-24.5 -42.5z" />
<glyph unicode="&#xe56;" horiz-adv-x="774" d="M12 772l103 59q38 -38 55.5 -86t25.5 -91q4 -25 6 -50t1 -51q42 29 99 51.5t132 22.5q72 0 122.5 -26t80 -69.5t38 -100.5t-2.5 -118q-13 -66 -47 -124.5t-84 -103t-115 -70t-141 -25.5q-66 0 -116 16t-82 43.5t-45 64.5t-5 79q5 27 20.5 51.5t37 42.5t48 28.5t54.5 10.5 q27 0 49 -10.5t36.5 -28.5t20 -42.5t0.5 -51.5q-6 -32 -24 -59t-46 -46q14 -5 28 -6.5t28 -1.5q46 0 91 17t82.5 47.5t64 73t36.5 93.5q8 42 3 83t-25 73.5t-55.5 52t-88.5 19.5q-32 0 -63.5 -9.5t-59 -24t-50 -33t-36.5 -36.5l-88 19q2 32 2 62.5t-4 59.5q-3 25 -9 52 t-16.5 53t-25 49t-35.5 41zM115 193q-5 -25 9.5 -42.5t39.5 -17.5t44.5 17.5t24.5 42.5q5 24 -8.5 41.5t-38.5 17.5q-24 0 -45 -17.5t-26 -41.5z" />
<glyph unicode="&#xe57;" horiz-adv-x="1102" d="M24.5 73.5q-5.5 25.5 0.5 55.5l59 305q8 45 32.5 80.5t59 60.5t75 38.5t81.5 13.5q38 0 65.5 -9t45.5 -23.5t27 -32.5t11 -36q25 39 72 69t113 30q41 0 73 -13t52 -36.5t27 -55.5t-1 -69l-51 -256q-5 -29 -16 -50t-22 -35q-7 -8 -13.5 -15.5t-14.5 -12.5q52 19 90.5 58.5 t64.5 90.5t40.5 109t19.5 115q6 55 11.5 108t16.5 101.5t31.5 91t55.5 75.5l94 -43q-35 -25 -54.5 -68t-30.5 -95.5t-17.5 -110.5t-15.5 -113q-13 -80 -42.5 -151t-76.5 -125.5t-111.5 -90.5t-146.5 -46l-66 59q21 9 42 26q17 14 32.5 36.5t21.5 56.5l52 266q9 51 -13 79 t-65 28q-48 0 -79.5 -29t-39.5 -68l-86 -442h-96l82 424q3 18 0.5 38t-13 37t-29 28.5t-48.5 11.5q-54 0 -92 -31t-48 -82l-32 -178q21 8 43 8q27 0 49 -10.5t36.5 -29t20.5 -42.5t2 -51q-5 -27 -20.5 -51t-37.5 -42.5t-48.5 -29t-53.5 -10.5q-32 0 -56.5 10.5t-40.5 29 t-21.5 44zM111 123q-5 -25 8.5 -42.5t38.5 -17.5q24 0 45 17.5t26 42.5t-9.5 42t-39.5 17t-44.5 -17t-24.5 -42z" />
<glyph unicode="&#xe58;" horiz-adv-x="850" d="M25.5 168q-2.5 56 11.5 125q15 81 53 142.5t94.5 102t128.5 60t156 16.5q76 -2 127 12.5t82.5 42t46.5 66t20 84.5h107q-7 -68 -33.5 -123t-73.5 -94t-116 -59t-160 -17q-137 5 -220 -52.5t-108 -186.5q-10 -51 -9 -89.5t10.5 -63.5t25.5 -37.5t35 -12.5q22 0 39.5 14 t31 35.5t23 46.5t14.5 47h86q-6 -28 -2 -55t18 -48.5t37.5 -34.5t55.5 -13q15 0 32 5.5t32.5 15t27 23t16.5 30.5q-29 -7 -56.5 -2t-47.5 20.5t-30 41.5t-3 62q4 25 18.5 48t35 40t45.5 27t51 10q30 0 54 -10t39.5 -31t20.5 -52.5t-4 -74.5q-11 -56 -34 -100.5t-55.5 -75 t-73.5 -47t-87 -16.5q-55 0 -96 27t-55 73q-23 -45 -63 -72.5t-91 -27.5q-50 0 -84 21.5t-52 61t-20.5 95.5zM547 272q-5 -24 8.5 -39.5t36.5 -15.5t41.5 15.5t23.5 39.5q5 23 -8.5 39.5t-36.5 16.5t-41.5 -16.5t-23.5 -39.5z" />
<glyph unicode="&#xe59;" horiz-adv-x="991" d="M33.5 167.5q-9.5 61.5 7.5 147.5q13 67 42.5 124.5t72.5 99t98 65t119 23.5q66 0 114 -27.5t64 -81.5q9 21 24.5 41t36.5 35.5t46.5 25.5t54.5 11q43 2 72 -15.5t38 -42.5q2 40 14.5 78.5t33.5 72.5t49.5 61t62.5 44l68 -61q-37 -21 -65 -54t-46.5 -72.5t-28.5 -82.5 t-12 -84l-106 -31q0 15 -5 31t-15.5 29.5t-27 21.5t-38.5 6q-23 -2 -47.5 -19t-44 -49.5t-30 -80.5t-5.5 -111q2 -32 10.5 -66t21.5 -65.5t29.5 -57t34.5 -38.5l-111 -55q-30 37 -49.5 84t-30.5 98.5t-14.5 104.5t-1.5 102q1 28 -4.5 56t-19.5 50.5t-37.5 36t-57.5 13.5 q-33 0 -65.5 -15t-60.5 -43.5t-48.5 -69t-30.5 -92.5q-9 -48 -6 -84.5t6 -46.5q20 28 53 48t76 20q27 0 48.5 -10t35 -27.5t19 -41.5t0.5 -52q-6 -29 -21.5 -53t-38 -41t-50 -27t-56.5 -10q-39 0 -77 18.5t-64.5 58t-36 101zM195 123q-5 -23 8.5 -40t36.5 -17t42.5 17 t24.5 40t-8.5 40t-36.5 17t-42.5 -17t-24.5 -40z" />
<glyph unicode="&#xe5a;" horiz-adv-x="952" d="M85 692q6 28 21.5 53t37.5 43.5t49 29.5t56 11q50 0 88 -41q33 -39 22 -96q-11 -51 -44 -84q77 0 160 68q77 65 106 143h24q79 0 57 -117l56 31q26 20 45.5 41.5t30.5 44.5h16q38 0 52.5 -33t4.5 -84l-136 -702h-102l134 690l-57 -41l-60 -28l-120 -621h-102l123 637 q-114 -117 -280 -117q-46 0 -83 12t-62 34.5t-35 54.5t-2 71zM165 692q-2 -11 0.5 -21.5t7.5 -21.5q13 -10 40 -16q25 0 44 16q22 22 27 43q2 10 -1 20.5t-9.5 19.5t-16 14.5t-21.5 5.5q-53 0 -71 -60z" />
<glyph unicode="&#xe5b;" horiz-adv-x="1442" d="M60 414q27 142 115 242t193 100q87 0 132 -71q45 -70 25 -175q-8 -41 -24 -75t-37.5 -59t-48 -38.5t-54.5 -13.5q-46 0 -73 36q-25 38 -14 91q11 51 49 89q41 38 86 38q23 0 37 -7q-6 111 -90 111q-67 0 -132 -77q-64 -74 -88 -199q-22 -118 20 -189q42 -70 128 -70 q98 0 194 100q96 101 151 271q26 74 60 74q55 0 63 -197l45 123q21 55 43 55q48 0 68 -161q36 123 64 123q44 0 72 -136q50 107 74 107q26 0 50 -82q23 50 56 45l108 -14q42 -6 39 -21q-5 -20 -51 -24l-112 -11q-38 -59 -54 -59q-14 0 -26 30l-21 62q-51 -117 -79 -117 q-13 0 -30 47l-25 84q-54 -151 -88 -151q-18 0 -30 59q-10 51 -15 77t-7 30q-20 -68 -56 -127q-36 -66 -61 -66q-24 0 -27 45q-2 85 -12 150q-64 -176 -172 -275q-121 -112 -247 -112q-118 0 -172 94q-55 92 -26 244zM335 451q-5 -25 7 -44.5t30 -19.5q50 0 62 64 q14 65 -37 65q-48 0 -62 -65z" />
<glyph unicode="&#x2000;" horiz-adv-x="817" />
<glyph unicode="&#x2001;" horiz-adv-x="1634" />
<glyph unicode="&#x2002;" horiz-adv-x="817" />
<glyph unicode="&#x2003;" horiz-adv-x="1634" />
<glyph unicode="&#x2004;" horiz-adv-x="544" />
<glyph unicode="&#x2005;" horiz-adv-x="408" />
<glyph unicode="&#x2006;" horiz-adv-x="272" />
<glyph unicode="&#x2007;" horiz-adv-x="272" />
<glyph unicode="&#x2008;" horiz-adv-x="204" />
<glyph unicode="&#x2009;" horiz-adv-x="326" />
<glyph unicode="&#x200a;" horiz-adv-x="90" />
<glyph unicode="&#x200c;" />
<glyph unicode="&#x200d;" />
<glyph unicode="&#x2010;" horiz-adv-x="526" d="M41 338l16 82h392l-17 -82h-391z" />
<glyph unicode="&#x2011;" horiz-adv-x="526" d="M41 338l16 82h392l-17 -82h-391z" />
<glyph unicode="&#x2012;" horiz-adv-x="526" d="M41 338l16 82h392l-17 -82h-391z" />
<glyph unicode="&#x2013;" horiz-adv-x="737" d="M6 297l19 90h655l-18 -90h-656z" />
<glyph unicode="&#x2014;" horiz-adv-x="1475" d="M6 297l19 90h1392l-18 -90h-1393z" />
<glyph unicode="&#x2018;" horiz-adv-x="352" d="M139.5 726.5q-4.5 22.5 1.5 53.5q7 34 23 64.5t38 57.5t47.5 49.5t51.5 39.5l51 -33q-48 -29 -75 -60t-41 -62q6 2 18 2q18 0 32.5 -7t24 -19t13.5 -28t0 -34q-8 -39 -38 -65t-65 -26q-19 0 -36 7.5t-29 22.5t-16.5 37.5z" />
<glyph unicode="&#x2019;" horiz-adv-x="352" d="M139 692q48 29 74.5 60.5t40.5 62.5q-6 -2 -18 -2q-38 0 -57 25.5t-13 62.5q4 19 14 35.5t24 28.5t31 19t35 7q20 0 37 -7.5t28.5 -22.5t16 -37.5t-1.5 -53.5q-6 -34 -22 -64.5t-38 -57.5t-48 -49.5t-52 -39.5z" />
<glyph unicode="&#x201c;" horiz-adv-x="614" d="M139.5 726.5q-4.5 22.5 1.5 53.5q7 34 23 64.5t38 57.5t47.5 49.5t51.5 39.5l51 -33q-48 -29 -75 -60t-41 -62q6 2 18 2q18 0 32.5 -7t24 -19t13.5 -28t0 -34q-8 -39 -38 -65t-65 -26q-19 0 -36 7.5t-29 22.5t-16.5 37.5zM399.5 726.5q-4.5 22.5 1.5 53.5q7 34 23 64.5 t38 57.5t47.5 49.5t51.5 39.5l51 -33q-48 -29 -75 -60t-41 -62q6 2 18 2q37 0 58 -25.5t14 -62.5q-8 -39 -38 -65t-67 -26q-19 0 -36 7.5t-29 22.5t-16.5 37.5z" />
<glyph unicode="&#x201d;" horiz-adv-x="614" d="M139 692q48 29 74.5 60.5t40.5 62.5q-6 -2 -18 -2q-38 0 -57 25.5t-13 62.5q4 19 14 35.5t24 28.5t31 19t35 7q20 0 37 -7.5t28.5 -22.5t16 -37.5t-1.5 -53.5q-6 -34 -22 -64.5t-38 -57.5t-48 -49.5t-52 -39.5zM399 692q48 29 74.5 60.5t40.5 62.5q-6 -2 -18 -2 q-35 0 -54.5 25.5t-13.5 62.5q4 19 14 35.5t23.5 28.5t30 19t34.5 7q20 0 37 -7.5t28.5 -22.5t16 -37.5t-1.5 -53.5q-6 -34 -22 -64.5t-37.5 -57.5t-47.5 -49.5t-52 -39.5z" />
<glyph unicode="&#x2022;" horiz-adv-x="799" d="M80 410q12 64 47 120t84.5 97.5t110 65.5t124.5 24t115 -24t84.5 -65.5t47 -97.5t1.5 -120t-47 -120t-84.5 -98t-110 -66t-124.5 -24t-115 24t-84.5 66t-47 98t-1.5 120z" />
<glyph unicode="&#x2026;" horiz-adv-x="922" d="M-6 72q3 17 12.5 32t23 26t29.5 17.5t33 6.5q34 0 53 -24t13 -58q-3 -17 -12.5 -32t-23 -26t-30 -17.5t-33.5 -6.5q-34 0 -52.5 24t-12.5 58zM301 72q3 17 12.5 32t23 26t29.5 17.5t33 6.5q34 0 53 -24t13 -58q-3 -17 -12.5 -32t-23 -26t-30 -17.5t-32.5 -6.5 q-34 0 -53 24t-13 58zM608 72q3 17 12.5 32t23 26t30 17.5t33.5 6.5q34 0 52.5 -24t12.5 -58q-3 -17 -12.5 -32t-23 -26t-30 -17.5t-32.5 -6.5q-34 0 -53 24t-13 58z" />
<glyph unicode="&#x202f;" horiz-adv-x="326" />
<glyph unicode="&#x205f;" horiz-adv-x="408" />
<glyph unicode="&#x25fc;" horiz-adv-x="700" d="M0 0v700h700v-700h-700z" />
<glyph unicode="&#xf700;" horiz-adv-x="709" d="M27 610q48 107 130.5 166.5t207.5 59.5q30 0 58.5 -8t54 -17t48 -17t41.5 -8q22 0 39 12t37 27l68 -57q-34 -32 -67 -53t-75 -21q-32 0 -60.5 8.5t-56 19t-55 20t-57.5 10.5q-34 0 -60.5 -6t-47 -16t-34 -23t-22.5 -25q54 -2 116 -6.5t128 -13.5q46 -7 85.5 -18.5 t67.5 -30.5t41.5 -46.5t6.5 -66.5q-10 -53 -31.5 -108.5t-48 -116.5t-55.5 -129t-54 -146h-127l-31 287q-18 -13 -39 -19t-42 -6q-29 0 -51.5 11t-37.5 29.5t-21 43.5t-1 53t20.5 53.5t38 44t49.5 29.5t56 11q31 0 53.5 -10.5t38 -28.5t23.5 -42.5t10 -52.5l14 -178 q1 -14 1 -31.5t-1 -32.5l-2 -36h4q1 7 3.5 19t5.5 25t7 26.5t9 25.5q13 34 28 69t29 68.5t25 65t16 59.5q6 32 -11 52t-48 32.5t-71 19t-79 11.5q-35 4 -72 6t-73 3t-69 1.5t-60 1.5zM156 399q-5 -26 10 -44.5t41 -18.5t48.5 18.5t27.5 44.5t-10.5 45t-41.5 19t-48 -19 t-27 -45z" />
<glyph unicode="&#xf701;" d="M-831 948q10 56 39.5 103t72 81t95.5 53t110 19q79 0 133 -24t85 -65.5t41 -96.5t1 -117q-50 26 -119.5 39.5t-147 17.5t-158 0.5t-152.5 -10.5zM-711 1026q40 9 91 12t103 0.5t99.5 -10.5t79.5 -22q-5 24 -19 45t-37.5 37.5t-56.5 26t-75 9.5q-63 0 -112.5 -26.5 t-72.5 -71.5z" />
<glyph unicode="&#xf702;" d="M-831 948q10 56 39.5 103t72 81t95.5 53t110 19q69 0 119 -20.5t82 -55.5l24 129h103l-68 -356q-50 26 -119.5 39.5t-147 17.5t-158 0.5t-152.5 -10.5zM-711 1026q40 9 91 12t103 0.5t99.5 -10.5t79.5 -22q-5 24 -19 45t-37.5 37.5t-56.5 26t-75 9.5q-63 0 -112.5 -26.5 t-72.5 -71.5z" />
<glyph unicode="&#xf703;" d="M-831 948q10 56 39.5 103t72 81t95.5 53t110 19q89 0 145 -30q8 21 22.5 38t32.5 29t39 18.5t42 6.5q25 0 45 -10t33 -26.5t18.5 -39t1.5 -47.5q-5 -23 -16.5 -43t-28 -36t-36 -27t-40.5 -15q5 -28 6 -58.5t-4 -62.5q-50 26 -119.5 39t-147 16.5t-158 0.5t-152.5 -9z M-711 1026q40 9 91 12t103 0.5t99.5 -10.5t79.5 -22q-5 24 -19 45t-37.5 37.5t-56.5 26t-75 9.5q-63 0 -112.5 -26.5t-72.5 -71.5zM-311 1143q-3 -23 8.5 -38t34.5 -15t41.5 15t21.5 38q5 23 -6.5 38t-34.5 15t-41.5 -15t-23.5 -38z" />
<glyph unicode="&#xf704;" d="M-831 948q10 56 39.5 103t72 81t95.5 53t110 19q22 0 42.5 -1.5t39.5 -6.5l10 61h72l-17 -83q16 -10 29.5 -19.5t24.5 -21.5l24 124h103l-68 -356q-50 26 -119.5 39.5t-147 17.5t-158 0.5t-152.5 -10.5zM-711 1026q40 9 91 12t103 0.5t99.5 -10.5t79.5 -22q-5 24 -19 45 t-37.5 37.5t-56.5 26t-75 9.5q-63 0 -112.5 -26.5t-72.5 -71.5z" />
<glyph unicode="&#xf705;" d="M-340 942l57 287h103l-58 -287h-102z" />
<glyph unicode="&#xf706;" d="M-549 1129.5q-5 21.5 0 46.5q4 24 17.5 45.5t33 37.5t43 25.5t47.5 9.5q30 0 51.5 -10.5t35 -27.5t18 -40.5t0.5 -48.5q-3 -20 -11 -42t-18.5 -43t-22.5 -38.5t-24 -27.5q47 10 89.5 35t76.5 57.5t58.5 70t35.5 72.5h103q-29 -76 -78.5 -135.5t-113.5 -101t-140 -65 t-158 -27.5l-39 30q35 23 66 51t47 56q-6 -2 -11 -2h-12q-24 0 -44 9.5t-32.5 25.5t-17.5 37.5zM-481 1176q-5 -22 7 -37t34 -15q21 0 38.5 15t22.5 37q3 21 -9 36t-34 15t-39 -15t-20 -36z" />
<glyph unicode="&#xf707;" d="M-705 1065q9 42 31 76.5t51 61t62 43t63 22.5l78 -64l98 62q25 -7 46 -21.5t35 -35t19 -46.5t-1 -57q-5 -26 -12.5 -49.5t-18.5 -40.5q19 12 37.5 38t31.5 58.5t19 69t2 69.5h98q-2 -80 -29 -140t-66 -100.5t-82.5 -63t-78.5 -27.5l-49 38q17 16 33.5 45t24.5 66 q8 42 -3.5 71t-25.5 40l-90 -58l-88 64q-17 -5 -33.5 -18.5t-24.5 -24.5q5 0 8 1q3 0 6 0.5t5 0.5q25 0 44.5 -9t32.5 -24.5t18 -36t1 -43.5q-5 -23 -18.5 -43.5t-32.5 -35.5t-42 -24t-48 -9q-54 0 -83.5 38t-17.5 107zM-629 1032q-5 -20 6 -33.5t31 -13.5t36 13.5t21 33.5 q4 20 -7 33.5t-31 13.5t-36.5 -13.5t-19.5 -33.5z" />
<glyph unicode="&#xf708;" d="M-535 1044l17 82h133l25 123h102l-25 -123h133l-16 -82h-133l-25 -122h-102l25 122h-134z" />
<glyph unicode="&#xf709;" d="M-489 1059q7 33 25.5 59t46 45.5t62.5 31.5t76 17q60 8 100 37.5t54 75.5l86 -37q-13 -39 -39 -66t-58 -44t-66.5 -25.5t-63.5 -9.5q25 -8 38 -37.5t7 -61.5q-5 -26 -19.5 -48t-35.5 -38.5t-47.5 -26t-55.5 -9.5q-23 0 -45.5 9t-39 26.5t-24 43t-1.5 58.5zM-408 1044 q-5 -21 8.5 -37t34.5 -16q22 0 40.5 16t23.5 37q5 22 -8 38t-35 16t-40.5 -16t-23.5 -38z" />
<glyph unicode="&#xf70a;" d="M-125 942l57 287h103l-58 -287h-102z" />
<glyph unicode="&#xf70b;" d="M-348 1129.5q-5 21.5 0 46.5q4 24 17.5 45.5t33 37.5t43 25.5t47.5 9.5q30 0 51.5 -10.5t35 -27.5t18 -40.5t0.5 -48.5q-3 -20 -11 -42t-18.5 -43t-22.5 -38.5t-24 -27.5q47 10 89.5 35t76.5 57.5t58.5 70t35.5 72.5h102q-28 -76 -77 -135.5t-113.5 -101t-140.5 -65 t-158 -27.5l-39 30q35 23 66 51t47 56q-7 -2 -12 -2h-11q-24 0 -44 9.5t-32.5 25.5t-17.5 37.5zM-281 1176q-5 -22 7.5 -37t33.5 -15q22 0 39.5 15t22.5 37q3 21 -9.5 36t-33.5 15q-22 0 -39 -15t-21 -36z" />
<glyph unicode="&#xf70c;" d="M-526 1065q8 42 30 76.5t51.5 61t62.5 43t63 22.5l77 -64l99 62q25 -7 46 -21.5t34.5 -35t18.5 -46.5t-1 -57q-5 -26 -12.5 -49.5t-18.5 -40.5q19 12 37.5 37.5t31.5 58.5t19.5 69.5t1.5 69.5h99q-2 -80 -29.5 -140t-66.5 -101t-82.5 -63t-77.5 -27l-50 38q17 16 33.5 45 t24.5 66q8 43 -3.5 71.5t-25.5 39.5l-90 -58l-88 64q-17 -5 -33 -18.5t-24 -24.5q4 0 7 1q3 0 6 0.5t5 0.5q25 0 45 -9t33 -24.5t18 -36t0 -43.5t-18 -43.5t-32 -35.5t-42.5 -24t-48.5 -9q-53 0 -82.5 38t-17.5 107zM-451 1032q-5 -20 6 -33.5t31 -13.5t36.5 13.5t21.5 33.5 q3 20 -8 33.5t-31 13.5t-36 -13.5t-20 -33.5z" />
<glyph unicode="&#xf70d;" d="M-238 1044l17 82h133l25 123h102l-25 -123h133l-16 -82h-133l-25 -122h-102l25 122h-134z" />
<glyph unicode="&#xf70e;" d="M-317 1059q7 33 25.5 59t46 45t63 31t76.5 18q58 8 98.5 37.5t54.5 75.5l86 -37q-13 -39 -39 -66t-58 -44t-66.5 -25.5t-63.5 -9.5q25 -8 38 -37.5t7 -61.5q-5 -26 -19.5 -48t-35.5 -38.5t-47.5 -26t-55.5 -9.5q-23 0 -45.5 9t-39 26.5t-24 43t-1.5 58.5zM-236 1044 q-5 -21 8.5 -37t34.5 -16q22 0 40.5 16t23.5 37q5 22 -8 38t-35 16t-40.5 -16t-23.5 -38z" />
<glyph unicode="&#xf70f;" horiz-adv-x="1137" d="M47 139l59 305q12 55 44.5 92t70.5 50q-12 11 -30 22t-36.5 20.5t-35 17t-25.5 11.5q72 85 163 132t202 47q57 0 106 -16t82 -47.5t47 -78.5t2 -110l-96 -502h98q44 0 73.5 5t49 19t30.5 39.5t19 67.5l119 606h103l-123 -626q-9 -49 -25 -85t-43 -60t-66.5 -36t-95.5 -12 h-360l14 78q35 0 56 2.5t33.5 12t19 28.5t12.5 51l82 414q8 42 -3 74t-34 53t-54.5 32t-64.5 11q-60 0 -113 -20t-98 -62q25 -12 58.5 -35.5t56.5 -52.5q-114 -38 -135 -144l-37 -184q11 5 25.5 6.5t25.5 1.5q29 0 51.5 -10.5t37 -29t20 -43t0.5 -52.5q-6 -29 -21.5 -54.5 t-38 -44.5t-50 -30.5t-56.5 -11.5q-69 0 -100 41.5t-19 107.5zM133 131q-5 -26 10 -44.5t41 -18.5t48.5 18.5t27.5 44.5q6 26 -9.5 45t-41.5 19t-48 -19t-28 -45z" />
<glyph unicode="&#xf710;" d="M-578 1096q5 27 19.5 51t35 42t45.5 28t52 10q25 0 46 -10t34.5 -26.5t19 -39t0.5 -47.5q-6 -28 -24 -53.5t-41 -40.5q40 -10 89.5 -4.5t97 27.5t86.5 61.5t57 97.5h100q-21 -62 -62 -112t-94.5 -85t-116 -54t-126.5 -19q-53 0 -96 13t-72.5 36t-43 55t-6.5 70z M-502 1104q-5 -23 7.5 -38t35.5 -15t41 15t23 38t-7.5 38t-35.5 15t-41 -15t-23 -38z" />
<glyph unicode="&#xf711;" d="M-408 1096q6 29 21.5 54.5t38 44t50 29.5t56.5 11t52.5 -11t38.5 -29.5t21 -44t1 -54.5t-21 -54.5t-38.5 -44.5t-50.5 -30t-56 -11q-29 0 -52.5 11t-38.5 30t-21 44.5t-1 54.5zM-334 1096q-4 -26 11.5 -46t41.5 -20q13 0 26 5.5t24 14.5t18.5 21t9.5 25q5 28 -10 47.5 t-43 19.5t-50.5 -19.5t-27.5 -47.5z" />
<glyph unicode="&#xf712;" d="M-676.5 1018q-6.5 28 0.5 65q7 34 26.5 64.5t49 54t66.5 39t79 19.5q31 3 64.5 0.5t64.5 -0.5q23 1 45 6.5t40 17t31.5 30t19.5 46.5h104q-8 -39 -33.5 -70.5t-60.5 -54t-76.5 -34t-81.5 -9.5q-32 2 -64 1.5t-55 -3.5q-41 -4 -76.5 -31t-46.5 -72q-4 -22 1 -37.5 t13.5 -25t18 -14t15.5 -4.5l94 104l15 -23q7 -10 15 -21t17 -19q7 19 20.5 37t31.5 31.5t39 21.5t42 8q23 0 41.5 -9t30.5 -24t17 -35.5t1 -42.5q-5 -23 -18 -43.5t-32.5 -35.5t-43.5 -24t-51 -9q-51 0 -86.5 24.5t-55.5 54.5l-59 -69h-57q-25 0 -47 10t-37 29t-21.5 47z M-328 1034q-5 -21 6.5 -34t32.5 -13q22 0 36.5 13t19.5 34q5 22 -5.5 34.5t-31.5 12.5q-22 0 -37.5 -12.5t-20.5 -34.5z" />
<glyph unicode="&#xf713;" d="M-276 1319l47 246h102l-47 -246h-102z" />
<glyph unicode="&#xf714;" d="M-422 1485.5q-5 19.5 0 42.5q4 22 16.5 41.5t30 33.5t39 22.5t43.5 8.5q27 0 46.5 -9t31 -25t15 -36.5t-0.5 -43.5q-2 -18 -9 -38t-16.5 -38.5t-20.5 -34.5t-21 -25q43 9 81 31t69 51.5t52.5 63t30.5 65.5h92q-25 -68 -69 -121.5t-101.5 -91t-126 -59t-141.5 -25.5 l-35 29q31 20 59 45t44 51q-7 -2 -11.5 -2h-9.5q-22 0 -40.5 8.5t-30.5 22.5t-17 33.5zM-360 1528q-5 -20 6.5 -33.5t31.5 -13.5q19 0 34 13.5t20 33.5q3 18 -8 31.5t-29 13.5q-20 0 -36 -13.5t-19 -31.5z" />
<glyph unicode="&#xf715;" d="M-477 1430q7 38 27 69t46.5 54t56 38t56.5 21l72 -58l86 56q46 -13 72 -51t16 -93q-5 -24 -12 -45t-15 -37q16 12 32.5 35.5t28.5 52.5t17.5 61.5t1.5 63.5h90q-2 -73 -27 -127t-60 -90.5t-74.5 -56.5t-69.5 -25l-43 35q14 14 29.5 40.5t21.5 60.5q7 38 -4.5 63.5 t-24.5 34.5l-79 -51l-80 57q-16 -5 -30 -17.5t-19 -21.5q3 0 5 1q2 0 4.5 0.5t4.5 0.5q22 0 40 -8t30 -22t17 -32.5t1 -39.5t-16 -39.5t-29 -32t-38.5 -21.5t-43.5 -8q-49 0 -75.5 34.5t-14.5 97.5zM-410 1399q-3 -17 7 -29t28 -12q19 0 33.5 12t17.5 29q4 18 -6 30.5 t-28 12.5q-19 0 -34 -12.5t-18 -30.5z" />
<glyph unicode="&#xf716;" d="M-369 1430l15 73h121l20 111h90l-20 -111h120l-14 -73h-121l-22 -111h-90l22 111h-121z" />
<glyph unicode="&#xf717;" d="M-414 1376q13 60 63.5 95t125.5 45q54 8 89.5 33t47.5 67l78 -33q-12 -35 -35.5 -59.5t-52 -40t-59 -23t-56.5 -8.5q22 -6 33.5 -32.5t5.5 -55.5q-5 -24 -18 -44.5t-31.5 -35t-41.5 -23t-48 -8.5q-21 0 -41.5 8t-35.5 24t-22 39t-2 52zM-342 1364q-3 -20 9 -33.5 t32 -13.5q19 0 35.5 13.5t19.5 33.5q5 20 -6.5 33.5t-30.5 13.5q-20 0 -37 -13.5t-22 -33.5z" />
<glyph unicode="&#xf718;" d="M-592 -590q5 27 19.5 50.5t35.5 41t46.5 27.5t52.5 10q31 0 55 -10.5t39.5 -29t21.5 -43.5t0 -54l-57 -293h-102l35 178q-20 -6 -41 -6q-27 0 -49 10t-36 27.5t-19.5 41t-0.5 50.5zM-522 -590q-5 -25 8.5 -42t38.5 -17t46 17t26 42t-9 42.5t-39 17.5q-24 0 -45 -17.5 t-26 -42.5z" />
<glyph unicode="&#xf719;" d="M-817 -590q5 27 19.5 50.5t35.5 41t46 27.5t52 10q31 0 55 -10.5t40 -29t22 -43.5t0 -54l-33 -176h50q21 0 35.5 1.5t24 7t15 17t9.5 31.5l49 250h102l-51 -262q-7 -36 -21 -59.5t-35.5 -37t-50 -19t-65.5 -5.5h-180l26 137q-18 -6 -41 -6q-27 0 -48.5 10t-35.5 27.5 t-19.5 41t-0.5 50.5zM-748 -590q-5 -25 9 -42t39 -17q24 0 45 17t26 42t-8.5 42.5t-38.5 17.5t-46 -17.5t-26 -42.5z" />
<glyph unicode="&#xf71a;" d="M-475 -543q8 34 36 58t62 24t53.5 -24t12.5 -58q-3 -17 -12 -32t-22 -26t-29 -17.5t-34 -6.5q-34 0 -53.5 24t-13.5 58z" />
<glyph unicode="&#xf71d;" />
<glyph unicode="&#xf880;" />
<glyph horiz-adv-x="641" d="M-408 1096q6 29 21.5 54.5t38 44t50 29.5t56.5 11t52.5 -11t38.5 -29.5t21 -44t1 -54.5t-21 -54.5t-38.5 -44.5t-50.5 -30t-56 -11q-29 0 -52.5 11t-38.5 30t-21 44.5t-1 54.5zM-334 1096q-4 -26 11.5 -46t41.5 -20q13 0 26 5.5t24 14.5t18.5 21t9.5 25q5 28 -10 47.5 t-43 19.5t-50.5 -19.5t-27.5 -47.5zM6 614q16 48 48 89t75.5 70.5t95 46t107.5 16.5q58 0 103.5 -16.5t75 -46.5t41 -73t1.5 -96l-117 -604h-102l115 586q15 75 -20 122.5t-114 47.5q-34 0 -66 -9.5t-59.5 -27.5t-48.5 -44.5t-32 -60.5h-103z" />
<glyph d="M-509 1020q5 28 23.5 52t46.5 43.5t63 33t73 19.5q-43 25 -33 82q15 72 116 116q100 47 231 47h30.5t30.5 -2l-13 -67q-20 2 -38 3t-37 1q-96 0 -159 -25q-72 -28 -83 -75q-12 -61 110 -58l-12 -63q-93 3 -171 -23q-92 -29 -101 -80q-9 -39 54 -39q29 0 59.5 8t62.5 23 l21 -53q-78 -37 -155 -37q-137 0 -119 94z" />
<glyph />
<glyph />
<glyph d="M-831 948q10 56 39.5 103t72 81t95.5 53t110 19q22 0 42.5 -1.5t39.5 -6.5l10 61h72l-17 -83q16 -10 29.5 -19.5t24.5 -21.5l24 124h103l-68 -356q-50 26 -119.5 39.5t-147 17.5t-158 0.5t-152.5 -10.5zM-711 1026q40 9 91 12t103 0.5t99.5 -10.5t79.5 -22q-5 24 -19 45 t-37.5 37.5t-56.5 26t-75 9.5q-63 0 -112.5 -26.5t-72.5 -71.5zM-346 1319l47 246h102l-47 -246h-102z" />
<glyph d="M-579 1055q21 111 111 182q45 38 96.5 56t109.5 18q265 0 265 -246q0 -14 -1 -28.5t-3 -28.5q-57 29 -144 44.5t-207 15.5q-54 0 -110.5 -3.5t-116.5 -9.5zM-458 1133q31 8 67.5 11t81.5 3q75 0 130 -8.5t94 -25.5q-28 118 -189 118q-131 0 -184 -98z" />
<glyph d="M-579 1063q21 111 111 182q45 38 96.5 56t109.5 18q132 0 201 -76l25 129h102l-67 -356q-57 29 -144 44.5t-207 15.5q-54 0 -110.5 -3.5t-116.5 -9.5zM-458 1141q31 8 67.5 11t81.5 3q75 0 130 -8.5t94 -25.5q-28 118 -189 118q-131 0 -184 -98z" />
<glyph d="M-156 942l57 287h103l-58 -287h-102z" />
</font>
</defs>
</svg>
