<?xml version="1.0" standalone="no"?>
<!DOCTYPE svg PUBLIC "-//W3C//DTD SVG 1.1//EN" "http://www.w3.org/Graphics/SVG/1.1/DTD/svg11.dtd" >
<svg xmlns="http://www.w3.org/2000/svg">
<metadata></metadata>
<defs>
<font id="psl_kandamodern_proitalic" horiz-adv-x="0" >
<font-face units-per-em="2048" ascent="1638" descent="-410" />
<missing-glyph horiz-adv-x="471" />
<glyph unicode="&#xe37;&#xe48;" d="M-575 922l10 49h415l19 104h53l-18 -104h61l19 104h53l-29 -153h-583zM-63 1137l20 123h53l-20 -123h-53z" />
<glyph unicode="&#xd;" horiz-adv-x="471" />
<glyph unicode=" "  horiz-adv-x="471" />
<glyph unicode="&#x09;" horiz-adv-x="471" />
<glyph unicode="&#xa0;" horiz-adv-x="471" />
<glyph unicode="!" horiz-adv-x="350" d="M59 0l25 139h68l-25 -139h-68zM121 248l49 366l61 351h66l-61 -351l-82 -366h-33z" />
<glyph unicode="&#x22;" horiz-adv-x="426" d="M141 655l56 310h51l-55 -310h-52zM299 655l55 310h52l-56 -310h-51z" />
<glyph unicode="#" horiz-adv-x="752" d="M14 311l9 45h165q21 65 37 117q7 22 13.5 43t11.5 37.5t8 26.5l2 10h-160l9 45h167l93 297h45l-95 -297h228l94 297h45l-94 -297h149l-8 -45h-155l-74 -234h151l-8 -45h-158l-98 -311h-45l98 311h-227l-98 -311h-45q28 86 50 155q9 29 18 57t15.5 50t10.5 36l4 13h-158z M231 356h228l73 234h-227z" />
<glyph unicode="$" horiz-adv-x="737" d="M-14 171q-14 62 4 146h49q-13 -74 -1 -127t43.5 -87.5t78.5 -52.5t104 -21l80 448q-60 14 -111 30.5t-86.5 44.5t-51 71t-3.5 110q12 64 42 110.5t75 78t102.5 47.5t122.5 18l19 109h41l-19 -109q82 -3 135.5 -26t83 -62.5t38 -92.5t-0.5 -116h-53q8 41 6 83.5t-24 78 t-68 59.5t-125 27l-74 -418q64 -15 121 -33.5t97 -48.5t58.5 -75.5t6.5 -114.5q-13 -74 -50 -125t-89 -82.5t-114 -46.5t-126 -17l-21 -118h-40l20 118q-68 3 -125 25.5t-94 64.5t-51 104zM143 733q-8 -50 0.5 -83.5t34.5 -56t69 -37.5t105 -28l74 410q-49 -2 -95.5 -14 t-85 -36t-65.5 -62t-37 -93zM305 29q53 1 105.5 12t96.5 36.5t76 68.5t44 110q10 54 -8 90t-53.5 59.5t-83.5 37.5t-99 26z" />
<glyph unicode="%" horiz-adv-x="1051" d="M96 705q9 48 32.5 92t58.5 77.5t81 53.5t99 20q54 0 92.5 -18t61 -49.5t29.5 -73t-1 -88.5q-9 -51 -34 -97t-61 -81t-81 -55.5t-94 -20.5q-48 0 -85.5 19.5t-62 52.5t-34 76.5t-1.5 91.5zM98 -33l803 998h53l-800 -998h-56zM145 632q7 -35 25.5 -61.5t47.5 -42.5t67 -16 q39 0 74 16.5t63 44.5t47.5 65t26.5 77q7 37 0.5 71.5t-24.5 60t-47 41t-67 15.5q-40 0 -75.5 -16t-63.5 -43t-47.5 -63t-26.5 -76q-7 -38 0 -73zM504 221q8 48 31.5 92.5t59 78t81 53.5t98.5 20q55 0 93.5 -18.5t61 -49.5t29.5 -73t-2 -88q-8 -51 -33 -97t-61 -81 t-81.5 -55.5t-94.5 -20.5q-48 0 -85.5 19.5t-62 52.5t-34 76t-0.5 91zM553 148.5q7 -34.5 25.5 -61t47 -42.5t66.5 -16q39 0 74.5 16.5t63.5 44.5t47 64.5t26 76.5q7 38 0.5 72t-24.5 60t-47 41.5t-66 15.5q-40 0 -76 -16t-64 -43.5t-47 -63.5t-26 -76q-7 -38 0 -72.5z" />
<glyph unicode="&#x26;" horiz-adv-x="801" d="M16 219q9 48 27.5 87.5t54 75.5t90 71.5t134.5 76.5q-9 17 -27 44t-34 60.5t-25.5 72t-2.5 79.5q6 34 28.5 63.5t54.5 51.5t71.5 34.5t79.5 12.5q43 0 78 -10.5t58.5 -32.5t32.5 -56t1 -81q-8 -42 -32 -77.5t-58 -65.5t-74 -56t-80 -51l180 -285q22 38 37 77.5t23 84.5 h53q-14 -55 -36 -106t-50 -94l123 -195h-70l-92 143q-60 -74 -137.5 -116.5t-161.5 -42.5q-65 0 -115 16.5t-82 47.5t-45 74t-4 97zM66 219q-8 -44 6 -79t42.5 -60t68 -38t83.5 -13q72 0 144.5 40.5t128.5 112.5l-197 312q-54 -32 -100.5 -57.5t-82 -54.5t-59.5 -67.5 t-34 -95.5zM285 780q-7 -36 6 -75.5t31 -71.5q21 -38 49 -74q55 28 101 61q19 14 38.5 31t35 36.5t27 41t15.5 45.5q5 29 -3.5 53t-26.5 41.5t-44 27t-55 9.5t-57.5 -9t-52.5 -25t-41.5 -39.5t-22.5 -51.5z" />
<glyph unicode="'" horiz-adv-x="276" d="M145 655l56 310h51l-55 -310h-52z" />
<glyph unicode="(" horiz-adv-x="365" d="M75 62q-25 151 7 339q19 108 49 197t69 164.5t86 140t99 123.5h51q-69 -83 -118.5 -154.5t-84.5 -143.5t-58.5 -152t-41.5 -179q-29 -168 -8.5 -317.5t94.5 -288.5l-53 4q-66 116 -91 267z" />
<glyph unicode=")" horiz-adv-x="365" d="M-92 -209q123 138 196.5 288.5t102.5 317.5q18 99 22 179t-5.5 152t-34 143.5t-64.5 154.5h51q32 -59 57 -123.5t37.5 -140t11.5 -164.5t-20 -197q-16 -93 -44.5 -178t-67.5 -160.5t-87 -142.5t-102 -125z" />
<glyph unicode="*" horiz-adv-x="487" d="M100 807l23 41l153 -53l31 172h47l-30 -172l172 53l8 -41l-168 -57l70 -136l-37 -30l-80 137l-133 -137l-29 30l129 136z" />
<glyph unicode="+" horiz-adv-x="748" d="M35 315l10 52h287l49 284h51l-49 -284h287l-11 -52h-286l-51 -288h-52l52 288h-287z" />
<glyph unicode="," horiz-adv-x="289" d="M-14 -121q18 11 35.5 26t32 31.5t24.5 33t14 28.5q-17 -8 -23 -8h-16q-23 0 -38.5 17t-10.5 42t27.5 45.5t50.5 20.5q37 0 53 -25t8 -63q-3 -20 -12.5 -42t-26 -44.5t-39.5 -43.5t-53 -38z" />
<glyph unicode="-" horiz-adv-x="475" d="M72 342l10 51h289l-11 -51h-288z" />
<glyph unicode="." horiz-adv-x="289" d="M8 51q5 26 26.5 45t47.5 19t41 -19t10 -45t-26.5 -43.5t-47.5 -17.5t-41 17.5t-10 43.5z" />
<glyph unicode="/" horiz-adv-x="451" d="M-104 -23l608 1010h55l-608 -1010h-55z" />
<glyph unicode="0" horiz-adv-x="748" d="M22.5 360.5q4.5 59.5 14.5 118.5q16 90 49 174.5t84.5 150t123 105t165.5 39.5q65 0 112 -19.5t78.5 -52.5t49 -76.5t24.5 -93t5 -101.5t-11 -101q-19 -109 -52 -204t-84 -165t-123 -110.5t-169 -40.5q-68 0 -115.5 20.5t-79 56t-48.5 83t-22.5 102.5t-1 114.5zM74 300 q1 -82 24 -142t71 -94.5t126 -34.5q60 0 108 20t86 54.5t67 80.5t50 98.5t35.5 109t24.5 110.5q12 72 9 144t-26.5 129.5t-71.5 93.5t-126 36q-83 0 -144.5 -38.5t-105.5 -100t-71 -138t-40 -151.5q-17 -95 -16 -177z" />
<glyph unicode="1" horiz-adv-x="748" d="M215 758l8 39q69 0 115 5.5t75 19.5t43.5 38t22.5 62l2 10h45l-164 -932h-51l133 758h-229z" />
<glyph unicode="2" horiz-adv-x="748" d="M-20 0q9 71 47.5 126t96 101.5t128.5 88.5t145 87q52 32 96.5 64t78 67.5t56 77t31.5 93.5q8 43 -4.5 79.5t-39 63.5t-65 42t-83.5 15q-63 0 -110.5 -18t-81.5 -46t-56.5 -62t-35.5 -66t-17.5 -58t-3.5 -37h-51q-1 24 6 57.5t24 70t45 73t68.5 65t94.5 46.5t124 18 q64 0 112.5 -18t79 -50.5t42.5 -78.5t2 -101q-10 -59 -33.5 -104.5t-58 -83t-78 -69.5t-93.5 -64q-63 -40 -129 -79.5t-122.5 -80t-95.5 -82t-48 -86.5h557l-8 -51h-620z" />
<glyph unicode="3" horiz-adv-x="748" d="M15 148.5q-16 62.5 1 158.5h52q-13 -74 -1.5 -127t43 -86.5t80.5 -49t111 -15.5q51 0 101 16.5t91.5 46.5t70.5 71.5t38 92.5q19 107 -48 165t-230 52l8 45q140 -8 224.5 46t102.5 157q8 43 -5.5 77t-41.5 58t-67 36.5t-82 12.5q-66 0 -121 -21t-96 -57t-67 -84.5 t-34 -103.5h-47q10 64 39.5 120.5t77 98.5t112 66t144.5 24q58 0 106 -16.5t81 -47t47.5 -73.5t5.5 -96q-8 -42 -28 -78.5t-49.5 -65t-66 -47.5t-78.5 -26q43 -5 77 -24.5t55.5 -51.5t30 -74t-0.5 -92q-11 -60 -42.5 -110t-78.5 -86t-107.5 -56t-127.5 -20 q-68 0 -126.5 14.5t-98 51t-55.5 99z" />
<glyph unicode="4" horiz-adv-x="748" d="M-4 238l10 51l567 643h52l-115 -649h158l-9 -45h-157l-41 -238h-51l41 238h-455zM55 283h404l102 579z" />
<glyph unicode="5" horiz-adv-x="748" d="M14 157q-15 56 4 128h50q-12 -62 0.5 -110t43 -80.5t76.5 -49t101 -16.5q56 0 108.5 22t95 59.5t72 87t39.5 105.5q10 58 -1 108.5t-39 88.5t-70.5 60t-94.5 22q-49 0 -86.5 -9t-69 -26t-59.5 -41.5t-59 -54.5h-51l180 481h471l-8 -49h-432l-142 -369q31 31 61 52.5 t62.5 35t67.5 19.5t76 6q63 0 114 -24t84 -67t46 -102t1 -129q-12 -71 -46.5 -129.5t-84.5 -101.5t-111.5 -66.5t-127.5 -23.5q-65 0 -121.5 20t-95.5 58.5t-54 94.5z" />
<glyph unicode="6" horiz-adv-x="748" d="M35 297q0 24 3.5 62t12.5 87t25.5 106.5t42.5 119.5q57 134 152 205t212 71q69 0 116.5 -20t76.5 -53.5t40.5 -78.5t8.5 -94h-49q-1 38 -11.5 74.5t-33.5 65t-61.5 46t-94.5 17.5q-62 0 -112 -22.5t-89 -60.5t-68.5 -87.5t-50.5 -104t-34.5 -110t-20.5 -104.5 q53 97 137 148.5t187 51.5q64 0 115 -24t84 -67t46 -103t1 -131q-12 -65 -45 -121t-82 -97t-112 -65t-134 -24q-140 0 -202.5 80t-59.5 233zM94 297q-9 -51 1 -99.5t37.5 -86t71.5 -60t103 -22.5q55 0 107 21t94.5 57t71.5 83.5t38 100.5q10 56 -1 106.5t-39.5 89t-73 61.5 t-101.5 23q-54 0 -105 -21t-93 -57.5t-71.5 -87t-39.5 -108.5z" />
<glyph unicode="7" horiz-adv-x="748" d="M133 0q18 81 51 170q28 76 74.5 171.5t118.5 195.5q46 64 102 126t104 111q56 57 113 109h-549l9 49h602l-8 -53q-53 -44 -109 -100q-48 -48 -107 -115.5t-116 -149.5q-30 -43 -55.5 -87.5t-47 -88.5t-39 -86.5t-30.5 -79.5q-33 -88 -53 -172h-60z" />
<glyph unicode="8" horiz-adv-x="748" d="M14 254q11 60 35.5 105.5t58.5 77t75 49t85 22.5q-38 9 -67 26t-47.5 42.5t-24.5 61t2 81.5q9 54 38 96.5t72.5 72.5t99 46t118.5 16q60 0 109.5 -14t84 -41.5t50 -68t6.5 -93.5q-9 -51 -28 -88.5t-46 -64t-61.5 -43.5t-75.5 -27q44 -6 78.5 -25.5t56.5 -51.5t30 -75 t-1 -96q-12 -62 -43.5 -113t-79.5 -87.5t-110.5 -57t-135.5 -20.5q-65 0 -121.5 16t-95.5 49t-56.5 84t-5.5 121zM66 260q-9 -48 1 -90t38.5 -73.5t76 -49.5t113.5 -18t120 18t94 49.5t65.5 73t33.5 88.5q9 48 2 89t-33.5 72t-75.5 48.5t-124 17.5q-72 0 -126.5 -17.5 t-92.5 -48t-61 -71.5t-31 -88zM180 721q-7 -40 3 -75t35.5 -60.5t67 -40.5t97.5 -15q60 0 108 15t82.5 40.5t55.5 60.5t28 75q7 39 -2.5 72.5t-35.5 58.5t-68 39t-100 14q-59 0 -106 -14t-81.5 -39t-55.5 -58.5t-28 -72.5z" />
<glyph unicode="9" horiz-adv-x="748" d="M31 229h53q-3 -43 10 -79.5t38.5 -63.5t61 -42t78.5 -15q61 0 110.5 20t89 54.5t70 81t53 99.5t37.5 110.5t25 113.5q-52 -91 -131 -142t-178 -51q-72 0 -126 25.5t-87.5 69.5t-45 102.5t0.5 124.5q12 64 44.5 121t81 99t111 66.5t134.5 24.5q74 0 123 -20.5t79.5 -56.5 t43.5 -84t14.5 -103t-6 -114t-19.5 -117q-11 -57 -29 -113.5t-43.5 -108.5t-59 -97t-76 -78.5t-94.5 -52.5t-115 -19q-60 0 -108.5 17.5t-81.5 49.5t-48.5 77t-9.5 101zM141 635q-10 -57 2 -107t41.5 -87.5t73.5 -59t98 -21.5q55 0 107.5 21.5t95 59t72 87.5t39.5 107 t-2 106.5t-41.5 86t-74 58t-99.5 21.5t-106.5 -21.5t-94 -58t-72 -86t-39.5 -106.5z" />
<glyph unicode=":" horiz-adv-x="289" d="M8 51q5 26 26.5 45t47.5 19t41 -19t10 -45t-26.5 -43.5t-47.5 -17.5t-41 17.5t-10 43.5zM104 598q5 26 26.5 45t47.5 19t41 -19t10 -45t-26 -43.5t-47 -17.5t-41.5 17.5t-10.5 43.5z" />
<glyph unicode=";" horiz-adv-x="289" d="M-14 -121q18 11 35.5 26t32 31.5t24.5 33t14 28.5q-17 -8 -23 -8h-16q-23 0 -38.5 17t-10.5 42t27.5 45.5t50.5 20.5q37 0 53 -25t8 -63q-3 -20 -12.5 -42t-26 -44.5t-39.5 -43.5t-53 -38zM104 598q5 26 26.5 45t47.5 19t41 -19t10 -45t-26 -43.5t-47 -17.5t-41.5 17.5 t-10.5 43.5z" />
<glyph unicode="&#x3c;" horiz-adv-x="811" d="M33 307l14 72l744 315l-11 -55l-694 -295l590 -299l-10 -55z" />
<glyph unicode="=" horiz-adv-x="748" d="M12 184l8 52h625l-8 -52h-625zM57 446l11 52h624l-10 -52h-625z" />
<glyph unicode="&#x3e;" horiz-adv-x="811" d="M-23 -10l11 55l694 295l-590 299l10 55l631 -319l-12 -70z" />
<glyph unicode="?" horiz-adv-x="686" d="M92 666q4 73 31.5 132t73 101t107 65t134.5 23q58 0 106 -16.5t79.5 -47.5t45 -75.5t3.5 -99.5q-10 -60 -36 -101.5t-59.5 -73.5t-70.5 -57.5t-70 -52.5t-57.5 -60t-32.5 -79q-3 -17 -6 -32q-2 -13 -4 -26.5t-4 -21.5h-51q2 9 4 22.5t4 27.5q3 15 6 32q9 50 34 86.5 t58 65.5t70.5 55t70.5 56t58.5 68t34.5 91q7 43 -3 78t-35.5 60.5t-64.5 39.5t-90 14q-72 0 -125 -23.5t-88 -62t-53 -88t-19 -100.5h-51zM209 55q5 28 27.5 48t50.5 20t43 -19t10 -47q-2 -14 -9.5 -26.5t-18.5 -21.5t-24.5 -14.5t-27.5 -4.5q-26 2 -41 20.5t-10 44.5z" />
<glyph unicode="@" horiz-adv-x="1094" d="M63.5 301.5q-18.5 95.5 4.5 200.5q22 102 80 190.5t138 154t175 103t192 37.5q94 0 167 -24.5t124 -67t79.5 -99.5t34.5 -121.5t-10.5 -133t-56.5 -133.5q-30 -50 -68.5 -92.5t-80.5 -73t-85 -47.5t-83 -17q-22 0 -36.5 8t-23 21t-11 30.5t0.5 36.5q-22 -22 -42.5 -39.5 t-44.5 -29.5t-53.5 -18.5t-70.5 -6.5q-38 0 -69 22t-47 63.5t-12 100.5t38 134q26 58 63.5 109.5t83.5 90.5t100 61.5t114 22.5q35 0 58 -13t36.5 -31.5t19.5 -40.5t8 -40l50 99h55l-217 -439q-19 -38 -14.5 -59t21.5 -28.5t41 -3.5t44 16q97 57 159 145.5t81 194.5 q14 81 -12.5 147.5t-79.5 114t-124.5 73t-146.5 25.5q-55 0 -112 -16t-111 -45t-103.5 -69.5t-89.5 -89.5t-68.5 -106t-41.5 -118q-20 -95 -1.5 -181.5t67.5 -152t124 -104.5t168 -39q67 0 129.5 17t116.5 45.5t98 65t76 76.5h59q-35 -51 -84.5 -96t-112 -79.5t-136.5 -54.5 t-156 -20q-110 0 -194 42.5t-136.5 114.5t-71 167.5zM321 304q9 -38 32 -58.5t53 -20.5q38 0 72 11t67 37t66 68t71 105q33 54 45.5 106.5t8 94t-25 67t-53.5 25.5q-18 0 -50.5 -4.5t-72 -26t-83.5 -66.5t-86 -126q-35 -67 -44 -120.5t0 -91.5z" />
<glyph unicode="A" horiz-adv-x="793" d="M-98 0l549 965h65l205 -965h-62l-63 309h-457l-176 -309h-61zM166 360h420l-111 549z" />
<glyph unicode="B" horiz-adv-x="836" d="M2 0l170 965h356q70 0 123.5 -12t89 -39t52.5 -71q14 -37 15 -89q0 -9 -1 -19q-2 -36 -18.5 -73t-45.5 -69t-70 -55t-91 -30q48 -6 85 -26.5t60 -52t31 -72.5q4 -20 4 -42t-4 -45q-12 -71 -49 -122t-86.5 -84t-105 -48.5t-105.5 -15.5h-410zM70 51h319q60 0 112.5 13.5 t93.5 41t68 68.5t37 96q4 22 4 41q0 69 -48 111q-61 52 -191 53h-320zM154 526h325q45 0 89 11.5t81 35.5t63.5 61.5t35.5 90.5q4 21 4 39q0 27 -8 48q-13 36 -41.5 58.5t-68 32.5t-83.5 10h-328z" />
<glyph unicode="C" horiz-adv-x="934" d="M47 295q-6 40 -6 81q0 54 10 111q18 107 67 198.5t121 158.5t161.5 105t187.5 38q77 0 131 -19t90.5 -48t57.5 -65t32 -70.5t14.5 -63t4.5 -43.5h-58q-2 56 -20 103t-53.5 81.5t-87.5 54t-121 19.5q-89 0 -167 -36t-139.5 -97t-103 -142t-57.5 -172q-9 -54 -10 -106 q1 -33 5 -65q10 -83 47 -147t103 -103t164 -39q53 0 101 16t89.5 43t76.5 62.5t61.5 74t44.5 77.5t26 73h60q-9 -35 -27.5 -78t-47.5 -87t-68 -86t-89.5 -74.5t-111.5 -52.5t-134 -20q-106 0 -180 42.5t-117.5 113t-56.5 162.5z" />
<glyph unicode="D" horiz-adv-x="883" d="M2 -2l170 967h317q91 0 163 -26.5t119.5 -81t66.5 -138.5q11 -47 11 -104q0 -45 -7 -95q-17 -122 -61.5 -218.5t-114 -164t-163.5 -103.5t-210 -36h-291zM70 51h256q97 0 176.5 35.5t138 98.5t94.5 149.5t47 187.5q5 46 5 85q0 56 -10 100q-17 75 -59.5 120.5 t-108.5 65.5t-150 20h-236z" />
<glyph unicode="E" horiz-adv-x="743" d="M2 0l170 965h635l-8 -52h-576l-69 -387h540l-8 -51h-541l-75 -424h583l-8 -51h-643z" />
<glyph unicode="F" horiz-adv-x="680" d="M2 0l170 965h592l-8 -52h-533l-69 -387h481l-8 -51h-482l-84 -475h-59z" />
<glyph unicode="G" horiz-adv-x="981" d="M48 276q-7 41 -7 84q0 53 10 111q11 65 35 129t59 121.5t81.5 106t102 84t121 55.5t138.5 20q66 0 116 -14t86 -36.5t60 -51.5t39 -59q35 -70 35 -160h-56q-3 66 -26.5 116.5t-63 84.5t-94.5 51.5t-121 17.5q-60 0 -114.5 -18.5t-102 -51t-87 -76.5t-70.5 -95.5 t-52 -108.5t-31 -115q-9 -53 -9 -101q0 -39 6 -76q14 -81 55 -140t107 -92t155 -33q79 0 148.5 24t125 72.5t95 122.5t57.5 174h-348l10 51h399l-84 -473h-51l35 203q-69 -113 -170 -169.5t-229 -56.5q-104 0 -179.5 38t-121 104.5t-59.5 156.5z" />
<glyph unicode="H" horiz-adv-x="887" d="M2 0l170 965h59l-77 -439h604l78 439h57l-170 -965h-57l84 475h-605l-84 -475h-59z" />
<glyph unicode="I" horiz-adv-x="225" d="M2 0l170 965h59l-170 -965h-59z" />
<glyph unicode="J" horiz-adv-x="637" d="M-16 175q-1 5 -1 9q0 57 17 123h55q-11 -62 -14 -113q-1 -9 -1 -17q0 -41 13 -71q15 -37 52.5 -57t107.5 -20q56 0 97.5 14t70.5 42.5t48 72t30 102.5l125 705h57l-125 -705q-12 -68 -36 -120.5t-62 -89.5t-91.5 -56t-123.5 -19q-75 0 -123 25t-71.5 69.5t-24.5 105.5z " />
<glyph unicode="K" horiz-adv-x="813" d="M2 0l170 965h59l-98 -555l694 555h76l-506 -404l363 -561h-76l-334 522l-229 -184l-60 -340z" />
<glyph unicode="L" horiz-adv-x="662" d="M2 0l170 965h59l-161 -914h534l-8 -51h-594z" />
<glyph unicode="M" horiz-adv-x="1071" d="M2 0l170 965h82l213 -902l526 902h82l-170 -965h-57l158 895l-523 -895h-57l-207 893l-158 -893h-59z" />
<glyph unicode="N" horiz-adv-x="897" d="M2 0l170 965h72l444 -885l156 885h59l-170 -965h-67l-447 893l-158 -893h-59z" />
<glyph unicode="O" horiz-adv-x="981" d="M40 294q-5 39 -5 79q0 56 10 114q18 105 65 196t117.5 158.5t161 106.5t195.5 39q97 0 173 -36.5t124.5 -100.5t67.5 -152q10 -45 10 -95q0 -47 -9 -97q-18 -105 -62 -201t-113 -169.5t-162 -117t-210 -43.5q-109 0 -185 42.5t-120.5 113.5t-57.5 163zM99 310 q11 -84 49 -146.5t103.5 -99.5t158.5 -37q98 0 181 41t146 108t102.5 153t51.5 177q5 37 5 73q0 46 -8 89q-14 78 -53 137.5t-104 95t-156 35.5q-96 0 -176 -37.5t-140.5 -99.5t-100 -143t-54.5 -169q-9 -55 -9 -107q0 -36 4 -70z" />
<glyph unicode="P" horiz-adv-x="782" d="M2 0l170 965h406q72 0 119.5 -20.5t73.5 -56.5t33 -84q3 -20 2 -42q0 -30 -5 -62q-11 -63 -39 -113t-72 -85t-103 -53.5t-132 -18.5h-318l-76 -430h-59zM145 481h322q59 0 106.5 16t82.5 44.5t57 68t30 86.5q5 28 5 53q0 17 -2 33q-6 40 -28.5 69t-64 45.5t-104.5 16.5 h-326z" />
<glyph unicode="Q" horiz-adv-x="981" d="M40 294q-5 39 -5 79q0 56 10 114q18 105 65 196t117.5 158.5t161 106.5t195.5 39q97 0 173 -36.5t125 -100.5t68 -152q9 -45 9 -94q0 -47 -9 -98q-20 -119 -74 -224.5t-139 -181.5l125 -108l-39 -39l-137 106q-59 -40 -130 -62t-153 -22q-109 0 -185 42.5t-120.5 113.5 t-57.5 163zM99 310q11 -83 49 -146t103.5 -100t158.5 -37q66 0 125 18.5t110 52.5l-123 105l39 41l133 -109q82 69 132.5 167t64.5 204q6 39 6 76q0 44 -8 86q-14 78 -53 137.5t-104.5 95t-156.5 35.5q-96 0 -176 -37.5t-140.5 -99.5t-100 -143t-54.5 -169q-9 -55 -9 -107 q0 -35 4 -70z" />
<glyph unicode="R" horiz-adv-x="836" d="M2 0l170 965h410q64 0 113.5 -15.5t81 -45.5t43.5 -74q7 -25 7 -54q0 -23 -4 -49q-20 -108 -84.5 -174.5t-167.5 -85.5q58 -6 91.5 -28t47.5 -59q13 -34 14 -79v-10q-2 -52 -13 -117l-9 -47q-6 -37 -5 -61.5t3 -38.5q4 -18 11 -27h-64q-6 10 -9 27q-3 14 -3 37.5t6 56.5 l23 121q5 28 5 51t-5 41q-10 38 -35.5 61t-65 33t-90.5 10h-334l-78 -438h-59zM147 492h324q48 0 95.5 11t87.5 35.5t68.5 65.5t39.5 101q4 26 4 48q0 28 -6 50q-12 40 -43 64.5t-78.5 35t-108.5 10.5h-307z" />
<glyph unicode="S" horiz-adv-x="836" d="M22 197q-3 23 -2 47q0 38 7 75h59q-10 -41 -9 -77q0 -24 3 -44q10 -54 44 -91t90.5 -57.5t133.5 -20.5q55 0 111 10.5t103.5 36.5t81.5 69.5t46 108.5q3 18 3 34q0 34 -14 59q-21 37 -64 61.5t-103 40t-127 28.5q-74 15 -127 34.5t-85.5 51t-42.5 77.5q-5 21 -5 47 q0 30 6 65q10 57 46.5 101t87.5 74t111.5 45t119.5 15q81 0 135.5 -17.5t89 -45.5t52 -62t23.5 -67q5 -27 6 -51v-10q-2 -28 -5 -44h-56q2 18 2 35q0 32 -7 61q-11 45 -41.5 78.5t-81.5 52.5t-126 19q-47 0 -96 -11t-91 -34t-71.5 -57.5t-38.5 -81.5q-5 -27 -4 -50 q0 -30 8 -52q14 -38 45 -61t74.5 -35.5t92.5 -23.5q91 -20 160 -39.5t112 -50.5q44 -30 60 -78q9 -26 9 -60q0 -29 -6 -64q-11 -63 -46 -111.5t-88.5 -82t-122 -50.5t-144.5 -17q-108 0 -174.5 30.5t-101 79.5t-42.5 110z" />
<glyph unicode="T" horiz-adv-x="688" d="M61 913l9 52h725l-9 -52h-335l-162 -913h-58l162 913h-332z" />
<glyph unicode="U" horiz-adv-x="891" d="M61 214q-2 23 -2 47q0 56 11 120l102 584h59l-102 -584q-11 -60 -11 -110q0 -95 39 -154q59 -90 205 -90q84 0 147.5 26t109 73t74 112t42.5 143l103 584h57l-102 -584q-16 -94 -51 -169t-90 -127.5t-129.5 -81t-168.5 -28.5q-95 0 -157 29t-95.5 82t-40.5 128z" />
<glyph unicode="V" horiz-adv-x="737" d="M70 965h61l164 -916l487 916h58l-521 -965h-67z" />
<glyph unicode="W" horiz-adv-x="1178" d="M80 965h61l86 -904l412 904h74l96 -902l403 902h62l-443 -965h-65l-100 920l-416 -920h-68z" />
<glyph unicode="X" horiz-adv-x="737" d="M-104 0l444 498l-250 467h68l223 -420l379 420h69l-415 -467l264 -498h-72l-241 453l-400 -453h-69z" />
<glyph unicode="Y" horiz-adv-x="760" d="M59 965h68l250 -508l434 508h66l-480 -562l-71 -403h-58l72 403z" />
<glyph unicode="Z" horiz-adv-x="711" d="M-84 0l8 49l793 864h-600l8 52h663l-8 -52l-796 -862h655l-8 -51h-715z" />
<glyph unicode="[" horiz-adv-x="326" d="M8 -207l217 1233h185l-7 -43h-133l-202 -1147h133l-8 -43h-185z" />
<glyph unicode="\" horiz-adv-x="451" d="M74 987h55l252 -1010h-55z" />
<glyph unicode="]" horiz-adv-x="326" d="M-104 -207l8 43h133l203 1147h-134l7 43h184l-217 -1233h-184z" />
<glyph unicode="^" horiz-adv-x="811" d="M29 319l424 613h71l209 -613h-55l-195 570l-399 -570h-55z" />
<glyph unicode="_" horiz-adv-x="748" d="M-109 -152l9 52h747l-8 -52h-748z" />
<glyph unicode="`" horiz-adv-x="225" d="M51 987h70l129 -188h-49z" />
<glyph unicode="a" horiz-adv-x="662" d="M-8 184q8 48 32.5 83.5t59.5 60t79.5 38t92.5 17.5q54 4 102 8t84 13.5t58.5 27.5t27.5 51l7 43q2 13 2 25q0 25 -9 44q-13 27 -38 42.5t-58.5 21t-69.5 5.5q-50 0 -88 -13.5t-66 -37.5t-46.5 -57.5t-30.5 -72.5h-51q12 58 39 100.5t64.5 71t83 42.5t95.5 14 q45 0 89.5 -9.5t77.5 -29.5t50 -52q12 -22 12 -51q0 -13 -3 -28l-76 -428q-3 -15 -3 -30t7 -25t22.5 -13t43.5 6l-7 -43q-18 -8 -41 -9t-42 7.5t-30 27t-5 48.5l10 57q-24 -39 -56 -68t-68.5 -47.5t-76.5 -28t-80 -9.5q-44 0 -83.5 8t-68.5 30q-28 22 -40 60q-7 20 -7 47 q0 24 5 53zM41 184q-3 -16 -3 -31q0 -50 32 -82q41 -42 131 -42q56 0 105 20t87.5 54t64 79t34.5 94l20 121q-15 -17 -46 -27t-68 -16t-74 -9t-62 -5q-45 -5 -82.5 -15t-66 -28.5t-47 -46t-25.5 -66.5z" />
<glyph unicode="b" horiz-adv-x="737" d="M4 0l170 965h51l-73 -418q48 75 120.5 119.5t165.5 44.5q78 0 129.5 -28.5t79.5 -75.5q29 -47 35 -109q2 -22 1 -43q0 -41 -7 -84q-16 -93 -49 -165t-81 -121.5t-108.5 -75t-132.5 -25.5q-85 0 -142.5 45t-80.5 127l-27 -156h-51zM116 237q4 -62 26.5 -108.5t64.5 -73 t104 -26.5q73 0 127.5 31.5t93 80t61.5 106.5t32 111q6 37 6 74q1 20 -1 40q-6 56 -29 99t-66.5 69t-110.5 26q-64 0 -115 -25t-89 -66t-62.5 -94t-34.5 -110q-9 -52 -9 -99q1 -18 2 -35z" />
<glyph unicode="c" horiz-adv-x="688" d="M20 202q-4 26 -4 54q0 44 9 94q12 69 42 134.5t77.5 115.5t111 80.5t141.5 30.5q71 0 119.5 -19t77.5 -52q30 -32 40 -74q7 -28 6 -58q0 -14 -1 -29h-49v13q0 28 -7 56q-9 34 -32.5 60.5t-63.5 42t-98 15.5q-60 0 -112.5 -25.5t-94 -69t-69.5 -100.5t-39 -121 q-8 -47 -8 -88q0 -22 2 -43q6 -59 32 -101.5t70 -65.5t106 -23q50 0 95 16.5t81 45.5t62.5 68.5t40.5 84.5h51q-16 -53 -47 -100.5t-74.5 -83.5t-98 -57t-118.5 -21q-73 0 -125 27.5t-83 76t-40 116.5z" />
<glyph unicode="d" horiz-adv-x="737" d="M17 222q-1 15 -1 31q0 50 11 112q13 72 42 135t73.5 110t105 74t135.5 27q42 0 80.5 -10.5t69 -31t51.5 -51.5t28 -71h2l74 418h51l-170 -965h-51l27 156h-2q-6 -14 -27 -42.5t-56.5 -57.5t-86 -50.5t-117.5 -21.5q-23 0 -53.5 5t-60.5 20t-57.5 41t-45 69t-22.5 103z M68 245q2 -60 23 -108t62.5 -78t108.5 -30q69 0 123 28.5t94 75t65 107t36 125.5q7 42 7 80q0 21 -2 41q-6 56 -30.5 95.5t-69 62t-110.5 22.5q-61 0 -111.5 -25.5t-89 -67.5t-63.5 -96.5t-35 -111.5q-9 -49 -9 -98q1 -11 1 -22z" />
<glyph unicode="e" horiz-adv-x="688" d="M16 206q-2 20 -1 41q0 45 8 93q13 73 43 140t76.5 118.5t109 82t139.5 30.5q62 0 106 -18.5t72.5 -48.5t44.5 -69t20 -81q3 -23 2 -46q0 -18 -2 -35q-4 -40 -11 -73h-551q-8 -44 -7 -83q0 -23 2 -44q7 -57 32 -98t68 -63.5t103 -22.5q55 0 100.5 18t80.5 47.5t59 66.5 t37 75h51q-20 -57 -50.5 -103.5t-72 -79.5t-94.5 -51t-117 -18q-81 0 -133.5 29.5t-80.5 79t-34 113.5zM80 385h500q4 24 4 49q0 20 -2 42q-6 49 -28.5 91t-64.5 70.5t-106 28.5q-66 0 -119 -30t-91.5 -73.5t-62 -92t-30.5 -85.5z" />
<glyph unicode="f" horiz-adv-x="319" d="M33 649l8 45h123l24 148q10 55 49.5 92t108.5 43q7 1 15 1h11q13 -2 24 -4q12 -3 24 -5l-8 -47q-20 6 -47.5 10t-59.5 -8q-35 -13 -48.5 -35.5t-18.5 -46.5l-25 -148h141l-8 -45h-141l-115 -649h-49l115 649h-123z" />
<glyph unicode="g" horiz-adv-x="711" d="M-14 -49h53q-5 -29 1.5 -59.5t27.5 -55.5t57 -41t90 -16q124 0 199 62.5t98 199.5l25 145q-105 -159 -279 -159q-81 0 -131 29.5t-75.5 78.5t-29.5 112q-2 17 -2 35q0 46 9 95q12 70 43.5 131t77.5 106t104.5 71t124.5 26q87 0 145.5 -41t75.5 -119l27 143h51l-115 -653 q-15 -83 -44.5 -141t-74.5 -94.5t-104.5 -53t-132.5 -16.5q-75 0 -120.5 19t-69 49.5t-29.5 69.5q-3 24 -3 50q0 13 1 27zM72 260q4 -56 26.5 -98t64 -67t103.5 -25q58 0 108 21t89.5 61t66.5 96.5t39 128.5q6 34 6 66q0 22 -3 42q-6 52 -30 92.5t-66.5 64.5t-104.5 24 q-58 0 -107 -25t-87.5 -65.5t-63.5 -92.5t-35 -106q-8 -44 -8 -85q0 -16 2 -32z" />
<glyph unicode="h" horiz-adv-x="688" d="M-8 0l170 965h51l-74 -418q24 43 57.5 74t71.5 51t79.5 29.5t82.5 9.5q103 0 153 -66q34 -45 35 -123q0 -36 -8 -78l-78 -444h-53l76 430q8 44 8 80q-1 59 -21 96q-32 60 -126 60q-67 0 -119 -23t-90.5 -62t-62 -90t-33.5 -106l-68 -385h-51z" />
<glyph unicode="i" horiz-adv-x="223" d="M4 0l123 694h51l-123 -694h-51zM150 825l24 140h51l-24 -140h-51z" />
<glyph unicode="j" horiz-adv-x="223" d="M-170 -248l6 43q29 -2 54 -0.5t44.5 14.5t34 41t23.5 78l135 766h51l-135 -766q-10 -54 -28 -90t-44 -56t-61 -27q-22 -4 -49 -4q-15 0 -31 1zM150 825l24 140h51l-24 -140h-51z" />
<glyph unicode="k" horiz-adv-x="614" d="M-6 0l170 965h51l-113 -639l488 368h69l-340 -258l240 -436h-67l-220 395l-182 -135l-45 -260h-51z" />
<glyph unicode="l" horiz-adv-x="223" d="M4 0l170 965h51l-170 -965h-51z" />
<glyph unicode="m" horiz-adv-x="1053" d="M-6 0l123 694h51l-25 -141q18 37 45 66t59 49.5t67 31.5t69 11q85 0 130 -38t54 -110q37 68 98.5 108t145.5 40q58 0 95.5 -19.5t57.5 -52.5q18 -33 22 -75q1 -12 2 -25q0 -31 -7 -64l-84 -475h-49l84 475q5 26 5 50q1 12 -1 24q-4 35 -19.5 61t-43.5 41t-70 15 q-45 0 -87 -16t-77 -47.5t-60.5 -77.5t-35.5 -107l-74 -418h-49l82 465q6 30 6 61v12q-2 36 -15.5 64.5t-41.5 46t-76 17.5q-49 0 -92 -21.5t-76.5 -55t-55 -74t-28.5 -79.5l-78 -436h-51z" />
<glyph unicode="n" horiz-adv-x="688" d="M-8 0l123 694h51l-27 -147q23 41 55.5 72t69.5 51.5t76.5 30.5t75.5 10q67 0 109.5 -20t64.5 -55q24 -34 28 -82q1 -15 1 -30q0 -34 -7 -71l-80 -453h-53l80 453q6 30 6 58q0 11 -1 21q-3 38 -20 68t-50 48t-86 18q-63 0 -114 -24.5t-89 -63t-61.5 -86t-30.5 -93.5 l-70 -399h-51z" />
<glyph unicode="o" horiz-adv-x="711" d="M21 208q-4 29 -4 59q0 43 8 89q12 69 43.5 133.5t79.5 113.5t111 78.5t138 29.5q72 0 125 -27t85.5 -75t43.5 -113q5 -30 5 -62q0 -38 -7 -78q-15 -81 -48 -149.5t-82 -118.5t-112.5 -78t-138.5 -28q-71 0 -122.5 29t-83 79t-41.5 118zM68 236q5 -59 28.5 -105t67.5 -74 t112 -28q66 0 121 28t96.5 74t68.5 105t38 120q6 34 6 66q0 25 -4 49q-8 56 -34 99.5t-70.5 69.5t-108.5 26q-59 0 -112 -25.5t-94.5 -68.5t-70 -99t-38.5 -117q-8 -42 -7 -83q-1 -19 1 -37z" />
<glyph unicode="p" horiz-adv-x="737" d="M-39 -248l166 942h51l-28 -155q52 81 124.5 126.5t157.5 45.5q68 0 120 -23.5t83.5 -71t40.5 -117.5q4 -26 4 -55q0 -50 -10 -108q-12 -66 -41 -129.5t-75 -113t-108.5 -79.5t-140.5 -30q-42 0 -80 9t-68 28.5t-50 50.5t-25 75l-70 -395h-51zM107 210q5 -54 28 -94 t66.5 -63.5t109.5 -23.5q67 0 120 26t92 69t63.5 98t34.5 114q7 41 7 86v25q-3 58 -24 107t-64 80.5t-116 31.5q-125 0 -204 -90t-107 -252q-8 -42 -8 -80q0 -18 2 -34z" />
<glyph unicode="q" horiz-adv-x="737" d="M18 206q-3 24 -3 48q0 40 8 82q17 94 51 164.5t81.5 117.5t107.5 70t128 23q85 0 142.5 -45.5t78.5 -126.5l29 155h51l-166 -942h-51l70 395q-33 -44 -65 -75t-66 -50.5t-71 -28.5t-79 -9q-78 0 -130 30t-80.5 79.5t-35.5 112.5zM66 222q5 -55 28 -98t66 -69t110 -26 q66 0 119 28t92 74t64.5 104.5t36.5 118.5q6 36 6 71q0 22 -2 45q-7 56 -31.5 99.5t-67 70t-104.5 26.5q-73 0 -127 -30t-91.5 -77.5t-60 -106.5t-32.5 -116q-7 -41 -7 -79q0 -18 1 -35z" />
<glyph unicode="r" horiz-adv-x="367" d="M-8 0l123 694h51l-27 -153q26 44 66 78q17 15 39.5 29t50.5 25t61.5 18t73.5 7l-8 -51q-10 1 -20 1q-50 0 -94 -17q-52 -20 -92.5 -57t-67.5 -87.5t-37 -107.5l-68 -379h-51z" />
<glyph unicode="s" horiz-adv-x="637" d="M8 231h49q-3 -16 -3 -31q0 -20 4 -40q8 -36 30.5 -65t60 -47.5t91.5 -18.5q40 0 81 7t76 24t59.5 45.5t32.5 72.5q3 14 3 26q0 46 -38 74q-48 36 -171 58q-41 7 -80.5 19.5t-69.5 34t-45 53.5q-9 20 -9 46q0 16 3 33q17 93 89 141t189 48q76 0 121.5 -20t68 -51.5 t26.5 -71.5q1 -15 1 -29q0 -25 -4 -50h-49q3 20 3 37q1 56 -33 92q-44 48 -142 48q-35 0 -71 -6.5t-66 -23t-52 -44.5t-30 -70q-5 -32 7.5 -54t35.5 -37t53.5 -24.5t61.5 -17.5q58 -15 108 -26.5t84.5 -32t50.5 -56.5q9 -22 9 -52q0 -20 -4 -44q-9 -49 -35 -85.5t-66 -60.5 t-92 -36t-113 -12q-68 0 -115 21t-74 55q-28 36 -36 80q-4 23 -4 46q0 22 4 45z" />
<glyph unicode="t" horiz-adv-x="344" d="M33 649l8 45h127l37 217h49l-37 -217h150l-9 -45h-149l-88 -495q-6 -36 0 -58.5t23.5 -34.5t44 -15.5t61.5 -0.5l-8 -47q-13 -1 -25 -1q-28 -1 -52 3q-35 4 -59 20q-23 18 -33 48q-5 16 -5 37q0 19 4 42l88 502h-127z" />
<glyph unicode="u" horiz-adv-x="688" d="M37 252l78 442h51l-78 -442q-7 -39 -8 -71q0 -17 3 -33q6 -42 26.5 -68.5t52.5 -38.5t74 -12q64 0 115.5 24.5t89 63.5t60.5 87.5t31 96.5l70 393h53l-123 -694h-53l27 152q-43 -84 -116 -126t-161 -42q-121 0 -168 68q-32 45 -32 120q0 36 8 80z" />
<glyph unicode="v" horiz-adv-x="588" d="M39 694h57l135 -637l347 637h53l-379 -694h-64z" />
<glyph unicode="w" horiz-adv-x="934" d="M39 694h53l82 -639l299 639h68l75 -639l304 639h57l-342 -694h-64l-73 635l-303 -635h-64z" />
<glyph unicode="x" horiz-adv-x="588" d="M-90 0l330 365l-189 329h70l164 -291l264 291h65l-305 -329l205 -365h-68l-176 326l-297 -326h-63z" />
<glyph unicode="y" horiz-adv-x="588" d="M-61 -248l6 43q41 0 70.5 5t53 18.5t42.5 37.5t39 62l45 86l-162 690h59l141 -631l347 631h55l-457 -817q-23 -41 -43.5 -66t-46.5 -38t-61.5 -17t-87.5 -4z" />
<glyph unicode="z" horiz-adv-x="563" d="M-70 0l9 49l563 600h-420l8 45h483l-8 -49l-567 -600h479l-8 -45h-539z" />
<glyph unicode="{" horiz-adv-x="410" d="M78 410q51 20 89 85t56 171l33 184q4 21 14.5 52t30 59.5t48.5 48.5t69 20h57l-8 -43h-37q-53 0 -82 -39.5t-43 -113.5l-33 -176q-8 -43 -17.5 -77t-25 -63t-38 -55.5t-56.5 -54.5q38 -32 53.5 -90.5t1.5 -130.5l-34 -191q-17 -91 1 -127.5t72 -36.5h33l-6 -43h-39 q-40 0 -66 13.5t-39.5 39t-15.5 61.5t6 81l35 192q16 85 0 148.5t-59 85.5z" />
<glyph unicode="|" horiz-adv-x="301" d="M125 -23v1010h51v-1010h-51z" />
<glyph unicode="}" horiz-adv-x="410" d="M-86 -211l6 43h33q53 0 83.5 36.5t47.5 127.5l35 191q14 72 48 130.5t85 90.5q-25 28 -39 54.5t-19 55.5t-3 63t10 77l32 176q14 74 -2.5 113.5t-68.5 39.5h-37l8 43h57q40 0 61.5 -20t30.5 -48.5t9 -59.5t-4 -52l-33 -184q-19 -106 -4.5 -171t59.5 -85 q-24 -11 -46.5 -33t-41 -52.5t-32.5 -68.5t-21 -80l-35 -192q-8 -45 -22 -81t-36 -61.5t-52 -39t-70 -13.5h-39z" />
<glyph unicode="~" horiz-adv-x="811" d="M70 301q46 63 93.5 87t98.5 24q41 0 73.5 -14.5t64 -32t64 -32t73.5 -14.5q15 0 33.5 10.5t36.5 26.5t34 33.5t27 32.5l30 -41q-15 -16 -34 -35.5t-41.5 -37t-48 -29t-52.5 -11.5q-40 0 -79.5 14.5t-74.5 31.5t-64.5 31.5t-49.5 14.5q-31 0 -55.5 -10.5t-43 -26 t-32.5 -33t-23 -30.5z" />
<glyph unicode="&#xa4;" horiz-adv-x="840" d="M8 164l148 145q-62 83 -62 193q0 114 62 188l-148 150l76 71l145 -145q80 59 193 59q55 0 105.5 -16t82.5 -43l150 145l71 -71l-145 -150q59 -80 59 -188q0 -113 -59 -193l145 -145l-71 -76l-150 148q-15 -13 -36 -23.5t-47 -20.5q-53 -18 -105 -18q-110 0 -193 62 l-145 -148zM197 502q0 -94 63 -164q65 -68 162 -68q92 0 158 68q63 63 63 164q0 46 -16.5 87t-45.5 72t-70 49.5t-89 18.5q-96 0 -160 -67q-65 -74 -65 -160z" />
<glyph unicode="&#xa9;" horiz-adv-x="1135" d="M66 483q12 70 41.5 135t72 121.5t96.5 103t115.5 79.5t128.5 51t137 18q105 0 190 -40t141 -109t79.5 -161.5t5.5 -197.5q-19 -105 -75 -198t-136.5 -162t-179 -109.5t-203.5 -40.5q-104 0 -189 40.5t-141.5 109.5t-79.5 162t-3 198zM113 483q-17 -96 4 -180.5t72 -147 t127.5 -99t170.5 -36.5q95 0 185 36.5t163.5 99t124.5 147t68 180.5t-4.5 180.5t-73 147t-129 99t-172.5 36.5t-184 -36.5t-161.5 -99t-123 -147t-67.5 -180.5zM279 357.5q-11 57.5 0 121.5q11 65 40 123.5t74.5 102.5t106 70t135.5 26q54 0 97.5 -16t73 -44.5t43 -66.5 t9.5 -82h-49q-4 37 -15.5 67.5t-33.5 52.5t-54 34t-77 12q-62 0 -112.5 -22t-88.5 -59.5t-62.5 -87t-33.5 -104.5q-10 -54 -2 -104t33 -88.5t67 -61t100 -22.5q88 0 148 46t92 124h49q-15 -48 -42.5 -88t-65.5 -68.5t-86 -44.5t-105 -16q-68 0 -118 25.5t-81 69t-42 101z " />
<glyph unicode="&#xab;" horiz-adv-x="514" d="M39 365l360 364l4 -41l-274 -323l162 -322l-21 -41zM244 365l209 286l8 -35l-139 -251l51 -250l-21 -37z" />
<glyph unicode="&#xac;" horiz-adv-x="748" d="M61 297v90h616v-268h-82v178h-534z" />
<glyph unicode="&#xad;" horiz-adv-x="748" d="M35 315l10 52h625l-11 -52h-624z" />
<glyph unicode="&#xae;" horiz-adv-x="1135" d="M66 483q12 70 41.5 135t72 121.5t96.5 103t115.5 79.5t128.5 51t137 18q105 0 190 -40t141 -109t79.5 -161.5t5.5 -197.5q-19 -105 -75 -198t-136.5 -162t-179 -109.5t-203.5 -40.5q-104 0 -189 40.5t-141.5 109.5t-79.5 162t-3 198zM113 483q-17 -96 4 -180.5t72 -147 t127.5 -99t170.5 -36.5q95 0 185 36.5t163.5 99t124.5 147t68 180.5t-4.5 180.5t-73 147t-129 99t-172.5 36.5t-184 -36.5t-161.5 -99t-123 -147t-67.5 -180.5zM334 184l104 596h228q40 0 74 -9.5t56.5 -28.5t32 -48t2.5 -67q-7 -39 -24 -69.5t-41 -51.5t-54 -32.5 t-63 -12.5l129 -277h-57l-133 275h-156l-47 -275h-51zM440 504h107q34 0 72 2t71 12.5t57 32.5t31 63q7 39 -3 63t-30.5 37.5t-49 18t-58.5 4.5h-156z" />
<glyph unicode="&#xb0;" horiz-adv-x="541" d="M66 713q0 40 15.5 77t42.5 64.5t63.5 44t78.5 16.5q43 0 80.5 -16t65 -43t43.5 -64t16 -79t-16 -79t-43.5 -64.5t-65 -43.5t-80.5 -16q-41 0 -77 15.5t-63.5 43t-43.5 64.5t-16 80zM121 713q0 -30 11.5 -57t31 -47t46 -32t56.5 -12q62 0 105 43q45 46 45 105 q0 30 -12 56.5t-32.5 46t-47.5 31t-58 11.5t-57.5 -11t-46 -30.5t-30.5 -46t-11 -57.5z" />
<glyph unicode="&#xb6;" horiz-adv-x="727" d="M0 858q0 153 94 229q90 66 248 66h389v-41h-102v-1356h-62v1356h-145v-1356h-55v805q-168 0 -263 62q-104 74 -104 235z" />
<glyph unicode="&#xb7;" horiz-adv-x="338" d="M96 449q0 30 20.5 50.5t53.5 20.5q31 0 51.5 -21.5t20.5 -49.5q0 -31 -21.5 -52.5t-50.5 -21.5q-33 0 -53.5 20.5t-20.5 53.5z" />
<glyph unicode="&#xbb;" horiz-adv-x="514" d="M20 115l138 250l-49 251l20 35l107 -286l-207 -287zM78 43l272 322l-160 323l21 41l229 -364l-358 -363z" />
<glyph unicode="&#xd7;" horiz-adv-x="748" d="M8 80l305 262l-211 258l41 37l213 -260l308 262l30 -37l-307 -260l217 -262l-43 -37l-217 262l-305 -260z" />
<glyph unicode="&#xf7;" horiz-adv-x="748" d="M35 315l10 52h625l-11 -52h-624zM248 102q5 25 26 43.5t45 18.5q25 0 41 -18.5t11 -43.5q-5 -23 -26 -42t-46 -19q-12 0 -22 5.5t-17.5 14t-10.5 19.5t-1 22zM336 600q5 25 26 43.5t46 18.5q24 0 40 -18.5t11 -43.5q-2 -12 -9 -23t-17.5 -19.5t-23 -13.5t-24.5 -5 q-23 0 -37.5 19t-11.5 42z" />
<glyph unicode="&#xe00;" horiz-adv-x="205" />
<glyph unicode="&#xe01;" horiz-adv-x="758" d="M-10 0l80 461q4 21 15 36t23.5 27t22.5 22t12 21q2 8 -7.5 19.5t-20.5 21.5q-13 11 -31 23q14 46 48 83.5t81.5 64t105 41t117.5 14.5q61 0 115 -14t92.5 -44.5t56.5 -78.5t7 -115l-103 -582h-53l98 567q10 58 -2 99t-42 67t-76 38.5t-103 12.5q-59 0 -108 -13t-86 -33.5 t-60.5 -45.5t-30.5 -49q17 -11 29 -24q11 -11 19 -25.5t6 -28.5q-3 -11 -13.5 -22.5t-22.5 -24t-22.5 -26.5t-13.5 -31l-80 -461h-53z" />
<glyph unicode="&#xe02;" horiz-adv-x="655" d="M29 217l55 313q5 31 20 51.5t34.5 35.5t41 26t40 22.5t32 24.5t16.5 33q3 17 -3 27t-18 15.5t-27.5 7t-31.5 1.5h-73l8 45h74q29 0 54 -3.5t42.5 -14t25.5 -29t3 -47.5q-5 -28 -19 -46.5t-33.5 -32t-41 -24.5t-40.5 -23t-33 -28t-18 -39l-53 -301q-10 -57 -0.5 -95 t33.5 -60.5t59 -31.5t76 -9q40 0 78.5 9t70.5 31.5t55 60.5t33 95l105 588h53l-106 -602q-12 -68 -43.5 -112.5t-73 -70.5t-89 -37t-91.5 -11t-87.5 11t-76 37t-48 70.5t-3.5 112.5z" />
<glyph unicode="&#xe03;" horiz-adv-x="655" d="M29 217l55 313q5 31 20 52t34.5 36t41 26t40 22.5t32 24.5t16.5 32q1 7 2 15.5t-0.5 16t-5 12.5t-10.5 5l-80 -72l-74 107l56 18l34 -55l58 49q92 6 74 -94q-5 -28 -19 -46.5t-33.5 -32t-41 -24.5t-40.5 -23t-33 -28t-18 -39l-53 -301q-10 -57 -0.5 -95t33.5 -60.5 t59 -31.5t76 -9q40 0 78.5 9t70.5 31.5t55 60.5t33 95l105 588h53l-106 -602q-12 -68 -43.5 -112.5t-73 -70.5t-89 -37t-91.5 -11t-87.5 11t-76 37t-48 70.5t-3.5 112.5z" />
<glyph unicode="&#xe04;" horiz-adv-x="758" d="M-10 0l102 582q12 67 48.5 115t86 78.5t106.5 44.5t111 14q55 0 107.5 -14t91 -44.5t57.5 -78.5t7 -115l-103 -582h-53l100 567q10 58 -3.5 99t-43.5 67t-73.5 38.5t-94.5 12.5t-99 -12.5t-87.5 -38.5t-67.5 -67t-39 -99l-18 -98h250l-8 -49h-250l-74 -420h-53z" />
<glyph unicode="&#xe05;" horiz-adv-x="758" d="M-10 0l108 610q8 45 28.5 83.5t51.5 68t69.5 48.5t82.5 24l96 -99l133 99q42 -5 74.5 -24t52.5 -48.5t27 -68t0 -83.5l-109 -610h-53l106 600q13 72 -12.5 121t-81.5 63l-147 -114l-107 114q-62 -14 -103.5 -63t-55.5 -121l-25 -131h252l-8 -49h-252l-74 -420h-53z" />
<glyph unicode="&#xe06;" horiz-adv-x="758" d="M-10 0l90 510q5 32 21.5 54t38.5 38t46.5 29t46 26t37 28.5t19.5 37.5q3 22 -3.5 35.5t-19.5 13.5l-86 -72l-80 107l56 18l41 -55l63 49q48 3 69 -23t13 -71q-6 -29 -22.5 -50t-38 -36.5t-46 -28.5t-46 -27t-37 -31t-19.5 -40l-33 -186q-7 -42 9.5 -92t51 -94t84.5 -73.5 t111 -29.5q44 0 83 10.5t70 35t53 63.5t32 96l102 577h54l-105 -588q-12 -65 -38.5 -111t-64 -75t-85 -43t-99.5 -14q-60 0 -106.5 19.5t-81 49t-58 64.5t-36.5 67l-33 -188h-53z" />
<glyph unicode="&#xe07;" horiz-adv-x="651" d="M39 686l53 31l76 -674q87 9 157.5 55t121.5 114t81.5 151t38.5 167q6 60 -8.5 109t-46.5 82t-80 48t-110 7l8 49q72 8 128.5 -8.5t95 -55t56 -97t11.5 -134.5q-6 -63 -25 -128t-50 -125t-74 -112t-97 -90t-118 -59.5t-138 -19.5z" />
<glyph unicode="&#xe08;" horiz-adv-x="680" d="M27 614q11 45 42 85t77 70t104.5 47.5t124.5 17.5q73 0 129.5 -24t91.5 -70t47 -114.5t-4 -156.5q-21 -122 -67 -212.5t-108.5 -150t-138.5 -87t-157 -23.5l-37 502l-22 34h73l35 -487q66 4 125.5 34t108 84t83.5 131t52 175q13 75 3.5 133.5t-38.5 99t-76 61.5t-108 21 q-49 0 -95 -12t-84 -34t-66 -53.5t-42 -70.5h-53z" />
<glyph unicode="&#xe09;" horiz-adv-x="748" d="M18 467l9 49h116l-47 -274q-11 -61 -3 -101t30.5 -63.5t57.5 -33t79 -9.5q61 0 117 21.5t100.5 55.5t73.5 76.5t37 83.5l53 295q11 58 -3 99t-45.5 67t-77 38.5t-99.5 12.5q-49 0 -94.5 -10t-84 -30.5t-67.5 -52.5t-45 -77h-55q17 58 54 100t86 68.5t104.5 39t109.5 12.5 q59 0 113.5 -14t94 -44.5t58 -78.5t6.5 -115l-102 -582h-53l24 135q-24 -32 -57 -59t-73 -47t-86 -31.5t-97 -11.5t-95 11t-74 39t-42 75t0 118l41 238h-64z" />
<glyph unicode="&#xe0a;" horiz-adv-x="709" d="M-10 0l145 819h53l-137 -770h193q57 0 113.5 14.5t103.5 46t81 82t46 121.5q10 57 0 103.5t-36.5 79.5t-67 51t-91.5 18h-119l9 49h118q42 0 85 13t78.5 39t59.5 64t29 89h54q-2 -40 -20 -79.5t-48 -71.5t-69 -53t-83 -23q42 -9 75.5 -31.5t54 -58t27.5 -82.5t-3 -105 q-15 -84 -52.5 -143.5t-90.5 -97.5t-119 -56t-137 -18h-252z" />
<glyph unicode="&#xe0b;" horiz-adv-x="719" d="M0 0l94 530q8 45 29.5 70t45 42t43.5 34t26 47q1 7 2 15.5t-0.5 16t-5.5 12.5t-11 5l-80 -72l-73 107l55 18l35 -55l57 49q48 3 65.5 -20.5t8.5 -73.5q-4 -25 -15.5 -42t-26 -30.5t-30.5 -25t-30.5 -25t-26 -30t-15.5 -40.5l-86 -483h193q58 0 114 14.5t103 46t81 82 t46 121.5q10 57 0.5 103.5t-36 79.5t-67 51t-92.5 18h-98l8 49h99q42 0 85 13t78.5 39t59.5 64t29 89h53q-2 -40 -20 -79.5t-47.5 -71.5t-69 -53t-82.5 -23q42 -9 75 -31.5t53.5 -58t27.5 -82.5t-3 -105q-15 -84 -52.5 -143.5t-90.5 -97.5t-119 -56t-137 -18h-252z" />
<glyph unicode="&#xe0c;" horiz-adv-x="1237" d="M-10 0l82 461q4 21 15 36t23 27t22.5 22t12.5 21q2 8 -7.5 19.5t-21.5 21.5q-14 11 -32 23q14 46 48.5 83.5t82.5 64t105.5 41t117.5 14.5q61 0 115 -14t92 -44.5t56 -78.5t6 -115l-56 -310q-8 -41 5 -83.5t41 -76.5t69 -55.5t90 -21.5q36 0 70.5 9.5t63.5 33t50.5 63 t32.5 99.5l103 579h53l-105 -590q-12 -71 -41 -117.5t-67.5 -74t-82.5 -38.5t-85 -11q-84 0 -140 42t-79 105l-25 -135h-53l100 567q10 58 -2 99t-42 67t-76 38.5t-103 12.5q-59 0 -108 -13t-86 -33.5t-61 -45.5t-32 -49q17 -11 30 -24q11 -11 19.5 -25.5t6.5 -28.5 q-3 -11 -13.5 -22.5t-22.5 -24t-22.5 -26.5t-13.5 -31l-74 -412h148l-9 -49h-200z" />
<glyph unicode="&#xe0d;" horiz-adv-x="1237" d="M-10 0l82 461q4 21 15 36t23 27t22.5 22t12.5 21q2 8 -7.5 19.5t-21.5 21.5q-14 11 -32 23q14 46 48.5 83.5t82.5 64t105.5 41t117.5 14.5q61 0 114.5 -14t92 -44.5t56 -78.5t6.5 -115l-62 -355q-10 -57 -1.5 -93.5t30.5 -58t55.5 -30t73.5 -8.5q43 0 87.5 14t83 42 t66 70t37.5 99l99 557h53l-135 -758q-12 -63 -43 -107t-74 -72t-94 -41t-103 -13h-260l8 49h260q46 0 88 11t75.5 33t56 54t30.5 74l9 47q-17 -19 -42.5 -38.5t-58.5 -35t-74.5 -25t-91.5 -9.5q-41 0 -80 10.5t-68 35.5t-42.5 67.5t-1.5 107.5l63 358q10 58 -2 99t-42 67 t-76 38.5t-103 12.5q-59 0 -108 -13t-86 -33.5t-61 -45.5t-32 -49q17 -11 30 -24q11 -11 19.5 -25.5t6.5 -28.5q-3 -11 -13.5 -22.5t-22.5 -24t-22.5 -26.5t-13.5 -31l-74 -412h148l-9 -49h-200z" />
<glyph unicode="&#xe0e;" horiz-adv-x="768" d="M-72 0l9 49h71l74 412q4 21 15 36t23.5 27t23 22t12.5 21q2 8 -8 19.5t-22 21.5q-14 11 -32 23q14 46 48.5 83.5t82.5 64t106 41t118 14.5t114 -14t92 -44.5t56 -78.5t6 -115l-156 -889h-53l-125 151l-178 -151h-203l8 49h185l198 168l125 -150l144 807q10 58 -2.5 99 t-42.5 67t-76 38.5t-103 12.5q-58 0 -107 -13t-86.5 -33.5t-61.5 -45.5t-31 -49q17 -11 30 -24q11 -11 19 -25.5t6 -28.5q-2 -11 -12.5 -22.5t-22.5 -24t-23 -26.5t-14 -31l-82 -461h-125z" />
<glyph unicode="&#xe0f;" horiz-adv-x="768" d="M-72 0l9 49h71l74 412q4 21 15 36t23.5 27t23 22t12.5 21q2 8 -8 19.5t-22 21.5q-14 11 -32 23q14 46 48.5 83.5t82.5 64t106 41t118 14.5t114 -14t92 -44.5t56 -78.5t6 -115l-156 -889h-53l-82 139l-131 -139l-82 139l-131 -139h-141l8 49h114l162 168l82 -137l131 137 l82 -139l142 796q10 58 -2.5 99t-42.5 67t-76 38.5t-103 12.5q-58 0 -107 -13t-86.5 -33.5t-61.5 -45.5t-31 -49q17 -11 30 -24q11 -11 19 -25.5t6 -28.5q-2 -11 -12.5 -22.5t-22.5 -24t-23 -26.5t-14 -31l-82 -461h-125z" />
<glyph unicode="&#xe10;" horiz-adv-x="680" d="M-135 -307l8 49h115l157 147l86 -118l127 118l86 -116l25 137h-37l8 49h90l-45 -266h-53l-86 119l-127 -119l-86 119l-127 -119h-141zM27 614q11 45 42 85t77 70t104.5 47.5t124.5 17.5q86 0 145 -33q17 11 34.5 32.5t25.5 47.5h59q-4 -17 -13 -33t-20.5 -30t-23.5 -25.5 t-21 -18.5q56 -45 77 -121t1 -184q-21 -122 -67 -212.5t-108.5 -150t-138.5 -87t-157 -23.5l-37 502l-22 34h73l35 -487q66 4 125.5 34t108 84t83.5 131t52 175q13 75 3.5 133.5t-38.5 99t-76 61.5t-108 21q-49 0 -95 -12t-84 -34t-66 -53.5t-42 -70.5h-53z" />
<glyph unicode="&#xe11;" horiz-adv-x="758" d="M-10 0l90 510q6 32 20.5 54t34.5 38t41.5 28.5t40.5 25.5t33 28.5t18 38.5q5 22 -2.5 35.5t-19.5 13.5l-86 -72l-80 107l55 18l41 -55l64 49q48 3 69 -23t13 -71q-5 -28 -20 -48t-34.5 -35.5t-41.5 -29t-41 -28t-33.5 -32t-18.5 -40.5l-53 -305q11 30 36 78t59 105 t75 118t84 117q34 43 68 80.5t67 65.5t64.5 44t60.5 16q47 0 74 -19.5t39 -50t12.5 -69t-6.5 -76.5l-109 -616h-53l106 606q6 32 6.5 63.5t-7.5 56.5t-25.5 40.5t-48.5 15.5q-19 0 -43.5 -14t-53 -39t-58.5 -59t-60 -74q-37 -49 -74 -104t-71.5 -111t-64.5 -110.5 t-53.5 -103t-39 -88.5t-19.5 -67l-2 -12h-53z" />
<glyph unicode="&#xe12;" horiz-adv-x="1247" d="M26 233q-11 85 7 183q15 86 50.5 157t86 124t113 87t131.5 45l127 -141l166 131h53l-98 -547q-8 -41 4.5 -83.5t40.5 -76.5t69 -55.5t90 -21.5q36 0 70.5 9.5t63.5 33t50.5 63t32.5 99.5l103 579h53l-104 -590q-12 -71 -41.5 -117.5t-68 -74t-82 -38.5t-85.5 -11 q-41 0 -76 11t-63 31t-48 46.5t-32 58.5l-25 -135h-53l133 754l-166 -140l-137 160q-54 -12 -104 -42.5t-90.5 -77t-69.5 -106.5t-41 -130q-18 -98 -4 -176t52.5 -127t98 -65t134.5 9l-9 -53q-101 -22 -171 2.5t-110 82t-51 142.5z" />
<glyph unicode="&#xe13;" horiz-adv-x="1237" d="M-10 0l82 461q4 21 15 36t23 27t22.5 22t12.5 21q2 8 -7.5 19.5t-21.5 21.5q-14 11 -32 23q14 46 48.5 83.5t82.5 64t105.5 41t117.5 14.5q61 0 114.5 -14t92 -44.5t56 -78.5t6.5 -115l-60 -342q-11 -60 -3.5 -99.5t28 -63t52 -33t67.5 -9.5q49 0 97 21.5t87.5 55.5 t66.5 76.5t35 83.5l99 547h53l-146 -819h-53l25 135q-24 -32 -54 -58.5t-65 -46.5t-73.5 -31t-80.5 -11q-41 0 -80.5 11t-68 38.5t-41 74t-0.5 117.5l59 338q10 58 -2 99t-42 67t-76 38.5t-103 12.5q-59 0 -108 -13t-86 -33.5t-61 -45.5t-32 -49q17 -11 30 -24 q11 -11 19.5 -25.5t6.5 -28.5q-3 -11 -13.5 -22.5t-22.5 -24t-22.5 -26.5t-13.5 -31l-74 -412h148l-9 -49h-200z" />
<glyph unicode="&#xe14;" horiz-adv-x="764" d="M24.5 225.5q-10.5 83.5 6.5 182.5q15 86 55 161t98 130.5t129.5 87.5t149.5 32h293l-146 -819h-53l135 770h-248q-65 0 -125 -30.5t-108 -80.5t-81.5 -115t-45.5 -134q-17 -99 -3.5 -175.5t51.5 -124t97 -62t133 10.5l-8 -53q-101 -22 -170.5 1t-109 79t-50 139.5z" />
<glyph unicode="&#xe15;" horiz-adv-x="768" d="M26 233q-11 85 7 183q15 86 50.5 157t86 124t113 87t131.5 45l127 -141l166 131h53l-146 -819h-53l133 754l-166 -140l-137 160q-54 -12 -104 -42.5t-90.5 -77t-69.5 -106.5t-41 -130q-18 -98 -4 -176t52.5 -127t98 -65t134.5 9l-9 -53q-101 -22 -171 2.5t-110 82 t-51 142.5z" />
<glyph unicode="&#xe16;" horiz-adv-x="760" d="M-10 0l82 461q4 21 15 36t23 27t22.5 22t12.5 21q2 8 -7.5 19.5t-21.5 21.5q-14 11 -32 23q14 46 48.5 83.5t82.5 64t105.5 41t117.5 14.5q61 0 115 -14t92 -44.5t56 -78.5t6 -115l-103 -582h-53l100 567q10 58 -2 99t-42 67t-76 38.5t-103 12.5q-59 0 -108 -13 t-86 -33.5t-61 -45.5t-32 -49q17 -11 30 -24q11 -11 19.5 -25.5t6.5 -28.5q-3 -11 -13.5 -22.5t-22.5 -24t-22.5 -26.5t-13.5 -31l-74 -412h107l-8 -49h-160z" />
<glyph unicode="&#xe17;" horiz-adv-x="758" d="M-10 0l145 819h53l-34 -188q24 31 60 66.5t81.5 65t99 49t113.5 19.5q52 0 94 -14t69.5 -43t38 -75.5t-0.5 -110.5l-105 -588h-53l102 578q10 57 2 96t-31 63t-58 34.5t-79 10.5q-61 0 -122 -29.5t-111.5 -73t-84 -94t-40.5 -91.5l-86 -494h-53z" />
<glyph unicode="&#xe18;" horiz-adv-x="700" d="M-20 0l77 440h54l-70 -391h244q47 0 93 7.5t85 30.5t67.5 65.5t40.5 113.5q10 56 -1.5 93t-38 60.5t-65 36.5t-81.5 21q-36 7 -74.5 12t-75.5 11.5t-69.5 16.5t-55 26t-33 41t-3.5 61q7 44 38.5 79t76.5 59.5t100 37.5t110 13q54 0 107.5 -11t94.5 -36.5t62 -68 t11 -104.5h-53q9 50 -9.5 83t-53 52.5t-79.5 27t-88 7.5q-45 0 -89.5 -9.5t-82 -27.5t-63 -45t-31.5 -61q-5 -33 18.5 -51.5t63.5 -29t91 -17t101 -15.5q49 -8 95 -23t79 -44t48.5 -75.5t3.5 -117.5q-15 -86 -50.5 -138.5t-82 -81.5t-99.5 -38.5t-104 -9.5h-309z" />
<glyph unicode="&#xe19;" horiz-adv-x="758" d="M29.5 120q-10.5 46 1.5 111l104 588h53l-102 -577q-10 -57 -2 -96t30 -63.5t57 -35t79 -10.5q66 0 127.5 29.5t110 73.5t80.5 94t40 92l88 493h54l-146 -819h-53l33 188q-23 -34 -57.5 -69.5t-78.5 -64.5t-98.5 -47.5t-118.5 -18.5q-52 0 -94 14t-69.5 43t-38 75z" />
<glyph unicode="&#xe1a;" horiz-adv-x="758" d="M31 238l104 581h53l-100 -565q-10 -58 3.5 -99t43.5 -67.5t73.5 -38.5t94.5 -12t99 12t88 38.5t68 67.5t38 99l100 565h54l-105 -581q-12 -68 -48 -115.5t-85 -77.5t-106 -43.5t-111 -13.5t-106.5 13.5t-91.5 43.5t-58.5 77.5t-7.5 115.5z" />
<glyph unicode="&#xe1b;" horiz-adv-x="758" d="M31 238l104 581h53l-100 -565q-10 -58 3.5 -99t43.5 -67.5t73.5 -38.5t94.5 -12t99 12t88 38.5t68 67.5t38 99l135 770h53l-139 -786q-12 -68 -48 -115.5t-85 -77.5t-106 -43.5t-111 -13.5t-106.5 13.5t-91.5 43.5t-58.5 77.5t-7.5 115.5z" />
<glyph unicode="&#xe1c;" horiz-adv-x="1010" d="M74 819h188l-10 -49h-121l78 -692l334 741h53l72 -741l344 741h53l-385 -819h-53l-72 739l-334 -739h-53z" />
<glyph unicode="&#xe1d;" horiz-adv-x="1010" d="M74 819h188l-10 -49h-121l78 -692l334 741h53l72 -741l436 946h53l-477 -1024h-53l-72 739l-334 -739h-53z" />
<glyph unicode="&#xe1e;" horiz-adv-x="1010" d="M74 819h53l82 -741l334 741h53l72 -741l344 741h53l-385 -819h-53l-72 739l-334 -739h-53z" />
<glyph unicode="&#xe1f;" horiz-adv-x="1010" d="M74 819h53l82 -741l334 741h53l72 -741l436 946h53l-477 -1024h-53l-72 739l-334 -739h-53z" />
<glyph unicode="&#xe20;" horiz-adv-x="768" d="M-72 0l9 49h71l74 412q4 21 15 36t23.5 27t23 22t12.5 21q2 8 -8 19.5t-22 21.5q-14 11 -32 23q14 46 48.5 83.5t82.5 64t106 41t118 14.5t114 -14t92.5 -44.5t56 -78.5t5.5 -115l-103 -582h-53l101 567q10 58 -2.5 99t-42.5 67t-76 38.5t-103 12.5q-58 0 -107 -13 t-86.5 -33.5t-61.5 -45.5t-31 -49q17 -11 30 -24q11 -11 19 -25.5t6 -28.5q-2 -11 -12.5 -22.5t-22.5 -24t-23 -26.5t-14 -31l-82 -461h-125z" />
<glyph unicode="&#xe21;" horiz-adv-x="758" d="M-10 0l145 819h53l-88 -493q-8 -42 6.5 -92t48 -94t84.5 -73.5t117 -29.5q44 0 83 10.5t70 35t53 63.5t32 96l102 577h54l-105 -588q-12 -65 -38.5 -111t-64 -75t-85 -43t-99.5 -14q-64 0 -112 18.5t-82.5 47.5t-56 64.5t-31.5 69.5l-33 -188h-53z" />
<glyph unicode="&#xe22;" horiz-adv-x="762" d="M-1 144q-7 44 5 110q10 57 34.5 99t55.5 70t64 43t61 19q-25 3 -52 11t-48 25.5t-31.5 47.5t-1.5 76q9 52 39.5 90t75.5 60.5t101 29t118 -5.5l-10 -49q-51 9 -97 6t-82.5 -18t-60.5 -43t-31 -68q-9 -51 9 -77.5t50.5 -38.5t74.5 -13.5t81 -1.5h291l55 303h54l-146 -819 h-284q-44 0 -87.5 0.5t-83 7t-72.5 21t-54 43t-28 72.5zM53 163q6 -36 23.5 -58.5t45 -34t61 -16.5t71 -5h76.5h233l74 418h-291q-51 0 -99 -12.5t-87 -38.5t-66 -66.5t-37 -97.5q-10 -53 -4 -89z" />
<glyph unicode="&#xe23;" horiz-adv-x="690" d="M-4 130.5q-17 55.5 0 141.5h53q-15 -73 -0.5 -119t46.5 -72.5t76.5 -36t90.5 -9.5q51 0 99.5 9.5t88.5 33.5t68 65t39 103q10 56 -1.5 90t-38.5 53.5t-66 29t-82 17.5q-56 10 -112 19t-99 27.5t-66 53.5t-12 97q8 48 39 85t75 63t97.5 39.5t107.5 13.5q52 0 104 -11.5 t91.5 -37t59.5 -68t10 -103.5h-54q9 48 -8 81t-49.5 52.5t-75.5 28t-86 8.5q-44 0 -87.5 -10t-79 -29.5t-60.5 -48t-31 -65.5q-8 -42 11.5 -66t55.5 -38.5t83.5 -22.5t97.5 -17q49 -8 96 -20t81 -37t49.5 -68.5t2.5 -113.5q-14 -79 -49.5 -130t-84.5 -80t-106.5 -40.5 t-115.5 -11.5q-57 0 -111 12.5t-92 44.5t-55 87.5z" />
<glyph unicode="&#xe24;" horiz-adv-x="760" d="M-10 0l82 461q4 21 15 36t23 27t22.5 22t12.5 21q2 8 -7.5 19.5t-21.5 21.5q-14 11 -32 23q14 46 48.5 83.5t82.5 64t105.5 41t117.5 14.5q61 0 114.5 -14t92 -44.5t56 -78.5t6.5 -115l-146 -828h-53l143 813q10 58 -2 99t-42 67t-76 38.5t-103 12.5q-59 0 -108 -13 t-86 -33.5t-61 -45.5t-32 -49q17 -11 30 -24q11 -11 19.5 -25.5t6.5 -28.5q-3 -11 -13.5 -22.5t-22.5 -24t-22.5 -26.5t-13.5 -31l-74 -412h107l-8 -49h-160z" />
<glyph unicode="&#xe25;" horiz-adv-x="764" d="M-2.5 117.5q-10.5 41.5 0.5 103.5q19 106 90 165.5t180 76.5q33 5 73.5 9t82 10t82 16t73 26t55 40t28.5 59q6 37 -6 67t-39 51t-68 32t-92 11q-47 0 -93 -10t-85.5 -30.5t-70 -52.5t-46.5 -77h-56q18 58 55 99.5t85.5 68.5t103.5 39.5t109 12.5q52 0 103.5 -10.5t90 -37 t57.5 -71t7 -111.5l-107 -604h-53l92 524q-21 -27 -59.5 -44.5t-85.5 -28.5t-99.5 -17.5t-103.5 -11.5q-47 -5 -88.5 -18.5t-74.5 -37.5t-55.5 -60t-31.5 -85q-9 -50 1 -84.5t32.5 -56t54.5 -32t68 -12.5t72 2t67 11l-8 -49q-39 -6 -82.5 -9t-84.5 1t-77.5 17.5t-61 40 t-35 68z" />
<glyph unicode="&#xe26;" horiz-adv-x="768" d="M-72 0l9 49h71l74 412q4 21 15 36t23.5 27t23 22t12.5 21q2 8 -8 19.5t-22 21.5q-14 11 -32 23q14 46 48.5 83.5t82.5 64t106 41t118 14.5t114 -14t92 -44.5t56 -78.5t6 -115l-146 -828h-53l144 813q10 58 -2.5 99t-42.5 67t-76 38.5t-103 12.5q-58 0 -107 -13 t-86.5 -33.5t-61.5 -45.5t-31 -49q17 -11 30 -24q11 -11 19 -25.5t6 -28.5q-2 -11 -12.5 -22.5t-22.5 -24t-23 -26.5t-14 -31l-82 -461h-125z" />
<glyph unicode="&#xe27;" horiz-adv-x="754" d="M2 246h57q6 -57 25.5 -97t50 -65.5t71 -37t87.5 -11.5q61 0 118 20t104 64.5t81.5 116t52.5 174.5t8.5 174t-40.5 115.5t-80.5 64.5t-110.5 20q-47 0 -91.5 -11.5t-84.5 -37t-74 -65.5t-59 -97h-58q29 70 70 119.5t90 81t103.5 46t111.5 14.5q72 0 130.5 -23t96 -73.5 t50 -131t-8.5 -196.5q-20 -116 -61 -197t-96.5 -131.5t-122 -73t-137.5 -22.5q-57 0 -106.5 14.5t-87.5 45.5t-61.5 80.5t-27.5 119.5z" />
<glyph unicode="&#xe28;" horiz-adv-x="758" d="M-10 0l102 582q12 67 48.5 115t86 78.5t106.5 44.5t111 14q39 0 75.5 -7t68.5 -22q12 9 23 20q9 10 19 24t15 32h60q-7 -23 -19 -41t-24 -31q-14 -15 -31 -27q43 -31 65.5 -79.5t10.5 -120.5l-103 -582h-53l100 567q10 58 -3.5 99t-43.5 67t-73.5 38.5t-94.5 12.5 t-99 -12.5t-87.5 -38.5t-67.5 -67t-39 -99l-18 -98h250l-8 -49h-250l-74 -420h-53z" />
<glyph unicode="&#xe29;" horiz-adv-x="768" d="M31 238l104 581h53l-100 -565q-10 -58 3.5 -99t43.5 -67.5t73.5 -38.5t94.5 -12t99 12t88 38.5t68 67.5t38 99l35 201h-254l18 106h54l-11 -57h201l57 315h54l-58 -315h62l-9 -49h-61l-39 -217q-12 -68 -48 -115.5t-85 -77.5t-106 -43.5t-111 -13.5t-106.5 13.5 t-91.5 43.5t-58.5 77.5t-7.5 115.5z" />
<glyph unicode="&#xe2a;" horiz-adv-x="764" d="M-2.5 117.5q-10.5 41.5 0.5 103.5q19 106 90 165.5t180 76.5q33 5 73.5 9t82 10t82 16t73 26t55 40t28.5 59q6 37 -6 67t-39 51t-68 32t-92 11q-47 0 -93 -10t-85.5 -30.5t-70 -52.5t-46.5 -77h-56q18 58 55 99.5t85.5 68.5t103.5 39.5t109 12.5q42 0 83 -7t76 -22 q13 11 28.5 32t23.5 44h59q-5 -16 -13 -31.5t-17.5 -29t-19.5 -24t-17 -16.5q34 -26 50 -69.5t5 -106.5l-107 -604h-53l92 524q-21 -27 -59.5 -44.5t-85.5 -28.5t-99.5 -17.5t-103.5 -11.5q-47 -5 -88.5 -18.5t-74.5 -37.5t-55.5 -60t-31.5 -85q-9 -50 1 -84.5t32.5 -56 t54.5 -32t68 -12.5t72 2t67 11l-8 -49q-39 -6 -82.5 -9t-84.5 1t-77.5 17.5t-61 40t-35 68z" />
<glyph unicode="&#xe2b;" horiz-adv-x="758" d="M-10 0l145 819h53l-51 -280q25 31 61 66.5t81.5 65t99 49t113.5 19.5q52 0 94 -14t69.5 -43t38 -75.5t-1.5 -110.5l-88 -496h-53l86 485q10 57 2 96t-31 63.5t-58 35t-79 10.5q-41 0 -82 -13.5t-79 -36.5t-71 -53t-59 -62t-43 -64t-22 -60l-72 -401h-53zM371 770l10 49 h328l-11 -49h-327z" />
<glyph unicode="&#xe2c;" horiz-adv-x="1010" d="M74 819h53l82 -741l334 741h53l72 -741l264 567q18 37 16.5 69t-17.5 55.5t-45 36.5t-67 13h-110l8 47h127q93 0 160 37t98 115h51q-31 -82 -95 -131t-149 -49q64 -25 81.5 -81t-13.5 -122l-297 -635h-53l-72 739l-334 -739h-53z" />
<glyph unicode="&#xe2d;" horiz-adv-x="844" d="M28 219q-16 80 3 191q5 27 11 53t15 49h226l-9 -49h-178q-5 -13 -7 -26t-5 -27q-17 -98 -4.5 -168.5t48.5 -116.5t92 -68t126 -22t133.5 22t115.5 68t89.5 116.5t54.5 168.5q18 97 5.5 168t-48 116.5t-91.5 67.5t-126 22q-96 0 -178 -41t-139 -129h-60q33 57 76 98.5 t92.5 68.5t104.5 40t112 13q79 0 144 -25t108 -76.5t58.5 -131.5t-4.5 -191t-63.5 -191t-104.5 -131.5t-134.5 -76.5t-152.5 -25t-144 25t-107.5 76.5t-58.5 131.5z" />
<glyph unicode="&#xe2e;" horiz-adv-x="844" d="M28 219q-16 80 3 191q5 27 11 53t15 49h226l-9 -49h-178q-5 -13 -7 -26t-5 -27q-17 -98 -4.5 -168.5t48.5 -116.5t92 -68t126 -22t133.5 22t115.5 68t89.5 116.5t54.5 168.5q18 97 5.5 168t-48 116.5t-91.5 67.5t-126 22q-96 0 -178 -41t-139 -129h-60q33 57 76 98.5 t92.5 68.5t104.5 40t112 13q81 0 146 -27q11 8 28 28.5t25 45.5h59q-5 -16 -13.5 -31t-18 -28t-18.5 -22.5t-15 -15.5q72 -46 104.5 -138.5t8.5 -235.5q-20 -111 -64 -191t-104.5 -131.5t-134 -76.5t-152.5 -25t-144 25t-107.5 76.5t-58.5 131.5z" />
<glyph unicode="&#xe2f;" horiz-adv-x="682" d="M78 670q10 54 46.5 88.5t83 51t94 17t79.5 -13.5l-8 -51q-24 16 -63 18.5t-77.5 -9t-68.5 -37.5t-37 -66q-5 -30 3.5 -53.5t27 -39t45 -24t57.5 -8.5q73 0 130.5 23t101.5 61.5t74.5 88t49.5 103.5h58l-146 -819h-51l127 717q-13 -37 -43 -76t-75 -71.5t-103.5 -53 t-128.5 -20.5q-35 0 -70 10t-61 31.5t-39.5 54.5t-5.5 78z" />
<glyph unicode="&#xe30;" horiz-adv-x="246" d="M-20 174q3 19 13 36t25 29.5t33 19.5t37 7q38 0 60 -27t16 -65q-3 -19 -13 -36t-25 -29.5t-33.5 -19.5t-37.5 -7t-34.5 7t-25.5 19.5t-14 29.5t-1 36zM25 174q-4 -18 8 -32.5t30 -14.5q19 0 36 14.5t20 32.5q3 19 -9 33t-30 14q-19 0 -35.5 -14t-19.5 -33zM63 645 q3 19 13 36t24.5 29.5t32.5 19.5t37 7q38 0 61 -27t17 -65q-4 -19 -14 -36t-25 -29.5t-33 -19.5t-37 -7t-34.5 7t-26 19.5t-15 29.5t-0.5 36zM109 645q-5 -20 5.5 -33.5t30.5 -13.5t36.5 13.5t21.5 33.5q3 20 -8 33.5t-31 13.5t-36 -13.5t-19 -33.5z" />
<glyph unicode="&#xe31;" d="M-254 922l21 108h55l-10 -59h428l-11 -49h-483z" />
<glyph unicode="&#xe32;" horiz-adv-x="379" d="M74 770l10 49q45 8 94.5 4t89 -23.5t61 -56t11.5 -94.5l-115 -649h-53l111 629q8 47 -4.5 77t-41 46.5t-70.5 20t-93 -2.5z" />
<glyph unicode="&#xe33;" horiz-adv-x="379" d="M-90 1008q6 37 34.5 61.5t65.5 24.5t57.5 -24.5t14.5 -61.5q-6 -38 -35.5 -62t-66.5 -24q-38 0 -57 24t-13 62zM-53 1008q-5 -20 8 -35t33 -15t36 15t21 35q3 20 -9 34.5t-32 14.5t-37 -14.5t-20 -34.5zM74 770l10 49q45 8 94.5 4t89 -23.5t61 -56t11.5 -94.5l-115 -649 h-53l111 629q8 47 -4.5 77t-41 46.5t-70.5 20t-93 -2.5z" />
<glyph unicode="&#xe34;" d="M-575 922l10 49h583l-10 -49h-583z" />
<glyph unicode="&#xe35;" d="M-575 922l10 49h530l19 104h53l-29 -153h-583z" />
<glyph unicode="&#xe36;" d="M-575 922l10 49h477q-1 4 -2 9q-2 9 0 24q3 17 12.5 31.5t23 25.5t30 17.5t34.5 6.5q35 0 55.5 -23.5t14.5 -57.5q-2 -17 -11.5 -32t-23 -26t-30 -17.5t-33.5 -6.5h-557zM-49 1004q-3 -20 7.5 -33t29.5 -13q20 0 34 13t17 33q5 18 -6 30.5t-31 12.5q-19 0 -32.5 -12.5 t-18.5 -30.5z" />
<glyph unicode="&#xe37;" d="M-575 922l10 49h415l19 104h53l-18 -104h61l19 104h53l-29 -153h-583z" />
<glyph unicode="&#xe38;" d="M-291 -131l8 49h115l-39 -215h-53l31 166h-62z" />
<glyph unicode="&#xe39;" d="M-520 -131l8 49h94l-18 -104q-4 -21 1 -35t16.5 -23t29 -12.5t39.5 -3.5q43 0 72.5 16t37.5 58l19 104h53l-20 -111q-11 -57 -55 -85.5t-115 -28.5q-73 0 -109 28.5t-25 85.5l13 62h-41z" />
<glyph unicode="&#xe3a;" d="M-258 -135q5 22 23.5 37.5t39.5 15.5q22 0 35 -15.5t8 -37.5q-3 -22 -21 -37.5t-40 -15.5t-35 15.5t-10 37.5z" />
<glyph unicode="&#xe3f;" horiz-adv-x="836" d="M2 0l170 965h297l23 131h43l-23 -131h37q85 0 138.5 -21.5t82 -56.5t35.5 -80t0 -92q-7 -39 -26.5 -74.5t-48 -63t-65.5 -46t-79 -23.5v-2q7 1 24.5 -2.5t39.5 -13.5t45 -27.5t40 -44t24.5 -63t-1.5 -85.5q-12 -66 -44.5 -116.5t-82 -84.5t-113.5 -51.5t-139 -17.5h-37 l-25 -141h-43l25 141h-297zM70 51h237l76 424h-238zM154 526h237l70 387h-238zM350 51h37q127 0 210 55.5t103 163.5q11 62 -7 102t-53.5 63t-82.5 31.5t-94 8.5h-37zM434 526h37q60 0 108 14.5t83 41t56.5 63t29.5 80.5q9 52 -4.5 88t-42.5 58t-70.5 32t-89.5 10h-37z" />
<glyph unicode="&#xe40;" horiz-adv-x="258" d="M20 0l146 819h53l-145 -819h-54z" />
<glyph unicode="&#xe41;" horiz-adv-x="455" d="M20 0l146 819h53l-145 -819h-54zM217 0l145 819h54l-146 -819h-53z" />
<glyph unicode="&#xe42;" horiz-adv-x="287" d="M41 0l176 999q5 28 1.5 45.5t-12 29.5t-19 21.5t-19 20.5t-13 26.5t0.5 39.5q6 38 44.5 63t110.5 25h242l-8 -49h-221q-22 0 -42 -1t-35.5 -5t-26 -13t-13.5 -24q-4 -22 8.5 -34.5l27.5 -27.5t25.5 -37.5t3.5 -62.5l-178 -1016h-53z" />
<glyph unicode="&#xe43;" horiz-adv-x="287" d="M10 1094q2 37 20 69t47 56t68.5 37.5t85.5 13.5q88 0 129.5 -35t30.5 -100q-6 -35 -24.5 -55t-40 -38t-40.5 -39.5t-26 -58.5l-166 -944h-53l168 948q5 29 15.5 49.5t23.5 35.5t27.5 26t27 22t21.5 23.5t12 30.5q6 38 -21 62t-92 24q-38 0 -67.5 -11t-49.5 -29t-31 -40.5 t-12 -46.5h-53z" />
<glyph unicode="&#xe44;" horiz-adv-x="287" d="M-10 1194l43 33l86 -56l90 50h39q21 0 42 -3.5t36.5 -12t23.5 -23t4 -37.5q-3 -23 -14.5 -37.5t-25 -28t-26 -28.5t-16.5 -39l-178 -1012h-53l180 1020q4 25 16.5 42t26 30t24.5 23t13 22q2 18 -16 27.5t-47 9.5h-35l-94 -54z" />
<glyph unicode="&#xe45;" horiz-adv-x="379" d="M74 770l10 49q45 8 94.5 4t89 -23.5t61 -56t11.5 -94.5l-158 -895h-53l154 875q8 47 -4.5 77t-41 46.5t-70.5 20t-93 -2.5z" />
<glyph unicode="&#xe46;" horiz-adv-x="686" d="M70 629q7 40 30.5 74.5t59.5 60t81.5 40.5t96.5 15l115 -147l168 147h57l-189 -1065h-53l176 1002l-174 -158l-129 168q-32 -1 -62.5 -11t-56 -28t-43 -43t-22.5 -55q-7 -39 4 -65t31.5 -41t46.5 -20t49 -3l-8 -51q-42 0 -78.5 10.5t-61.5 32t-36 55.5t-2 82z" />
<glyph unicode="&#xe47;" d="M-530 1020q4 24 19.5 45.5t40.5 38.5t59.5 27t78.5 10h381l-8 -49h-369q-65 0 -103 -20t-44 -52q-2 -12 0 -21t5 -15q4 -7 9 -13h103l184 71l162 -71l-11 -49l-159 73l-180 -73h-132q-17 12 -30 36t-6 62z" />
<glyph unicode="&#xe48;" d="M-6 1137l20 123h54l-21 -123h-53z" />
<glyph unicode="&#xe49;" d="M-172 1221l8 45h37q37 0 55 -15t13 -43l-4 -24h237l-8 -47h-287l8 45q3 18 -2.5 28.5t-25.5 10.5h-31z" />
<glyph unicode="&#xe4a;" d="M-215 1137l10 59q9 51 47.5 79t87.5 28h7l75 -62l94 62h9q49 0 79 -28t21 -79l-2 -12h86l-8 -47h-135l8 51q5 32 -7.5 50.5t-43.5 18.5h-9l-102 -69l-80 69h-6q-31 0 -50.5 -18.5t-25.5 -50.5v-4h74l-8 -47h-121z" />
<glyph unicode="&#xe4b;" d="M-70 1214l7 39h77l15 78h53l-14 -78h77l-6 -39h-78l-14 -77h-53l14 77h-78z" />
<glyph unicode="&#xe4c;" d="M-111 1073l5 23q9 52 41.5 75t74.5 23h105l-9 -49h-79q-32 0 -52 -14.5t-26 -40.5l-4 -17h-56z" />
<glyph unicode="&#xe4d;" d="M-90 1008q6 37 34.5 61.5t65.5 24.5t57.5 -24.5t14.5 -61.5q-6 -38 -35.5 -62t-66.5 -24q-38 0 -57 24t-13 62zM-53 1008q-5 -20 8 -35t33 -15t36 15t21 35q3 20 -9 34.5t-32 14.5t-37 -14.5t-20 -34.5z" />
<glyph unicode="&#xe4e;" d="M-383 1010q2 18 11 34.5t22 30.5t29 25.5t32 19.5q29 14 62.5 23.5t58.5 11.5l2 6q-56 23 -47 86q3 17 15 35t30 34.5t41 31t49 24.5q31 12 68.5 19t72.5 10.5t64.5 4t44.5 -0.5l-8 -47q-45 4 -98.5 -1t-100.5 -19t-81 -37.5t-40 -55.5q-4 -21 6 -35t27 -21.5t37.5 -10.5 t38.5 -2l-8 -46q-39 1 -86 -6t-88.5 -22.5t-69.5 -39t-29 -54.5q-1 -11 5 -19t16 -13.5t22.5 -8t24.5 -2.5q32 0 64 9t49 17l16 -39q-11 -5 -28 -11.5t-38.5 -11.5t-46.5 -7.5t-51 0.5q-46 6 -69.5 31t-18.5 57z" />
<glyph unicode="&#xe4f;" horiz-adv-x="963" d="M51 410q15 87 61.5 163t113.5 133t149.5 90t169.5 33t157.5 -33t117.5 -90t66.5 -133t4.5 -163t-61.5 -163.5t-113.5 -133.5t-149.5 -90t-169.5 -33t-157.5 33t-117.5 90t-66.5 133.5t-4.5 163.5zM113 410q-13 -74 3.5 -139.5t57 -114t100.5 -77t134 -28.5 q73 0 143.5 28.5t128 77t97 114t52.5 139.5q13 73 -3.5 138.5t-56.5 114t-100.5 77t-133.5 28.5q-74 0 -144.5 -28.5t-128 -77t-97 -114t-52.5 -138.5zM215 410q9 53 37.5 99.5t69.5 81.5t91 55t103 20t96 -20t71.5 -55t40.5 -81.5t3 -99.5t-37.5 -100t-69.5 -81.5 t-91 -54.5t-103 -20t-96 20t-71.5 54.5t-40.5 81.5t-3 100z" />
<glyph unicode="&#xe50;" horiz-adv-x="713" d="M12 307q12 66 47.5 124t86 101.5t112.5 69t127 25.5t118 -25.5t88.5 -69t49.5 -101.5t2 -124t-47 -124t-85 -101.5t-112 -68.5t-127 -25t-118 25t-88.5 68.5t-50 101.5t-3.5 124zM59 307q-9 -56 3.5 -105t42 -86t74 -58t100.5 -21q55 0 107.5 21t95 58t72 86t38.5 105 q10 56 -2 105.5t-41.5 86t-74 58t-99.5 21.5q-56 0 -108.5 -21.5t-95 -58t-72.5 -86t-40 -105.5z" />
<glyph unicode="&#xe51;" horiz-adv-x="762" d="M16 330q12 68 50.5 123t91.5 93.5t116.5 59.5t126.5 21q72 0 131.5 -21.5t100 -62t57.5 -99t4 -131.5q-15 -81 -62 -149.5t-111 -120t-138 -84.5t-141 -43l-17 47q64 9 132.5 38t127.5 75t101.5 106t54.5 131q11 59 -3.5 108t-48.5 84t-84 54t-110 19q-55 0 -109.5 -18.5 t-99.5 -51.5t-76 -78.5t-40 -99.5q-7 -38 0 -72.5t25.5 -61t48.5 -42t69 -15.5q9 0 26.5 1.5t45.5 9.5q-47 17 -65.5 49.5t-10.5 74.5q4 27 18.5 51t35 42t45.5 28.5t52 10.5t49 -10.5t36 -28.5t20 -42t2 -51q-8 -41 -32.5 -75.5t-60 -60t-79.5 -40t-92 -14.5 q-51 0 -90 19.5t-63 53t-33 78t-1 95.5zM256 274q-6 -34 14 -57.5t54 -23.5t62 23.5t34 57.5t-14 58t-54 24t-62 -24t-34 -58z" />
<glyph unicode="&#xe52;" horiz-adv-x="1053" d="M41 103.5q-6 31.5 0 68.5l90 518q9 51 -15 75t-67 28l31 45q26 -3 48.5 -12.5t37.5 -25.5t21.5 -38.5t0.5 -52.5l-92 -525q-5 -26 -2 -50.5t14 -43t30.5 -30t47.5 -11.5h553q28 0 52 11.5t42 30t29.5 43t16.5 50.5l45 252q12 66 -17.5 101.5t-95.5 35.5q-24 0 -48.5 -8.5 t-45.5 -24t-36 -36.5t-19 -45l-54 -303h-53l55 305q5 27 -4.5 47.5t-28 35t-44 22t-52.5 7.5q-32 0 -63 -8.5t-56 -26t-42.5 -43.5t-22.5 -61l-12 -78q12 10 29 15.5t34 5.5q25 0 45 -9t33 -25t18 -37t0 -46q-4 -24 -16 -45t-30.5 -36.5t-41 -24.5t-47.5 -9q-24 0 -43.5 9 t-32.5 24.5t-19 36.5t-1 45l31 174q8 47 32 82.5t58 59t75 35.5t83 12q65 0 101 -22t60 -60q31 37 73.5 59.5t100.5 22.5q82 0 123 -46t27 -131l-47 -274q-6 -37 -23.5 -68.5t-43 -54.5t-58 -36t-68.5 -13h-565q-36 0 -63 13t-44.5 36t-23.5 54.5zM260 260q-6 -29 11 -49.5 t44 -20.5q29 0 52.5 20.5t29.5 49.5q5 28 -11.5 49t-45.5 21q-28 0 -51.5 -21t-28.5 -49z" />
<glyph unicode="&#xe53;" horiz-adv-x="915" d="M10 119l53 299q9 51 35 89.5t62 64t79 38.5t85 13q68 0 111 -29.5t57 -71.5q13 20 33.5 38t45.5 32t52.5 22.5t56.5 8.5q40 0 73 -13t54 -37.5t29.5 -60t1.5 -80.5l-76 -432h-53l73 422q7 38 1 66.5t-22 47t-39.5 28t-51.5 9.5q-29 0 -57.5 -9.5t-51.5 -26.5t-39 -41 t-20 -52l-78 -444h-53l80 449q5 32 -5.5 55.5t-31 38.5t-47.5 22.5t-54 7.5q-37 0 -70 -11t-59 -31t-43.5 -48.5t-23.5 -62.5l-33 -193q15 10 36.5 15.5t41.5 5.5q27 0 48.5 -10t36 -27.5t20.5 -41t1 -50.5q-5 -28 -19 -51.5t-34.5 -41t-45.5 -27t-52 -9.5t-49 9.5t-36 27 t-20.5 41t-1.5 51.5zM57 119q-6 -35 14 -59.5t54 -24.5q17 0 33 6.5t29 18t22 26.5t12 33q6 34 -13.5 58t-53.5 24t-62 -24t-35 -58z" />
<glyph unicode="&#xe54;" horiz-adv-x="823" d="M12 299q11 71 46 130.5t86 102.5t114 67t129 24q44 0 73 -1.5t53 -3t47.5 -3t57.5 -1.5q39 0 75.5 24.5t67 61.5t51.5 80t28 80h53q-9 -51 -35 -104.5t-64.5 -96.5t-86.5 -70.5t-99 -27.5q-32 0 -57 1t-50 2.5t-54.5 3t-69.5 1.5q-56 0 -108 -19.5t-94 -55t-71 -85 t-38 -110.5q-10 -63 4 -111.5t44 -81.5t72.5 -50t89.5 -17q37 0 66.5 5t54.5 11t47 11t43 4l2 2q-21 6 -47 22t-47 40.5t-32.5 57.5t-4.5 74q6 29 21 54t36 43.5t46.5 29t52.5 10.5t48.5 -10t35.5 -27.5t19.5 -41.5t0.5 -52q-5 -25 -18 -48t-32.5 -40.5t-44 -28.5t-50.5 -12 q8 -11 26.5 -21.5t40.5 -19.5t43 -15.5t35 -8.5q28 -6 62.5 -14.5t54.5 -28.5l-41 -43q-19 12 -41.5 19.5t-44 11.5t-40.5 5t-31 1q-31 0 -59.5 -6t-60.5 -13.5t-70 -13.5t-87 -6q-57 0 -107 19.5t-85.5 58t-51.5 96.5t-4 135zM408 272q-5 -34 14 -58t53 -24q17 0 33 6.5 t29.5 17.5t22.5 26t11 32q7 34 -12 59t-53 25q-17 0 -33 -7t-29.5 -18.5t-23 -26.5t-12.5 -32z" />
<glyph unicode="&#xe55;" horiz-adv-x="823" d="M12 299q11 67 42.5 124t78 99.5t104 68t119.5 30.5q-9 11 -16 31t-2 46q4 28 18.5 52t36 41.5t49 27.5t58.5 10q62 0 94.5 -37t21.5 -94q-5 -29 -19.5 -49t-31.5 -33q13 -2 25.5 -2h27.5q39 0 75.5 24.5t67 61.5t51.5 80t28 80h53q-9 -51 -35 -104.5t-64.5 -96.5 t-86.5 -70.5t-99 -27.5q-32 0 -57 1t-50 2.5t-54.5 3t-69.5 1.5q-56 0 -108 -19.5t-94 -55t-71 -85t-38 -110.5q-10 -63 4 -111.5t44 -81.5t72.5 -50t89.5 -17q37 0 66.5 5t54.5 11t47 11t43 4l2 2q-21 6 -47 22t-47 40.5t-32.5 57.5t-4.5 74q6 29 21 54t36 43.5t46.5 29 t52.5 10.5t48.5 -10t35.5 -27.5t19.5 -41.5t0.5 -52q-5 -25 -18 -48t-32.5 -40.5t-44 -28.5t-50.5 -12q8 -11 26.5 -21.5t40.5 -19.5t43 -15.5t35 -8.5q28 -6 62.5 -14.5t54.5 -28.5l-41 -43q-19 12 -41.5 19.5t-44 11.5t-40.5 5t-31 1q-31 0 -59.5 -6t-60.5 -13.5 t-70 -13.5t-87 -6q-57 0 -107 19.5t-85 58t-51 96.5t-5 135zM391 698q-6 -34 15.5 -57t56.5 -23q18 0 34.5 6t30 17t23 25.5t12.5 31.5q6 34 -15 58t-56 24q-18 0 -35 -6.5t-30.5 -17.5t-23 -26t-12.5 -32zM408 272q-5 -34 14 -58t53 -24q17 0 33 6.5t29.5 17.5t22.5 26 t11 32q7 34 -12 59t-53 25q-17 0 -33 -7t-29.5 -18.5t-23 -26.5t-12.5 -32z" />
<glyph unicode="&#xe56;" horiz-adv-x="770" d="M-25 809l50 33q34 -34 59 -74t41 -82t22.5 -83.5t4.5 -78.5q23 22 54 40.5t66.5 32t74.5 21t77 7.5q69 0 125.5 -23t94.5 -64t54 -99t4 -128q-13 -71 -51 -131t-92.5 -103t-122.5 -67t-141 -24q-69 0 -122.5 20.5t-88.5 54t-50 76.5t-7 88q5 29 20 53.5t36 42t46.5 27.5 t52.5 10t49 -10t36 -27.5t20 -41.5t2 -52q-10 -51 -51.5 -86.5t-100.5 -40.5q31 -32 74 -46.5t92 -14.5q61 0 118.5 20t104.5 56t79.5 86t43.5 110q10 57 -4.5 104.5t-47 81.5t-80 53t-103.5 19q-47 0 -88.5 -10.5t-75 -27.5t-59 -37.5t-39.5 -40.5h-52q1 54 -7.5 105 t-25.5 96t-40.5 84t-51.5 71zM78 227q-6 -34 13.5 -58t53.5 -24t62 24t35 58q6 35 -14 59.5t-54 24.5q-17 0 -33 -6.5t-29 -18t-22 -26.5t-12 -33z" />
<glyph unicode="&#xe57;" horiz-adv-x="1122" d="M10 119l53 299q9 51 35 89.5t62 64t79 38.5t85 13q68 0 111 -29.5t57 -71.5q13 20 33.5 38t45.5 32t52.5 22.5t56.5 8.5q40 0 73 -13t54 -37.5t29.5 -60t1.5 -80.5l-66 -379q29 6 63 28t66 58.5t59.5 88t43.5 116.5q12 48 15.5 87.5t5.5 76.5t7.5 75.5t20.5 84.5 q11 33 28 61t35.5 50t36.5 38.5t33 26.5l35 -33q-15 -10 -31 -25t-32 -34.5t-29.5 -43t-22.5 -49.5q-15 -44 -20.5 -81.5t-8 -74.5t-6 -75t-14.5 -82q-19 -72 -50 -131t-70 -103t-84 -72.5t-93 -39.5h-51l73 422q7 38 1 66.5t-22 47t-39.5 28t-51.5 9.5q-29 0 -57.5 -9.5 t-51.5 -26.5t-39 -41t-20 -52l-78 -444h-53l80 449q5 32 -5.5 55.5t-31 38.5t-47.5 22.5t-54 7.5q-37 0 -70 -11t-59 -31t-43.5 -48.5t-23.5 -62.5l-33 -193q15 10 36.5 15.5t41.5 5.5q27 0 48.5 -10t36 -27.5t20.5 -41t1 -50.5q-5 -28 -19 -51.5t-34.5 -41t-45.5 -27 t-52 -9.5t-49 9.5t-36 27t-20.5 41t-1.5 51.5zM57 119q-6 -35 14 -59.5t54 -24.5q17 0 33 6.5t29 18t22 26.5t12 33q6 34 -13.5 58t-53.5 24t-62 -24t-35 -58z" />
<glyph unicode="&#xe58;" horiz-adv-x="840" d="M13 199q-9 56 3 125q12 70 45.5 126t83.5 94t113.5 58.5t136.5 20.5q28 0 59 -5t64 -11.5t65.5 -11.5t63.5 -5q39 0 72.5 25t59.5 62.5t45 82.5t30 84h53q-12 -45 -35.5 -99t-57 -100t-76.5 -77t-95 -31q-38 0 -67.5 5t-59 11t-61 11t-72.5 5q-60 0 -113 -17t-94 -48.5 t-68.5 -77t-37.5 -102.5q-10 -55 -2 -101t27.5 -81t46.5 -57.5t55 -31.5l145 164q23 -49 50 -87q23 -33 53 -60t63 -27q17 0 37.5 11t39 26t33.5 30t21 23q-24 -4 -47.5 2t-40.5 21t-25.5 38.5t-3.5 55.5q5 24 18 45t31 37t40 25.5t46 9.5t44 -8.5t34 -24.5t19.5 -37.5 t1.5 -48.5q-9 -46 -39 -92.5t-69.5 -83.5t-82.5 -60.5t-78 -23.5q-32 0 -62 22t-53 48q-27 31 -50 71l-119 -141q-50 15 -90 43t-65.5 70t-34.5 98zM569 250q-6 -28 11 -48t45 -20t50.5 20t29.5 48q5 28 -12.5 47.5t-45.5 19.5t-50.5 -19.5t-27.5 -47.5z" />
<glyph unicode="&#xe59;" horiz-adv-x="934" d="M9.5 192.5q-6.5 58.5 4.5 120.5q12 67 46 124.5t82.5 99.5t108.5 66t124 24q75 0 131 -31.5t94 -85.5q20 49 59.5 82t92.5 35q30 1 51.5 -6.5t36.5 -18.5t24 -25t13 -26q18 24 35.5 58.5t31 73.5t22.5 81.5t11 83.5h53q-2 -56 -17 -112.5t-37.5 -107.5t-49.5 -93t-52 -70 l-36 16q1 13 -3 29t-15 30t-28.5 23.5t-41.5 9.5q-26 0 -46.5 -11.5t-35 -29.5t-23.5 -40t-12 -43q21 -47 35 -101.5t21 -112.5t8 -117t-3 -114l-53 -8q3 62 1.5 129.5t-11.5 131.5t-29 121.5t-50.5 100.5t-77.5 68.5t-109 25.5q-53 0 -103 -20t-90 -56t-68 -84.5 t-38 -105.5q-10 -60 0 -109.5t34 -85.5t59.5 -55.5t76.5 -19.5q-57 37 -43 113q4 27 18.5 50.5t34.5 41t45.5 27.5t52.5 10t49 -10t36 -27.5t20 -41t2 -50.5q-7 -38 -29 -68t-52.5 -51t-66 -32t-70.5 -11q-71 0 -117.5 27.5t-73 73t-33 104zM240 150q-7 -35 13 -59.5 t54 -24.5t62 24.5t34 59.5q7 34 -13 57.5t-54 23.5t-62 -23.5t-34 -57.5z" />
<glyph unicode="&#xe5a;" horiz-adv-x="815" d="M78 670q10 54 46.5 88.5t83 51t94 17t79.5 -13.5l-8 -51q-24 16 -63 18.5t-77.5 -9t-68.5 -37.5t-37 -66q-5 -30 3.5 -53.5t27 -39t45 -24t57.5 -8.5q73 0 130.5 23t101.5 61.5t74.5 88t49.5 103.5h58l-146 -819h-51l127 717q-13 -37 -43 -76t-75 -71.5t-103.5 -53 t-128.5 -20.5q-35 0 -70 10t-61 31.5t-39.5 54.5t-5.5 78zM610 0l146 819h51l-145 -819h-52z" />
<glyph unicode="&#xe5b;" horiz-adv-x="1393" d="M47.5 277.5q-7.5 61.5 5.5 136.5q12 70 40 132t67 107.5t86 72t98 26.5q41 0 73 -18.5t52 -51t27 -76t-2 -94.5q-7 -38 -20.5 -70.5t-32.5 -56t-42.5 -36.5t-50.5 -13q-21 0 -37.5 9t-27 24.5t-14.5 36.5t1 45q4 23 15.5 44t27.5 37t35 25.5t39 9.5q17 0 29.5 -3.5 t21.5 -12.5q2 35 -4.5 63.5t-20 48.5t-33 31t-42.5 11q-36 0 -72.5 -21t-69 -60t-57.5 -94.5t-37 -123.5q-11 -67 -3.5 -119.5t30 -88.5t58.5 -54.5t81 -18.5q52 0 105 27t100.5 78t87.5 123.5t68 164.5q11 35 17.5 50.5t25.5 15.5q15 0 25 -21.5t17 -55.5t10 -76.5t3 -84.5 l8 -2q16 35 26.5 73.5t19.5 71t19 53.5t25 21q12 0 22.5 -17.5t19 -46t14 -65t6.5 -74.5h8q7 20 14.5 48.5t15.5 54t17 43.5t19 18q13 0 22.5 -12t17.5 -34t15.5 -53t15.5 -69q12 21 20 45t16.5 45t17.5 34.5t22 13.5q11 0 18.5 -10.5t13 -27t10 -35.5t9.5 -36 q16 34 26 54.5t32 17.5l108 -15q9 -2 20 -2t9 -6q0 -6 -11 -7t-22 -3l-123 -10q-5 -9 -10.5 -20t-11 -20.5t-12 -15.5t-13.5 -6q-9 0 -15 13.5t-10.5 32.5t-9 39.5t-10.5 33.5q-6 -13 -14.5 -37t-19 -47.5t-22.5 -41t-24 -17.5q-11 0 -18 17.5t-13 42t-12.5 51t-15.5 44.5 q-9 -21 -19 -51t-20.5 -58.5t-22 -48.5t-24.5 -20q-14 0 -20.5 22.5t-11 54.5t-9.5 66.5t-17 57.5q-9 -32 -22 -71.5t-28 -74t-31.5 -58t-32.5 -23.5q-11 0 -13 8.5t-2 23.5q-1 19 -1.5 46t-3 57t-7 59t-12.5 53l-4 -18q-10 -45 -30 -90.5t-45.5 -87.5t-53.5 -78.5 t-54 -61.5q-57 -52 -116.5 -81t-118.5 -29q-56 0 -98.5 24t-68.5 68t-33.5 105.5zM311 453q-2 -15 0.5 -27.5t9 -22t15 -15t18.5 -5.5q23 0 44 20.5t26 49.5t-8.5 49t-36.5 20q-10 0 -21 -5.5t-21 -14.5t-17 -21.5t-9 -27.5z" />
<glyph unicode="&#x2000;" horiz-adv-x="799" />
<glyph unicode="&#x2001;" horiz-adv-x="1599" />
<glyph unicode="&#x2002;" horiz-adv-x="799" />
<glyph unicode="&#x2003;" horiz-adv-x="1599" />
<glyph unicode="&#x2004;" horiz-adv-x="533" />
<glyph unicode="&#x2005;" horiz-adv-x="399" />
<glyph unicode="&#x2006;" horiz-adv-x="266" />
<glyph unicode="&#x2007;" horiz-adv-x="266" />
<glyph unicode="&#x2008;" horiz-adv-x="199" />
<glyph unicode="&#x2009;" horiz-adv-x="319" />
<glyph unicode="&#x200a;" horiz-adv-x="88" />
<glyph unicode="&#x200c;" />
<glyph unicode="&#x200d;" />
<glyph unicode="&#x2010;" horiz-adv-x="475" d="M72 342l10 51h289l-11 -51h-288z" />
<glyph unicode="&#x2011;" horiz-adv-x="475" d="M72 342l10 51h289l-11 -51h-288z" />
<glyph unicode="&#x2012;" horiz-adv-x="475" d="M72 342l10 51h289l-11 -51h-288z" />
<glyph unicode="&#x2013;" horiz-adv-x="748" d="M35 315l10 52h625l-11 -52h-624z" />
<glyph unicode="&#x2014;" horiz-adv-x="1495" d="M35 315l10 52h1372l-10 -52h-1372z" />
<glyph unicode="&#x2018;" horiz-adv-x="322" d="M150 846q4 21 14.5 45.5t28 49.5t43 48t59.5 41l29 -22q-21 -12 -40.5 -28.5t-35.5 -34.5t-26.5 -35.5t-14.5 -30.5q18 8 24 8h17q25 0 42 -19t13 -47q-6 -29 -30.5 -50t-53.5 -21q-42 0 -59.5 27t-9.5 69z" />
<glyph unicode="&#x2019;" horiz-adv-x="322" d="M147 772q21 12 41 28.5t36 34.5t27 35.5t15 30.5q-18 -8 -25 -8h-18q-25 0 -41.5 19t-11.5 46q6 29 30.5 50.5t53.5 21.5q42 0 59 -27t9 -69q-4 -21 -14.5 -45.5t-28.5 -49.5t-43 -48t-58 -41z" />
<glyph unicode="&#x201c;" horiz-adv-x="549" d="M150 846q4 21 14.5 45.5t28 49.5t43 48t59.5 41l29 -22q-21 -12 -40.5 -28.5t-35.5 -34.5t-26.5 -35.5t-14.5 -30.5q18 8 24 8h17q25 0 42 -19t13 -47q-6 -29 -30.5 -50t-53.5 -21q-42 0 -59.5 27t-9.5 69zM377 846q4 21 14.5 45.5t28 49.5t43 48t59.5 41l29 -22 q-21 -12 -40.5 -28.5t-35 -34.5t-26.5 -35.5t-15 -30.5q9 4 15 5.5t10 2t7.5 0.5h8.5q25 0 42.5 -19t12.5 -47q-6 -29 -30.5 -50t-53.5 -21q-42 0 -59.5 27t-9.5 69z" />
<glyph unicode="&#x201d;" horiz-adv-x="549" d="M147 772q21 12 41 28.5t36 34.5t27 35.5t15 30.5q-18 -8 -25 -8h-18q-25 0 -41.5 19t-11.5 46q6 29 30.5 50.5t53.5 21.5q42 0 59 -27t9 -69q-4 -21 -14.5 -45.5t-28.5 -49.5t-43 -48t-58 -41zM375 772q21 12 40.5 28.5t35.5 34.5t27.5 35.5t15.5 30.5q-19 -8 -25.5 -8 h-17.5q-12 0 -23 5t-18.5 14t-11 20.5t-1.5 25.5q7 29 31 50.5t53 21.5q42 0 59 -27t9 -69q-4 -21 -14.5 -45.5t-28 -49.5t-42.5 -48t-58 -41z" />
<glyph unicode="&#x2022;" horiz-adv-x="737" d="M51 410q12 64 46 120t83.5 97.5t109.5 65.5t124 24t115.5 -24t85.5 -65.5t48 -97.5t3 -120t-45 -120t-83 -98t-109 -66t-124 -24t-115.5 24t-86 66t-49 98t-3.5 120z" />
<glyph unicode="&#x2026;" horiz-adv-x="866" d="M8 51q5 26 26.5 45t47.5 19t41 -19t10 -45t-26.5 -43.5t-47.5 -17.5t-41 17.5t-10 43.5zM297 51q5 26 26.5 45t47.5 19t41 -19t10 -45t-26.5 -43.5t-47.5 -17.5t-41 17.5t-10 43.5zM586 51q5 26 26 45t47 19t41.5 -19t10.5 -45t-26.5 -43.5t-47.5 -17.5t-41 17.5 t-10 43.5z" />
<glyph unicode="&#x202f;" horiz-adv-x="319" />
<glyph unicode="&#x205f;" horiz-adv-x="399" />
<glyph unicode="&#x25fc;" horiz-adv-x="695" d="M0 0v695h695v-695h-695z" />
<glyph unicode="&#xf700;" horiz-adv-x="680" d="M27 614q11 45 42 85t77 70t104.5 47.5t124.5 17.5q86 0 145 -33q17 11 34.5 32.5t25.5 47.5h59q-4 -17 -13 -33t-20.5 -30t-23.5 -25.5t-21 -18.5q56 -45 77 -121t1 -184q-21 -122 -67 -212.5t-108.5 -150t-138.5 -87t-157 -23.5l-37 502l-22 34h73l35 -487 q66 4 125.5 34t108 84t83.5 131t52 175q13 75 3.5 133.5t-38.5 99t-76 61.5t-108 21q-49 0 -95 -12t-84 -34t-66 -53.5t-42 -70.5h-53z" />
<glyph unicode="&#xf701;" d="M-711 922l11 49h563l-10 -49h-564z" />
<glyph unicode="&#xf702;" d="M-711 922l11 49h510l18 104h53l-28 -153h-564z" />
<glyph unicode="&#xf703;" d="M-711 922l11 49h458q-1 4 -2 9q-2 9 0 24q3 17 12.5 31.5t23.5 25.5t30.5 17.5t34.5 6.5q35 0 55 -23.5t14 -57.5q-2 -17 -11.5 -32t-23 -26t-30 -17.5t-33.5 -6.5h-539zM-203 1004q-3 -20 8 -33t29 -13q20 0 34 13t17 33q5 18 -6 30.5t-31 12.5q-18 0 -32 -12.5 t-19 -30.5z" />
<glyph unicode="&#xf704;" d="M-711 922l11 49h395l18 104h54l-19 -104h62l18 104h53l-28 -153h-564z" />
<glyph unicode="&#xf705;" d="M-246 922l29 153h53l-29 -153h-53z" />
<glyph unicode="&#xf706;" d="M-330 1012l11 51h32q93 0 78 -72l-2 -20h301l-10 -49h-354l8 47q3 20 -2.5 31.5t-28.5 11.5h-33z" />
<glyph unicode="&#xf707;" d="M-606 922l12 65q11 57 53.5 87t98.5 30h6l84 -70l106 70h8q28 0 50 -7.5t37 -22.5t21.5 -37t2.5 -50l-2 -16h219l-10 -49h-273l11 57q6 35 -8.5 55.5t-49.5 20.5h-8l-114 -76l-89 76h-6q-69 0 -86 -76v-8h82l-10 -49h-135z" />
<glyph unicode="&#xf708;" d="M-377 1020l8 45h99l16 98h53l-16 -98h98l-8 -45h-98l-19 -98h-53l18 98h-98z" />
<glyph unicode="&#xf709;" d="M-311 922l6 26q12 53 42.5 76t72.5 23h106l-8 -50h-80q-32 0 -52.5 -14.5t-25.5 -40.5l-4 -20h-57z" />
<glyph unicode="&#xf70a;" d="M-45 922l29 153h53l-29 -153h-53z" />
<glyph unicode="&#xf70b;" d="M-246 1012l10 51h33q93 0 78 -72l-2 -20h264l-10 -49h-317l8 47q3 20 -2.5 31.5t-28.5 11.5h-33z" />
<glyph unicode="&#xf70c;" d="M-514 922l12 65q6 28 20 50t34 37t45 22.5t53 7.5h6l84 -70l106 70h9q55 0 86 -30t24 -87l-2 -16h117l-10 -49h-170l10 57q6 35 -8 55.5t-49 20.5h-9l-114 -76l-88 76h-7q-69 0 -86 -76v-8h82l-10 -49h-135z" />
<glyph unicode="&#xf70d;" d="M-223 1020l8 45h98l17 98h53l-16 -98h98l-8 -45h-99l-18 -98h-53l18 98h-98z" />
<glyph unicode="&#xf70e;" d="M-125 922l6 26q13 53 43 76t72 23h106l-8 -50h-80q-32 0 -52 -14.5t-25 -40.5l-5 -20h-57z" />
<glyph unicode="&#xf70f;" horiz-adv-x="1237" d="M-10 0l82 461q4 21 15 36t23 27t22.5 22t12.5 21q2 8 -7.5 19.5t-21.5 21.5q-14 11 -32 23q14 46 48.5 83.5t82.5 64t105.5 41t117.5 14.5q61 0 115 -14t92 -44.5t56 -78.5t6 -115l-62 -349q-10 -57 1.5 -95t37 -60.5t62 -31.5t77.5 -9t81 9t73.5 31.5t58.5 60.5t35 95 l105 586h53l-107 -602q-12 -68 -45 -112t-76.5 -70t-92.5 -36.5t-93 -10.5q-43 0 -88 10.5t-79.5 36.5t-52 70t-5.5 112l61 350q10 58 -2 99t-42 67t-76 38.5t-103 12.5q-59 0 -108 -13t-86 -33.5t-61 -45.5t-32 -49q17 -11 30 -24q11 -11 19.5 -25.5t6.5 -28.5 q-3 -11 -13.5 -22.5t-22.5 -24t-22.5 -26.5t-13.5 -31l-74 -412h148l-9 -49h-200z" />
<glyph unicode="&#xf710;" d="M-424 922l21 108h55l-10 -59h469l-11 -49h-524z" />
<glyph unicode="&#xf711;" d="M-242 1008q7 37 35.5 61.5t65.5 24.5t57.5 -24.5t13.5 -61.5q-6 -38 -35.5 -62t-66.5 -24t-56.5 24t-13.5 62zM-205 1008q-2 -10 0.5 -19t8 -16t14 -11t18.5 -4q20 0 36.5 15t21.5 35q3 20 -9 34.5t-32 14.5t-37.5 -14.5t-20.5 -34.5z" />
<glyph unicode="&#xf712;" d="M-633 1020q4 24 19.5 45.5t40.5 38.5t60 27t79 10h381l-8 -49h-369q-65 0 -103 -20t-45 -52q-4 -22 5 -36q4 -7 10 -13h102l185 71l161 -71l-10 -49l-160 73l-180 -73h-131q-17 12 -30 36t-7 62z" />
<glyph unicode="&#xf713;" d="M-162 1137l21 123h53l-21 -123h-53z" />
<glyph unicode="&#xf714;" d="M-322 1221l9 45h37q76 0 67 -58l-4 -24h238l-9 -47h-286l8 45q3 18 -3 28.5t-26 10.5h-31z" />
<glyph unicode="&#xf715;" d="M-385 1137l10 59q10 51 48 79t87 28h7l75 -62l95 62h8q49 0 79 -28t21 -79l-2 -12h86l-8 -47h-135l8 51q5 32 -7.5 50.5t-43.5 18.5h-9l-102 -69l-80 69h-6q-31 0 -50.5 -18.5t-25.5 -50.5v-4h74l-8 -47h-121z" />
<glyph unicode="&#xf716;" d="M-225 1214l6 39h78l14 78h53l-14 -78h78l-6 -39h-78l-15 -77h-53l15 77h-78z" />
<glyph unicode="&#xf717;" d="M-262 1073l4 23q9 52 42 75t75 23h104l-8 -49h-80q-32 0 -52 -14.5t-26 -40.5l-4 -17h-55z" />
<glyph unicode="&#xf718;" d="M-338 -397l8 49h115l-37 -215h-53l29 166h-62z" />
<glyph unicode="&#xf719;" d="M-567 -397l8 49h94l-18 -105q-8 -41 17 -57t69 -16q43 0 72.5 15.5t37.5 57.5l19 105h53l-18 -111q-10 -57 -55.5 -85.5t-117.5 -28.5t-106 28.5t-25 85.5l11 62h-41z" />
<glyph unicode="&#xf71a;" d="M-332 -401q5 21 23.5 37t40.5 16q21 0 34.5 -16t8.5 -37q-3 -22 -21.5 -38t-40.5 -16q-21 0 -34.5 16t-10.5 38z" />
<glyph unicode="&#xf71b;" />
<glyph unicode="&#xf71c;" />
<glyph unicode="&#xf71d;" />
<glyph unicode="&#xf880;" />
<glyph horiz-adv-x="379" d="M-242 1008q7 37 35.5 61.5t65.5 24.5t57.5 -24.5t13.5 -61.5q-6 -38 -35.5 -62t-66.5 -24t-56.5 24t-13.5 62zM-205 1008q-2 -10 0.5 -19t8 -16t14 -11t18.5 -4q20 0 36.5 15t21.5 35q3 20 -9 34.5t-32 14.5t-37.5 -14.5t-20.5 -34.5zM74 770l10 49q45 8 94.5 4t89 -23.5 t61 -56t11.5 -94.5l-115 -649h-53l111 629q8 47 -4.5 77t-41 46.5t-70.5 20t-93 -2.5z" />
<glyph d="M-424 1010q2 18 11 34.5t22 30.5t29 25.5t32 19.5q29 14 62.5 23.5t58.5 11.5l2 6q-56 23 -47 86q3 17 15 35t30 34.5t41 31t49 24.5q31 12 68.5 19t72.5 10.5t64.5 4t44.5 -0.5l-8 -47q-45 4 -98.5 -1t-100.5 -19t-81 -37.5t-40 -55.5q-4 -21 6 -35t27 -21.5t37.5 -10.5 t38.5 -2l-8 -46q-39 1 -86 -6t-88.5 -22.5t-69.5 -39t-29 -54.5q-1 -11 5 -19t16 -13.5t22.5 -8t24.5 -2.5q32 0 64 9t49 17l16 -39q-11 -5 -28 -11.5t-38.5 -11.5t-46.5 -7.5t-51 0.5q-46 6 -69.5 31t-18.5 57z" />
<glyph />
<glyph />
<glyph d="M-711 922l11 49h395l18 104h54l-19 -104h62l18 104h53l-28 -153h-564zM-219 1137l20 123h54l-21 -123h-53z" />
<glyph d="M-750 948l9 49h624l-8 -49h-625z" />
<glyph d="M-750 948l9 49h571l18 105h54l-27 -154h-625z" />
</font>
</defs>
</svg>
